<svg width="60" height="57" viewBox="0 0 60 57" fill="none" xmlns="http://www.w3.org/2000/svg">
<path d="M8.64994 44.6858L7.96341 45.5734L7.92908 45.6075C7.92908 45.6075 7.89475 45.6075 7.86043 45.5734L7.79178 45.4709C7.75745 45.4368 7.79178 45.4027 7.79178 45.3685L8.4783 44.481L9.47377 44.2761C9.5081 44.2761 9.54242 44.2761 9.57675 44.3103L9.6454 44.4127C9.67973 44.4468 9.6454 44.4468 9.6454 44.481H9.61107L8.64994 44.6858ZM7.62014 45.0272C7.58582 45.0272 7.55149 45.0272 7.51716 44.993L7.44851 44.8906C7.41418 44.8565 7.44851 44.8223 7.44851 44.7882L9.16483 43.73C9.19916 43.73 9.23348 43.7299 9.26781 43.7641L9.33646 43.8665C9.37079 43.9006 9.33646 43.9348 9.33646 43.9689L7.62014 45.0272ZM8.82157 43.252L8.85589 43.2179C8.85589 43.2179 8.89022 43.2179 8.92455 43.252L8.9932 43.3544C9.02753 43.3886 8.9932 43.4227 8.9932 43.4569L8.37532 44.242L7.24255 44.481C7.20823 44.481 7.1739 44.481 7.13957 44.4468L7.07092 44.3444C7.03659 44.3103 7.07092 44.3103 7.07092 44.2761H7.10525L8.20369 44.0713L8.82157 43.252Z" fill="#ECEAE1"/>
<path d="M9.78337 47.9288C9.74904 47.963 9.71471 47.963 9.68039 47.9288L9.61174 47.8606C9.57741 47.8264 9.57741 47.7923 9.61174 47.7581L10.4356 47.1095C10.6072 46.973 10.8818 46.7682 10.8818 46.7682L9.19982 47.2461C9.16549 47.2461 9.13117 47.2461 9.09684 47.212L9.02819 47.1095C8.99386 47.0754 8.99386 47.0413 9.02819 47.0071L10.6072 45.744C10.6415 45.7099 10.6759 45.7099 10.7102 45.744L10.7788 45.8123C10.8132 45.8465 10.8132 45.8806 10.7788 45.9147L9.955 46.5975C9.74904 46.7682 9.54308 46.9047 9.54308 46.9047L11.2251 46.4268C11.2594 46.4268 11.2937 46.4268 11.3281 46.4609L11.3967 46.5633C11.431 46.5975 11.431 46.6316 11.3967 46.6658L9.78337 47.9288Z" fill="#ECEAE1"/>
<path d="M11.7394 49.8747C11.705 49.9088 11.6707 49.9088 11.6364 49.8747L11.5677 49.8064C11.5334 49.7722 11.5334 49.7381 11.5677 49.704L12.8378 48.3726L12.4602 48.0313C12.4259 47.9971 12.4259 47.963 12.4602 47.9288L12.5289 47.8606C12.5632 47.8264 12.5975 47.8264 12.6319 47.8606L13.593 48.7481C13.6273 48.7823 13.6273 48.8164 13.593 48.8505L13.5243 48.9188C13.49 48.953 13.4557 48.953 13.4214 48.9188L13.0438 48.5433L11.7394 49.8747Z" fill="#ECEAE1"/>
<path d="M13.5248 51.3767L13.5934 51.3084C13.6277 51.2743 13.6621 51.2743 13.6964 51.3084C13.7651 51.3426 13.868 51.3426 14.0053 51.206C14.3829 50.7622 14.6575 50.4209 15.0008 49.9771C15.0351 49.9429 15.0695 49.9429 15.1038 49.9771L15.756 50.455C15.7903 50.4891 15.7903 50.5233 15.756 50.5574L14.5889 52.1619C14.5546 52.196 14.5202 52.196 14.4859 52.1619L14.3829 52.0936C14.3486 52.0595 14.3486 52.0253 14.3486 51.9912L15.4127 50.5233L15.0695 50.2502C14.7605 50.6257 14.3486 51.1377 14.1426 51.3767C13.971 51.5815 13.7307 51.6157 13.5248 51.4791C13.4904 51.445 13.4904 51.4108 13.5248 51.3767Z" fill="#ECEAE1"/>
<path d="M17.884 52.3325C17.9527 52.196 17.9184 51.9912 17.7467 51.8888C17.5408 51.7863 17.3691 51.8546 17.3005 51.9912L16.7856 52.9129C16.7169 53.0494 16.7513 53.2543 16.9229 53.3567C17.1289 53.4591 17.3005 53.3908 17.3691 53.2543L17.884 52.3325ZM17.6094 53.3908C17.4721 53.6298 17.1289 53.7663 16.8199 53.5956C16.4767 53.4249 16.408 53.0494 16.5453 52.8105L17.0602 51.8888C17.1975 51.6498 17.5064 51.5132 17.8497 51.6839C18.193 51.8546 18.2616 52.196 18.1243 52.4691L17.6094 53.3908Z" fill="#ECEAE1"/>
<path d="M20.1837 53.0494L19.9434 53.6639L20.218 53.7663C20.3553 53.8004 20.4926 53.7663 20.527 53.6298L20.5956 53.4591C20.6299 53.3225 20.5956 53.186 20.4583 53.1518L20.1837 53.0494ZM19.5658 54.5856L19.8404 54.688C19.9777 54.7563 20.1494 54.6539 20.1837 54.5515L20.2524 54.3466C20.2867 54.2442 20.2867 54.0735 20.0807 54.0053L19.8061 53.9029L19.5658 54.5856ZM20.527 52.947C20.8016 53.0494 20.9046 53.3225 20.8359 53.5615L20.7673 53.7322C20.6986 53.8687 20.5956 53.9711 20.4583 54.0053C20.527 54.1418 20.5613 54.2784 20.4926 54.4491L20.424 54.6539C20.321 54.927 20.0121 55.0294 19.7375 54.927L19.2912 54.7563C19.2569 54.7222 19.2226 54.688 19.2569 54.688L19.9777 52.8446C19.9777 52.8105 20.0121 52.8105 20.0807 52.8105L20.527 52.947Z" fill="#ECEAE1"/>
<path d="M23.4109 55.9511C23.4109 55.9853 23.3766 56.0194 23.3422 55.9853L23.2393 55.9511C23.2049 55.9511 23.1706 55.917 23.1706 55.8828L23.4109 54.8929C23.4795 54.688 23.5482 54.3808 23.5482 54.3808L22.4841 55.7463C22.4498 55.7804 22.4154 55.7804 22.3811 55.7804L22.2781 55.7463C22.2438 55.7463 22.2095 55.7122 22.2095 55.678L22.69 53.7663C22.69 53.7322 22.7244 53.6981 22.7587 53.7322L22.8617 53.7663C22.896 53.7663 22.9303 53.8005 22.9303 53.8346L22.6557 54.8587C22.5871 55.1318 22.5184 55.3367 22.5184 55.3367L23.5482 53.9712C23.5825 53.937 23.6169 53.937 23.6512 53.937L23.7542 53.9712C23.7885 53.9712 23.8228 54.0053 23.8228 54.0394L23.4109 55.9511Z" fill="#ECEAE1"/>
<path d="M26.0882 53.7663C26.1226 53.7663 26.1569 53.8004 26.1569 53.8346C26.1569 53.9028 26.1569 54.0053 26.2599 54.0053H26.3628C26.4658 54.0053 26.5002 53.937 26.5002 53.8687C26.5002 53.8346 26.5345 53.8346 26.5688 53.8346H26.7061C26.7404 53.8346 26.7404 53.8687 26.7404 53.9028C26.7061 54.0735 26.5688 54.2101 26.3285 54.1759H26.2599C26.0196 54.1418 25.9166 53.9711 25.9509 53.8004C25.9509 53.7663 25.9853 53.7663 25.9853 53.7663H26.0882ZM26.6031 56.4631C26.6031 56.4973 26.5688 56.5314 26.5345 56.5314H26.4315C26.3972 56.5314 26.3628 56.4973 26.3628 56.4631L26.5002 55.439C26.5345 55.2001 26.5688 54.8928 26.5688 54.8928L25.7106 56.3607C25.7106 56.3949 25.6763 56.429 25.6077 56.3949H25.5047C25.4704 56.3949 25.436 56.3607 25.436 56.3266L25.6763 54.3466C25.6763 54.3125 25.7106 54.2784 25.745 54.2784H25.848C25.8823 54.2784 25.9166 54.3125 25.9166 54.3466L25.7793 55.4049C25.745 55.678 25.7106 55.917 25.7106 55.917L26.5688 54.449C26.5688 54.4149 26.6031 54.3808 26.6718 54.4149H26.7748C26.8091 54.4149 26.8434 54.449 26.8434 54.4832L26.6031 56.4631Z" fill="#ECEAE1"/>
<path d="M32.2665 55.3025L33.0903 56.2583L33.1246 56.2925C33.1246 56.3266 33.1246 56.3266 33.0903 56.3266L32.9187 56.3608C32.8843 56.3608 32.85 56.3266 32.8157 56.3266L31.9918 55.3708L32.1292 56.3949C32.1292 56.429 32.1292 56.4632 32.0605 56.4632H31.9575C31.9232 56.4632 31.8889 56.429 31.8889 56.429L31.6143 54.4491C31.6143 54.4149 31.6143 54.3808 31.6829 54.3808H31.7859C31.8202 54.3808 31.8545 54.4149 31.8545 54.4149L31.9918 55.3366L32.5067 54.3466C32.5067 54.3125 32.5411 54.2784 32.5754 54.2784L32.747 54.2442C32.7814 54.2442 32.8157 54.2442 32.8157 54.2784V54.3125L32.2665 55.3025Z" fill="#ECEAE1"/>
<path d="M35.5277 54.176C35.4933 54.0394 35.3217 53.9029 35.1157 53.9712C34.9098 54.0394 34.8068 54.2101 34.8755 54.3467L35.1501 55.3708C35.1844 55.5415 35.356 55.6439 35.562 55.5756C35.7679 55.5073 35.8709 55.3366 35.8023 55.2001L35.5277 54.176ZM36.0769 55.1318C36.1455 55.4049 36.0082 55.7122 35.6306 55.8146C35.253 55.917 34.9784 55.7122 34.9098 55.4391L34.6352 54.4149C34.5665 54.1418 34.7038 53.8346 35.0814 53.7322C35.459 53.6298 35.7336 53.8346 35.8023 54.1077L36.0769 55.1318Z" fill="#ECEAE1"/>
<path d="M38.4454 53.8687C38.4454 53.9029 38.4454 53.937 38.4111 53.937L38.2738 53.9712C38.2395 54.0053 38.2051 53.9711 38.1708 53.937L37.6559 53.4249C37.6559 53.4249 37.7932 53.7322 37.9648 54.1418L38.2738 54.8587C38.2738 54.8929 38.2738 54.927 38.2395 54.927L38.1365 54.9611C38.1022 54.9611 38.0678 54.9611 38.0335 54.927L37.2783 53.0836C37.2783 53.0494 37.2783 53.0153 37.3126 53.0153L37.45 52.947C37.4843 52.947 37.5186 52.947 37.5529 52.9812L38.2051 53.6639L38.1708 52.7081C38.1708 52.6739 38.1708 52.6398 38.2051 52.6398L38.3424 52.5715C38.3768 52.5374 38.4111 52.5715 38.4454 52.6057L39.2006 54.4491C39.2006 54.4832 39.2006 54.5173 39.1663 54.5173L39.0633 54.5515C39.029 54.5515 38.9946 54.5515 38.9603 54.5173L38.6514 53.8005C38.4797 53.3567 38.3768 53.0836 38.3768 53.0836L38.4454 53.8687Z" fill="#ECEAE1"/>
<path d="M42.0845 53.0836C42.0845 53.1177 42.0845 53.1518 42.0502 53.186L41.9472 53.2542C41.9128 53.2884 41.8785 53.2542 41.8442 53.2201L40.9517 51.6498L40.3682 51.957L41.2606 53.5273C41.2606 53.5615 41.2607 53.5956 41.2263 53.6298L41.1233 53.698C41.089 53.7322 41.0547 53.698 41.0204 53.6639L40.0249 51.9229C40.0249 51.8888 40.0249 51.8546 40.0592 51.8205L40.9517 51.3084C40.986 51.2743 41.0204 51.3084 41.0547 51.3426L42.0845 53.0836Z" fill="#ECEAE1"/>
<path d="M43.6633 52.0594L43.5946 51.9912C43.5603 51.957 43.5946 51.9229 43.5946 51.8888C43.6633 51.8205 43.6976 51.7181 43.5946 51.5815C43.2857 51.1036 43.0111 50.7281 42.7021 50.2843C42.7021 50.2502 42.7021 50.216 42.7365 50.1819L43.3887 49.704C43.423 49.6698 43.4573 49.704 43.4917 49.7381L44.6931 51.3084C44.7274 51.3426 44.6931 51.3767 44.6588 51.4108L44.5558 51.4791C44.5214 51.5132 44.4871 51.5132 44.4528 51.4791L43.3544 50.0453L43.0111 50.3184C43.2857 50.7281 43.6633 51.2743 43.8349 51.5474C43.9722 51.7863 43.9379 51.9912 43.7319 52.1277C43.7319 52.1277 43.6976 52.1277 43.6633 52.0594Z" fill="#ECEAE1"/>
<path d="M46.4433 49.9429C46.409 49.9771 46.3747 49.9771 46.3404 49.9429L44.933 48.5092C44.8986 48.475 44.8986 48.4409 44.933 48.4067L45.5852 47.7923C45.6195 47.7581 45.6538 47.7581 45.6882 47.7923L45.7568 47.8605C45.7911 47.8947 45.7911 47.9288 45.7568 47.963L45.2419 48.475L45.6882 48.9529L46.1687 48.5092C46.2031 48.475 46.2374 48.475 46.2717 48.5092L46.3404 48.5774C46.3747 48.6116 46.3747 48.6457 46.3404 48.6798L45.8598 49.1236L46.409 49.6698L46.9582 49.1578C46.9926 49.1236 47.0269 49.1236 47.0612 49.1578L47.1299 49.226C47.1642 49.2602 47.1642 49.2943 47.1299 49.3284L46.4433 49.9429Z" fill="#ECEAE1"/>
<path d="M48.0572 46.6316L49.3272 46.7682C49.3616 46.7682 49.3616 46.7682 49.3616 46.7682C49.3616 46.7682 49.3616 46.8023 49.3616 46.8364L49.2586 46.973C49.2243 47.0071 49.1899 47.0071 49.1556 47.0071L47.9198 46.8706L48.7437 47.5192C48.778 47.5533 48.778 47.5875 48.7437 47.6216L48.675 47.724C48.6407 47.7581 48.6064 47.7581 48.572 47.724L46.993 46.4609C46.9587 46.4268 46.9587 46.3926 46.993 46.3585L47.0617 46.2561C47.096 46.222 47.1303 46.222 47.1647 46.2561L47.8855 46.8364L47.5766 45.7782C47.5766 45.744 47.5423 45.7099 47.5766 45.6758L47.6796 45.5392C47.7139 45.5051 47.7139 45.5051 47.7482 45.5392C47.7482 45.5392 47.7482 45.5734 47.7825 45.5734L48.0572 46.6316Z" fill="#ECEAE1"/>
<path d="M50.8722 44.7203C50.7005 44.9934 50.3573 45.0958 50.0826 44.9251L49.1558 44.3789C48.8812 44.2082 48.8126 43.8668 48.9842 43.5937C49.1902 43.2865 49.5677 43.2865 49.7051 43.3548C49.7394 43.3548 49.7394 43.423 49.7051 43.4572L49.6364 43.5596C49.6021 43.5937 49.5677 43.5937 49.5334 43.5937C49.4304 43.5596 49.2245 43.5596 49.1558 43.7303C49.0529 43.901 49.0872 44.0716 49.2588 44.1741L50.1856 44.7203C50.3229 44.8227 50.5289 44.7544 50.6319 44.6178C50.7348 44.4813 50.7005 44.2765 50.5289 44.1741C50.4946 44.1741 50.4946 44.1058 50.5289 44.0716L50.5975 43.9692C50.6319 43.9351 50.6662 43.9351 50.7005 43.9351C50.9408 44.1058 51.0438 44.4472 50.8722 44.7203Z" fill="#ECEAE1"/>
<path d="M59.0409 13.8597H46.958V14.4742H59.0409V13.8597Z" fill="#ECEAE1"/>
<path d="M58.0458 0H55.7803V14.4742H58.0458V0Z" fill="#ECEAE1"/>
<path d="M37.0727 0H34.8071V14.4742H37.0727V0Z" fill="#ECEAE1"/>
<path d="M45.5165 0H43.251V14.4742H45.5165V0Z" fill="#ECEAE1"/>
<path d="M43.8692 6.92987H36.3174V7.54434H43.8692V6.92987Z" fill="#ECEAE1"/>
<path d="M2.26554 0H0V14.4742H2.26554V0Z" fill="#ECEAE1"/>
<path d="M7.51748 0H0V0.614471H7.51748V0Z" fill="#ECEAE1"/>
<path d="M57.6339 0H49.8418V0.614471H57.6339V0Z" fill="#ECEAE1"/>
<path d="M12.0146 0H9.74902V14.4742H12.0146V0Z" fill="#ECEAE1"/>
<path d="M19.0507 4.71095C19.0507 1.91169 16.4763 0 13.7645 0H11.9795V0.614473C12.2541 0.614473 12.4944 0.614473 12.6317 0.614473C15.7897 0.614473 16.9225 2.52616 16.9225 4.8475C16.9225 7.16884 15.7897 9.04639 12.666 9.04639C12.5287 9.04639 12.2541 9.04639 12.0138 9.04639V9.66087H13.7988C16.5106 9.66087 19.0851 7.74918 19.0851 4.94991V4.71095H19.0507Z" fill="#ECEAE1"/>
<path d="M32.9878 14.4742H30.4133L24.3032 0H26.8777L32.9878 14.4742Z" fill="#ECEAE1"/>
<path d="M25.058 0L19.2912 14.4742H18.5703L24.3372 0H25.058Z" fill="#ECEAE1"/>
<path d="M29.5895 11.4019H19.8408L20.1498 10.7874H29.5895V11.4019Z" fill="#ECEAE1"/>
<path d="M53.7895 19.6972H51.5239V34.1715H53.7895V19.6972Z" fill="#ECEAE1"/>
<path d="M59.0071 19.6972H51.5239V20.3117H59.0071V19.6972Z" fill="#ECEAE1"/>
<path d="M59.0071 33.5911H51.5239V34.2056H59.0071V33.5911Z" fill="#ECEAE1"/>
<path d="M57.2566 26.6613H51.5928V27.2757H57.2566V26.6613Z" fill="#ECEAE1"/>
<path d="M58.2522 17.6149L53.7898 18.7755L53.6182 18.1611L58.0806 16.9662L58.2522 17.6149Z" fill="#ECEAE1"/>
<path d="M7.24316 19.6972H1.30469V20.3117H7.24316V19.6972Z" fill="#ECEAE1"/>
<path d="M2.26554 19.6972H0V34.1715H2.26554V19.6972Z" fill="#ECEAE1"/>
<path d="M9.33589 29.4605C9.33589 32.2598 6.76141 34.1715 4.04962 34.1715H2.26465V33.557C2.53926 33.557 2.77954 33.557 2.91685 33.557C6.07488 33.557 7.20765 31.6453 7.20765 29.324C7.20765 27.0026 6.04055 25.0909 2.91685 25.0909C2.77954 25.0909 2.53926 25.0909 2.26465 25.0909V24.4765H4.04962C6.76141 24.4765 9.33589 26.3882 9.33589 29.1874V29.4605V29.4605Z" fill="#ECEAE1"/>
<path d="M26.1904 28.7437C26.0874 28.7437 25.7784 28.7437 25.5038 28.7437V20.3117H26.1904C29.3484 20.3117 30.4812 22.2234 30.4812 24.5448C30.4812 26.8661 29.3141 28.7437 26.1904 28.7437ZM27.2888 19.6973H25.5038H24.1651H23.2383V34.1715H25.5038V29.3581H27.2888C30.0006 29.3581 32.5751 27.5147 32.5751 24.5106C32.5751 21.5748 30.0006 19.6973 27.2888 19.6973Z" fill="#ECEAE1"/>
<path d="M20.5609 19.6973C19.9773 21.1993 18.055 26.2175 16.9909 28.9143L12.7001 19.6973H10.4346L15.9611 31.4746C15.2403 33.1132 14.7254 33.5912 13.7642 33.5912C12.5285 33.5912 11.9793 32.5329 11.9793 31.816H11.2241C11.2241 33.0108 12.1852 34.3422 13.7642 34.3422C15.5492 34.3422 16.2014 32.9426 16.9909 30.9285C17.3342 30.075 20.8012 21.0286 21.316 19.6973H20.5609Z" fill="#ECEAE1"/>
<path d="M48.1934 14.4742V13.8598C51.523 13.8598 52.2439 2.90168 52.2439 0.204834H52.8617C52.8617 1.19482 52.7244 4.71096 52.1066 7.954C51.3171 12.2553 49.9783 14.4742 48.1934 14.4742Z" fill="#ECEAE1"/>
<path d="M42.0155 19.6972H39.75V34.1715H42.0155V19.6972Z" fill="#ECEAE1"/>
<path d="M31.8555 32.2598C31.8555 33.4205 32.7823 34.3422 33.9837 34.3422C37.9656 34.3422 37.2447 29.3581 39.2356 29.3581C40.1281 29.3581 40.1281 29.3581 40.5057 29.3581C40.5057 29.1874 40.5057 29.0509 40.5057 28.8802C39.9908 28.8802 39.8192 28.8802 38.961 28.8802C34.8419 28.8802 36.0433 33.557 33.7091 33.557C32.8509 33.557 32.3704 32.8401 32.3704 32.2256C32.0271 32.2598 32.0614 32.2598 31.8555 32.2598Z" fill="#ECEAE1"/>
<path d="M40.7799 29.4264C37.7935 29.4264 37.1413 26.7978 36.5921 24.4765C36.0429 22.2575 35.5623 20.3117 33.4341 20.3117V19.6972C36.0772 19.6972 36.6608 22.0527 37.21 24.3399C37.7592 26.6271 38.3084 28.8119 40.8143 28.8119V29.4264H40.7799Z" fill="#ECEAE1"/>
<path d="M49.9452 32.2598C49.9452 33.4205 49.0184 34.3422 47.8169 34.3422C43.8351 34.3422 44.5559 29.3581 42.565 29.3581C41.6725 29.3581 41.6725 29.3581 41.2949 29.3581C41.2949 29.1874 41.2949 29.0509 41.2949 28.8802C41.8098 28.8802 41.9815 28.8802 42.8396 28.8802C46.9588 28.8802 45.7574 33.557 48.0916 33.557C48.9497 33.557 49.4303 32.8401 49.4303 32.2256C49.7392 32.2598 49.7392 32.2598 49.9452 32.2598Z" fill="#ECEAE1"/>
<path d="M41.0205 29.4264V28.846C43.5263 28.846 44.0412 26.6613 44.6248 24.3741C45.174 22.0869 45.7576 19.7314 48.4007 19.7314V20.3459C46.2381 20.3459 45.7919 22.2917 45.2427 24.5106C44.6591 26.8319 44.0069 29.4264 41.0205 29.4264Z" fill="#ECEAE1"/>
</svg>
