<svg width="1326" height="199" viewBox="0 0 1326 199" fill="none" xmlns="http://www.w3.org/2000/svg">
<path fill-rule="evenodd" clip-rule="evenodd" d="M1416.31 408.147H1288.77C1279.1 408.147 1269.29 407.983 1259.41 407.818C1228.78 407.305 1197.54 406.782 1168.15 411.113C1146.92 414.308 1126.86 419.891 1106.82 425.471C1085.8 431.323 1064.79 437.171 1042.45 440.26C984.058 448.237 946.411 427.783 916.754 395.466C911.39 389.622 906.106 382.731 900.553 375.491C879.385 347.89 854.324 315.213 806.117 316.104C770.838 316.726 738.755 328.578 707.777 340.023C698.007 343.632 688.347 347.201 678.731 350.364C601.747 375.727 520.92 391.988 435.023 379.511C406.596 375.421 379.858 368.568 353.428 360.694C348.741 359.291 343.883 357.688 338.901 356.045C322.813 350.739 305.442 345.009 288.429 344.228C250.298 342.571 220.164 360.712 192.078 377.619C182.023 383.673 172.23 389.568 162.426 394.341C110.028 419.806 55.6311 420.01 4.46143 393.829C-2.54614 390.228 -10.1001 385.665 -18.0557 380.859C-51.4441 360.69 -91.9077 336.247 -128.764 360.694C-138.53 367.166 -146.993 374.159 -155.257 380.988C-177.42 399.301 -198.156 416.436 -238.786 419.192C-229.72 425.533 -226.646 428.806 -226.646 435.862C-186.87 430.924 -168.377 413.292 -148.832 394.655C-139.232 385.501 -129.379 376.106 -116.624 367.853C-85.7539 347.92 -43.1404 373.388 -9.69067 393.378C1.48193 400.056 11.6323 406.122 19.9812 409.681C75.146 433.101 141.375 428.397 188.703 398.022C196.417 393.094 203.714 387.353 211.096 381.547C233.124 364.219 255.902 346.301 292.732 347.603C309.228 348.16 325.538 353.544 340.866 358.604L340.869 358.605C345.244 360.05 349.539 361.467 353.736 362.739C382.932 371.534 412.435 380.227 443.475 385.75C524.455 400.375 617.113 396.693 690.41 368.159C700.955 364.063 711.455 358.635 722.173 353.095C745.972 340.793 770.846 327.935 799.664 327.865C841.073 327.788 865.496 358.946 885.887 384.96L885.888 384.961L885.889 384.962L885.89 384.963L885.89 384.964C892.512 393.41 898.708 401.315 904.922 407.431C937.345 439.339 979.909 461.839 1040.61 455.498C1064.26 453.018 1086.5 447.157 1108.73 441.3C1128.67 436.045 1148.6 430.792 1169.53 427.987C1198.55 424.078 1229.39 424.593 1259.52 425.096C1269.59 425.264 1279.57 425.431 1289.39 425.431H1417.69H1928.01H2602.74V407.943H1932H1416.31V408.147ZM1410.93 376.239H1286.62C1277.42 376.239 1267.99 376.045 1258.44 375.849C1228.77 375.239 1198.05 374.608 1170.14 379.716C1150.55 383.295 1132.92 389.84 1115.29 396.386C1097.65 402.931 1080.02 409.476 1060.43 413.056C1005.42 423.078 976.836 399.863 950.867 370.614C949.762 369.365 948.664 368.122 947.571 366.886C913.133 327.91 884.347 295.332 807.347 298.206C757.099 300.047 708.081 303.422 659.524 312.627C632.472 317.728 605.628 324.758 578.672 331.817C521.873 346.69 464.583 361.693 403.83 359.057C382.088 358.085 361.93 353.607 341.842 349.144C323.882 345.154 305.978 341.176 287.047 339.728C244.409 336.454 205.505 351.92 168.287 366.716C153.194 372.716 138.379 378.606 123.704 383.091C66.8484 400.374 30.5842 394.238 -16.5901 368.364C-64.5327 342.08 -105.407 322.444 -161.186 350.569C-166.4 353.205 -171.473 355.84 -176.462 358.431C-213.664 377.753 -246.187 394.645 -297.946 391.579C-293.767 393.325 -290.141 394.814 -286.778 396.194L-286.772 396.197L-286.686 396.232L-286.671 396.238C-278.459 399.61 -271.801 402.343 -262.449 406.613C-218.021 406.114 -192.749 389.089 -164.983 370.383L-164.98 370.381C-158.56 366.055 -152.006 361.64 -145.052 357.319C-99.1121 328.828 -59.2693 351.758 -21.0979 373.726C-14.3264 377.623 -7.60742 381.49 -0.916504 385.034C44.1064 408.863 89.1296 410.908 139.224 391.988C152.453 386.978 165.657 380.446 179.131 373.781C212.137 357.455 246.762 340.327 287.354 342.796C311.544 344.26 334.654 350.78 357.875 357.332C378.465 363.141 399.14 368.975 420.733 371.33C499.313 380.062 571.173 360.527 642.418 341.161L642.43 341.158L642.436 341.156C649.621 339.203 656.801 337.251 663.98 335.331C667.047 334.504 670.118 333.673 673.192 332.841C716.177 321.206 759.993 309.347 806.886 307.82C866.503 305.794 892.509 338.124 917.23 368.856C922.456 375.354 927.625 381.78 933.043 387.795C958.704 416.431 991.281 436.271 1043.83 429.112C1066.86 425.962 1088 419.325 1109.16 412.683C1128.53 406.605 1147.91 400.522 1168.76 397.102C1197.65 392.372 1228.76 392.933 1259.12 393.481C1268.8 393.656 1278.41 393.829 1287.85 393.829H1413.85H1930.93H2602.74V376.341H1929.85H1410.93V376.239ZM1291.54 344.33H1412.31H1931.69H2602.74V361.819H1928.93H1416.31H1285.7C1276.54 361.819 1267.06 361.586 1257.43 361.35C1228.74 360.646 1198.75 359.911 1172.29 365.194C1154.3 368.781 1138.88 375.499 1123.47 382.215C1109 388.518 1094.54 394.82 1077.95 398.534C1027.24 409.783 998.656 388.716 973.609 362.023C933.35 319.274 901.388 290.025 819.025 291.355C803.327 291.609 787.715 291.598 772.162 291.586C725.143 291.553 678.667 291.52 632.018 298.82C599.03 303.947 566.946 312.719 534.832 321.498C487.514 334.434 440.13 347.388 389.693 348.728C367.308 349.299 346.455 345.919 325.583 342.536C309.061 339.858 292.528 337.179 275.214 336.456C234.169 334.721 195.808 347.695 158.67 360.256C143.253 365.47 128.047 370.612 112.947 374.602C89.1294 380.943 60.8555 386.875 35.1938 382.58C16.0464 379.374 -1.30835 369.761 -17.1655 360.977C-21.542 358.553 -25.8044 356.192 -29.959 354.046C-51.7791 342.899 -76.5186 330.319 -104.946 328.581C-133.092 326.886 -155.25 337.149 -177.051 347.246C-178.935 348.119 -180.816 348.991 -182.699 349.853C-229.412 371.125 -268.443 385.954 -326.373 378.898C-338.666 372.762 -344.044 369.591 -349.884 363.046C-297.485 374.398 -256.303 370.103 -209.436 350.876C-202.588 348.065 -195.817 344.89 -188.982 341.684L-188.979 341.683C-170.202 332.878 -150.946 323.848 -128.303 321.524C-95.2654 318.149 -65.1475 328.888 -38.564 340.444C-32.1018 343.233 -25.7058 346.453 -19.24 349.707C-6.02612 356.359 7.47949 363.157 22.4399 366.728C46.7188 372.557 72.6875 368.364 96.5051 363.557C113.326 360.138 130.039 355.609 146.832 351.059C186.799 340.228 227.216 329.276 270.604 332.876C278.65 333.546 286.498 334.346 294.239 335.136C321.983 337.967 348.36 340.658 377.553 336.66C417.879 331.119 455.442 320.243 493.071 309.347C535.307 297.118 577.626 284.864 624.028 280.105C663.669 276.069 702.35 278.916 741.14 281.771C768.208 283.763 795.33 285.759 822.867 285.423C824.444 285.402 826.017 285.38 827.587 285.358L827.616 285.358C864.571 284.845 899.418 284.361 932.428 297.798C959.094 308.638 976.566 325.328 993.975 341.958C995.125 343.056 996.275 344.155 997.427 345.251C1023.24 369.693 1052.75 391.579 1101.15 378.284C1114.01 374.792 1124.63 369.063 1135.24 363.336C1147.31 356.818 1159.38 350.303 1174.75 347.092C1200.52 341.724 1231.34 342.715 1260.32 343.646C1271.1 343.992 1281.62 344.33 1291.54 344.33ZM-100.182 317.024C-76.5796 319.507 -56.8728 327.518 -37.2202 335.508C-19.6409 342.654 -2.10474 349.782 18.1375 352.921C56.7874 358.894 98.0767 350.002 137.873 341.432C158.042 337.089 177.828 332.828 196.693 330.626C218.513 328.069 239.719 329.399 260.77 330.728L262.737 330.848C280.675 331.937 298.634 333.027 317.164 331.547C357.579 328.332 395.781 315.901 433.351 303.675C454.348 296.842 475.148 290.073 496.027 285.014C541.511 273.969 590.376 265.685 639.24 266.196C667.36 266.484 694.566 270.166 721.823 273.855L721.825 273.856C733.294 275.408 744.772 276.961 756.331 278.264C781.425 281.11 806.734 281.479 831.656 281.842C888.23 282.667 942.812 283.462 988.361 313.138C996.239 318.273 1003.72 324.33 1011.29 330.462C1032.38 347.534 1054.19 365.193 1087.32 365.193C1092.08 365.193 1097 364.887 1102.07 364.069C1118.31 361.667 1129.4 354.791 1140.57 347.872C1149.38 342.414 1158.23 336.929 1169.68 333.592C1194.27 326.535 1228.23 327.66 1258.96 328.888C1261.32 328.97 1263.66 329.057 1265.97 329.143L1265.98 329.143L1265.98 329.143C1275.13 329.482 1283.91 329.808 1292 329.808H1441.97H1982.09H2602.74V312.422H1986.55H1439.97C1391.11 312.422 1342.24 312.524 1293.38 312.729C1283.07 312.729 1272.17 312.439 1260.98 312.14L1260.04 312.115C1229.61 311.195 1197.03 310.377 1170.6 316.411C1158.46 319.226 1149.64 324.671 1140.83 330.106C1132.35 335.334 1123.9 340.552 1112.52 343.41C1074.03 353.086 1044.19 334.574 1016.98 317.689C1009.96 313.337 1003.12 309.093 996.351 305.468C948.602 279.91 897.171 279.476 843.777 279.025C815.553 278.786 786.78 278.543 757.714 274.582C736.281 271.669 715.442 267.3 694.594 262.93C672.993 258.402 651.384 253.872 629.099 250.958C574.395 243.901 518.769 246.662 465.909 258.833C428.569 267.423 390.615 277.241 356.656 290.741C347.739 294.311 339.301 298.36 330.874 302.403C321.438 306.93 312.016 311.45 301.951 315.286C273.564 326.111 242.878 325.004 211.729 323.881L211.598 323.876C199.92 323.467 188.241 323.058 176.563 323.263C148.255 323.757 120.055 325.328 91.8406 326.899C61.7039 328.577 31.5513 330.256 1.23462 330.626C-26.1294 330.999 -48.4417 324.723 -71.291 318.296C-86.0364 314.148 -101.005 309.938 -117.7 307.411C-119.652 307.112 -122.151 306.604 -125.135 305.998L-125.139 305.997C-142.59 302.449 -176.609 295.534 -214.661 307.411C-259.223 321.32 -334.517 344.637 -378.311 327.763C-377.435 329.058 -376.776 330.063 -376.246 330.873L-376.233 330.893C-375.284 332.342 -374.748 333.161 -374.111 333.894C-373.281 334.848 -372.28 335.655 -369.977 337.512L-369.973 337.515C-367.087 339.842 -362.156 343.818 -352.957 351.796C-299.27 368.658 -251.74 346.434 -214.83 329.176C-204.728 324.452 -195.421 320.101 -187.002 317.024C-156.83 305.999 -134.037 310.619 -115.608 314.354C-110.104 315.47 -104.989 316.507 -100.182 317.024ZM1180.13 282.355C1258.81 279.9 1338.4 279.798 1417.23 279.798C1588.41 279.798 1759.59 279.798 1930.62 279.9H2602.74V297.388H1930.77H1417.39C1377.13 297.388 1336.71 297.695 1296.3 298.104C1284.46 298.23 1272.38 298.065 1260.22 297.899C1232.9 297.525 1205.16 297.146 1178.9 300.047C1161.26 301.993 1151.62 306.932 1140.53 312.614C1135.88 314.997 1130.98 317.511 1125.12 319.99C1089.93 334.921 1053.82 320.706 1024.01 306.899C965.772 280.002 916.293 273.559 845.301 276.014C789.275 277.931 741.275 264.333 692.543 250.528C665.894 242.979 639.026 235.367 610.505 230.197C524.762 214.754 420.118 233.06 350.816 269.775C341.518 274.686 332.681 280.161 323.862 285.625L323.858 285.628C296.681 302.467 269.677 319.199 229.884 318.967C198.309 318.769 166.879 316.649 135.436 314.529C101.997 312.273 68.5439 310.017 34.8867 310.07C21.45 310.119 7.90674 311.23 -5.5896 312.338C-20.1836 313.536 -34.7227 314.729 -49.0129 314.57C-66.6121 314.379 -81.9463 309.755 -97.7449 304.991C-98.9131 304.639 -100.084 304.286 -101.258 303.934C-130.761 295.036 -160.572 286.139 -193.763 290.638C-210.028 292.829 -225.499 297.699 -240.869 302.538C-249.895 305.379 -258.886 308.209 -267.982 310.479C-310.239 320.91 -344.352 322.649 -386.762 311.502C-391.847 307.232 -395.817 304.023 -399.827 300.781C-403.694 297.655 -407.599 294.499 -412.578 290.332C-366.172 297.286 -329.754 289.513 -286.114 279.389C-280.925 278.199 -275.636 276.882 -270.274 275.547L-270.271 275.546C-251.66 270.911 -232.176 266.059 -212.971 265.582C-187.252 264.908 -166.234 272.993 -145.093 281.125L-145.084 281.129C-140.587 282.859 -136.084 284.591 -131.53 286.241C-100.313 297.609 -73.9888 294.911 -45.1846 291.96C-28.8994 290.292 -11.8215 288.542 7.3811 289.207C38.3325 290.303 68.6094 295.255 98.8965 300.208C136.424 306.345 173.967 312.486 212.827 311.297C261.882 309.826 296.558 285.041 329.764 261.306C342.742 252.029 355.495 242.913 368.795 235.413C440.094 195.22 541.204 178.857 626.64 207.391C647.797 214.431 668.221 222.987 688.658 231.547L688.659 231.548C740.06 253.079 791.542 274.645 854.982 272.23C920.288 269.673 966.234 273.355 1025.09 291.457C1058.89 301.888 1088.39 307.104 1122.35 294.116C1142.79 286.343 1155.55 283.173 1180.13 282.355ZM-225.417 243.697C-203.972 245.91 -187.834 254.446 -171.636 263.013C-166.13 265.926 -160.617 268.842 -154.886 271.514C-126.118 284.885 -100.188 280.801 -72.1538 276.386C-54.5164 273.608 -36.0466 270.699 -15.5146 271.923C16.0657 273.826 45.9778 281.013 75.8518 288.191C115.023 297.602 154.13 306.998 196.847 304.445C253.778 301.014 295.126 268.188 333.525 237.704C348.916 225.485 363.833 213.643 379.09 204.22C414.893 182.028 456.229 168.221 503.864 161.471C556.57 154.006 594.678 165.46 636.782 186.221C650.877 193.176 665.148 201.019 679.74 209.038L679.741 209.039C734.667 239.224 794.14 271.909 865.892 269.162C923.669 266.912 966.694 267.935 1021.86 278.775C1057.66 285.832 1079.48 282.968 1112.37 272.435C1132.06 266.197 1150.08 266.592 1170.97 267.05C1173.72 267.11 1176.51 267.171 1179.36 267.219C1224.93 267.983 1270.5 267.058 1316.07 266.133L1316.07 266.133C1349.79 265.449 1383.51 264.764 1417.23 264.764C1531.33 264.696 1645.36 264.719 1759.41 264.742H1759.43H1759.44H1759.46C1816.5 264.753 1873.55 264.764 1930.62 264.764H2602.74V247.276H1926.16C1869.45 247.276 1812.76 247.265 1756.08 247.253H1756.06H1756.05H1756.03C1642.69 247.231 1529.38 247.208 1416 247.276C1385.11 247.316 1354.2 248.144 1323.28 248.972C1273.91 250.294 1224.53 251.617 1175.21 249.731C1167.71 249.437 1159.79 248.721 1151.71 247.991C1131.64 246.179 1110.57 244.275 1092.39 248.503C1082.8 250.759 1074.7 253.732 1066.87 256.6C1052 262.055 1038.14 267.134 1017.1 266.196C1007.32 265.802 997.689 264.79 988.062 263.779C977.713 262.692 967.369 261.605 956.86 261.287C941.286 260.853 926.015 262.204 910.772 263.553C897.288 264.746 883.826 265.937 870.195 265.889C789.035 265.474 719.508 219.553 660.299 180.446C646.529 171.352 633.317 162.626 620.647 154.926C617.456 152.987 614.265 151.009 611.059 149.021C582.316 131.202 552.437 112.679 511.24 115.348C457.612 118.825 414.586 136.722 377.246 161.778C349.071 180.686 325.521 202.02 301.927 223.395C294.51 230.115 287.088 236.839 279.517 243.492C254.316 265.685 227.272 288.491 185.168 295.241C135.395 303.204 92.8354 288.786 50.0999 274.308C24.2297 265.544 -1.70508 256.757 -29.3442 252.901C-57.9255 248.926 -78.217 253.818 -100.544 259.201C-110.387 261.575 -120.625 264.043 -132.144 265.889C-151.506 268.957 -163.491 264.151 -177.628 255.662C-183.651 252.009 -189.106 247.937 -194.552 243.872C-206.332 235.079 -218.066 226.319 -235.405 221.913C-257.379 216.391 -283.655 220.277 -305.322 224.777C-320.919 228.015 -335.764 231.971 -350.465 235.89C-380.805 243.977 -410.532 251.901 -445 253.003C-442.849 260.264 -439.776 264.253 -432.093 272.332C-391.086 274.536 -357.15 266.343 -320.664 257.535C-313.126 255.715 -305.479 253.869 -297.638 252.083L-295.85 251.691C-274.233 246.957 -248.443 241.308 -225.417 243.697ZM-204.898 228.657C-214.07 221.135 -223.171 213.671 -237.095 209.334C-258.301 202.686 -283.655 206.163 -305.321 210.05C-322.426 213.148 -338.753 217.09 -354.975 221.007C-383.2 227.823 -411.106 234.562 -442.234 236.64C-437.433 226.654 -430.142 217.254 -422.935 207.962L-422.933 207.96L-422.412 207.288C-397.223 206.077 -372.81 202.999 -348.317 199.91C-333.514 198.043 -318.681 196.173 -303.631 194.709L-302.29 194.576L-300.793 194.428C-280.775 192.438 -258.617 190.236 -239.4 195.118C-229.262 197.657 -222.141 201.941 -214.866 206.317C-211.003 208.64 -207.098 210.99 -202.675 213.118C-190.228 219.049 -183.16 219.97 -167.794 218.743C-157.201 217.869 -148.268 216.372 -139.896 214.97C-121.792 211.936 -106.314 209.342 -82.3574 214.447C-57.2046 219.799 -35.3113 230.06 -13.5132 240.276C20.0867 256.023 53.4602 271.665 98.1956 269.059C148.29 266.196 192.083 237.253 224.199 214.447C239.364 203.695 253.921 192.473 268.493 181.238L268.495 181.237C294.674 161.053 320.906 140.829 350.816 123.222C389.539 100.314 442.706 72.5984 498.486 74.7461C549.988 76.7456 596.695 107.289 632.531 130.723C635.186 132.46 637.782 134.157 640.316 135.801C647.851 140.692 656.212 146.334 665.268 152.444C746.159 207.021 882.454 298.98 979.602 227.333C998.964 213.015 1012.95 204.22 1044.29 203.095C1068.4 202.251 1092.94 206.174 1117.37 210.08C1134.36 212.797 1151.29 215.504 1167.99 216.595C1221.92 220.131 1276.77 218.618 1331.43 217.111C1360.55 216.307 1389.62 215.505 1418.46 215.47C1533.28 215.402 1648.1 215.424 1762.91 215.447H1762.97C1820.39 215.458 1877.81 215.47 1935.23 215.47H2602.74V232.958H1930.62C1873.55 232.958 1816.5 232.947 1759.46 232.935H1759.44H1759.43C1645.37 232.913 1531.33 232.89 1417.23 232.958C1385.62 232.997 1353.98 233.869 1322.34 234.74C1271.7 236.134 1221.05 237.529 1170.45 235.515C1159.09 235.055 1147.19 233.781 1135.12 232.489C1109.62 229.76 1083.33 226.946 1059.66 231.526C1048.57 233.669 1039.01 237.652 1029.5 241.618C1018.58 246.168 1007.72 250.695 994.661 252.389C965.004 256.276 931.199 259.651 901.388 261.594C808.696 267.578 726.017 212.525 660.597 168.963C649.992 161.902 639.841 155.143 630.174 148.994C625.761 146.182 621.173 143.156 616.417 140.019C582.261 117.488 539.439 89.2423 490.342 93.4615C436.253 98.166 389.846 120.665 354.043 146.847C331.403 163.307 311.615 181.199 291.812 199.104L291.81 199.106L291.807 199.109C278.145 211.462 264.476 223.821 249.86 235.719C222.509 258.014 191.776 282.559 146.292 286.548C100.108 290.531 62.8564 276.231 25.4497 261.87C-1.48877 251.529 -28.5076 241.157 -59.0007 237.56C-77.4402 235.413 -93.1138 236.128 -111.092 239.197C-117.554 240.272 -123.662 242.171 -129.739 244.061C-137.535 246.485 -145.281 248.894 -153.657 249.526C-168.408 250.651 -177.782 247.48 -188.692 240.731C-194.677 237.04 -199.799 232.839 -204.898 228.657ZM-241.244 183.971C-235.501 184.651 -230.12 186.029 -224.75 187.404C-219.634 188.714 -214.528 190.022 -209.129 190.72C-192.734 192.877 -177.787 190.941 -162.987 189.024C-142.692 186.395 -122.671 183.802 -99.5676 191.845C-81.4182 198.168 -64.8816 207.905 -48.2107 217.722C-16.6106 236.33 15.4712 255.222 59.9336 251.673C117.096 247.174 167.036 218.436 207.296 193.379C224.385 182.755 240.95 171.633 257.54 160.495L257.545 160.491C288.541 139.681 319.62 118.815 354.351 101.03C395.071 80.1664 438.558 61.3487 491.264 59.8146C550.131 58.1369 602.131 92.5526 641.877 118.859C643.319 119.813 644.745 120.757 646.155 121.688C660.399 131.106 674.897 141.859 689.9 152.986C748.698 196.598 815.245 245.955 904.615 243.185C939.777 242.151 951.709 226.694 965.219 209.195C966.41 207.652 967.613 206.093 968.846 204.527C999.304 165.8 1057.75 178.652 1111.99 190.578C1131.08 194.777 1149.66 198.861 1166.3 200.538C1220.69 205.968 1277.64 204.291 1333.91 202.633C1360.3 201.856 1386.55 201.082 1412.32 201.05C1527.76 200.982 1643.13 201.004 1758.52 201.027H1758.54C1816.25 201.038 1873.96 201.05 1931.69 201.05H2602.74V183.562H1932.62H1414.77C1391 183.562 1366.13 184.386 1340.86 185.223C1281.69 187.184 1220.37 189.216 1165.99 180.903C1147.34 178.066 1127.15 171.89 1106.61 165.609C1052.36 149.016 995.71 131.688 958.704 173.232C954.005 178.517 950.202 184.3 946.432 190.033C935.904 206.044 925.631 221.667 896.778 224.981C810.287 234.837 748.389 182.646 696.144 138.595C683.88 128.253 672.147 118.361 660.753 109.825C624.181 82.3141 560.719 37.622 498.639 38.0311C436.56 38.4402 378.476 64.11 331.301 88.5526C306.545 101.334 282.788 115.021 259.028 128.71C226.893 147.223 194.752 165.741 160.122 182.027C116.481 202.482 67.3096 224.265 12.1448 224.47C-31.0427 224.602 -54.614 206.423 -78.8657 187.718C-91.9766 177.606 -105.286 167.341 -122.002 159.733C-155.193 144.597 -185.465 152.676 -217.119 163.517C-240.476 171.596 -272.438 175.994 -297.485 167.914C-307.768 164.626 -315.023 160.194 -321.971 155.95C-333.609 148.841 -344.387 142.257 -367.094 142.449C-373.855 150.494 -380.753 158.449 -387.651 166.403C-391.099 170.38 -394.548 174.357 -397.98 178.346C-377.628 178.346 -357.632 179.453 -337.623 180.561C-325.454 181.235 -313.28 181.909 -301.019 182.334C-293.843 182.593 -286.606 182.571 -279.36 182.549C-266.591 182.509 -253.792 182.47 -241.244 183.971ZM-220.346 141.017C-237.249 154.824 -268.135 172.619 -296.102 155.335C-304.328 150.248 -307.149 142.98 -309.872 135.965C-314.322 124.502 -318.509 113.715 -345.581 114.222C-337.744 102.564 -334.978 97.4501 -334.978 90.4957C-304.481 87.5504 -304.04 102.404 -303.6 117.237C-303.336 126.096 -303.074 134.947 -296.409 139.994C-286.114 147.869 -261.989 147.153 -248.927 143.063C-235.2 138.731 -231.315 132.519 -226.605 124.987C-225.199 122.739 -223.719 120.373 -221.883 117.904C-204.98 94.8933 -163.952 94.4843 -133.834 108.495C-122.597 113.734 -113.242 119.492 -104.186 125.067C-85.1311 136.796 -67.4023 147.709 -36.2588 151.244C33.811 159.221 109.106 135.29 167.19 112.279C197.08 100.435 225.863 87.3226 254.64 74.2135C290.217 58.0064 325.783 41.8041 363.417 28.0086C408.44 11.5432 457.919 -5.74051 510.471 1.82748C577.776 11.4409 632.326 44.9855 670.434 81.8028C679.133 90.2393 687.479 100.718 696.214 111.685C725.281 148.178 758.65 190.071 823.635 180.084C855.914 175.189 875.088 160.306 894.743 145.049C904.655 137.356 914.689 129.567 926.589 122.915C960.394 104.098 1008.18 94.5865 1050.9 104.2C1072.21 108.994 1090.95 117.226 1109.69 125.455C1129.33 134.079 1148.96 142.7 1171.53 147.358C1197.89 152.774 1228.26 151.988 1257.24 151.239C1267.11 150.984 1276.82 150.733 1286.16 150.733H1417.54H1933.69H2602.74V168.221H1928.77H1416C1373.14 168.221 1330.28 168.323 1287.43 168.426L1287.39 168.426C1278.74 168.448 1269.93 168.615 1261.03 168.784C1229.63 169.379 1197.23 169.993 1167.53 164.335C1145.89 160.199 1124.41 152.398 1103.15 144.678C1049.23 125.102 996.752 106.044 946.719 148.585C939.358 154.853 933.289 162.072 927.23 169.28C912.924 186.298 898.67 203.254 867.583 207.493C791.531 217.96 741.386 168.29 699.071 126.378C685.984 113.414 673.645 101.193 661.521 91.723C622.798 61.451 574.548 30.6677 514.774 20.8497C457.632 11.5666 392.439 39.7922 346.913 59.5032C345.795 59.9874 344.688 60.4664 343.594 60.9396C312.08 74.6079 282.38 89.9912 252.678 105.376C221.264 121.647 189.848 137.919 156.28 152.165L153.815 153.209C104.364 174.173 31.7004 204.977 -30.1123 195.22C-53.7117 191.518 -76.0371 175.495 -98.3208 159.502C-136.977 131.758 -175.508 104.104 -220.346 141.017Z" fill="white"/>
</svg>
