<svg width="101" height="54" viewBox="0 0 101 54" fill="none" xmlns="http://www.w3.org/2000/svg">
<path fill-rule="evenodd" clip-rule="evenodd" d="M51.1616 2.0112C50.7448 2.8191 50.2213 3.56876 49.5651 4.15813C48.8912 4.7742 48.0355 5.18563 47.151 5.18136C46.3016 5.16319 45.4317 5.17815 44.6194 4.86611C44.7813 5.16426 44.9339 5.46776 45.0864 5.77179C49.1367 5.77286 53.1871 5.77179 57.2379 5.77286C57.39 5.46669 57.5425 5.16052 57.7066 4.86237C56.9584 5.22037 56.1267 5.22304 55.3259 5.19899C54.7664 5.1835 54.1974 5.10014 53.6881 4.83191C52.5633 4.27514 51.7306 3.19046 51.1616 2.0112ZM51.1627 0C51.7583 1.46512 52.5743 2.90299 53.8265 3.78143C54.4054 4.21049 55.1127 4.39216 55.806 4.3617C57.2703 4.29919 58.6783 3.5725 59.7294 2.45737C59.1213 3.78249 58.5278 5.11404 57.9244 6.44023H44.3989C43.796 5.11404 43.2036 3.78036 42.5939 2.45737C43.7171 3.65052 45.2541 4.40018 46.8256 4.3617C47.6541 4.34728 48.4336 3.92088 49.0542 3.33794C49.9925 2.43706 50.6622 1.24551 51.1627 0ZM44.3979 6.93609H57.9254L57.6554 7.42927C53.3276 7.43034 48.9999 7.42927 44.6711 7.43141C44.5791 7.26577 44.4882 7.10119 44.3979 6.93609ZM49.1336 9.87328V11.9817H45.2029V9.94755C43.8948 9.94755 42.5871 9.94915 41.279 9.94648C41.2806 13.0648 41.2753 16.1826 41.2842 19.302C41.3323 22.0784 42.4942 24.7211 44.1612 26.7783C46.0686 29.0951 48.478 30.938 51.1616 32.0179C53.4216 31.093 55.4664 29.6017 57.2082 27.7887C58.9619 25.956 60.3887 23.6407 60.8604 21.0086C61.106 19.7818 61.0297 18.5203 61.0422 17.2748L61.0427 9.94755C59.7576 9.94755 58.4714 9.94595 57.1857 9.94648C57.1862 10.6251 57.1841 11.3037 57.1847 11.9823H53.1881C53.1881 11.2796 53.1892 10.577 53.1871 9.87328H49.1336ZM40.3397 8.91737H46.1292C46.1297 9.64726 46.1276 10.3771 46.1307 11.107H48.2664V8.91737H54.0559C54.0559 9.64726 54.0543 10.3771 54.0574 11.1081C54.769 11.107 55.481 11.1081 56.1931 11.107V8.91737H61.9821V16.8323C61.9669 18.3338 62.0599 19.8572 61.7376 21.3324C61.1504 24.3519 59.4352 26.9738 57.3487 29C55.5202 30.7579 53.4227 32.1958 51.1606 33.1923C48.8959 32.1937 46.7952 30.7558 44.9652 28.9931C43.0521 27.1331 41.4571 24.7879 40.7534 22.0719C40.4802 21.0231 40.3414 19.9424 40.3407 18.8569C40.3392 15.5441 40.3397 12.2302 40.3397 8.91737Z" fill="#2A3341"/>
<path fill-rule="evenodd" clip-rule="evenodd" d="M50.1085 11.0962C50.1095 11.6755 50.1059 12.2552 50.1075 12.8344C47.9953 12.8344 45.8832 12.8333 43.7715 12.8344C43.7726 12.2787 43.7694 11.7246 43.77 11.17H42.3385C42.3375 13.8015 42.3385 16.4331 42.3375 19.0647C42.3375 19.965 42.4576 20.8664 42.7011 21.7283C43.3839 24.1611 44.9647 26.1952 46.8089 27.7491C48.1322 28.8621 49.597 29.7875 51.1607 30.4597C53.2441 29.5444 55.1859 28.2353 56.7877 26.5393C58.6349 24.6361 59.9598 22.0211 59.9812 19.2372C59.988 16.5239 59.9828 13.8096 59.9838 11.0962H58.6083C58.6083 11.6755 58.6057 12.2552 58.6067 12.8344C56.4988 12.8344 54.3913 12.8344 52.2828 12.8333C52.2813 12.2541 52.2828 11.6749 52.2823 11.0941C51.5577 11.0962 50.8331 11.0962 50.1085 11.0962ZM49.526 10.4043C50.6388 10.4043 51.752 10.4054 52.8653 10.4043V12.2782H57.9135C57.9124 11.653 57.9135 11.0295 57.9135 10.4043C58.8173 10.4054 59.7226 10.4043 60.6285 10.4043V18.6115C60.6484 19.5488 60.5658 20.4892 60.3459 21.3981C59.7461 23.9826 58.1752 26.1936 56.2945 27.8923C54.7586 29.2714 53.0241 30.4089 51.1601 31.2115C48.5376 30.0595 46.1193 28.3149 44.2631 26.0141C42.7727 24.1482 41.7581 21.7796 41.6986 19.3051C41.6871 16.3636 41.697 13.4222 41.6944 10.4802H44.4099C44.4099 11.0786 44.4089 11.6787 44.4099 12.2782H49.5265V10.4043H49.526Z" fill="#2A3341"/>
<path fill-rule="evenodd" clip-rule="evenodd" d="M47.5554 16.1411C47.5544 16.0449 47.5544 15.9487 47.5554 15.8525H52.403C52.4025 15.9487 52.4025 16.0449 52.404 16.1411C52.0634 16.2399 51.705 16.3163 51.4093 16.5391C51.156 16.739 51.1079 17.1146 51.1032 17.4347C51.1011 19.6612 51.1032 21.8894 51.1032 24.1164C51.0959 24.452 51.1894 24.8458 51.4872 24.997C51.8581 25.1803 52.2745 25.1803 52.6731 25.1915C53.2551 25.1931 53.8846 25.1039 54.35 24.6785C54.7847 24.2725 55.0867 23.7242 55.3688 23.1835H55.6707L55.3709 25.7611C52.7655 25.7611 50.1613 25.76 47.556 25.7611C47.5544 25.6628 47.5544 25.5655 47.5544 25.4688C47.919 25.3577 48.3255 25.2845 48.6139 24.989C48.8275 24.6994 48.8291 24.2981 48.8453 23.9422C48.8484 21.8012 48.8469 19.6596 48.8458 17.5191C48.839 17.1787 48.803 16.7823 48.5491 16.552C48.2591 16.3137 47.8961 16.2373 47.5554 16.1411ZM35.8339 27.4576C35.908 26.3878 36.9889 25.5805 37.968 25.7958C38.4026 25.869 38.7547 26.1698 39.0901 26.4509C38.761 26.4194 38.4115 26.3878 38.1033 26.5428C37.6362 26.7362 37.3499 27.3373 37.5155 27.8466C37.5913 28.087 37.7893 28.2644 38.0118 28.3451C38.3655 28.4776 38.7469 28.4215 39.1141 28.4215C40.0885 28.3958 41.0785 28.4487 42.0178 28.7496C42.7042 28.966 43.3437 29.3213 43.9471 29.7242C43.1433 29.4212 42.2939 29.2644 41.4374 29.2609C40.4944 29.2449 39.565 29.4405 38.6299 29.5372C38.0463 29.5799 37.421 29.5831 36.8965 29.2711C36.28 28.9216 35.7853 28.2249 35.8339 27.4576ZM62.3285 26.4472C62.6754 26.165 63.0384 25.8573 63.4862 25.7899C64.4824 25.589 65.5706 26.4493 65.5915 27.5404C65.5894 28.5246 64.7776 29.34 63.8963 29.5083C63.097 29.6387 62.295 29.4709 61.502 29.3694C60.1573 29.169 58.7593 29.2241 57.4741 29.7242C58.1595 29.2647 58.8941 28.8725 59.685 28.6678C60.6865 28.3942 61.7282 28.4007 62.7548 28.4311C63.1278 28.4439 63.5682 28.3884 63.8069 28.0443C64.1324 27.558 63.8816 26.8297 63.3953 26.5818C63.0687 26.3921 62.6858 26.4146 62.3285 26.4477" fill="#2A3341"/>
<path fill-rule="evenodd" clip-rule="evenodd" d="M31.8075 30.0624C31.5134 31.1648 32.0358 32.43 32.9119 32.9548C33.6224 33.3635 34.463 33.4335 35.2273 33.2048C36.2073 32.8869 37.0652 32.2334 37.9752 31.7274C37.0881 32.0432 36.1833 32.2991 35.2623 32.4375C34.4149 32.5583 33.5096 32.2842 32.8732 31.6163C32.3874 31.1119 32.2364 30.2313 32.5321 29.5575C32.6685 29.1867 32.9563 28.9393 33.2186 28.6908C32.588 28.8356 31.9867 29.3267 31.8075 30.0624ZM32.7374 27.8284C33.4014 27.62 34.1882 27.7894 34.6625 28.3895C34.9002 28.7074 34.8945 29.1546 34.8292 29.5431C34.6072 29.3096 34.3512 29.0039 34.0189 29.0857C33.3675 29.2246 33.1089 30.2943 33.5675 30.8255C34.0299 31.3593 34.7169 31.5121 35.349 31.4993C36.0705 31.5073 36.7595 31.2289 37.4366 30.9724C38.6935 30.4739 39.9526 29.8476 41.3056 29.8375C42.8651 29.7622 44.5582 30.0747 45.7504 31.3245C44.319 30.5989 42.6671 30.3879 41.1568 30.9045C39.9745 31.2839 38.9887 32.1565 37.9141 32.7998C36.7773 33.5078 35.5496 34.1265 34.2383 34.1794C33.1778 34.2329 32.0452 33.7637 31.4099 32.7506C30.6592 31.6104 30.6974 29.8947 31.4878 28.7945C31.8174 28.3526 32.2385 27.9727 32.7374 27.8284ZM68.1947 28.6914C68.4783 28.9505 68.7798 29.2241 68.9109 29.6296C69.1773 30.3077 69.0029 31.1674 68.5144 31.6515C68.2086 31.9561 67.839 32.1856 67.4338 32.3226C67.0285 32.4596 66.598 32.5005 66.175 32.4423C65.2461 32.3055 64.334 32.0496 63.4427 31.7247C64.2028 32.1442 64.916 32.6758 65.7069 33.0215C66.5872 33.4292 67.6273 33.465 68.4862 32.967C69.4396 32.4135 69.985 30.9633 69.5242 29.8167C69.2923 29.1984 68.7479 28.8287 68.1947 28.6914ZM66.7355 28.4269C67.2355 27.7376 68.1309 27.5971 68.8409 27.8819C69.8246 28.32 70.52 29.4811 70.5482 30.6924C70.59 31.7226 70.172 32.7592 69.4683 33.3961C68.8926 33.9123 68.1612 34.1575 67.4387 34.1805C66.5741 34.2136 65.7241 33.9507 64.9274 33.5863C63.6893 33.0167 62.5765 32.1623 61.4116 31.4314C59.6484 30.3611 57.4683 30.3841 55.6707 31.3331C56.8472 30.0881 58.5226 29.7691 60.0674 29.8359C61.3802 29.8348 62.6116 30.4183 63.8298 30.912C64.5612 31.1947 65.3067 31.5121 66.0904 31.5019C66.7204 31.5142 67.4058 31.3507 67.8598 30.811C68.319 30.2655 68.0249 29.1739 67.3546 29.0788C67.0359 29.028 66.8035 29.3245 66.5887 29.5436C66.5375 29.1696 66.4994 28.7341 66.735 28.4269" fill="#2A3341"/>
<path fill-rule="evenodd" clip-rule="evenodd" d="M41.4425 31.0706C42.5903 30.595 43.8399 30.6645 45.0237 30.891C46.2336 31.1368 47.4133 31.6241 48.456 32.3898C46.8637 31.6509 45.0979 31.5205 43.4136 31.7946C42.8327 31.9303 42.1843 32.0324 41.7382 32.5309C41.4331 32.8622 41.5835 33.5028 41.9524 33.6776C42.4038 33.903 42.9068 33.8389 43.3843 33.8175C42.8551 34.3962 42.1305 34.743 41.4028 34.6693C40.8856 34.6174 40.3402 34.3636 40.0549 33.8272C39.882 33.5237 39.846 33.1325 39.9374 32.7863C40.1333 31.9495 40.7628 31.3452 41.4425 31.0711V31.0706ZM53.4164 32.3834C54.8792 31.3158 56.5979 30.7788 58.3136 30.7174C59.2085 30.7003 60.1421 30.8178 60.9335 31.3452C61.4737 31.7112 61.9345 32.3444 61.9799 33.0978C62.0238 33.6866 61.6539 34.2017 61.2193 34.4368C60.3145 34.9444 59.1959 34.6148 58.4896 33.8191C58.9875 33.8362 59.5246 33.9137 59.9859 33.638C60.3254 33.4189 60.4163 32.8029 60.1086 32.4999C59.6646 32.0329 59.0413 31.9287 58.4766 31.7962C56.7865 31.5167 55.015 31.6476 53.4164 32.3834ZM61.3582 37.4275C62.4637 37.0823 63.6527 37.0566 64.7592 37.4082C65.2346 37.5391 65.6849 37.7967 66.1781 37.8357C66.4775 37.8517 66.734 37.6529 66.955 37.4494H67.2694L67.27 40.6243C67.1603 40.6243 67.0516 40.6254 66.944 40.6265C66.4858 39.319 65.4723 38.2647 64.2556 37.9276C63.4223 37.701 62.4877 37.7566 61.748 38.2829C61.0808 38.7547 60.6431 39.5455 60.386 40.3689C60.0292 41.5354 59.9644 42.7894 60.013 44.0136C60.0741 45.2179 60.3228 46.4987 61.0808 47.4012C61.6973 48.1508 62.6361 48.4431 63.519 48.3966C63.963 48.3753 64.4771 48.2924 64.7712 47.8703C65.0356 47.4658 64.9264 46.9353 64.9499 46.4688C64.9222 45.9184 65.035 45.3269 64.8088 44.8134C64.6286 44.4106 64.2357 44.2257 63.8664 44.1306C63.8664 44.0216 63.8669 43.9142 63.8685 43.8073H68.2955L68.2965 44.1316C67.9961 44.2422 67.6707 44.3764 67.4899 44.6889C67.2992 45.0245 67.2741 45.437 67.2694 45.8249C67.2694 46.6296 67.27 47.4343 67.2684 48.2395C65.9681 48.885 64.5273 49.0485 63.1204 49.0464C61.924 49.0432 60.7078 48.7114 59.7053 47.9563C58.4781 47.0443 57.6553 45.4872 57.5049 43.8399C57.392 42.5762 57.5879 41.2543 58.1725 40.1584C58.8778 38.8375 60.0428 37.841 61.3582 37.428V37.4275ZM11.7559 37.7352C12.3739 37.4536 13.1795 37.9099 13.2678 38.6943C13.3874 39.4146 12.8383 40.1263 12.212 40.1253C11.6138 40.1803 11.0198 39.5947 11.0302 38.8904C11.0146 38.3721 11.3437 37.9057 11.7559 37.7352ZM39.263 37.7352C39.8799 37.4547 40.6824 37.9078 40.7728 38.6895C40.8955 39.4109 40.3459 40.1269 39.719 40.1247C39.1193 40.1819 38.5242 39.5925 38.5363 38.8872C38.5232 38.3695 38.8513 37.9035 39.2635 37.7352H39.263ZM48.9079 37.8474C49.8712 37.7854 50.832 37.6781 51.7958 37.6519C51.7985 39.6358 51.7927 41.6192 51.7995 43.6027C52.1939 42.9177 52.7096 42.2455 53.4357 42.0227C54.2126 41.7902 55.1336 41.8736 55.7574 42.4966C56.239 42.9679 56.4626 43.6962 56.47 44.402C56.4741 45.429 56.4694 46.456 56.4715 47.4829C56.4747 47.7827 56.5086 48.1156 56.7045 48.3411C56.9088 48.5751 57.2034 48.651 57.4746 48.7354C57.4735 48.838 57.4735 48.9411 57.4746 49.0458H53.5564L53.5559 48.7359C53.9649 48.6141 54.4581 48.3865 54.5151 47.8425C54.5918 47.0608 54.5297 46.2684 54.5495 45.4824C54.5312 44.8225 54.6347 44.0932 54.3056 43.5043C54.0433 43.0384 53.4854 42.947 53.0429 43.0689C52.511 43.2105 52.1391 43.6994 51.7979 44.1455C51.7953 45.2569 51.7969 46.3694 51.7958 47.4819C51.7979 47.7822 51.8308 48.1193 52.0325 48.3405C52.243 48.566 52.534 48.644 52.8057 48.7333V49.0458H48.9079C48.9069 48.9678 48.9069 48.8123 48.9069 48.7354C49.1733 48.6424 49.4643 48.5569 49.6555 48.3111C49.8451 48.06 49.8728 47.7116 49.8749 47.3953C49.8759 44.7878 49.8744 42.1792 49.877 39.5717C49.8744 39.2442 49.8942 38.876 49.6999 38.6062C49.4998 38.3428 49.1869 38.2573 48.9069 38.1573L48.9079 37.8474ZM0.209331 37.6519H5.59289L5.59445 37.9858C5.22406 38.0911 4.83851 38.1835 4.51304 38.424C4.22989 38.6356 4.15779 39.055 4.15257 39.4168C4.15361 42.0398 4.14943 44.6628 4.15518 47.2852C4.14055 47.7394 4.4049 48.1877 4.80612 48.2641C5.54273 48.4431 6.32898 48.4543 7.0588 48.224C7.94796 47.9264 8.44949 46.9406 8.89093 46.0798C9.00221 46.0787 9.11401 46.0798 9.22528 46.0798C9.11401 47.0683 9.00273 48.0568 8.8925 49.0458H0.209331C0.209331 48.9331 0.208286 48.8204 0.207764 48.7092C0.606894 48.5869 1.04207 48.4998 1.3644 48.1824C1.61464 47.8698 1.62196 47.4097 1.6392 47.0095V39.4969C1.63188 39.1143 1.57337 38.6687 1.28238 38.4309C0.963708 38.1792 0.577116 38.0889 0.207764 37.9858C0.208286 37.8736 0.208286 37.7625 0.209331 37.6519ZM14.637 41.8859C15.638 41.803 16.6358 41.6599 17.6378 41.615C17.641 42.1707 17.6357 42.7264 17.641 43.2821C17.9795 42.6895 18.4173 42.1343 19.0066 41.8527C19.8289 41.4541 20.8769 41.5434 21.555 42.2364C21.9917 42.6558 22.2179 43.3002 22.2252 43.9382C22.2336 44.97 22.2242 46.0034 22.2289 47.0357C22.2367 47.3189 22.2644 47.6331 22.4457 47.8511C22.6494 48.0782 22.9378 48.1567 23.2048 48.2486C23.2048 48.3234 23.2048 48.4746 23.2037 48.5505H19.3597C19.3597 48.4746 19.3592 48.3245 19.3582 48.2492C19.7683 48.1508 20.262 47.9286 20.3173 47.3948C20.3795 46.6302 20.3288 45.8586 20.3455 45.0902C20.3283 44.4667 20.4291 43.779 20.1105 43.2254C19.8806 42.8017 19.4047 42.6398 18.9846 42.7167C18.3912 42.7899 17.9116 43.2917 17.6472 43.8655C17.6263 44.8626 17.6462 45.8607 17.6378 46.8588C17.6446 47.1805 17.6399 47.5406 17.8264 47.8073C18.0145 48.0499 18.3018 48.1418 18.5615 48.2476L18.561 48.5505H14.7943C14.7917 48.4746 14.7885 48.3218 14.7865 48.246C15.0529 48.1562 15.3402 48.0739 15.5434 47.8468C15.7305 47.6342 15.7618 47.32 15.7613 47.0362V43.4108C15.7603 43.1025 15.7211 42.7547 15.5032 42.5377C15.2629 42.3053 14.9369 42.2535 14.637 42.1878V41.8859ZM48.293 41.6155L48.5527 41.616C48.6039 42.4507 48.6535 43.2863 48.7052 44.1215H48.4074C48.0835 43.4231 47.6671 42.7296 47.0345 42.3352C46.301 41.8768 45.2865 41.9366 44.6596 42.5853C44.1424 43.1132 43.923 43.9013 43.8765 44.659C43.8242 45.5086 43.9088 46.4223 44.3566 47.1426C44.9782 48.2005 46.3062 48.3865 47.3114 47.9799C47.8139 47.7586 48.1995 47.3184 48.5527 46.8813C48.6409 46.8818 48.818 46.885 48.9069 46.8856C48.4947 47.8115 47.7424 48.5484 46.8381 48.8252C45.8773 49.1222 44.8304 49.1281 43.8775 48.791C42.9408 48.4485 42.118 47.6347 41.8348 46.5714C41.57 45.5583 41.6656 44.4058 42.1927 43.5134C42.7715 42.5329 43.7464 41.8661 44.7896 41.6871C45.7269 41.5044 46.6688 41.7117 47.6003 41.8314C47.8505 41.8816 48.0877 41.7619 48.293 41.6155ZM10.1285 41.8859C11.1379 41.802 12.1441 41.6609 13.1555 41.615C13.156 43.4525 13.1544 45.2895 13.156 47.1271C13.1544 47.4226 13.237 47.7335 13.4454 47.9312C13.646 48.1353 13.9213 48.1957 14.1805 48.2513L14.1862 48.5505H10.2127L10.2121 48.2476C10.4969 48.1663 10.8108 48.1108 11.0365 47.8821C11.2293 47.6598 11.2512 47.3296 11.2596 47.0373C11.2601 45.8297 11.2585 44.6222 11.2601 43.4151C11.2559 43.1025 11.2288 42.7381 10.9947 42.5271C10.7419 42.323 10.4253 42.2642 10.1275 42.1888C10.1275 42.0873 10.1275 41.9863 10.1285 41.8859ZM25.7986 42.4688C25.3885 42.9481 25.2647 43.6443 25.2265 44.2935H27.9457C27.894 43.5679 27.6929 42.7814 27.1611 42.3331C26.9619 42.1686 26.7075 42.0907 26.4527 42.1161C26.1979 42.1415 25.963 42.2681 25.7986 42.4688ZM25.9459 41.6887C26.9359 41.4958 28.0319 41.6636 28.8391 42.3978C29.4759 42.9481 29.8562 43.818 29.9654 44.7183C28.3856 44.7247 26.8058 44.7194 25.226 44.721C25.202 45.4536 25.283 46.2171 25.6116 46.8583C25.9046 47.4407 26.3806 47.9259 26.9594 48.0771C27.7159 48.2737 28.5413 48.0055 29.1107 47.4007C29.3354 47.1842 29.4978 46.8995 29.6964 46.6558L29.968 46.6371C29.5396 47.8083 28.5867 48.6654 27.5194 48.9331C26.6841 49.1377 25.7813 49.0763 25.0029 48.6499C24.5631 48.4 24.1817 48.0552 23.8853 47.6393C23.589 47.2234 23.3847 46.7465 23.2868 46.2417C23.1144 45.3285 23.2063 44.3288 23.6237 43.5188C24.1211 42.5602 24.9914 41.873 25.9459 41.6887ZM37.3901 41.8901C38.4647 41.818 39.5362 41.6577 40.6134 41.615C40.6145 43.5118 40.6134 45.4103 40.6134 47.3082C40.6082 47.6309 40.7148 47.9718 40.9593 48.1711C41.1682 48.3539 41.4362 48.4063 41.6922 48.465L41.6917 48.7728H37.4909C37.4899 48.6681 37.4888 48.5633 37.4899 48.4602C37.8106 48.371 38.1795 48.3138 38.4109 48.0296C38.623 47.7148 38.6016 47.3002 38.6063 46.9304C38.6021 45.7469 38.6094 44.5618 38.6031 43.3772C38.6005 43.0229 38.5028 42.6008 38.168 42.4533C37.8608 42.3197 37.5034 42.137 37.1806 42.3187C36.6764 42.5399 36.3781 43.0683 36.1279 43.5615C35.2753 45.3846 34.4415 47.219 33.5942 49.0458C33.4683 49.0453 33.3424 49.0453 33.2164 49.0458C32.379 47.2585 31.5426 45.4712 30.7036 43.6844C30.4952 43.266 30.2752 42.8332 29.9315 42.526C29.6875 42.3112 29.3709 42.238 29.0663 42.2027L29.0674 41.8928C30.4518 41.8928 31.8362 41.8917 33.2206 41.8928V42.1963C33.0205 42.2738 32.7834 42.3304 32.6658 42.5436C32.5258 42.7916 32.6057 43.0988 32.7222 43.3371C33.229 44.3977 33.7383 45.4568 34.2451 46.5163C34.6589 45.6363 35.0737 44.7568 35.4853 43.8757C35.6488 43.4963 35.8155 43.04 35.6509 42.6291C35.5161 42.3192 35.1781 42.2471 34.8976 42.199C34.8976 42.0964 34.8976 41.9943 34.8986 41.8928C35.7282 41.8901 36.5599 41.8966 37.3901 41.8901ZM68.7474 41.8859C69.7666 41.802 70.7843 41.6615 71.8062 41.615C71.8077 42.3379 71.8035 43.0609 71.8077 43.7843C72.1677 42.9999 72.5835 42.1472 73.3374 41.7592C73.9193 41.4568 74.6361 41.6577 75.0603 42.1781C74.9219 42.8535 74.7782 43.5284 74.6424 44.2048C74.1764 43.7694 73.6341 43.2377 72.9759 43.3585C72.5198 43.4146 72.1713 43.7827 71.8971 44.16C71.7372 44.3374 71.8276 44.6061 71.8062 44.8268C71.8302 45.71 71.757 46.5997 71.8469 47.4776C71.9075 48.0322 72.4749 48.1508 72.8797 48.247C72.8782 48.3475 72.8771 48.4479 72.8782 48.5505H68.8482C68.8472 48.4495 68.8467 48.3485 68.8466 48.2476C69.1418 48.1514 69.4699 48.0782 69.6951 47.8254C69.8883 47.5882 69.8998 47.2462 69.9051 46.9427C69.9045 45.7961 69.9056 44.6494 69.9045 43.5027C69.9025 43.1608 69.846 42.7857 69.6135 42.5383C69.3826 42.2909 69.0514 42.231 68.7474 42.1856V41.8864V41.8859ZM78.6682 42.1717C78.2795 42.2749 77.9457 42.5629 77.733 42.9342C77.3036 43.6844 77.2263 44.6029 77.2216 45.4707C77.2242 46.3721 77.3882 47.3499 77.9739 48.0199C78.5799 48.729 79.7292 48.7199 80.3133 47.9836C80.8801 47.2815 81.0055 46.2919 81.018 45.383C81.0159 44.4624 80.9188 43.4584 80.3718 42.7221C79.97 42.1728 79.2679 42.0024 78.6687 42.1717H78.6682ZM78.0945 41.7106C79.0913 41.5359 80.1487 41.5802 81.0911 42.0141C81.9861 42.4341 82.7603 43.2591 83.0466 44.3085C83.313 45.3221 83.1746 46.4832 82.5989 47.3376C81.9814 48.2769 80.9814 48.8444 79.9544 48.9849C78.7883 49.1474 77.5261 49.0095 76.5283 48.27C75.7546 47.7063 75.17 46.784 75.0838 45.7453C74.948 44.5954 75.4046 43.4173 76.1856 42.666C76.7206 42.1493 77.3997 41.8447 78.0945 41.7106ZM83.6286 41.8955C84.5924 41.8079 85.5532 41.6641 86.5196 41.615C86.5207 43.2057 86.5207 44.7974 86.5196 46.3881C86.5128 46.7536 86.5128 47.1602 86.7338 47.4557C87.03 47.8671 87.5472 47.9382 87.9845 47.8639C88.5748 47.7629 88.9719 47.18 89.2671 46.6387C89.2932 45.6139 89.2681 44.5869 89.2791 43.561C89.2744 43.2708 89.3 42.9497 89.1401 42.7039C88.9442 42.386 88.5931 42.2871 88.2812 42.2033V41.8955C89.2493 41.8079 90.2132 41.6609 91.1823 41.616C91.1849 43.4477 91.1823 45.2799 91.1843 47.1121C91.1953 47.4354 91.1969 47.8067 91.4011 48.0611C91.6179 48.2908 91.9183 48.3614 92.1952 48.4554C92.1937 48.5585 92.1926 48.6622 92.1942 48.7664C91.2214 48.8588 90.2497 48.9497 89.277 49.0426C89.2765 48.4714 89.2791 47.9008 89.2765 47.3296C88.9672 47.8094 88.6182 48.27 88.1668 48.5815C87.4192 49.1148 86.4392 49.1864 85.6258 48.8091C85.0313 48.5313 84.6332 47.8351 84.6253 47.1073C84.6081 45.8329 84.6269 44.557 84.617 43.2815C84.6081 43.0229 84.5606 42.7413 84.3908 42.5538C84.1823 42.3347 83.8929 42.2775 83.628 42.2049V41.895" fill="#2A3341"/>
<mask id="mask0" mask-type="alpha" maskUnits="userSpaceOnUse" x="92" y="41" width="9" height="13">
<path d="M92.2703 41.6758H100.66V54H92.2698L92.2703 41.6758Z" fill="white"/>
</mask>
<g mask="url(#mask0)">
<path fill-rule="evenodd" clip-rule="evenodd" d="M95.4635 43.2216C95.3815 43.3285 95.2342 43.4161 95.2488 43.5801C95.2457 44.8967 95.2473 46.2122 95.2488 47.5283C95.5597 47.8478 95.9139 48.1331 96.325 48.2453C96.8438 48.396 97.4352 48.2768 97.8353 47.8542C98.3295 47.3466 98.5505 46.5772 98.5928 45.835C98.6305 45.0992 98.574 44.3292 98.2794 43.6629C98.0704 43.1927 97.7131 42.7866 97.2596 42.6531C96.6259 42.4564 95.9311 42.7054 95.4635 43.2216ZM92.2716 41.9515C93.2642 41.8671 94.2531 41.7217 95.2473 41.6758C95.2462 42.1107 95.2499 42.5457 95.2446 42.9811C95.6537 42.4858 96.1474 42.0637 96.7194 41.858C97.4514 41.593 98.2763 41.6069 98.9784 41.9825C99.7578 42.411 100.343 43.2622 100.551 44.224C100.823 45.4967 100.599 46.9672 99.7693 47.9114C98.9941 48.8566 97.7679 49.1751 96.6839 48.909C96.1448 48.7626 95.6898 48.3762 95.2473 48.0129C95.2499 49.4732 95.2446 50.933 95.2488 52.3933C95.2603 52.7192 95.2927 53.0933 95.5174 53.3252C95.7655 53.5549 96.0889 53.6244 96.3898 53.712C96.3882 53.8071 96.3877 53.9028 96.3882 54H92.2716C92.2698 53.8985 92.2698 53.797 92.2716 53.6954C92.5923 53.6292 92.97 53.5747 93.1816 53.2514C93.3624 52.9153 93.3692 52.5034 93.3833 52.1203C93.3848 49.3065 93.3833 46.4911 93.3838 43.6774C93.3733 43.3333 93.3681 42.9411 93.1591 42.6696C92.9173 42.4132 92.5793 42.348 92.2716 42.2593V41.9515Z" fill="#2A3341"/>
</g>
</svg>
