<svg width="120" height="63" viewBox="0 0 120 63" fill="none" xmlns="http://www.w3.org/2000/svg">
<path fill-rule="evenodd" clip-rule="evenodd" d="M60.8691 2.32642C60.3711 3.26094 59.7457 4.1281 58.9619 4.80983C58.1568 5.52247 57.1346 5.99838 56.078 5.99344C55.0633 5.97242 54.0242 5.98973 53.0537 5.62878C53.2472 5.97366 53.4294 6.32472 53.6117 6.67641C58.4501 6.67764 63.2886 6.67641 68.1278 6.67764C68.3094 6.32349 68.4916 5.96933 68.6876 5.62445C67.7939 6.03856 66.8003 6.04165 65.8436 6.01383C65.1752 5.99591 64.4956 5.89949 63.8871 5.58922C62.5435 4.94519 61.5487 3.6905 60.8691 2.32642ZM60.8703 0C61.5818 1.69475 62.5566 3.35798 64.0525 4.37409C64.744 4.8704 65.589 5.08055 66.4172 5.04532C68.1665 4.973 69.8483 4.13242 71.104 2.84251C70.3776 4.37533 69.6686 5.91556 68.9478 7.44961H52.7904C52.0702 5.91556 51.3625 4.37285 50.6342 2.84251C51.9759 4.22266 53.812 5.08982 55.6892 5.04532C56.679 5.02863 57.6101 4.53541 58.3515 3.86109C59.4724 2.81902 60.2725 1.44072 60.8703 0ZM52.7891 8.02318H68.9491L68.6264 8.59366C63.4565 8.5949 58.2866 8.59366 53.1155 8.59614C53.0057 8.40453 52.8971 8.21417 52.7891 8.02318ZM58.4464 11.4207V13.8596H53.7508V11.5066C52.1881 11.5066 50.6261 11.5085 49.0634 11.5054C49.0652 15.1125 49.059 18.7189 49.0696 22.3272C49.127 25.5387 50.515 28.5957 52.5064 30.9753C54.7849 33.6552 57.6632 35.7869 60.8691 37.0361C63.5689 35.9662 66.0115 34.2411 68.0922 32.144C70.1872 30.024 71.8916 27.3459 72.4551 24.3013C72.7485 22.8822 72.6573 21.423 72.6723 19.9822L72.6729 11.5066C71.1377 11.5066 69.6012 11.5048 68.0654 11.5054C68.066 12.2903 68.0635 13.0753 68.0641 13.8602H63.2899C63.2899 13.0475 63.2911 12.2347 63.2886 11.4207H58.4464ZM47.9413 10.315H54.8573C54.8579 11.1593 54.8554 12.0036 54.8592 12.8478H57.4104V10.315H64.3265C64.3265 11.1593 64.3246 12.0036 64.3284 12.8491C65.1784 12.8478 66.029 12.8491 66.8796 12.8478V10.315H73.795V19.4705C73.7769 21.2073 73.888 22.9694 73.503 24.6759C72.8015 28.1686 70.7526 31.2015 68.2601 33.5452C66.0758 35.5787 63.5701 37.2419 60.8678 38.3946C58.1624 37.2394 55.653 35.5762 53.4669 33.5372C51.1815 31.3857 49.2762 28.6729 48.4355 25.5313C48.1091 24.3181 47.9433 23.0679 47.9425 21.8124C47.9406 17.9803 47.9413 14.147 47.9413 10.315Z" fill="#ECEAE1"/>
<path fill-rule="evenodd" clip-rule="evenodd" d="M59.6109 12.8349C59.6121 13.5049 59.6077 14.1755 59.6096 14.8455C57.0864 14.8455 54.5633 14.8442 52.0408 14.8455C52.042 14.2027 52.0383 13.5617 52.0389 12.9202H50.3289C50.3277 15.9642 50.3289 19.0082 50.3277 22.0522C50.3277 23.0936 50.4712 24.1363 50.762 25.1333C51.5777 27.9473 53.4662 30.3003 55.6692 32.0977C57.25 33.3851 58.9999 34.4556 60.8677 35.2332C63.3566 34.1744 65.6763 32.6601 67.5897 30.6984C69.7965 28.4968 71.3791 25.472 71.4047 22.2518C71.4128 19.1133 71.4066 15.9735 71.4078 12.8349H69.7646C69.7646 13.5049 69.7615 14.1755 69.7628 14.8455C67.2446 14.8455 64.7271 14.8455 62.2083 14.8442C62.2064 14.1742 62.2083 13.5043 62.2077 12.8324C61.3421 12.8349 60.4765 12.8349 59.6109 12.8349ZM58.915 12.0345C60.2443 12.0345 61.5742 12.0357 62.9041 12.0345V14.2021H68.9346C68.9334 13.4789 68.9346 12.7576 68.9346 12.0345C70.0143 12.0357 71.0958 12.0345 72.178 12.0345V21.5281C72.2017 22.6122 72.1031 23.7 71.8403 24.7513C71.1239 27.7409 69.2473 30.2985 67.0006 32.2633C65.1658 33.8586 63.0938 35.1745 60.8671 36.1028C57.7342 34.7702 54.8454 32.7522 52.628 30.0908C50.8475 27.9325 49.6356 25.1926 49.5644 22.3303C49.5507 18.9278 49.5625 15.5254 49.5594 12.1223H52.8034C52.8034 12.8145 52.8021 13.5086 52.8034 14.2021H58.9156V12.0345H58.915Z" fill="#ECEAE1"/>
<path fill-rule="evenodd" clip-rule="evenodd" d="M56.5611 18.6713C56.5599 18.5601 56.5599 18.4488 56.5611 18.3376H62.352C62.3513 18.4488 62.3513 18.5601 62.3532 18.6713C61.9463 18.7857 61.5182 18.874 61.165 19.1318C60.8623 19.3629 60.8049 19.7974 60.7992 20.1677C60.7967 22.7432 60.7992 25.3205 60.7992 27.8966C60.7905 28.2848 60.9022 28.7403 61.2579 28.9152C61.701 29.1272 62.1984 29.1272 62.6746 29.1402C63.3698 29.1421 64.1218 29.0388 64.6779 28.5469C65.1971 28.0771 65.5579 27.443 65.8949 26.8175H66.2556L65.8974 29.7991C62.7851 29.7991 59.674 29.7978 56.5617 29.7991C56.5599 29.6853 56.5599 29.5729 56.5599 29.461C56.9955 29.3324 57.481 29.2477 57.8255 28.906C58.0807 28.571 58.0826 28.1068 58.102 27.6952C58.1057 25.2185 58.1038 22.7413 58.1026 20.2653C58.0945 19.8716 58.0514 19.413 57.7481 19.1466C57.4017 18.871 56.968 18.7826 56.5611 18.6713ZM42.5586 31.7614C42.6472 30.5241 43.9385 29.5902 45.108 29.8392C45.6272 29.9239 46.0479 30.2719 46.4485 30.597C46.0553 30.5605 45.6378 30.5241 45.2696 30.7033C44.7117 30.927 44.3697 31.6224 44.5675 32.2114C44.658 32.4895 44.8946 32.6947 45.1604 32.7881C45.5829 32.9413 46.0385 32.8764 46.4772 32.8764C47.6411 32.8468 48.8238 32.908 49.9459 33.2559C50.7659 33.5063 51.5298 33.9173 52.2506 34.3833C51.2905 34.0328 50.2758 33.8515 49.2525 33.8474C48.126 33.8289 47.0158 34.0551 45.8987 34.167C45.2016 34.2164 44.4546 34.2201 43.828 33.8592C43.0916 33.455 42.5006 32.649 42.5586 31.7614ZM74.2089 30.5927C74.6232 30.2663 75.057 29.9103 75.5918 29.8324C76.7819 29.6 78.0819 30.5951 78.1069 31.8572C78.1044 32.9957 77.1345 33.9389 76.0817 34.1336C75.1269 34.2844 74.1689 34.0903 73.2216 33.9729C71.6152 33.7411 69.9451 33.8048 68.4099 34.3833C69.2287 33.8518 70.1061 33.3981 71.051 33.1614C72.2474 32.8449 73.4918 32.8523 74.7181 32.8876C75.1637 32.9024 75.6898 32.8381 75.975 32.4401C76.3638 31.8776 76.0642 31.0352 75.4832 30.7484C75.0932 30.529 74.6357 30.555 74.2089 30.5933" fill="#ECEAE1"/>
<path fill-rule="evenodd" clip-rule="evenodd" d="M37.7487 34.7739C37.3973 36.049 38.0214 37.5126 39.068 38.1196C39.9168 38.5924 40.9209 38.6734 41.8339 38.4088C43.0047 38.0411 44.0294 37.2852 45.1166 36.6999C44.0569 37.0651 42.976 37.3612 41.8757 37.5213C40.8635 37.661 39.782 37.3439 39.0218 36.5713C38.4414 35.9878 38.2611 34.9693 38.6143 34.1899C38.7772 33.7609 39.1211 33.4748 39.4343 33.1874C38.6811 33.3549 37.9628 33.9229 37.7487 34.7739ZM38.8596 32.1898C39.6528 31.9487 40.5926 32.1447 41.1593 32.8388C41.4433 33.2065 41.4364 33.7238 41.3584 34.1732C41.0932 33.9031 40.7873 33.5495 40.3904 33.6441C39.6122 33.8048 39.3033 35.0422 39.8512 35.6565C40.4035 36.274 41.2242 36.4508 41.9793 36.4359C42.8412 36.4452 43.6644 36.1232 44.4732 35.8265C45.9747 35.2499 47.4787 34.5255 49.0951 34.5137C50.958 34.4266 52.9806 34.7882 54.4048 36.2338C52.6948 35.3945 50.7215 35.1503 48.9172 35.748C47.5049 36.1869 46.3273 37.1962 45.0436 37.9403C43.6856 38.7593 42.219 39.475 40.6525 39.5362C39.3857 39.598 38.0327 39.0553 37.2738 37.8835C36.377 36.5645 36.4225 34.5799 37.3668 33.3073C37.7606 32.7961 38.2636 32.3567 38.8596 32.1898ZM81.2165 33.188C81.5554 33.4877 81.9155 33.8042 82.0721 34.2733C82.3904 35.0576 82.182 36.0521 81.5984 36.6121C81.2331 36.9644 80.7917 37.2298 80.3075 37.3883C79.8234 37.5468 79.3092 37.5942 78.8038 37.5268C77.6942 37.3686 76.6046 37.0725 75.5399 36.6968C76.4479 37.1819 77.2998 37.7969 78.2446 38.1968C79.2962 38.6684 80.5388 38.7098 81.5647 38.1338C82.7037 37.4935 83.3552 35.816 82.8048 34.4896C82.5277 33.7745 81.8774 33.3468 81.2165 33.188ZM79.4734 32.882C80.0707 32.0847 81.1404 31.9222 81.9885 32.2516C83.1636 32.7584 83.9943 34.1015 84.028 35.5026C84.0779 36.6943 83.5786 37.8933 82.738 38.6301C82.0503 39.2271 81.1766 39.5108 80.3135 39.5374C79.2806 39.5757 78.2652 39.2716 77.3135 38.8501C75.8344 38.1913 74.5051 37.203 73.1134 36.3574C71.0072 35.1194 68.4029 35.146 66.2554 36.2437C67.6609 34.8036 69.6623 34.4346 71.5077 34.5119C73.076 34.5106 74.547 35.1856 76.0023 35.7567C76.876 36.0836 77.7666 36.4508 78.7027 36.439C79.4554 36.4532 80.2741 36.2641 80.8165 35.6399C81.365 35.0088 81.0137 33.7461 80.213 33.6361C79.8323 33.5774 79.5546 33.9204 79.2981 34.1738C79.2369 33.7411 79.1914 33.2374 79.4728 32.882" fill="#ECEAE1"/>
<path fill-rule="evenodd" clip-rule="evenodd" d="M49.2586 35.9396C50.6297 35.3895 52.1226 35.4699 53.5367 35.7319C54.9821 36.0162 56.3913 36.5799 57.6369 37.4656C55.7347 36.6108 53.6253 36.46 51.6133 36.7771C50.9193 36.9341 50.1448 37.0521 49.6119 37.6288C49.2474 38.012 49.4271 38.7531 49.8677 38.9552C50.407 39.216 51.0079 39.1418 51.5784 39.1171C50.9462 39.7865 50.0806 40.1876 49.2112 40.1023C48.5934 40.0423 47.9418 39.7488 47.6011 39.1282C47.3945 38.7772 47.3515 38.3247 47.4607 37.9242C47.6947 36.9563 48.4467 36.2573 49.2586 35.9402V35.9396ZM63.5626 37.4582C65.31 36.2233 67.3632 35.6021 69.4127 35.531C70.4817 35.5113 71.597 35.6472 72.5424 36.2573C73.1877 36.6807 73.7382 37.4131 73.7925 38.2846C73.8449 38.9657 73.4031 39.5615 72.8838 39.8334C71.8029 40.4206 70.4668 40.0393 69.623 39.1189C70.2178 39.1387 70.8593 39.2283 71.4104 38.9094C71.816 38.656 71.9246 37.9434 71.557 37.5929C71.0266 37.0527 70.282 36.9322 69.6074 36.7789C67.5885 36.4557 65.4722 36.6071 63.5626 37.4582ZM73.0498 43.2928C74.3704 42.8935 75.7908 42.8638 77.1126 43.2705C77.6805 43.422 78.2185 43.7199 78.8076 43.765C79.1652 43.7835 79.4716 43.5536 79.7356 43.3181H80.1113L80.1119 46.9907C79.9809 46.9907 79.8511 46.9919 79.7225 46.9932C79.1752 45.4808 77.9645 44.2613 76.511 43.8713C75.5156 43.6092 74.3991 43.6735 73.5154 44.2823C72.7184 44.8281 72.1955 45.7428 71.8884 46.6953C71.4622 48.0445 71.3848 49.4951 71.4428 50.9111C71.5158 52.3043 71.8129 53.7858 72.7184 54.8297C73.4549 55.6969 74.5763 56.0349 75.631 55.9812C76.1615 55.9564 76.7756 55.8606 77.1269 55.3724C77.4427 54.9045 77.3123 54.2907 77.3404 53.7512C77.3073 53.1146 77.4421 52.4304 77.1719 51.8364C76.9566 51.3704 76.4873 51.1565 76.046 51.0465C76.046 50.9204 76.0467 50.7962 76.0485 50.6726H81.337L81.3382 51.0477C80.9794 51.1757 80.5906 51.3308 80.3746 51.6924C80.1469 52.0805 80.1169 52.5577 80.1113 53.0064C80.1113 53.9372 80.1119 54.868 80.11 55.7995C78.5567 56.5461 76.8355 56.7352 75.1549 56.7327C73.7257 56.729 72.2729 56.3452 71.0752 55.4719C69.6093 54.4168 68.6264 52.6158 68.4466 50.7103C68.3118 49.2485 68.5458 47.7194 69.2442 46.4517C70.0867 44.9239 71.4784 43.7712 73.0498 43.2934V43.2928ZM13.7953 43.6488C14.5336 43.3231 15.4959 43.8509 15.6014 44.7582C15.7443 45.5914 15.0884 46.4147 14.3401 46.4134C13.6255 46.4771 12.916 45.7997 12.9284 44.9851C12.9097 44.3855 13.3029 43.846 13.7953 43.6488ZM46.655 43.6488C47.392 43.3243 48.3506 43.8484 48.4586 44.7527C48.6052 45.5871 47.9487 46.4153 47.1998 46.4128C46.4834 46.4789 45.7725 45.7972 45.7869 44.9814C45.7713 44.3824 46.1632 43.8435 46.6556 43.6488H46.655ZM58.1768 43.7786C59.3276 43.7069 60.4752 43.5827 61.6267 43.5524C61.6298 45.8473 61.6229 48.1416 61.631 50.4358C62.1022 49.6435 62.7182 48.8659 63.5857 48.6082C64.5137 48.3393 65.6139 48.4358 66.3591 49.1564C66.9345 49.7016 67.2016 50.544 67.2103 51.3605C67.2153 52.5484 67.2097 53.7363 67.2122 54.9243C67.2159 55.271 67.2565 55.6561 67.4905 55.9169C67.7345 56.1876 68.0865 56.2754 68.4104 56.373C68.4092 56.4917 68.4092 56.611 68.4104 56.7321H63.7298L63.7292 56.3736C64.2178 56.2327 64.807 55.9694 64.875 55.3402C64.9667 54.436 64.8925 53.5194 64.9162 52.6102C64.8943 51.8469 65.0179 51.0032 64.6247 50.3221C64.3115 49.7831 63.6449 49.6775 63.1163 49.8184C62.481 49.9822 62.0367 50.5477 61.6292 51.0638C61.626 52.3494 61.6279 53.6362 61.6267 54.923C61.6292 55.2704 61.6685 55.6604 61.9094 55.9163C62.1609 56.1771 62.5085 56.2673 62.833 56.3706V56.7321H58.1768C58.1755 56.6419 58.1755 56.462 58.1755 56.373C58.4938 56.2655 58.8414 56.1666 59.0698 55.8823C59.2963 55.5918 59.3294 55.1888 59.3319 54.8229C59.3332 51.8067 59.3313 48.7893 59.3344 45.7731C59.3313 45.3942 59.355 44.9684 59.1229 44.6562C58.8838 44.3515 58.51 44.2526 58.1755 44.1371L58.1768 43.7786ZM0.00187225 43.5524H6.43302L6.43489 43.9387C5.99242 44.0604 5.53185 44.1674 5.14304 44.4455C4.80479 44.6902 4.71867 45.1754 4.71243 45.5939C4.71368 48.628 4.70868 51.6621 4.71555 54.6956C4.69807 55.2209 5.01386 55.7395 5.49315 55.8279C6.37311 56.0349 7.31235 56.0479 8.18419 55.7815C9.24637 55.4373 9.84549 54.2969 10.3728 53.3012C10.5058 53.3 10.6393 53.3012 10.7722 53.3012C10.6393 54.4446 10.5064 55.5881 10.3747 56.7321H0.00187225C0.00187225 56.6017 0.00062408 56.4713 0 56.3427C0.476797 56.2012 0.996656 56.1005 1.38171 55.7333C1.68065 55.3718 1.68938 54.8396 1.70998 54.3767V45.6866C1.70124 45.244 1.63135 44.7286 1.28373 44.4535C0.903044 44.1624 0.441225 44.058 0 43.9387C0.00062408 43.8089 0.000624093 43.6803 0.00187225 43.5524ZM17.2371 48.45C18.4328 48.3542 19.6248 48.1885 20.8218 48.1366C20.8256 48.7794 20.8193 49.4222 20.8256 50.065C21.23 49.3796 21.7529 48.7374 22.4569 48.4117C23.4392 47.9506 24.6911 48.0538 25.5012 48.8554C26.0229 49.3406 26.2931 50.086 26.3019 50.824C26.3118 52.0175 26.3006 53.2128 26.3062 54.4069C26.3156 54.7345 26.3487 55.0979 26.5652 55.3501C26.8086 55.6128 27.1531 55.7037 27.472 55.81C27.472 55.8965 27.472 56.0714 27.4708 56.1592H22.8788C22.8788 56.0714 22.8782 55.8977 22.8769 55.8106C23.3668 55.6969 23.9566 55.4397 24.0227 54.8223C24.097 53.9378 24.0364 53.0453 24.0564 52.1565C24.0358 51.4353 24.1563 50.6398 23.7756 49.9995C23.501 49.5093 22.9324 49.3221 22.4307 49.4111C21.7217 49.4957 21.1488 50.0761 20.833 50.7399C20.8081 51.8932 20.8318 53.0478 20.8218 54.2024C20.8299 54.5744 20.8243 54.991 21.0471 55.2994C21.2718 55.58 21.615 55.6864 21.9252 55.8087L21.9246 56.1592H17.4249C17.4218 56.0714 17.4181 55.8946 17.4156 55.8069C17.7339 55.703 18.0771 55.6079 18.3199 55.3452C18.5433 55.0992 18.5807 54.7358 18.5801 54.4076V50.2139C18.5789 49.8573 18.5321 49.455 18.2718 49.204C17.9847 48.9352 17.5953 48.8752 17.2371 48.7992V48.45ZM57.4422 48.1372L57.7524 48.1378C57.8135 49.1033 57.8728 50.0699 57.9346 51.036H57.5789C57.192 50.2282 56.6946 49.4259 55.9388 48.9698C55.0626 48.4395 53.8506 48.5087 53.1017 49.259C52.4839 49.8697 52.2218 50.7813 52.1662 51.6578C52.1038 52.6405 52.2049 53.6974 52.7398 54.5306C53.4824 55.7543 55.0688 55.9694 56.2696 55.4991C56.8699 55.2432 57.3305 54.7339 57.7524 54.2283C57.8578 54.2289 58.0694 54.2326 58.1755 54.2333C57.6831 55.3044 56.7844 56.1567 55.7041 56.4769C54.5565 56.8205 53.3058 56.8273 52.1675 56.4373C51.0485 56.0411 50.0656 55.0998 49.7273 53.8698C49.4109 52.698 49.5251 51.3648 50.1548 50.3326C50.8463 49.1985 52.0108 48.4271 53.2571 48.2201C54.3767 48.0087 55.5019 48.2485 56.6147 48.3869C56.9136 48.445 57.1969 48.3066 57.4422 48.1372ZM11.8513 48.45C13.057 48.3529 14.259 48.1898 15.4672 48.1366C15.4678 50.2622 15.466 52.3871 15.4678 54.5126C15.466 54.8544 15.5646 55.2141 15.8136 55.4428C16.0532 55.6789 16.3821 55.7488 16.6916 55.8131L16.6985 56.1592H11.9518L11.9511 55.8087C12.2913 55.7148 12.6663 55.6505 12.9359 55.386C13.1662 55.1288 13.1924 54.7469 13.2024 54.4088C13.203 53.012 13.2012 51.6151 13.203 50.2189C13.198 49.8573 13.1656 49.4358 12.886 49.1917C12.584 48.9556 12.2058 48.8876 11.85 48.8004C11.85 48.683 11.85 48.5662 11.8513 48.45ZM30.5706 49.1243C30.0807 49.6787 29.9328 50.484 29.8872 51.235H33.1355C33.0737 50.3957 32.8335 49.4859 32.1982 48.9673C31.9602 48.777 31.6563 48.6869 31.352 48.7163C31.0476 48.7456 30.767 48.8921 30.5706 49.1243ZM30.7466 48.2219C31.9292 47.9988 33.2385 48.1929 34.2027 49.0421C34.9635 49.6787 35.4178 50.6849 35.5482 51.7264C33.661 51.7338 31.7738 51.7276 29.8866 51.7295C29.8579 52.5768 29.9546 53.4601 30.3471 54.2017C30.6973 54.8754 31.2658 55.4367 31.9573 55.6116C32.8609 55.839 33.847 55.5287 34.5272 54.8291C34.7956 54.5788 34.9897 54.2493 35.2268 53.9675L35.5513 53.9459C35.0396 55.3007 33.9013 56.2921 32.6263 56.6017C31.6284 56.8384 30.55 56.7674 29.6201 56.2741C29.0946 55.9851 28.639 55.5862 28.285 55.1051C27.931 54.624 27.687 54.0724 27.57 53.4885C27.364 52.4322 27.4739 51.2758 27.9725 50.3388C28.5666 49.23 29.6064 48.4351 30.7466 48.2219ZM44.4177 48.4549C45.7014 48.3715 46.9814 48.1861 48.2682 48.1366C48.2695 50.3308 48.2682 52.5268 48.2682 54.7222C48.262 55.0955 48.3893 55.4898 48.6814 55.7203C48.931 55.9317 49.2512 55.9923 49.557 56.0603L49.5563 56.4163H44.5381C44.5369 56.2951 44.5356 56.174 44.5369 56.0547C44.92 55.9515 45.3606 55.8854 45.6371 55.5566C45.8905 55.1925 45.8649 54.7129 45.8705 54.2852C45.8655 52.9162 45.8743 51.5453 45.8668 50.175C45.8637 49.7652 45.7469 49.277 45.3469 49.1064C44.98 48.9518 44.5531 48.7405 44.1674 48.9506C43.5652 49.2065 43.2088 49.8178 42.9099 50.3882C41.8914 52.4971 40.8953 54.6189 39.8831 56.7321C39.7327 56.7315 39.5823 56.7315 39.4319 56.7321C38.4315 54.6647 37.4323 52.5972 36.4301 50.5304C36.181 50.0465 35.9183 49.5458 35.5077 49.1904C35.2162 48.942 34.838 48.8573 34.4742 48.8165L34.4754 48.458C36.1292 48.458 37.7831 48.4568 39.4369 48.458V48.8091C39.1978 48.8987 38.9145 48.9642 38.7741 49.2108C38.6068 49.4976 38.7023 49.853 38.8415 50.1287C39.4469 51.3555 40.0553 52.5805 40.6607 53.8062C41.155 52.7882 41.6505 51.7709 42.1423 50.7517C42.3376 50.3128 42.5367 49.785 42.3401 49.3097C42.1791 48.9512 41.7753 48.8678 41.4402 48.8122C41.4402 48.6935 41.4402 48.5754 41.4414 48.458C42.4325 48.4549 43.426 48.4623 44.4177 48.4549ZM81.8768 48.45C83.0944 48.3529 84.3101 48.1904 85.5308 48.1366C85.5327 48.9729 85.5277 49.8091 85.5327 50.646C85.9627 49.7386 86.4594 48.7522 87.36 48.3035C88.0552 47.9537 88.9114 48.1861 89.4182 48.7881C89.2528 49.5693 89.0812 50.3499 88.9189 51.1324C88.3623 50.6287 87.7145 50.0137 86.9281 50.1534C86.3833 50.2183 85.967 50.6441 85.6394 51.0805C85.4484 51.2857 85.5564 51.5966 85.5308 51.8518C85.5595 52.8735 85.4721 53.9026 85.5795 54.9181C85.6519 55.5596 86.3296 55.6969 86.8133 55.8081C86.8114 55.9243 86.8102 56.0405 86.8114 56.1592H81.9973C81.996 56.0424 81.9954 55.9255 81.9954 55.8087C82.348 55.6975 82.7399 55.6128 83.0089 55.3205C83.2398 55.046 83.2535 54.6505 83.2598 54.2994C83.2591 52.973 83.2604 51.6466 83.2591 50.3203C83.2567 49.9247 83.1892 49.4908 82.9115 49.2046C82.6357 48.9185 82.24 48.8492 81.8768 48.7967V48.4506V48.45ZM93.7281 48.7806C93.2638 48.8999 92.865 49.2331 92.611 49.6626C92.098 50.5304 92.0056 51.5929 92 52.5966C92.0031 53.6393 92.1991 54.7704 92.8987 55.5454C93.6226 56.3656 94.9956 56.3551 95.6933 55.5034C96.3704 54.6913 96.5202 53.5466 96.5352 52.4953C96.5327 51.4303 96.4166 50.269 95.7632 49.4173C95.2833 48.7819 94.4445 48.5847 93.7287 48.7806H93.7281ZM93.0429 48.2472C94.2336 48.0451 95.4967 48.0964 96.6226 48.5983C97.6916 49.0841 98.6165 50.0384 98.9585 51.2523C99.2768 52.4248 99.1114 53.7679 98.4237 54.7562C97.686 55.8427 96.4915 56.4991 95.2646 56.6617C93.8716 56.8496 92.3639 56.6901 91.1719 55.8347C90.2476 55.1826 89.5493 54.1158 89.4463 52.9143C89.284 51.5842 89.8295 50.2214 90.7625 49.3524C91.4015 48.7547 92.2128 48.4024 93.0429 48.2472ZM99.6537 48.4611C100.805 48.3597 101.953 48.1935 103.107 48.1366C103.109 49.9766 103.109 51.8178 103.107 53.6578C103.099 54.0806 103.099 54.551 103.363 54.8927C103.717 55.3687 104.335 55.4509 104.857 55.365C105.563 55.2481 106.037 54.5738 106.389 53.9477C106.421 52.7623 106.391 51.5743 106.404 50.3876C106.398 50.052 106.429 49.6806 106.238 49.3962C106.004 49.0285 105.584 48.9141 105.212 48.8171V48.4611C106.368 48.3597 107.52 48.1898 108.677 48.1378C108.68 50.2566 108.677 52.376 108.68 54.4953C108.693 54.8693 108.695 55.2988 108.939 55.593C109.198 55.8588 109.557 55.9404 109.887 56.0492C109.886 56.1684 109.884 56.2884 109.886 56.4089C108.724 56.5158 107.563 56.6209 106.401 56.7284C106.401 56.0677 106.404 55.4076 106.401 54.7469C106.031 55.3019 105.614 55.8347 105.075 56.195C104.182 56.8119 103.011 56.8947 102.04 56.4583C101.329 56.1369 100.854 55.3316 100.844 54.4898C100.824 53.0157 100.846 51.5397 100.834 50.0644C100.824 49.7652 100.767 49.4395 100.564 49.2226C100.315 48.9691 99.9695 48.903 99.6531 48.819V48.4605" fill="#ECEAE1"/>
<mask id="mask0" mask-type="alpha" maskUnits="userSpaceOnUse" x="109" y="48" width="11" height="15">
<path d="M109.977 48.2071H120V62.4629H109.977L109.977 48.2071Z" fill="white"/>
</mask>
<g mask="url(#mask0)">
<path fill-rule="evenodd" clip-rule="evenodd" d="M113.792 49.9952C113.694 50.1188 113.518 50.2202 113.535 50.4099C113.531 51.9329 113.533 53.4545 113.535 54.9769C113.907 55.3465 114.33 55.6765 114.821 55.8063C115.441 55.9806 116.147 55.8428 116.625 55.3539C117.215 54.7667 117.479 53.8767 117.53 53.0182C117.575 52.1671 117.507 51.2765 117.156 50.5057C116.906 49.9618 116.479 49.4921 115.937 49.3376C115.18 49.1101 114.35 49.3981 113.792 49.9952ZM109.979 48.526C111.164 48.4284 112.346 48.2603 113.533 48.2071C113.532 48.7102 113.536 49.2133 113.53 49.7171C114.019 49.1441 114.609 48.6558 115.292 48.4179C116.166 48.1113 117.152 48.1274 117.991 48.5619C118.922 49.0576 119.621 50.0422 119.869 51.1547C120.194 52.627 119.926 54.3279 118.935 55.42C118.009 56.5134 116.545 56.8818 115.25 56.574C114.606 56.4046 114.062 55.9577 113.533 55.5374C113.536 57.2266 113.53 58.9152 113.535 60.6044C113.549 60.9814 113.588 61.4141 113.856 61.6823C114.152 61.9481 114.539 62.0284 114.898 62.1298C114.896 62.2398 114.896 62.3504 114.896 62.4629H109.979C109.977 62.3455 109.977 62.2281 109.979 62.1106C110.362 62.034 110.813 61.971 111.066 61.597C111.282 61.2083 111.29 60.7317 111.307 60.2886C111.309 57.0338 111.307 53.7772 111.307 50.5224C111.295 50.1244 111.289 49.6707 111.039 49.3567C110.75 49.0601 110.346 48.9847 109.979 48.8821V48.526Z" fill="#ECEAE1"/>
</g>
</svg>
