<svg width="1326" height="209" viewBox="0 0 1326 209" fill="none" xmlns="http://www.w3.org/2000/svg">
<path fill-rule="evenodd" clip-rule="evenodd" d="M-153.176 68.4893H-33.1182C-24.0176 68.4893 -14.7793 68.7216 -5.48096 68.9554C23.3503 69.6802 52.7588 70.4195 80.4303 64.2946C100.412 59.7757 119.291 51.8793 138.16 43.9869C157.948 35.7105 177.724 27.4384 198.752 23.07C253.718 11.7875 289.157 40.717 317.074 86.4256C322.123 94.6912 327.098 104.437 332.325 114.677C352.251 153.715 375.842 199.933 421.22 198.672C454.43 197.792 484.63 181.029 513.791 164.842L513.795 164.84L513.797 164.839C522.992 159.735 532.083 154.688 541.133 150.215C613.601 114.343 689.686 91.3437 770.544 108.991C797.304 114.777 822.473 124.468 847.352 135.606C851.763 137.589 856.335 139.855 861.024 142.179L861.028 142.18C876.171 149.686 892.523 157.79 908.538 158.894C944.433 161.237 972.798 135.58 999.236 111.667C1008.7 103.105 1017.92 94.7666 1027.15 88.0168C1076.47 51.9995 1127.68 51.7102 1175.85 88.74C1182.44 93.8335 1189.55 100.287 1197.04 107.085C1228.47 135.611 1266.56 170.183 1301.26 135.606C1310.45 126.453 1318.41 116.563 1326.19 106.905L1326.2 106.903C1347.06 81.0011 1366.58 56.7657 1404.82 52.8674C1396.29 43.8992 1393.4 39.2705 1393.4 29.2898C1355.95 36.2741 1338.55 61.2131 1320.15 87.5724C1311.11 100.519 1301.84 113.808 1289.83 125.481C1260.77 153.672 1220.66 117.652 1189.17 89.3778C1178.65 79.9338 1169.1 71.3539 1161.24 66.3196C1109.31 33.1953 1046.97 39.8491 1002.41 82.8095C995.153 89.7803 988.284 97.8993 981.335 106.112C960.599 130.62 939.157 155.963 904.488 154.121C888.96 153.333 873.607 145.718 859.178 138.561C855.058 136.518 851.014 134.512 847.063 132.713C819.58 120.273 791.807 107.978 762.589 100.167C686.359 79.4826 599.137 84.6899 530.14 125.047C520.214 130.84 510.33 138.517 500.241 146.352L500.241 146.353L500.24 146.353C477.837 163.753 454.423 181.938 427.295 182.038C388.315 182.147 365.325 138.078 346.13 101.285C339.896 89.3356 334.063 78.154 328.212 69.5019C297.691 24.3718 257.624 -7.45066 200.488 1.51749C178.224 5.02476 157.287 13.3146 136.363 21.5993C117.59 29.0319 98.8285 36.4604 79.1285 40.4277C51.8054 45.9574 22.7756 45.229 -5.58496 44.5175C-15.0597 44.2797 -24.4598 44.0439 -33.6967 44.0439H-154.477H-634.852H-1270V68.7786H-638.613H-153.176V68.4893ZM-148.113 113.62H-31.0933C-22.4347 113.62 -13.5535 113.895 -4.57043 114.172C23.3634 115.034 52.2816 115.926 78.5497 108.702C96.9922 103.64 113.59 94.3823 130.189 85.1249C146.787 75.8674 163.385 66.61 181.828 61.5473C233.612 47.3718 260.516 80.2068 284.962 121.576C285.341 122.22 285.72 122.863 286.098 123.505L287.314 125.572L288.065 126.849C320.483 181.975 347.579 228.052 420.063 223.987C467.362 221.383 513.505 216.61 559.214 203.591C584.678 196.376 609.948 186.433 635.322 176.449C688.789 155.413 742.718 134.194 799.907 137.921C820.374 139.296 839.349 145.63 858.258 151.942C875.165 157.585 892.019 163.211 909.839 165.26C949.976 169.891 986.597 148.016 1021.63 127.089C1035.84 118.603 1049.79 110.273 1063.6 103.929C1117.12 79.4836 1151.26 88.1625 1195.66 124.758C1240.79 161.933 1279.27 189.705 1331.78 149.927C1336.68 146.199 1341.46 142.472 1346.16 138.808C1381.18 111.479 1411.79 87.5868 1460.51 91.9233C1456.58 89.4551 1453.17 87.3499 1450 85.3977L1449.96 85.3718L1449.95 85.3642L1449.9 85.3355L1449.9 85.3335L1449.89 85.3305L1449.88 85.3205C1442.16 80.5581 1435.89 76.6936 1427.1 70.6601C1385.28 71.365 1361.49 95.4459 1335.35 121.903L1335.35 121.905C1329.3 128.023 1323.14 134.268 1316.59 140.38C1273.34 180.676 1235.84 148.245 1199.91 117.174L1199.91 117.173C1193.53 111.662 1187.21 106.193 1180.91 101.181C1138.53 67.4779 1096.15 64.5849 1048.99 91.3447C1036.54 98.4311 1024.11 107.669 1011.42 117.096C980.355 140.188 947.761 164.413 909.55 160.92C886.779 158.85 865.024 149.628 843.166 140.361C823.784 132.145 804.322 123.894 783.996 120.564C710.026 108.213 642.381 135.842 575.316 163.233C568.546 165.998 561.782 168.761 555.019 171.479C552.132 172.648 549.241 173.823 546.347 175C505.884 191.456 464.639 208.23 420.497 210.39C364.377 213.255 339.897 167.529 316.626 124.062C311.706 114.872 306.84 105.783 301.741 97.2753C277.585 56.7739 246.919 28.7123 197.45 38.8376C175.773 43.2939 155.87 52.6801 135.951 62.0743C117.723 70.6709 99.4808 79.2741 79.8516 84.1123C52.6526 90.8024 23.3749 90.0085 -5.20764 89.2335C-14.3226 88.9863 -23.3668 88.7411 -32.2504 88.7411H-150.861H-637.601H-1270V113.476H-636.588H-148.113V113.62ZM-35.7219 158.75H-149.415H-638.324H-1270V134.015H-635.72H-153.176H-30.2252C-21.6083 134.015 -12.6805 134.344 -3.61438 134.678C23.3878 135.673 51.6183 136.714 76.5248 129.242C93.4636 124.167 107.977 114.666 122.489 105.167C136.106 96.252 149.722 87.3386 165.338 82.0865C213.072 66.1753 239.976 95.9727 263.554 133.726C301.452 194.188 331.539 235.558 409.07 233.677C423.847 233.318 438.543 233.334 453.184 233.349C497.444 233.397 541.193 233.444 585.106 223.118C616.159 215.866 646.36 203.461 676.59 191.044C721.133 172.747 765.737 154.426 813.215 152.53C834.287 151.723 853.917 156.503 873.563 161.287C889.116 165.075 904.68 168.865 920.978 169.888C959.615 172.341 995.725 153.991 1030.69 136.226C1045.2 128.851 1059.51 121.577 1073.73 115.934C1096.15 106.966 1122.76 98.5764 1146.92 104.652C1164.94 109.186 1181.28 122.782 1196.2 135.205L1196.21 135.207L1196.22 135.218L1196.24 135.236C1200.35 138.654 1204.35 141.982 1208.25 145.008C1228.79 160.775 1252.08 178.567 1278.84 181.026C1305.33 183.422 1326.19 168.907 1346.71 154.626C1348.48 153.391 1350.26 152.159 1352.03 150.939C1396 120.852 1432.74 99.8782 1487.27 109.859C1498.84 118.538 1503.91 123.022 1509.4 132.279C1460.08 116.223 1421.31 122.299 1377.2 149.492C1370.75 153.469 1364.37 157.96 1357.94 162.494C1340.26 174.947 1322.14 187.719 1300.82 191.006C1269.72 195.78 1241.37 180.592 1216.35 164.246C1210.26 160.302 1204.24 155.748 1198.16 151.145C1185.72 141.738 1173.01 132.122 1158.92 127.072C1136.07 118.827 1111.62 124.758 1089.2 131.556C1073.37 136.392 1057.64 142.798 1041.83 149.234C1004.21 164.552 966.16 180.043 925.317 174.95C917.744 174.004 910.356 172.871 903.069 171.754C876.952 167.75 852.124 163.944 824.642 169.598C786.682 177.436 751.323 192.819 715.902 208.229C676.143 225.526 636.307 242.857 592.627 249.589C555.312 255.297 518.9 251.27 482.386 247.232C456.905 244.414 431.375 241.591 405.453 242.067C403.96 242.096 402.469 242.128 400.983 242.159C366.196 242.885 333.393 243.569 302.32 224.564C277.218 209.232 260.771 185.627 244.383 162.105C243.3 160.552 242.218 158.998 241.134 157.448C216.833 122.877 189.061 91.9226 143.497 110.727C131.386 115.666 121.396 123.769 111.409 131.869C100.045 141.087 88.6848 150.302 74.2103 154.844C49.9591 162.436 20.9425 161.035 -6.34021 159.718C-16.4852 159.228 -26.3905 158.75 -35.7219 158.75ZM1274.35 197.371C1252.13 193.859 1233.58 182.528 1215.08 171.229C1198.53 161.121 1182.03 151.039 1162.97 146.6C1126.59 138.152 1087.72 150.728 1050.26 162.849C1031.28 168.993 1012.65 175.019 994.893 178.133C974.353 181.749 954.391 179.868 934.574 177.988L932.723 177.819C915.837 176.279 898.932 174.738 881.489 176.831C843.445 181.378 807.484 198.96 772.118 216.252C752.352 225.916 732.773 235.489 713.119 242.646C670.303 258.268 624.305 269.984 578.307 269.261C551.837 268.853 526.227 263.645 500.569 258.427C489.772 256.232 478.967 254.034 468.086 252.192C444.464 248.167 420.64 247.645 397.179 247.131C343.924 245.965 292.544 244.84 249.668 202.867C242.252 195.605 235.21 187.039 228.08 178.366L228.08 178.365C208.229 154.219 187.696 129.242 156.515 129.242C152.031 129.242 147.402 129.676 142.629 130.833C127.345 134.229 116.899 143.955 106.387 153.741C98.0952 161.461 89.7628 169.218 78.9836 173.938C55.8401 183.919 23.8729 182.327 -5.05652 180.592C-7.27771 180.475 -9.4812 180.352 -11.6622 180.23C-20.2755 179.75 -28.538 179.29 -36.1558 179.29H-177.332H-685.768H-1270V203.88H-689.963H-175.451C-129.453 203.88 -83.4556 203.735 -37.4576 203.446C-27.7507 203.446 -17.4966 203.857 -6.96118 204.278L-6.06909 204.314C22.5712 205.616 53.2365 206.773 78.1158 198.239C89.5439 194.257 97.8528 186.555 106.146 178.868C114.122 171.474 122.084 164.094 132.793 160.052C169.02 146.366 197.109 172.548 222.731 196.431C229.334 202.586 235.774 208.588 242.146 213.716C287.094 249.864 335.509 250.478 385.77 251.116C412.338 251.453 439.423 251.797 466.784 257.4C486.959 261.52 506.576 267.699 526.201 273.88L526.202 273.88C546.535 280.284 566.876 286.691 587.854 290.813C639.349 300.794 691.711 296.888 741.47 279.675C776.619 267.525 812.347 253.639 844.314 234.545C852.708 229.495 860.651 223.77 868.583 218.051C877.465 211.648 886.334 205.255 895.809 199.83C922.531 184.519 951.417 186.084 980.739 187.673L980.862 187.679C991.855 188.258 1002.85 188.837 1013.84 188.547C1040.49 187.848 1067.03 185.627 1093.59 183.404C1121.96 181.031 1150.35 178.656 1178.88 178.133C1204.64 177.605 1225.65 186.482 1247.16 195.572C1261.04 201.438 1275.13 207.393 1290.84 210.968C1292.68 211.39 1295.03 212.109 1297.84 212.968C1314.27 217.985 1346.29 227.766 1382.11 210.968C1424.06 191.296 1494.94 158.316 1536.16 182.183C1535.33 180.336 1534.71 178.905 1534.21 177.755L1534.2 177.749C1533.26 175.575 1532.75 174.403 1532.09 173.316C1531.33 172.047 1530.38 170.894 1528.32 168.395L1528.32 168.39L1528.31 168.38L1528.3 168.371L1528.29 168.358C1525.57 165.063 1520.93 159.439 1512.3 148.191C1461.76 124.342 1417.02 155.774 1382.27 180.184C1372.76 186.865 1364 193.019 1356.08 197.371C1327.68 212.964 1306.22 206.43 1288.87 201.147C1283.69 199.569 1278.88 198.103 1274.35 197.371ZM69.1477 246.406C-4.91199 249.878 -79.8394 250.022 -154.044 250.022H-154.094C-315.215 250.022 -476.336 250.022 -637.311 249.878H-1270V225.143H-637.456H-154.188C-116.291 225.143 -78.2483 224.709 -40.2059 224.13C-29.0647 223.952 -17.6901 224.186 -6.23853 224.421C19.479 224.949 45.5845 225.486 70.3048 221.382C86.9141 218.631 95.9863 211.644 106.421 203.609C110.799 200.237 115.417 196.681 120.932 193.176C154.056 172.057 188.048 192.163 216.11 211.691C270.931 249.733 317.508 258.846 384.335 255.374C437.075 252.663 482.258 271.895 528.131 291.421C553.217 302.098 578.51 312.864 605.356 320.176C686.07 342.018 784.575 316.126 849.811 264.198C858.565 257.251 866.885 249.506 875.187 241.777C900.771 217.96 926.191 194.295 963.648 194.622C993.371 194.903 1022.96 197.901 1052.56 200.9C1084.03 204.09 1115.52 207.281 1147.21 207.207C1159.85 207.137 1172.6 205.565 1185.31 203.998C1199.05 202.304 1212.73 200.617 1226.18 200.842C1242.75 201.112 1257.19 207.652 1272.06 214.391L1272.97 214.803C1273.77 215.164 1274.56 215.525 1275.36 215.886C1303.14 228.47 1331.2 241.054 1362.44 234.69C1377.75 231.591 1392.32 224.703 1406.79 217.86C1415.28 213.842 1423.74 209.839 1432.31 206.628C1472.08 191.874 1504.2 189.415 1544.12 205.182C1548.9 211.218 1552.64 215.756 1556.41 220.339L1556.42 220.344L1556.42 220.346C1560.06 224.767 1563.73 229.231 1568.42 235.124C1524.74 225.288 1490.46 236.281 1449.38 250.601C1444.49 252.283 1439.52 254.145 1434.47 256.033L1434.47 256.034L1434.46 256.036C1416.94 262.592 1398.6 269.455 1380.52 270.128C1356.31 271.082 1336.53 259.647 1316.63 248.145L1316.62 248.143C1312.39 245.695 1308.15 243.244 1303.86 240.91C1274.48 224.831 1249.69 228.646 1222.58 232.82C1207.25 235.18 1191.17 237.655 1173.1 236.715C1143.96 235.164 1115.46 228.161 1086.95 221.155C1051.63 212.474 1016.29 203.79 979.705 205.471C933.528 207.551 900.886 242.607 869.628 276.177C857.412 289.297 845.406 302.191 832.887 312.799C765.771 369.646 670.593 392.79 590.168 352.433C570.252 342.475 551.026 330.374 531.788 318.266C483.402 287.812 434.94 257.311 375.222 260.726C313.747 264.342 270.497 259.135 215.097 233.533C183.275 218.778 155.502 211.401 123.535 229.772C104.297 240.765 92.2913 245.249 69.1477 246.406ZM1392.24 301.083C1372.05 297.952 1356.86 285.879 1341.61 273.762C1336.43 269.643 1331.24 265.519 1325.85 261.739C1298.77 242.827 1274.36 248.604 1247.97 254.849C1231.36 258.778 1213.98 262.892 1194.65 261.16C1164.92 258.469 1136.77 248.304 1108.64 238.152C1071.77 224.841 1034.96 211.552 994.748 215.162C941.156 220.016 902.234 266.443 866.088 309.559C851.6 326.84 837.558 343.59 823.196 356.917C789.493 388.306 750.583 407.833 705.742 417.38C656.128 427.939 620.255 411.738 580.622 382.375C567.353 372.538 553.919 361.444 540.183 350.102C488.479 307.409 432.495 261.18 364.952 265.066C310.565 268.248 270.063 266.802 218.135 251.469C184.432 241.488 163.892 245.538 132.937 260.437C114.397 269.26 97.4393 268.701 77.7676 268.053C75.1854 267.968 72.5564 267.881 69.871 267.814C26.976 266.733 -15.9191 268.041 -58.8141 269.35L-58.8156 269.35C-90.5582 270.318 -122.301 271.286 -154.043 271.286C-261.447 271.382 -368.786 271.35 -476.147 271.318H-476.163H-476.179H-476.195L-476.484 271.318C-530.084 271.302 -583.69 271.286 -637.311 271.286H-1270V296.02H-633.117C-579.736 296.02 -526.372 296.036 -473.013 296.053H-472.997H-472.981H-472.965C-366.279 296.085 -259.615 296.117 -152.886 296.02C-123.809 295.965 -94.7098 294.793 -65.606 293.622H-65.6049H-65.6038H-65.6027C-19.1331 291.752 27.349 289.881 73.7765 292.549C80.8387 292.964 88.2948 293.976 95.9047 295.009C114.792 297.573 134.626 300.265 151.742 294.285C160.765 291.094 168.396 286.89 175.761 282.833C189.766 275.118 202.807 267.933 222.619 269.261C231.82 269.818 240.887 271.249 249.949 272.68C259.692 274.217 269.429 275.754 279.321 276.204C293.981 276.818 308.356 274.907 322.705 272.999C335.398 271.311 348.07 269.627 360.902 269.695C437.3 270.281 502.749 335.232 558.485 390.542L558.487 390.545L558.49 390.548L558.492 390.55C571.451 403.411 583.885 415.75 595.81 426.637C598.814 429.38 601.818 432.178 604.836 434.989C631.893 460.192 660.019 486.39 698.799 482.616C749.281 477.698 789.782 452.384 824.932 416.946C851.454 390.204 873.622 360.029 895.831 329.797L895.833 329.796C902.815 320.292 909.801 310.782 916.927 301.372C940.65 269.984 966.108 237.727 1005.74 228.181C1052.59 216.918 1092.66 237.31 1132.89 257.788C1157.24 270.183 1181.65 282.61 1207.67 288.065C1234.57 293.687 1253.67 286.767 1274.69 279.154C1283.96 275.797 1293.6 272.306 1304.44 269.695C1322.66 265.355 1333.95 272.154 1347.25 284.159C1352.92 289.326 1358.06 295.086 1363.18 300.835C1374.27 313.272 1385.32 325.661 1401.64 331.893C1422.33 339.704 1447.06 334.207 1467.46 327.843C1482.14 323.263 1496.11 317.667 1509.95 312.125C1538.51 300.686 1566.49 289.479 1598.94 287.92C1596.92 277.65 1594.02 272.009 1586.79 260.582C1548.19 257.465 1516.24 269.052 1481.9 281.511L1481.89 281.514L1481.86 281.525C1474.78 284.094 1467.59 286.7 1460.22 289.222L1458.54 289.776C1438.19 296.472 1413.91 304.461 1392.24 301.083ZM1372.92 322.355C1381.56 332.994 1390.13 343.55 1403.23 349.685C1423.19 359.087 1447.06 354.169 1467.46 348.673C1483.56 344.291 1498.93 338.715 1514.2 333.175C1540.77 323.535 1567.04 314.004 1596.34 311.064C1591.82 325.19 1584.95 338.488 1578.17 351.631L1577.68 352.578C1553.97 354.291 1530.99 358.645 1507.93 363.014C1493.99 365.654 1480.03 368.299 1465.87 370.37L1464.31 370.602L1463.19 370.768C1444.35 373.582 1423.49 376.696 1405.4 369.791C1395.86 366.201 1389.16 360.142 1382.31 353.952L1382.3 353.95C1378.67 350.665 1374.99 347.343 1370.83 344.333C1359.11 335.944 1352.46 334.642 1338 336.378C1328.03 337.613 1319.62 339.73 1311.74 341.714C1294.69 346.005 1280.12 349.673 1257.57 342.453C1233.9 334.883 1213.29 320.371 1192.77 305.921C1161.14 283.649 1129.72 261.526 1087.61 265.211C1040.46 269.261 999.232 310.197 969 342.453C954.725 357.66 941.022 373.532 927.305 389.422L927.302 389.426L927.301 389.427C902.657 417.973 877.965 446.576 849.811 471.479C813.36 503.88 763.312 543.079 710.805 540.042C662.324 537.214 618.357 494.014 584.623 460.869L584.601 460.847L584.493 460.742C582.039 458.33 579.639 455.972 577.295 453.687C570.202 446.769 562.331 438.79 553.806 430.148C477.661 352.956 349.362 222.892 257.913 324.227C239.687 344.478 226.524 356.918 197.016 358.509C174.321 359.703 151.223 354.154 128.227 348.629C112.237 344.788 96.2964 340.958 80.5748 339.415C29.8068 334.414 -21.8232 336.554 -73.2709 338.686C-100.685 339.822 -128.048 340.956 -155.201 341.007C-263.301 341.103 -371.401 341.071 -479.501 341.039C-533.551 341.023 -587.601 341.007 -641.651 341.007H-1270V316.272H-637.311C-583.594 316.272 -529.892 316.288 -476.195 316.304H-476.179H-476.163C-368.797 316.336 -261.453 316.368 -154.044 316.272C-124.285 316.216 -94.5044 314.984 -64.7192 313.752C-17.0496 311.78 30.6328 309.807 78.2604 312.656C88.9521 313.306 100.152 315.108 111.519 316.936C135.521 320.796 160.269 324.775 182.551 318.297C192.991 315.266 201.988 309.632 210.944 304.024C221.223 297.587 231.447 291.185 243.737 288.789C271.654 283.292 303.477 278.519 331.538 275.77C418.793 267.306 496.621 345.172 558.204 406.784L558.205 406.785C568.187 416.772 577.742 426.332 586.841 435.027C590.996 439.005 595.314 443.285 599.791 447.722C631.944 479.588 672.254 519.539 718.471 513.571C769.387 506.917 813.07 475.095 846.773 438.065C868.087 414.783 886.716 389.474 905.358 364.148C918.219 346.676 931.085 329.196 944.844 312.366C970.592 280.833 999.521 246.118 1042.34 240.476C1085.81 234.842 1120.88 255.069 1156.09 275.379C1181.45 290.006 1206.88 304.676 1235.59 309.763C1252.94 312.8 1267.7 311.788 1284.62 307.448C1290.7 305.928 1296.45 303.242 1302.17 300.569L1302.17 300.568C1309.51 297.139 1316.8 293.733 1324.69 292.839C1338.58 291.248 1347.4 295.732 1357.67 305.279C1363.3 310.498 1368.12 316.438 1372.92 322.353L1372.92 322.355ZM1407.14 385.558C1401.73 384.595 1396.67 382.646 1391.61 380.701C1386.8 378.848 1381.99 376.999 1376.91 376.011C1361.47 372.961 1347.4 375.699 1333.47 378.41C1314.37 382.128 1295.52 385.796 1273.77 374.42C1256.69 365.478 1241.12 351.706 1225.43 337.822L1225.43 337.82C1195.68 311.502 1165.48 284.782 1123.63 289.801C1069.82 296.165 1022.81 336.811 984.912 372.25C968.824 387.279 953.228 403.011 937.61 418.766C908.433 448.199 879.176 477.711 846.484 502.867C808.152 532.375 767.217 558.99 717.603 561.16C662.189 563.533 613.24 514.856 575.826 477.65L575.73 477.555C574.405 476.237 573.094 474.934 571.798 473.648C558.39 460.328 544.743 445.119 530.621 429.382L530.62 429.38C475.271 367.698 412.628 297.888 328.501 301.807C295.402 303.269 284.169 325.131 271.452 349.881C270.331 352.063 269.198 354.268 268.038 356.483C239.367 411.258 184.347 393.08 133.293 376.213C115.318 370.274 97.8347 364.497 82.1658 362.125C30.969 354.445 -22.6403 356.818 -75.606 359.162L-75.6071 359.162C-100.457 360.262 -125.164 361.355 -149.415 361.401C-258.083 361.498 -366.686 361.466 -475.311 361.434H-475.327C-529.651 361.417 -583.979 361.401 -638.324 361.401H-1270V386.136H-639.192H-151.729C-129.35 386.136 -105.935 384.97 -82.1498 383.786C-26.4541 381.013 31.2678 378.139 82.4552 389.897C100.012 393.909 119.02 402.644 138.352 411.528C189.419 434.996 242.749 459.504 277.585 400.746C282.008 393.271 285.587 385.093 289.135 376.986L289.136 376.983C299.047 354.338 308.718 332.24 335.878 327.554C417.295 313.613 475.562 387.432 524.742 449.736C536.287 464.362 547.331 478.354 558.057 490.427C592.483 529.337 652.222 592.548 710.66 591.97C769.097 591.391 823.774 555.085 868.181 520.514C891.485 502.436 913.848 483.078 936.215 463.716C966.464 437.531 996.72 411.341 1029.32 388.306C1070.4 359.376 1116.69 328.566 1168.61 328.277C1209.27 328.089 1231.46 353.802 1254.29 380.257C1266.63 394.559 1279.16 409.078 1294.89 419.839C1326.14 441.247 1354.63 429.82 1384.43 414.487C1406.41 403.06 1436.5 396.84 1460.08 408.267C1469.76 412.918 1476.59 419.186 1483.13 425.189C1494.08 435.244 1504.23 444.556 1525.6 444.284C1531.97 432.911 1538.46 421.667 1544.94 410.422C1548.19 404.791 1551.44 399.16 1554.68 393.513C1535.52 393.513 1516.7 391.947 1497.86 390.38L1497.86 390.38C1486.41 389.427 1474.95 388.474 1463.41 387.872C1456.65 387.505 1449.84 387.537 1443.02 387.568C1431 387.624 1418.95 387.68 1407.14 385.558ZM1387.47 446.309C1403.38 426.782 1432.45 401.613 1458.78 426.058C1466.52 433.253 1469.18 443.533 1471.74 453.455C1475.93 469.667 1479.87 484.924 1505.35 484.207C1497.98 500.697 1495.37 507.929 1495.37 517.765C1466.67 521.931 1466.25 500.922 1465.84 479.943C1465.59 467.414 1465.34 454.895 1459.07 447.755C1449.38 436.618 1426.67 437.63 1414.37 443.416C1401.45 449.543 1397.79 458.329 1393.36 468.982C1392.03 472.162 1390.64 475.508 1388.91 478.999C1373 511.545 1334.38 512.124 1306.03 492.307C1295.45 484.898 1286.65 476.753 1278.12 468.869C1260.18 452.28 1243.49 436.845 1214.18 431.844C1148.22 420.562 1077.34 454.409 1022.66 486.955C994.529 503.707 967.434 522.253 940.346 540.794C906.855 563.717 873.375 586.633 837.95 606.145C795.568 629.433 748.991 653.878 699.522 643.174C636.166 629.578 584.816 582.133 548.944 530.06C540.755 518.128 532.898 503.307 524.676 487.796C497.314 436.181 465.903 376.928 404.73 391.054C374.345 397.977 356.296 419.027 337.794 440.606C328.464 451.488 319.018 462.504 307.816 471.912C275.994 498.527 231.008 511.979 190.796 498.382C170.738 491.602 153.093 479.958 135.454 468.319C116.969 456.122 98.4911 443.928 77.2479 437.341C52.4351 429.681 23.8405 430.792 -3.43506 431.851C-12.7303 432.212 -21.8723 432.568 -30.6592 432.568H-154.333H-640.204H-1270V407.833H-635.576H-152.886C-112.53 407.833 -72.1731 407.688 -31.8164 407.543C-23.675 407.512 -15.3787 407.275 -7.00659 407.037C22.5519 406.195 53.0541 405.326 81.0088 413.329C101.381 419.179 121.603 430.212 141.615 441.131C192.365 468.82 241.769 495.774 288.867 435.605C295.796 426.739 301.509 416.529 307.213 406.334C320.679 382.265 334.097 358.283 363.361 352.288C434.95 337.484 482.154 407.735 521.986 467.014C534.306 485.349 545.921 502.635 557.333 516.029C593.785 558.845 639.204 602.384 695.472 616.27C749.261 629.4 810.629 589.478 853.485 561.6C854.538 560.915 855.579 560.237 856.609 559.568C886.275 540.236 914.233 518.479 942.192 496.719C971.763 473.706 1001.34 450.691 1032.93 430.542L1035.25 429.065C1081.8 399.415 1150.21 355.846 1208.39 369.646C1230.61 374.882 1251.62 397.545 1272.6 420.165C1308.99 459.405 1345.26 498.518 1387.47 446.309Z" fill="white"/>
</svg>
