<svg width="383" height="54" viewBox="0 0 383 54" fill="none" xmlns="http://www.w3.org/2000/svg">
<path d="M131.4 8.37766V29.8777H112.6V8.37766H105.8V53.1777H112.6V31.7777H131.4V53.1777H138.2V8.37766H131.4Z" fill="white"/>
<path d="M22.9 8.37766H0V53.1777H6.8V10.2777H22.9V8.37766Z" fill="white"/>
<path d="M38.5001 36.3777C38.3001 36.3777 37.5001 36.3777 36.5001 36.3777V10.2777H38.5001C48.1001 10.2777 51.6001 16.1777 51.6001 23.3777C51.6001 30.5777 48.0001 36.3777 38.5001 36.3777ZM41.9001 8.37766H29.6001V53.1777H36.4001V38.2777H41.8001C50.0001 38.2777 57.9001 32.3777 57.9001 23.6777V22.9777C57.9001 14.2777 50.1001 8.37766 41.9001 8.37766Z" fill="white"/>
<path d="M63.0999 41.7777L74.9999 11.1777L87.6999 41.7777H63.0999ZM92.3999 53.1777H100.2L81.6999 8.37766H73.8999L56.3999 53.1777H58.5999L62.2999 43.6777H88.3999L92.3999 53.1777Z" fill="white"/>
<path d="M151 51.2777C154.2 48.3777 156.6 42.2777 158.4 32.9777C160 24.0777 160.5 14.3777 160.6 10.2777H169.5V51.2777H151ZM176.3 51.2777V8.37766H175.1H169.4H151.4V10.2777H158.6C158.4 20.3777 156 51.2777 146.3 51.2777H142.5V53.1777H169.3H176.1H179.1V51.2777H176.3Z" fill="white"/>
<path d="M212.3 51.3777C211.9 51.3777 211.1 51.3777 210.3 51.3777V25.1777C211.1 25.1777 211.9 25.1777 212.3 25.1777C221.9 25.1777 225.4 31.0777 225.4 38.2777C225.4 45.4777 221.9 51.3777 212.3 51.3777ZM215.7 23.3777H210.3V10.3777H225.4V8.47766H203.5V53.2777H210.3H215.7C223.9 53.2777 231.8 47.3777 231.8 38.3777C231.8 29.2777 223.9 23.3777 215.7 23.3777Z" fill="white"/>
<path d="M382.8 10.2777V8.37766H360V53.1777H382.8V51.2777H366.8V31.8777H377.3V29.9777H366.8V10.2777H382.8Z" fill="white"/>
<path d="M379.905 3.21188e-07L366.286 3.65049L366.804 5.58229L380.423 1.9318L379.905 3.21188e-07Z" fill="white"/>
<path d="M282.9 36.3777C282.7 36.3777 281.9 36.3777 280.9 36.3777V10.2777C281.9 10.2777 282.8 10.2777 282.9 10.2777C292.4 10.2777 296 16.1777 296 23.3777C296 30.5777 292.5 36.3777 282.9 36.3777ZM286.3 8.37766H274V53.1777H280.8V38.2777H286.2C294.4 38.2777 302.3 32.5777 302.3 23.2777C302.4 14.1777 294.5 8.37766 286.3 8.37766Z" fill="white"/>
<path d="M265.9 8.37766C264.2 12.9777 258.3 28.4777 255.1 36.8777L242.1 8.37766H235.2L252 44.8777C249.8 49.9777 248.2 51.4777 245.3 51.4777C241.5 51.4777 239.8 48.2777 239.8 45.9777H237.5C237.5 49.6777 240.5 53.7777 245.2 53.7777C250.6 53.7777 252.6 49.3777 255 43.1777C256 40.4777 266.6 12.5777 268.2 8.47766H265.9V8.37766Z" fill="white"/>
<path d="M353.7 47.1777C353.7 49.0777 352.2 51.2777 349.6 51.2777C342.6 51.2777 346.1 37.0777 334.1 36.7777C338.2 33.9777 339.5 28.3777 340.8 23.1777C342.5 16.2777 343.9 10.2777 350.4 10.2777V8.47766C342.4 8.47766 340.6 15.7777 338.9 22.7777C337.4 28.7777 336 34.5777 331 36.1777V8.37766H324.2V36.1777C319.2 34.5777 317.8 28.8777 316.3 22.7777C314.6 15.7777 312.8 8.47766 304.8 8.47766V10.3777C311.3 10.3777 312.8 16.3777 314.4 23.2777C315.6 28.4777 317 34.0777 321.1 36.8777C309.1 37.1777 312.6 51.3777 305.6 51.3777C303 51.3777 301.5 49.1777 301.5 47.2777C300.6 47.2777 300.7 47.2777 300 47.2777C300 50.7777 302.8 53.7777 306.5 53.7777C318.6 53.7777 316.4 38.3777 322.5 38.3777C323.2 38.3777 323.7 38.3777 324.2 38.3777V53.2777H331V38.2777C331.4 38.2777 331.9 38.2777 332.7 38.2777C338.8 38.2777 336.6 53.6777 348.7 53.6777C352.4 53.6777 355.2 50.7777 355.2 47.1777C354.5 47.1777 354.6 47.1777 353.7 47.1777Z" fill="white"/>
</svg>
