<svg width="320" height="100" viewBox="0 0 320 100" fill="none" xmlns="http://www.w3.org/2000/svg">
<g clip-path="url(#clip0)">
<path fill-rule="evenodd" clip-rule="evenodd" d="M-545.353 16.2972H-462.817C-456.561 16.2972 -450.21 16.461 -443.817 16.6258C-423.997 17.137 -403.779 17.6583 -384.756 13.3391C-371.019 10.1526 -358.041 4.58421 -345.068 -0.981394C-331.465 -6.81773 -317.869 -12.651 -303.413 -15.7315C-265.626 -23.6877 -241.263 -3.28725 -222.071 28.9455C-218.601 34.7717 -215.183 41.6408 -211.591 48.8582L-211.591 48.8592L-211.59 48.8605L-211.589 48.8619L-211.589 48.8634L-211.588 48.8648L-211.587 48.8663L-211.586 48.8675C-197.887 76.3968 -181.669 108.988 -150.473 108.099C-127.643 107.479 -106.881 95.6574 -86.8336 84.2428L-86.8311 84.2413C-80.5094 80.6419 -74.2589 77.083 -68.037 73.9286C-18.217 48.632 34.0887 32.4136 89.6761 44.8579C108.073 48.938 125.375 55.7721 142.479 63.6263C145.507 65.0228 148.646 66.6182 151.864 68.2542L151.871 68.2577L151.876 68.2601L151.878 68.2612L151.881 68.2626C162.292 73.5551 173.533 79.2699 184.543 80.0487C209.219 81.7011 228.72 63.6084 246.895 46.7449L246.897 46.7437L246.897 46.7429C253.404 40.706 259.741 34.8268 266.084 30.0675C299.994 4.66894 335.196 4.46493 368.309 30.5775C372.844 34.1694 377.733 38.7205 382.881 43.5137C404.488 63.6301 430.674 88.0093 454.525 63.6263C460.845 57.1711 466.321 50.1966 471.669 43.3856C486.012 25.1201 499.431 8.02996 525.724 5.28095C519.857 -1.0432 517.868 -4.30728 517.868 -11.3454C492.127 -6.42027 480.16 11.1661 467.512 29.7542C461.299 38.8837 454.923 48.2548 446.669 56.4861C426.691 76.3664 399.115 50.9658 377.468 31.0273C370.238 24.3676 363.669 18.3172 358.266 14.7672C322.567 -8.59137 279.708 -3.89927 249.08 26.3954C244.088 31.3111 239.365 37.0365 234.588 42.828C220.333 60.1103 205.592 77.9814 181.758 76.6826C171.083 76.1272 160.528 70.7571 150.609 65.7102C147.777 64.2693 144.997 62.8549 142.28 61.5863C123.387 52.8141 104.294 44.1439 84.2069 38.6357C31.8016 24.0494 -28.1611 27.7215 -75.5944 56.1801C-82.4181 60.2658 -89.213 65.6791 -96.1489 71.2047L-96.1497 71.2053C-111.551 83.4752 -127.648 96.2988 -146.297 96.3691C-173.094 96.4461 -188.9 65.3698 -202.096 39.4237L-202.097 39.4213L-202.098 39.4194L-202.099 39.4178L-202.099 39.4162L-202.1 39.4148L-202.101 39.4136L-202.101 39.4126C-206.385 30.9906 -210.393 23.1098 -214.414 17.0112C-235.396 -14.8135 -262.941 -37.254 -302.22 -30.9299C-317.526 -28.4566 -331.919 -22.6109 -346.304 -16.7686C-359.21 -11.5274 -372.108 -6.28895 -385.651 -3.49125C-404.435 0.408142 -424.392 -0.105473 -443.889 -0.607248C-450.402 -0.774883 -456.865 -0.941196 -463.215 -0.941196H-546.248H-876.491H-1313.14V16.5012H-879.076H-545.353V16.2972ZM-541.872 48.1221H-461.425C-455.472 48.1221 -449.367 48.3154 -443.191 48.5108C-423.988 49.1187 -404.107 49.748 -386.049 44.654C-373.37 41.0839 -361.959 34.5558 -350.548 28.0276C-339.137 21.4995 -327.727 14.9713 -315.048 11.4012C-279.448 1.40498 -260.952 24.5595 -244.147 53.7322C-243.431 54.9774 -242.72 56.2171 -242.013 57.4504C-219.727 96.3244 -201.099 128.817 -151.269 125.95C-118.752 124.114 -87.0302 120.748 -55.6069 111.568C-38.1008 106.479 -20.7286 99.4679 -3.28479 92.4277C33.472 77.593 70.5469 62.6299 109.863 65.2585C123.933 66.2279 136.977 70.6944 149.977 75.1455C161.6 79.1252 173.186 83.0925 185.438 84.5369C213.03 87.8027 238.206 72.3772 262.292 57.6202C272.059 51.6358 281.646 45.7613 291.143 41.2879C327.936 24.0495 351.404 30.1697 381.933 55.9763C412.958 82.1909 439.409 101.775 475.506 73.7247C478.881 71.0954 482.164 68.4676 485.392 65.8834C509.467 46.6117 530.514 29.7637 564.009 32.8217C561.275 31.0619 558.908 29.5638 556.712 28.1743L556.708 28.1721C551.396 24.8108 547.088 22.0848 541.038 17.8274C512.286 18.3244 495.932 35.3057 477.964 53.9624C473.808 58.2772 469.567 62.6817 465.065 66.9925C435.336 95.4084 409.552 72.5385 384.85 50.6282C380.468 46.7413 376.12 42.8847 371.79 39.3499C342.654 15.5833 313.517 13.5433 281.1 32.4137C272.538 37.4109 263.993 43.9252 255.274 50.5727C233.915 66.8567 211.507 83.9396 185.239 81.4769C169.585 80.0171 154.629 73.5137 139.602 66.9792C126.278 61.1854 112.897 55.3671 98.9241 53.0182C48.072 44.3091 1.56799 63.7921 -44.5372 83.108L-44.5541 83.1151L-44.564 83.1193L-44.5775 83.125L-44.5874 83.1292C-49.2246 85.0719 -53.8577 87.0128 -58.4907 88.923C-60.4534 89.7377 -62.4182 90.5573 -64.3855 91.3781L-64.4137 91.3898L-64.4525 91.406C-92.2698 103.01 -120.624 114.839 -150.971 116.362C-189.551 118.383 -206.381 86.1371 -222.379 55.4849L-222.38 55.4818C-225.762 49.0023 -229.107 42.5941 -232.612 36.5958C-249.218 8.03514 -270.3 -11.7533 -304.308 -4.61316C-319.211 -1.47069 -332.893 5.14826 -346.587 11.7728C-359.118 17.8349 -371.659 23.9018 -385.154 27.3136C-403.852 32.0313 -423.98 31.4714 -443.629 30.9249C-449.895 30.7506 -456.113 30.5777 -462.22 30.5777H-543.762H-878.38H-1313.14V48.0201H-877.684H-541.872V48.1221ZM-464.607 79.9467H-542.767H-878.877H-1313.14V62.5043H-877.087H-545.353H-460.828C-454.904 62.5043 -448.767 62.7363 -442.534 62.9719C-423.971 63.6737 -404.563 64.4073 -387.441 59.1382C-375.796 55.56 -365.818 48.86 -355.842 42.1611C-346.48 35.8746 -337.12 29.5891 -326.384 25.8855C-293.569 14.6652 -275.073 35.6777 -258.864 62.3003C-232.81 104.937 -212.127 134.11 -158.826 132.784C-148.668 132.53 -138.564 132.542 -128.499 132.553C-98.0714 132.586 -67.9952 132.619 -37.8069 125.338C-16.459 120.224 4.30371 111.476 25.0859 102.72C55.7075 89.8174 86.3713 76.8974 119.011 75.5606C133.497 74.9913 146.992 78.3623 160.499 81.7362C171.191 84.4071 181.89 87.0798 193.095 87.8009C219.657 89.5309 244.481 76.5911 268.515 64.0633C278.492 58.863 288.332 53.7336 298.104 49.754C313.518 43.4299 331.815 37.5137 348.421 41.7978C360.812 44.9954 372.043 54.5832 382.305 63.3437C385.137 65.7616 387.896 68.1164 390.584 70.2565C404.705 81.3748 420.715 93.9211 439.111 95.6551C457.326 97.3451 471.665 87.1094 485.773 77.0386C486.992 76.1681 488.21 75.2988 489.428 74.4386C519.658 53.2221 544.916 38.4318 582.405 45.4699C590.361 51.5901 593.841 54.7521 597.62 61.2803C563.711 49.958 537.06 54.2421 506.731 73.4186C502.299 76.2227 497.916 79.3901 493.492 82.5872C481.341 91.369 468.879 100.375 454.226 102.693C432.846 106.059 413.356 95.3491 396.153 83.8228C391.971 81.0415 387.833 77.8307 383.649 74.5849L383.647 74.5841C375.096 67.9501 366.356 61.1696 356.675 57.6082C340.963 51.7941 324.158 55.9762 308.744 60.7703C297.859 64.1804 287.043 68.6976 276.176 73.2362C250.312 84.0384 224.156 94.9622 196.078 91.371C190.871 90.7034 185.793 89.9048 180.783 89.117C162.829 86.2936 145.76 83.6094 126.867 87.5969C100.771 93.1237 76.462 103.972 52.1111 114.838C24.7784 127.036 -2.60779 139.257 -32.636 144.004C-58.2893 148.029 -83.3217 145.19 -108.424 142.343C-125.941 140.356 -143.492 138.365 -161.312 138.7L-162.175 138.718L-162.843 138.732L-164.386 138.765C-188.301 139.277 -210.852 139.759 -232.214 126.358C-249.47 115.546 -260.777 98.8996 -272.044 82.313C-272.788 81.2174 -273.532 80.1221 -274.277 79.0287C-290.983 54.6501 -310.076 32.8216 -341.4 46.0819C-349.725 49.5647 -356.593 55.279 -363.458 60.9911C-371.271 67.4916 -379.081 73.9894 -389.032 77.1927C-405.704 82.5462 -425.652 81.5583 -444.408 80.6294C-451.382 80.284 -458.192 79.9467 -464.607 79.9467ZM436.028 107.181C420.754 104.705 408.001 96.7145 395.283 88.7464C383.906 81.6189 372.558 74.509 359.459 71.3785C334.447 65.4214 307.727 74.2898 281.973 82.8375C268.921 87.1696 256.117 91.4193 243.909 93.615C229.788 96.1651 216.065 94.8391 202.442 93.513L201.169 93.3941C189.561 92.3081 177.939 91.2209 165.947 92.697C139.793 95.9033 115.071 108.302 90.7577 120.496C77.1698 127.311 63.7095 134.062 50.198 139.108C20.7635 150.124 -10.8586 158.387 -42.4808 157.877C-60.6781 157.589 -78.2843 153.917 -95.9233 150.237C-103.346 148.689 -110.774 147.139 -118.255 145.84C-134.494 143.002 -150.872 142.634 -167.001 142.271C-203.612 141.449 -238.934 140.656 -268.41 111.057C-273.508 105.936 -278.349 99.8964 -283.25 93.7808L-283.252 93.7788C-296.898 76.7513 -311.014 59.1382 -332.45 59.1382C-335.533 59.1382 -338.715 59.4442 -341.997 60.2602C-352.503 62.6553 -359.685 69.5135 -366.912 76.4148C-372.612 81.8583 -378.34 87.3286 -385.75 90.657C-401.661 97.6951 -423.637 96.5731 -443.526 95.3491C-445.049 95.2668 -446.561 95.1804 -448.057 95.0949L-448.059 95.0948L-448.061 95.0947L-448.063 95.0946L-448.065 95.0944L-448.067 95.0943C-453.988 94.7558 -459.668 94.431 -464.905 94.431H-561.96H-911.494H-1313.14V111.771H-914.378H-560.667C-529.045 111.771 -497.422 111.669 -465.8 111.465C-459.127 111.465 -452.077 111.755 -444.834 112.052L-444.222 112.077C-424.532 112.995 -403.451 113.812 -386.347 107.793C-378.491 104.986 -372.779 99.5546 -367.078 94.1338C-361.594 88.9197 -356.12 83.7153 -348.758 80.8647C-323.853 71.2137 -304.543 89.677 -286.929 106.519C-282.389 110.859 -277.962 115.092 -273.581 118.708C-242.681 144.198 -209.397 144.631 -174.845 145.081C-156.58 145.319 -137.96 145.562 -119.15 149.512C-105.28 152.418 -91.7936 156.775 -78.3025 161.134C-64.3237 165.65 -50.3396 170.168 -35.9177 173.075C-0.516846 180.113 35.4807 177.359 69.6884 165.221C93.8524 156.652 118.414 146.86 140.391 133.396C146.161 129.835 151.621 125.797 157.075 121.765L157.076 121.764C163.182 117.249 169.279 112.741 175.792 108.915C194.163 98.1182 214.021 99.222 234.178 100.342L234.263 100.347C241.82 100.755 249.378 101.163 256.935 100.959C275.255 100.466 293.504 98.8996 311.763 97.3325C331.265 95.6586 350.778 93.9838 370.397 93.615C388.106 93.2431 402.545 99.5027 417.332 105.913C426.874 110.05 436.561 114.249 447.365 116.77C448.628 117.068 450.247 117.575 452.179 118.18C463.472 121.718 485.487 128.615 510.112 116.77C538.949 102.897 587.675 79.6407 616.016 96.4711C615.445 95.1692 615.016 94.1606 614.672 93.3496C614.017 91.8081 613.665 90.9806 613.214 90.2111C612.692 89.3192 612.037 88.5052 610.623 86.7477L610.621 86.7449L610.619 86.7424C608.751 84.4211 605.56 80.4556 599.608 72.5005C564.866 55.6828 534.107 77.8483 510.221 95.0616C503.684 99.7727 497.661 104.113 492.212 107.181C472.687 118.177 457.937 113.57 446.011 109.844C442.449 108.732 439.139 107.697 436.028 107.181ZM-392.512 141.76C-443.426 144.208 -494.936 144.31 -545.95 144.31C-656.727 144.31 -767.504 144.31 -878.181 144.208H-1313.14V126.766H-878.281H-546.049C-519.995 126.766 -493.843 126.46 -467.69 126.052C-460.03 125.926 -452.211 126.091 -444.338 126.257C-426.658 126.629 -408.711 127.007 -391.717 124.114C-380.298 122.174 -374.062 117.247 -366.888 111.58L-366.888 111.58C-363.878 109.203 -360.704 106.695 -356.913 104.223C-334.141 89.331 -310.772 103.509 -291.481 117.28C-253.792 144.106 -221.773 150.532 -175.831 148.084C-139.574 146.172 -108.512 159.734 -76.9752 173.503C-59.7294 181.033 -42.3418 188.625 -23.8854 193.781C31.6027 209.184 99.3218 190.925 144.17 154.306C150.187 149.409 155.906 143.947 161.613 138.497L161.615 138.496C179.203 121.701 196.678 105.012 222.429 105.243C242.863 105.441 263.203 107.555 283.551 109.67C305.19 111.92 326.839 114.17 348.62 114.118C357.315 114.069 366.08 112.96 374.814 111.855C384.258 110.661 393.667 109.47 402.915 109.629C414.304 109.819 424.227 114.431 434.451 119.183L434.478 119.196L435.665 119.747L436.118 119.957L436.724 120.238C455.817 129.112 475.109 137.986 496.588 133.498C507.113 131.313 517.126 126.456 527.073 121.63C532.913 118.796 538.731 115.974 544.618 113.71C571.964 103.305 594.04 101.571 621.485 112.69C624.776 116.948 627.345 120.149 629.941 123.383C632.443 126.5 634.97 129.648 638.192 133.804C608.16 126.868 584.593 134.62 556.352 144.718C552.993 145.905 549.569 147.219 546.099 148.551C534.055 153.174 521.447 158.013 509.018 158.489C492.374 159.161 478.772 151.097 465.092 142.986C462.18 141.26 459.264 139.531 456.314 137.884C436.113 126.546 419.078 129.236 400.437 132.18C389.898 133.844 378.846 135.589 366.42 134.926C346.39 133.833 326.797 128.894 307.197 123.954C282.911 117.832 258.616 111.708 233.468 112.894C201.723 114.36 179.282 139.081 157.793 162.754L157.792 162.755C149.394 172.007 141.141 181.099 132.535 188.579C86.3945 228.666 20.9624 244.987 -34.3267 216.528C-48.0187 209.506 -61.2358 200.973 -74.4613 192.434C-107.725 170.959 -141.041 149.45 -182.096 151.858C-224.358 154.408 -254.091 150.736 -292.177 132.682C-314.054 122.278 -333.146 117.076 -355.123 130.03C-368.348 137.782 -376.602 140.944 -392.512 141.76ZM517.073 180.317C503.195 178.109 492.751 169.596 482.269 161.051C478.705 158.146 475.138 155.238 471.429 152.572C452.812 139.236 436.031 143.31 417.89 147.714C406.476 150.484 394.524 153.386 381.236 152.164C360.8 150.267 341.442 143.099 322.11 135.94C296.76 126.553 271.453 117.181 243.809 119.728C206.967 123.15 180.209 155.89 155.359 186.294L155.358 186.296C145.398 198.482 135.745 210.292 125.872 219.69C102.703 241.824 75.9532 255.595 45.1266 262.327C11.0184 269.773 -13.6429 258.349 -40.8896 237.642C-50.0114 230.705 -59.2471 222.882 -68.6904 214.884C-104.235 184.777 -142.723 152.178 -189.156 154.918C-226.546 157.163 -254.389 156.142 -290.088 145.33C-313.258 138.292 -327.379 141.148 -348.659 151.654C-361.405 157.876 -373.063 157.482 -386.586 157.025L-386.591 157.025C-388.365 156.965 -390.171 156.904 -392.015 156.856C-421.505 156.094 -450.994 157.017 -480.483 157.939C-502.305 158.622 -524.127 159.305 -545.95 159.305C-619.786 159.373 -693.579 159.35 -767.386 159.327H-767.397H-767.408H-767.419C-804.334 159.316 -841.252 159.305 -878.181 159.305H-1313.14V176.747H-875.297C-838.6 176.747 -801.914 176.758 -765.231 176.77H-765.22H-765.209H-765.198C-691.855 176.792 -618.527 176.815 -545.154 176.747C-525.163 176.708 -505.158 175.882 -485.149 175.056C-453.203 173.737 -421.248 172.417 -389.33 174.299C-384.475 174.592 -379.349 175.305 -374.118 176.034C-361.134 177.842 -347.498 179.74 -335.732 175.523C-329.529 173.273 -324.282 170.308 -319.219 167.447C-309.591 162.007 -300.626 156.941 -287.006 157.877C-280.68 158.27 -274.447 159.279 -268.217 160.287C-261.519 161.372 -254.826 162.456 -248.025 162.773C-237.947 163.206 -228.064 161.858 -218.199 160.513C-209.474 159.323 -200.762 158.135 -191.94 158.183C-139.419 158.596 -94.4249 204.398 -56.1085 243.402L-56.1067 243.403C-47.1965 252.474 -38.6472 261.176 -30.4484 268.855C-28.3851 270.787 -26.3219 272.759 -24.2495 274.739L-24.2466 274.742L-24.2437 274.744C-5.6427 292.517 13.6931 310.991 40.3534 308.33C75.0582 304.862 102.902 287.012 127.066 262.021C145.299 243.163 160.539 221.884 175.808 200.565L175.81 200.562L175.812 200.559L175.814 200.556C180.612 193.857 185.413 187.154 190.31 180.521C206.618 158.387 224.12 135.64 251.367 128.908C283.577 120.965 311.119 135.346 338.775 149.786C355.516 158.527 372.3 167.29 390.186 171.137C408.682 175.101 421.814 170.222 436.262 164.853C442.632 162.486 449.258 160.024 456.712 158.183C469.242 155.122 476.998 159.917 486.146 168.383C490.044 172.026 493.573 176.086 497.096 180.139L497.097 180.14L497.098 180.142C504.722 188.913 512.315 197.649 523.536 202.044C537.756 207.552 554.761 203.676 568.782 199.188C578.876 195.958 588.482 192.012 597.996 188.103C617.63 180.037 636.868 172.134 659.173 171.035C657.781 163.793 655.792 159.815 650.82 151.756C624.283 149.558 602.322 157.73 578.71 166.515C573.832 168.33 568.884 170.171 563.81 171.953L562.652 172.343C548.663 177.066 531.973 182.699 517.073 180.317ZM503.795 195.317C509.73 202.819 515.62 210.263 524.63 214.59C538.353 221.22 554.761 217.752 568.782 213.876C579.851 210.786 590.417 206.854 600.915 202.947C619.181 196.149 637.24 189.428 657.384 187.355C654.277 197.315 649.558 206.691 644.894 215.959L644.556 216.63C628.255 217.838 612.456 220.908 596.606 223.989C587.026 225.851 577.428 227.716 567.688 229.176C567.079 229.269 566.467 229.363 565.851 229.457C552.897 231.441 538.558 233.637 526.122 228.768C519.561 226.236 514.953 221.963 510.245 217.599L510.243 217.597L510.242 217.596C507.743 215.28 505.217 212.937 502.355 210.816C494.301 204.9 489.727 203.982 479.782 205.206C472.928 206.077 467.147 207.57 461.729 208.969C450.013 211.994 439.997 214.581 424.493 209.49C408.216 204.152 394.048 193.918 379.942 183.728C358.198 168.022 336.601 152.422 307.651 155.021C275.233 157.877 246.892 186.743 226.109 209.49C216.295 220.213 206.875 231.407 197.444 242.612C180.502 262.743 163.526 282.915 144.17 300.476C119.111 323.324 84.7042 350.967 48.6072 348.825C15.2783 346.831 -14.9476 316.368 -38.1385 292.995L-38.162 292.971C-39.8723 291.247 -41.5446 289.562 -43.1768 287.93C-48.0507 283.053 -53.4596 277.429 -59.3177 271.338L-59.3188 271.336L-59.3243 271.33C-111.671 216.896 -199.874 125.178 -262.742 196.637C-275.271 210.918 -284.321 219.69 -304.607 220.812C-320.209 221.654 -336.088 217.741 -351.897 213.845C-362.89 211.136 -373.848 208.435 -384.656 207.348C-419.558 203.821 -455.052 205.33 -490.421 206.833C-509.267 207.635 -528.078 208.434 -546.745 208.47C-621.048 208.538 -695.351 208.515 -769.654 208.492H-769.691C-806.849 208.481 -844.007 208.47 -881.164 208.47H-1313.14V191.027H-878.181C-841.252 191.027 -804.333 191.039 -767.419 191.05H-767.408H-767.397C-693.586 191.073 -619.79 191.095 -545.949 191.027C-525.491 190.988 -505.018 190.119 -484.542 189.25C-451.77 187.86 -418.99 186.468 -386.247 188.477C-378.897 188.936 -371.198 190.206 -363.383 191.495C-346.883 194.217 -329.869 197.024 -314.551 192.455C-307.374 190.318 -301.189 186.345 -295.031 182.39C-287.965 177.852 -280.936 173.337 -272.487 171.647C-253.295 167.771 -231.418 164.405 -212.127 162.467C-152.142 156.498 -98.6371 211.407 -56.301 254.855C-49.4385 261.898 -42.8694 268.639 -36.6136 274.771C-33.7632 277.571 -30.8005 280.583 -27.7291 283.705L-27.7145 283.72L-27.7112 283.723C-5.60706 306.195 22.1047 334.367 53.8774 330.159C88.8806 325.467 118.912 303.026 142.082 276.913C156.734 260.496 169.54 242.649 182.356 224.79L182.357 224.788L182.358 224.787C191.199 212.467 200.044 200.141 209.502 188.273C227.203 166.037 247.091 141.556 276.526 137.578C306.413 133.605 330.52 147.868 354.727 162.191C372.16 172.505 389.645 182.85 409.378 186.437C421.311 188.579 431.454 187.865 443.089 184.805C447.271 183.733 451.223 181.839 455.156 179.954C460.201 177.536 465.214 175.134 470.634 174.503C480.18 173.381 486.246 176.543 493.306 183.275C497.18 186.957 500.494 191.146 503.795 195.317ZM527.315 239.886C523.598 239.207 520.116 237.833 516.641 236.462C513.33 235.155 510.026 233.851 506.532 233.154C495.922 231.003 486.25 232.934 476.672 234.846C463.538 237.468 450.582 240.054 435.63 232.032C423.885 225.727 413.184 216.014 402.395 206.223C381.946 187.664 361.184 168.822 332.411 172.361C295.419 176.849 263.101 205.512 237.047 230.502C225.987 241.1 215.265 252.195 204.528 263.305C184.47 284.06 164.357 304.871 141.882 322.61C115.531 343.419 87.3888 362.187 53.2806 363.717C15.1852 365.391 -18.4656 331.065 -44.1868 304.828L-44.2637 304.75C-45.171 303.824 -46.0682 302.909 -46.9557 302.006C-56.1736 292.613 -65.5558 281.888 -75.2644 270.789C-113.315 227.293 -156.38 178.064 -214.215 180.827C-236.969 181.858 -244.692 197.275 -253.434 214.728L-253.451 214.762C-254.216 216.29 -254.989 217.833 -255.781 219.384C-275.492 258.01 -313.316 245.191 -348.414 233.297L-348.415 233.296C-360.772 229.109 -372.791 225.035 -383.563 223.362C-418.759 217.947 -455.614 219.62 -492.026 221.273L-492.027 221.273C-509.11 222.048 -526.096 222.819 -542.767 222.852C-617.473 222.92 -692.135 222.897 -766.811 222.875H-766.822C-804.168 222.863 -841.517 222.852 -878.877 222.852H-1313.14V240.294H-879.474H-544.359C-528.974 240.294 -512.876 239.472 -496.525 238.637C-458.236 236.682 -418.554 234.655 -383.364 242.947C-371.294 245.776 -358.227 251.935 -344.936 258.2C-309.83 274.749 -273.167 292.032 -249.218 250.597C-246.177 245.326 -243.716 239.558 -241.277 233.84C-234.464 217.871 -227.815 202.288 -209.144 198.983C-153.172 189.153 -113.115 241.208 -79.3057 285.143C-71.3687 295.458 -63.7759 305.325 -56.4025 313.838C-32.7356 341.277 8.3335 385.852 48.5076 385.444C88.6816 385.036 126.27 359.433 156.798 335.055C172.819 322.307 188.193 308.656 203.569 295.003C224.365 276.538 245.165 258.068 267.576 241.824C295.817 221.424 327.638 199.697 363.337 199.493C391.285 199.361 406.539 217.493 422.234 236.149C430.718 246.234 439.331 256.473 450.149 264.061C471.628 279.157 491.218 271.099 511.703 260.287C526.818 252.229 547.501 247.843 563.71 255.901C570.365 259.18 575.06 263.6 579.557 267.834C587.088 274.924 594.062 281.491 608.757 281.299C613.128 273.283 617.587 265.358 622.046 257.433L622.056 257.415C624.289 253.446 626.522 249.477 628.745 245.497C615.574 245.497 602.634 244.392 589.685 243.287C581.81 242.615 573.932 241.943 565.997 241.518C561.353 241.26 556.67 241.282 551.981 241.305C543.717 241.344 535.435 241.383 527.315 239.886ZM513.791 282.727C524.73 268.957 544.718 251.209 562.816 268.447C568.139 273.52 569.965 280.77 571.727 287.767C574.607 299.199 577.317 309.958 594.836 309.452C589.764 321.08 587.974 326.18 587.974 333.117C568.239 336.054 567.953 321.239 567.668 306.445C567.498 297.61 567.328 288.782 563.015 283.747C556.352 275.893 540.74 276.607 532.287 280.687C523.404 285.008 520.89 291.204 517.842 298.716C516.932 300.958 515.975 303.318 514.786 305.78C503.847 328.731 477.297 329.139 457.806 315.164C450.534 309.939 444.48 304.196 438.62 298.636C426.289 286.938 414.816 276.053 394.661 272.527C349.316 264.571 300.59 288.44 263.002 311.39C243.659 323.204 225.032 336.281 206.41 349.356C183.386 365.521 160.37 381.681 136.016 395.44C106.88 411.862 74.8596 429.101 40.851 421.553C-2.70422 411.965 -38.0056 378.508 -62.667 341.787C-68.2965 333.372 -73.6978 322.921 -79.3505 311.983C-98.1608 275.586 -119.755 233.802 -161.809 243.763C-182.698 248.645 -195.106 263.489 -207.826 278.706C-214.24 286.379 -220.734 294.148 -228.435 300.782C-250.312 319.55 -281.238 329.037 -308.882 319.448C-322.672 314.667 -334.802 306.456 -346.928 298.249C-359.636 289.647 -372.339 281.049 -386.943 276.403C-404.002 271.002 -423.66 271.785 -442.411 272.532C-448.801 272.787 -455.086 273.037 -461.126 273.037H-546.148H-880.17H-1313.14V255.595H-876.988H-545.154C-517.418 255.595 -489.682 255.493 -461.947 255.391L-461.922 255.391C-456.325 255.368 -450.621 255.202 -444.866 255.034C-424.545 254.44 -403.576 253.827 -384.358 259.471C-370.353 263.596 -356.451 271.376 -342.693 279.076C-307.804 298.601 -273.84 317.609 -241.462 275.179C-236.698 268.927 -232.771 261.727 -228.85 254.538C-219.592 237.565 -210.368 220.653 -190.25 216.426C-141.034 205.986 -108.583 255.526 -81.1993 297.329C-72.7299 310.258 -64.7452 322.447 -56.8993 331.893C-31.8402 362.085 -0.615845 392.788 38.0667 402.58C75.0453 411.839 117.234 383.687 146.696 364.028C147.42 363.545 148.136 363.067 148.844 362.595C169.238 348.963 188.458 333.62 207.679 318.276C228.008 302.047 248.339 285.818 270.062 271.609L271.657 270.568C303.659 249.659 350.682 218.935 390.684 228.666C405.956 232.359 420.403 248.34 434.824 264.291C459.84 291.962 484.775 319.544 513.791 282.727Z" fill="white"/>
</g>
<defs>
<clipPath id="clip0">
<rect width="320" height="100" fill="white"/>
</clipPath>
</defs>
</svg>
