<svg width="20" height="19" viewBox="0 0 20 19" fill="none" xmlns="http://www.w3.org/2000/svg">
<path d="M12.7277 5.91457L15.8885 2.78712M17.6946 1L15.8885 2.78712L17.6946 1ZM9.01605 9.5871C9.48235 10.0423 9.85303 10.5843 10.1067 11.1819C10.3605 11.7795 10.4922 12.4208 10.4944 13.069C10.4966 13.7171 10.3692 14.3593 10.1195 14.9585C9.86987 15.5578 9.50287 16.1022 9.03966 16.5606C8.57646 17.0189 8.02621 17.382 7.42059 17.629C6.81497 17.8761 6.16595 18.0021 5.51088 18C4.85582 17.9978 4.20766 17.8674 3.60373 17.6164C2.9998 17.3653 2.45202 16.9986 1.99193 16.5372C1.08716 15.6103 0.586527 14.3689 0.597844 13.0803C0.609161 11.7917 1.13153 10.5591 2.05243 9.64786C2.97334 8.73666 4.2191 8.2198 5.52141 8.2086C6.82372 8.1974 8.07838 8.69276 9.01515 9.58799L9.01605 9.5871ZM9.01605 9.5871L12.7277 5.91457L9.01605 9.5871ZM12.7277 5.91457L15.4369 8.59525L18.5977 5.46779L15.8885 2.78712L12.7277 5.91457Z" stroke="#ECEAE1" stroke-linecap="round" stroke-linejoin="round"/>
</svg>
