<svg width="33" height="38" viewBox="0 0 33 38" fill="none" xmlns="http://www.w3.org/2000/svg">
<path d="M5.89242 25.644C6.14423 25.5198 6.33309 25.3956 6.5849 25.2714C6.77376 25.1473 7.02557 24.8368 7.02557 24.8368C7.02557 24.8368 6.64785 24.7747 6.45899 24.6505C5.76651 24.3401 5.26288 23.595 5.38879 22.8499C5.57765 21.546 6.96262 21.3597 8.03282 21.7323C10.1103 22.5395 11.5582 24.7126 12.0618 26.7616C12.1248 27.01 12.1877 27.4446 12.2507 27.7551H11.3064V28.9348H15.0206C14.8947 30.425 13.9504 32.0393 11.747 32.0393C12.4395 33.0949 13.4468 33.8399 14.5799 34.2746C14.7688 35.7027 15.3983 37.0066 16.4056 38C17.4128 37.0066 18.0424 35.7648 18.2312 34.2746C19.4273 33.8399 20.3716 33.0949 21.0641 32.0393C18.8607 32.0393 17.9164 30.425 17.7905 28.9348H21.5048V27.7551H20.5605C20.6234 27.4446 20.6864 27.01 20.7493 26.7616C21.3159 24.7126 22.7009 22.5395 24.8413 21.7323C25.9115 21.3597 27.2964 21.546 27.4853 22.8499C27.5483 23.595 27.1076 24.3401 26.4151 24.6505C26.2262 24.7126 26.0374 24.8368 25.8485 24.8368C25.8485 24.8368 26.2262 25.0852 26.3522 25.2094C26.541 25.3335 26.7928 25.5198 27.0446 25.5819C28.9962 26.4512 31.0736 25.5819 32.2068 23.9055C34.0324 21.2356 32.5215 17.6964 29.5628 16.5788C27.1076 15.6474 24.2747 16.6409 22.6379 18.5036C20.8123 20.5526 19.868 23.1604 19.4903 25.7682C19.4273 26.2649 19.3644 27.1963 19.3014 27.7551H17.9164C17.9164 27.5688 17.9164 27.3204 17.9164 27.1342C17.9794 25.3956 18.3571 23.6571 18.9237 21.9806C19.5532 20.18 20.3087 18.4415 20.9382 16.6409C21.6307 14.7781 22.0084 12.7292 22.0084 10.7423C22.0084 4.96783 16.5944 -0.0615064 16.5315 0.00058415C16.4056 0.0626747 10.9916 5.02992 10.9916 10.8664C10.9916 12.8533 11.3693 14.9023 12.0618 16.765C12.6913 18.6278 13.5097 20.3042 14.0763 22.1048C14.6429 23.7813 15.0836 25.4577 15.0836 27.2583C15.0836 27.4446 15.0836 27.693 15.0836 27.8793H13.6986C13.6356 27.3204 13.5727 26.4512 13.5097 25.8924C13.132 23.2845 12.1877 20.6147 10.3621 18.6278C8.66235 16.765 5.89242 15.7716 3.43725 16.7029C0.478454 17.8206 -1.03242 21.3597 0.793219 24.0296C1.86342 25.644 3.94087 26.5133 5.89242 25.644Z" fill="#ECEAE1"/>
</svg>
