<svg width="140" height="140" viewBox="0 0 140 140" fill="none" xmlns="http://www.w3.org/2000/svg">
<path d="M4.93624 81.8472L1.87892 83.567L1.78338 83.6625C1.68784 83.6625 1.68784 83.6625 1.68784 83.567L1.59229 83.1848C1.59229 82.9937 1.68784 82.8982 1.68784 82.8982L4.8407 81.1784L7.89803 81.8472C7.99357 81.8472 8.08911 81.9428 8.08911 82.0383L8.18465 82.4205C8.18465 82.516 8.18465 82.6115 8.08911 82.6115C8.08911 82.6115 7.99357 82.6115 7.89803 82.6115L4.93624 81.8472ZM1.49675 81.5606C1.40121 81.5606 1.30567 81.5606 1.30567 81.3695L1.21013 80.9873C1.21013 80.8918 1.30567 80.7963 1.40121 80.7007L7.6114 79.7453C7.70694 79.7453 7.80248 79.7453 7.80248 79.9364L7.89803 80.3186C7.89803 80.4141 7.80249 80.5096 7.70694 80.6052L1.49675 81.5606ZM7.22924 77.93L7.32478 77.8345C7.42032 77.8345 7.42032 77.8345 7.42032 77.93L7.51586 78.3122C7.51586 78.4077 7.42032 78.5988 7.32478 78.5988L4.55408 80.1275L1.01905 79.4587C0.923505 79.4587 0.827963 79.3631 0.827963 79.2676L0.732422 78.7899C0.732422 78.6943 0.732422 78.5988 0.827963 78.5988C0.827963 78.5988 0.923505 78.5988 1.01905 78.5988L4.45854 79.3631L7.22924 77.93Z" fill="#E23E28"/>
<path d="M5.03145 94.7453C4.93591 94.7453 4.84037 94.7453 4.74483 94.5542L4.64929 94.2676C4.64929 94.172 4.64929 94.0765 4.74483 93.9809L7.80215 92.93C8.47094 92.7389 9.42636 92.4523 9.42636 92.4523L4.07604 92.0701C3.9805 92.0701 3.88495 91.9746 3.78941 91.879L3.69387 91.4969C3.59833 91.4013 3.69387 91.3058 3.78941 91.2102L9.71298 89.2039C9.80852 89.2039 9.90406 89.2039 9.9996 89.3949L10.0951 89.6816C10.0951 89.7771 10.0951 89.8727 9.9996 89.9682L6.84674 91.0191C6.08241 91.3058 5.31808 91.4969 5.31808 91.4969L10.6684 91.879C10.7639 91.879 10.8595 91.9746 10.955 92.0701L11.0506 92.4523C11.0506 92.5478 11.0506 92.6434 10.955 92.7389L5.03145 94.7453Z" fill="#E23E28"/>
<path d="M9.61787 104.682C9.52233 104.682 9.42678 104.682 9.33124 104.586L9.14016 104.299C9.04462 104.204 9.14016 104.108 9.2357 104.013L14.2039 101.242L13.4395 99.809C13.344 99.7135 13.4395 99.6179 13.5351 99.5224L13.8217 99.3313C13.9172 99.2358 14.1083 99.3313 14.1083 99.4269L16.1147 102.962C16.1147 103.057 16.1147 103.153 16.0191 103.249L15.7325 103.44C15.637 103.535 15.5414 103.44 15.4459 103.344L14.6816 101.911L9.61787 104.682Z" fill="#E23E28"/>
<path d="M14.777 112.611L15.0636 112.42C15.1592 112.325 15.2547 112.325 15.3503 112.42C15.5414 112.611 15.9235 112.707 16.3057 112.325C17.8343 111.274 18.9808 110.414 20.3184 109.363C20.414 109.268 20.5095 109.268 20.605 109.459L22.1337 111.369C22.2292 111.465 22.2292 111.561 22.0382 111.656L17.1656 115.573C17.07 115.669 16.9745 115.669 16.8789 115.478L16.6878 115.191C16.5923 115.096 16.5923 115 16.6878 114.904L21.0828 111.274L20.2229 110.223C18.9808 111.178 17.2611 112.42 16.4968 112.994C15.828 113.471 15.0636 113.376 14.5859 112.803C14.6815 112.803 14.6815 112.707 14.777 112.611Z" fill="#E23E28"/>
<path d="M28.8221 120.255C29.1087 119.872 29.2042 119.299 28.631 118.821C28.0577 118.344 27.4845 118.439 27.1978 118.821L25.0004 121.401C24.6182 121.783 24.6182 122.357 25.1915 122.834C25.6692 123.312 26.338 123.121 26.6246 122.739L28.8221 120.255ZM27.1978 123.312C26.6246 123.981 25.5736 124.172 24.6182 123.407C23.6628 122.643 23.7584 121.497 24.3316 120.828L26.5291 118.248C27.1023 117.579 28.1533 117.388 29.1087 118.153C29.9686 118.917 29.9685 120.064 29.3953 120.732L27.1978 123.312Z" fill="#E23E28"/>
<path d="M36.9429 124.936L35.892 126.656L36.7518 127.134C37.134 127.325 37.6117 127.229 37.8028 126.847L38.0894 126.369C38.2805 125.987 38.1849 125.605 37.8028 125.319L36.9429 124.936ZM34.2678 129.427L35.0321 129.905C35.4143 130.191 35.9875 130 36.1786 129.618L36.5607 129.045C36.7518 128.758 36.7518 128.185 36.2741 127.898L35.5098 127.42L34.2678 129.427ZM38.0894 124.841C38.8537 125.319 39.0448 126.178 38.6627 126.943L38.376 127.42C38.185 127.803 37.7072 127.994 37.3251 128.089C37.5162 128.567 37.5162 129.045 37.2295 129.427L36.8474 130C36.3697 130.764 35.3187 130.955 34.5544 130.478L33.3123 129.713C33.2168 129.618 33.2168 129.522 33.2168 129.427L36.4652 124.077C36.5607 123.981 36.6563 123.981 36.7518 123.981L38.0894 124.841Z" fill="#E23E28"/>
<path d="M47.5476 136.306C47.5476 136.401 47.452 136.497 47.261 136.401L46.9743 136.306C46.8788 136.21 46.7833 136.115 46.8788 136.019L48.0253 132.962C48.3119 132.293 48.6941 131.433 48.6941 131.433L44.968 135.35C44.8724 135.446 44.7769 135.446 44.6813 135.446L44.2992 135.35C44.2036 135.35 44.1081 135.159 44.2036 135.064L46.4011 129.14C46.4011 129.044 46.4966 128.949 46.6877 129.044L46.9743 129.14C47.0699 129.236 47.1654 129.331 47.0699 129.427L45.9234 132.579C45.6368 133.344 45.2546 134.108 45.2546 134.108L48.9807 130.191C49.0762 130.095 49.1718 130.095 49.2673 130.095L49.6495 130.191C49.745 130.286 49.8406 130.382 49.745 130.478L47.5476 136.306Z" fill="#E23E28"/>
<path d="M58.3443 130.669C58.4398 130.669 58.5354 130.764 58.5354 130.86C58.5354 131.051 58.4398 131.337 58.822 131.433L59.1086 131.529C59.4908 131.624 59.5863 131.337 59.5863 131.146C59.5863 131.051 59.6819 131.051 59.7774 131.051L60.1596 131.146C60.2551 131.146 60.2551 131.242 60.2551 131.337C60.1596 131.911 59.6818 132.293 58.9175 132.197L58.6309 132.102C57.9621 132.006 57.5799 131.433 57.6755 130.86C57.6755 130.764 57.771 130.764 57.8666 130.764L58.3443 130.669ZM59.3952 139.267C59.3952 139.363 59.2997 139.459 59.1086 139.459L58.822 139.363C58.7264 139.363 58.6309 139.267 58.6309 139.172L59.2041 136.019C59.2997 135.35 59.5863 134.395 59.5863 134.395L56.6245 138.885C56.529 138.981 56.4334 139.076 56.3379 138.981L55.9557 138.885C55.8602 138.885 55.7646 138.79 55.7646 138.694L56.9111 132.58C56.9111 132.484 57.0067 132.388 57.1978 132.388L57.4844 132.484C57.5799 132.484 57.6755 132.58 57.6755 132.675L57.1022 135.923C56.9111 136.783 56.7201 137.548 56.7201 137.548L59.6818 133.057C59.7774 132.962 59.8729 132.866 59.9685 132.962L60.3506 133.057C60.4462 133.057 60.5417 133.153 60.5417 133.248L59.3952 139.267Z" fill="#E23E28"/>
<path d="M81.3695 135.828L84.0446 138.694L84.1402 138.79C84.1402 138.885 84.1402 138.885 84.0446 138.885L83.5669 138.981C83.4714 138.981 83.3759 138.885 83.2803 138.885L80.6052 136.019L81.1784 139.267C81.1784 139.363 81.1784 139.458 80.9873 139.458L80.6052 139.554C80.5096 139.554 80.4141 139.458 80.3185 139.363L79.2676 133.153C79.2676 133.057 79.2676 132.962 79.4587 132.962L79.8408 132.866C79.9364 132.866 80.0319 132.962 80.1275 133.057L80.6052 135.923L82.1338 132.771C82.1338 132.675 82.2294 132.579 82.3249 132.579L82.8026 132.484C82.8982 132.484 82.9937 132.484 82.9937 132.579V132.675L81.3695 135.828Z" fill="#E23E28"/>
<path d="M93.3119 131.146C93.1209 130.669 92.6432 130.382 91.9744 130.573C91.3056 130.86 91.1145 131.433 91.3056 131.911L92.4521 135.064C92.6432 135.541 93.1209 135.924 93.7897 135.637C94.4584 135.446 94.6495 134.777 94.4584 134.299L93.3119 131.146ZM95.1272 134.013C95.4139 134.873 95.0317 135.924 93.9807 136.306C92.8342 136.688 91.8788 136.115 91.5922 135.255L90.4457 132.102C90.1591 131.242 90.5412 130.191 91.6877 129.809C92.8342 129.427 93.7896 130 94.0763 130.86L95.1272 134.013Z" fill="#E23E28"/>
<path d="M104.013 128.28C104.013 128.376 104.013 128.471 103.918 128.567L103.535 128.758C103.44 128.854 103.344 128.758 103.249 128.662L101.529 127.229C101.529 127.229 102.102 128.089 102.771 129.331L104.013 131.433C104.109 131.529 104.013 131.624 103.918 131.72L103.631 131.911C103.535 132.006 103.44 131.911 103.344 131.815L100.191 126.369C100.191 126.274 100.191 126.178 100.287 126.083L100.669 125.892C100.765 125.796 100.86 125.892 100.956 125.987L103.249 127.898L102.771 124.936C102.771 124.841 102.771 124.745 102.867 124.65L103.249 124.363C103.344 124.268 103.535 124.363 103.535 124.459L106.688 129.904C106.784 130 106.688 130.096 106.593 130.191L106.306 130.382C106.211 130.478 106.019 130.382 106.019 130.287L104.777 128.185C104.013 126.943 103.535 125.987 103.535 125.987L104.013 128.28Z" fill="#E23E28"/>
<path d="M116.529 122.739C116.624 122.834 116.624 122.93 116.433 123.025L116.147 123.216C116.051 123.312 115.956 123.312 115.86 123.216L112.229 118.822L110.605 120.159L114.236 124.554C114.331 124.65 114.331 124.745 114.236 124.841L113.949 125.032C113.854 125.127 113.758 125.127 113.663 125.032L109.65 120.255C109.554 120.159 109.554 120.064 109.65 119.968L112.134 117.866C112.229 117.771 112.325 117.771 112.42 117.866L116.529 122.739Z" fill="#E23E28"/>
<path d="M122.261 117.102L121.974 116.911C121.879 116.815 121.879 116.72 121.974 116.624C122.07 116.433 122.165 116.051 121.688 115.669C120.35 114.427 119.299 113.471 118.057 112.229C117.961 112.134 117.961 112.038 118.057 111.943L119.681 110.032C119.777 109.936 119.872 109.936 119.968 110.032L124.745 114.045C124.84 114.14 124.84 114.236 124.745 114.331L124.554 114.618C124.458 114.713 124.363 114.713 124.267 114.618L119.872 110.892L119.012 111.943C120.159 112.994 121.688 114.427 122.356 115.096C122.93 115.669 123.025 116.433 122.547 117.006C122.547 117.197 122.452 117.197 122.261 117.102Z" fill="#E23E28"/>
<path d="M130.287 106.688C130.191 106.783 130.096 106.783 130 106.783L124.555 103.63C124.459 103.535 124.459 103.439 124.459 103.344L125.892 100.86C125.988 100.764 126.083 100.764 126.179 100.764L126.465 100.955C126.561 101.051 126.561 101.146 126.561 101.242L125.414 103.248L127.134 104.299L128.185 102.579C128.185 102.484 128.376 102.484 128.472 102.484L128.758 102.675C128.854 102.771 128.854 102.866 128.854 102.962L127.803 104.681L129.905 105.923L131.051 103.917C131.051 103.821 131.242 103.821 131.338 103.821L131.625 104.013C131.72 104.108 131.72 104.204 131.72 104.299L130.287 106.688Z" fill="#E23E28"/>
<path d="M132.867 93.1209L136.688 92.261C136.784 92.261 136.784 92.261 136.784 92.261C136.879 92.261 136.879 92.3566 136.879 92.4521L136.688 92.9298C136.593 93.0253 136.497 93.1209 136.402 93.1209L132.58 93.9808L135.637 95.1273C135.733 95.1273 135.828 95.2228 135.733 95.4139L135.637 95.796C135.637 95.8916 135.446 95.9871 135.351 95.8916L129.427 93.7897C129.332 93.7897 129.236 93.6941 129.332 93.503L129.427 93.1209C129.523 93.0253 129.618 92.9298 129.714 93.0253L132.389 93.9808L130.383 91.1145C130.287 91.019 130.287 90.9234 130.287 90.8279L130.478 90.3502C130.478 90.2546 130.574 90.2546 130.669 90.2546C130.669 90.2546 130.765 90.2546 130.765 90.3502L132.867 93.1209Z" fill="#E23E28"/>
<path d="M139.555 82.4204C139.363 83.4714 138.504 84.0447 137.548 83.9491L134.3 83.3759C133.344 83.1848 132.676 82.3249 132.867 81.274C133.058 80.1275 134.109 79.6497 134.682 79.7453C134.777 79.7453 134.873 79.8408 134.873 80.0319L134.777 80.4141C134.777 80.5096 134.682 80.6052 134.586 80.6052C134.3 80.6052 133.727 80.8918 133.631 81.465C133.535 82.0383 133.918 82.516 134.395 82.6115L137.739 83.1848C138.313 83.2803 138.79 82.8982 138.886 82.3249C138.981 81.7517 138.599 81.2739 138.121 81.1784C138.026 81.1784 137.93 81.0829 137.93 80.8918L138.026 80.5096C138.026 80.4141 138.121 80.3185 138.217 80.3185C139.077 80.5096 139.65 81.465 139.555 82.4204Z" fill="#E23E28"/>
<path d="M133.535 61.3058L133.44 61.4014C133.344 61.4014 133.344 61.4014 133.344 61.3058L133.249 60.9236C133.249 60.8281 133.344 60.637 133.344 60.637L136.019 59.0128L139.554 59.6816C139.65 59.6816 139.746 59.7771 139.746 59.8727L139.841 60.3504C139.841 60.4459 139.841 60.5415 139.746 60.5415C139.746 60.5415 139.65 60.5415 139.554 60.5415L136.115 59.8727L133.535 61.3058ZM139.172 57.5797C139.268 57.5797 139.363 57.5797 139.363 57.7708L139.459 58.1529C139.459 58.2485 139.363 58.344 139.268 58.4396L133.058 59.4905C132.962 59.4905 132.867 59.4905 132.867 59.2994L132.771 58.9173C132.771 58.8217 132.867 58.7262 132.962 58.6306L139.172 57.5797ZM135.733 57.3886L138.695 55.5733L138.79 55.4778C138.886 55.4778 138.886 55.4778 138.886 55.5733L138.981 55.9555C138.981 56.051 138.886 56.2421 138.886 56.2421L135.828 58.0574L132.771 57.4842C132.675 57.4842 132.58 57.3886 132.58 57.2931L132.484 56.9109C132.484 56.8154 132.484 56.7198 132.58 56.7198C132.58 56.7198 132.675 56.7198 132.771 56.7198L135.733 57.3886Z" fill="#E23E28"/>
<path d="M135.445 44.3948C135.541 44.3948 135.636 44.3948 135.732 44.4903L135.828 44.7769C135.923 44.8725 135.828 45.0636 135.732 45.0636L132.675 46.2101C132.006 46.4967 131.05 46.7833 131.05 46.7833L136.401 47.0699C136.496 47.0699 136.592 47.1655 136.687 47.261L136.783 47.6432C136.879 47.7387 136.783 47.8343 136.687 47.9298L130.764 50.1273C130.668 50.1273 130.573 50.1273 130.477 50.0317L130.382 49.7451C130.286 49.6496 130.382 49.4585 130.477 49.4585L133.63 48.312C134.394 48.0253 135.159 47.8343 135.159 47.8343L129.808 47.5476C129.713 47.5476 129.617 47.4521 129.522 47.3566L129.426 46.9744C129.331 46.8789 129.426 46.7833 129.522 46.6878L135.445 44.3948Z" fill="#E23E28"/>
<path d="M130.669 34.6497C130.764 34.5541 130.86 34.6497 130.955 34.7452L131.146 35.0318C131.242 35.1274 131.146 35.2229 131.051 35.3185L126.083 38.1847L126.943 39.6178C126.943 39.7134 126.943 39.8089 126.847 39.9045L126.56 40.0955C126.465 40.1911 126.274 40.0955 126.274 40L124.172 36.465C124.172 36.3694 124.172 36.2739 124.267 36.1783L124.554 35.9873C124.65 35.8917 124.841 35.9873 124.841 36.0828L125.701 37.5159L130.669 34.6497Z" fill="#E23E28"/>
<path d="M125.318 26.8153L125.031 27.0063C124.936 27.1019 124.84 27.1019 124.745 27.0063C124.554 26.8153 124.172 26.7197 123.789 27.1019C122.261 28.2484 121.21 29.1083 119.872 30.0637C119.777 30.1592 119.681 30.1592 119.586 29.9681L117.961 28.0573C117.866 27.9618 117.866 27.8662 117.961 27.7707L122.738 23.7579C122.834 23.6624 122.929 23.6624 123.025 23.7579L123.216 24.0446C123.312 24.1401 123.312 24.2356 123.216 24.3312L118.821 28.0573L119.681 29.1083C120.923 28.1528 122.547 26.9108 123.407 26.3376C124.076 25.8598 124.84 25.9554 125.318 26.5286C125.414 26.5286 125.414 26.7197 125.318 26.8153Z" fill="#E23E28"/>
<path d="M111.178 19.4585C110.892 19.8406 110.796 20.5094 111.369 20.8916C111.943 21.3693 112.516 21.1782 112.802 20.796L114.904 18.2164C115.191 17.8343 115.287 17.1655 114.713 16.7833C114.14 16.3056 113.567 16.4967 113.28 16.8788L111.178 19.4585ZM112.707 16.3056C113.28 15.6368 114.331 15.4457 115.287 16.2101C116.242 16.9744 116.146 18.1209 115.573 18.7897L113.471 21.3693C112.898 22.0381 111.847 22.3247 110.892 21.4648C109.936 20.7005 110.032 19.554 110.605 18.8852L112.707 16.3056Z" fill="#E23E28"/>
<path d="M105.541 10.3822L104.777 9.90447C104.299 9.61784 103.821 9.80893 103.63 10.1911L103.248 10.7643C103.057 11.051 103.057 11.6242 103.535 11.9108L104.299 12.3885L105.541 10.3822ZM102.961 14.8726L104.012 13.0573L103.152 12.5796C102.77 12.3885 102.293 12.4841 102.101 12.8663L101.815 13.344C101.624 13.7261 101.719 14.1083 102.101 14.3949L102.961 14.8726ZM101.815 15.0637C101.051 14.586 100.764 13.7261 101.146 12.9618L101.433 12.4841C101.624 12.1019 102.101 11.8153 102.484 11.8153C102.293 11.3376 102.293 10.8599 102.579 10.4777L102.961 9.90447C103.439 9.14014 104.394 8.94905 105.159 9.33122L106.496 10.0956C106.592 10.1911 106.687 10.2866 106.592 10.3822L103.439 15.828C103.439 15.9236 103.248 15.9236 103.152 15.9236L101.815 15.0637Z" fill="#E23E28"/>
<path d="M92.2606 3.6942C92.2606 3.59866 92.3562 3.50312 92.5473 3.59866L92.8339 3.6942C92.9294 3.6942 93.025 3.88528 92.9294 3.98082L91.8785 7.03815C91.5918 7.70694 91.2097 8.66235 91.2097 8.66235L94.8402 4.74515C94.9358 4.64961 95.0313 4.64961 95.1269 4.64961L95.509 4.74515C95.6046 4.74515 95.7001 4.93624 95.6046 5.03178L93.5027 10.9553C93.5027 11.0509 93.4071 11.1464 93.216 11.0509L92.9294 10.9553C92.8339 10.8598 92.7383 10.7643 92.8339 10.6687L93.9804 7.51585C94.267 6.75152 94.5536 5.98719 94.5536 5.98719L90.923 9.99993C90.8275 10.0955 90.732 10.0955 90.6364 10.0955L90.2543 9.99993C90.1587 9.99993 90.0632 9.80885 90.1587 9.71331L92.2606 3.6942Z" fill="#E23E28"/>
<path d="M81.3693 9.52223C81.2738 9.52223 81.1782 9.42669 81.1782 9.33115C81.1782 9.14006 81.1782 8.85344 80.8916 8.7579H80.605C80.2228 8.66236 80.1273 8.94898 80.1273 9.14006C80.1273 9.23561 80.0318 9.23561 79.9362 9.23561L79.554 9.14006C79.4585 9.14006 79.4585 9.04452 79.4585 8.94898C79.554 8.37573 80.0317 7.99357 80.7005 8.08911H80.9872C81.656 8.18465 82.0381 8.7579 81.9426 9.33115C81.9426 9.42669 81.847 9.42669 81.7515 9.42669L81.3693 9.52223ZM80.2228 0.923504C80.2228 0.827963 80.3184 0.732422 80.5095 0.732422L80.7961 0.827963C80.9872 0.827963 80.9872 0.923505 80.9872 1.01905L80.4139 4.26745C80.3184 4.93624 80.0317 5.89166 80.0317 5.89166L82.9935 1.30567C83.0891 1.21013 83.1846 1.11459 83.2802 1.11459L83.6623 1.21013C83.7579 1.21013 83.8534 1.30567 83.8534 1.40121L82.8025 7.6114C82.8025 7.70694 82.7069 7.80248 82.5158 7.80248L82.2292 7.70694C82.1337 7.70694 82.0381 7.6114 82.0381 7.51586L82.6114 4.17191C82.8024 3.50312 82.898 2.73879 82.898 2.73879L80.0317 7.32478C80.0317 7.32478 79.8407 7.42032 79.7451 7.42032L79.363 7.32478C79.2674 7.32478 79.1719 7.22924 79.1719 7.1337L80.2228 0.923504Z" fill="#E23E28"/>
<path d="M58.3439 4.74524L55.6688 1.879L55.5732 1.78346C55.5732 1.68792 55.5732 1.68792 55.6688 1.68792L56.1465 1.49683C56.242 1.49683 56.3376 1.59237 56.4331 1.59237L59.1083 4.45862L58.535 1.21021C58.535 1.11467 58.535 1.01913 58.7261 1.01913L59.1083 0.923584C59.2038 0.923584 59.2994 1.01913 59.3949 1.11467L60.5414 7.32486C60.5414 7.4204 60.5414 7.51594 60.3503 7.51594L59.9681 7.61148C59.8726 7.61148 59.7771 7.51594 59.6815 7.4204L59.1083 4.55416L57.6752 7.80256C57.6752 7.89811 57.5796 7.99365 57.4841 7.99365L57.0064 8.08919C56.9108 8.08919 56.8153 8.08919 56.8153 7.99365V7.89811L58.3439 4.74524Z" fill="#E23E28"/>
<path d="M46.4966 9.61782C46.6877 10.0955 47.1654 10.3821 47.8342 10.1911C48.503 9.90444 48.6941 9.33119 48.503 8.85349L47.3565 5.70062C47.1654 5.22291 46.6877 4.93629 46.0189 5.12737C45.3501 5.414 45.159 5.98724 45.3501 6.46495L46.4966 9.61782ZM44.5858 6.75157C44.2992 5.98724 44.5858 4.84075 45.7323 4.45858C46.8788 3.98087 47.8342 4.64966 48.1208 5.41399L49.2673 8.56686C49.554 9.42673 49.2673 10.4777 48.1208 10.8599C46.9743 11.242 46.0189 10.6688 45.7323 9.90444L44.5858 6.75157Z" fill="#E23E28"/>
<path d="M35.892 12.6751C35.892 12.5796 35.892 12.484 35.9875 12.3885L36.3697 12.1974C36.4652 12.1019 36.5607 12.1974 36.6563 12.2929L38.4716 13.6305C38.4716 13.6305 37.8983 12.7707 37.134 11.5286L35.892 9.42671C35.7964 9.33116 35.892 9.23562 35.9875 9.14008L36.2741 8.949C36.3697 8.85346 36.5607 8.949 36.5607 9.04454L39.8092 14.3949C39.8092 14.4904 39.8092 14.5859 39.7136 14.6815L39.3314 14.9681C39.2359 15.0636 39.1404 14.9681 39.0448 14.8726L36.7518 13.0573L37.2295 16.0191C37.2295 16.1146 37.2295 16.2101 37.134 16.3057L36.7518 16.5923C36.6563 16.6879 36.5607 16.5923 36.4652 16.4968L33.2168 11.1464C33.2168 11.0509 33.2168 10.9554 33.3123 10.8598L33.599 10.6687C33.6945 10.5732 33.79 10.6687 33.8856 10.7643L35.1276 12.8662C35.892 14.1082 36.3697 15.0636 36.3697 15.0636L35.892 12.6751Z" fill="#E23E28"/>
<path d="M23.4711 18.4076C23.3755 18.3121 23.3755 18.2165 23.4711 18.121L23.7577 17.9299C23.8532 17.8344 23.9488 17.8344 24.0443 17.9299L27.7704 22.2293L29.2991 20.8917L25.573 16.5923C25.4774 16.4968 25.4774 16.4012 25.573 16.3057L25.8596 16.1146C25.9551 16.0191 26.0507 16.0191 26.1462 16.1146L30.2545 20.8917C30.3501 20.9872 30.3501 21.0828 30.2545 21.1783L27.7704 23.2802C27.6749 23.3758 27.5794 23.3758 27.4838 23.2802L23.4711 18.4076Z" fill="#E23E28"/>
<path d="M17.7392 24.14L18.0258 24.3311C18.1213 24.4266 18.1213 24.5221 18.0258 24.6177C17.9302 24.8088 17.8347 25.1909 18.3124 25.5731C19.65 26.8151 20.7009 27.7705 21.943 28.917C22.0385 29.0126 22.0385 29.1081 21.943 29.2037L20.3188 31.1145C20.2232 31.21 20.1277 31.21 20.0322 31.1145L15.1595 27.1973C15.064 27.1018 15.064 27.0062 15.1595 26.9107L15.3506 26.6241C15.4462 26.5285 15.5417 26.5285 15.6373 26.5285L20.0322 30.1591L20.892 29.1081C19.7455 28.0572 18.2169 26.7196 17.4525 25.9553C16.8793 25.382 16.7837 24.6177 17.2615 24.0444C17.5481 24.14 17.6436 24.0444 17.7392 24.14Z" fill="#E23E28"/>
<path d="M9.90434 34.7452C9.99988 34.6497 10.0954 34.5541 10.191 34.6497L15.6368 37.707C15.7324 37.707 15.7324 37.8981 15.7324 37.9936L14.2992 40.4777C14.2992 40.5732 14.1082 40.5733 14.0126 40.5733L13.726 40.3822C13.6305 40.2866 13.5349 40.1911 13.6305 40.0955L14.7769 38.0892L12.9617 37.1338L12.0062 38.949C12.0062 39.0446 11.8152 39.0446 11.7196 39.0446L11.433 38.8535C11.3375 38.758 11.3375 38.6624 11.3375 38.5669L12.2929 36.7516L10.2865 35.7006L9.14 37.707C9.04446 37.8025 8.94892 37.8025 8.85338 37.8025L8.56676 37.6115C8.47121 37.5159 8.37567 37.4204 8.47122 37.3248L9.90434 34.7452Z" fill="#E23E28"/>
<path d="M7.61137 48.312L3.78972 49.2674C3.69417 49.2674 3.69417 49.2674 3.69417 49.2674C3.59863 49.2674 3.59863 49.1718 3.59863 49.0763L3.78972 48.5986C3.88526 48.503 3.9808 48.4075 4.07634 48.4075L7.898 47.4521L4.84067 46.4011C4.74513 46.4011 4.64959 46.3056 4.74513 46.1145L4.84067 45.7323C4.84067 45.6368 5.03175 45.5413 5.1273 45.5413L11.0509 47.5476C11.1464 47.5476 11.2419 47.6432 11.1464 47.8343L11.0509 48.2164C10.9553 48.312 10.8598 48.4075 10.7642 48.4075L7.99354 47.4521L10.0954 50.3183C10.191 50.4139 10.191 50.5094 10.191 50.605L9.99991 51.0827C9.99991 51.1782 9.90437 51.1782 9.80882 51.1782C9.80882 51.1782 9.71328 51.1782 9.71328 51.0827L7.61137 48.312Z" fill="#E23E28"/>
<path d="M1.11487 59.2038C1.30596 58.1528 2.16583 57.484 3.12124 57.6751L6.36965 58.1528C7.32506 58.3439 7.99385 59.2038 7.80277 60.2547C7.61169 61.4012 6.56073 61.8789 5.98748 61.7834C5.89194 61.7834 5.7964 61.6879 5.7964 61.4968L5.89194 61.1146C5.89194 61.0191 5.98748 60.9235 6.08303 60.9235C6.46519 60.9235 6.9429 60.6369 7.03844 60.0636C7.13398 59.4904 6.75182 59.0127 6.17857 58.9172L2.83462 58.3439C2.26137 58.2484 1.78366 58.6305 1.68812 59.2038C1.59258 59.777 1.97475 60.2547 2.54799 60.3503C2.64354 60.3503 2.73908 60.4458 2.73908 60.6369L2.64353 61.0191C2.64353 61.1146 2.54799 61.2101 2.45245 61.2101C1.59258 61.1146 1.01933 60.1592 1.11487 59.2038Z" fill="#E23E28"/>
<path d="M52.3244 79.4586C52.7066 79.2675 53.1843 79.0765 53.4709 78.7898C53.7575 78.5987 54.2352 78.0255 54.2352 78.0255C54.2352 78.0255 53.662 77.93 53.2798 77.7389C52.1333 77.1656 51.2734 75.828 51.4645 74.4905C51.7511 72.1975 54.2352 71.8153 56.0505 72.4841C59.6811 73.9172 62.1652 77.8344 63.1206 81.465C63.2161 81.9427 63.4072 82.707 63.5027 83.2803H61.783V85.4777H68.2798C68.0887 88.1529 66.369 91.1147 62.5473 91.1147C63.6938 92.93 65.4136 94.3631 67.5155 95.1274C67.8021 97.707 68.9486 100 70.6683 101.72C72.3881 100 73.5346 97.707 73.9168 95.1274C75.9231 94.3631 77.7384 93.0255 78.8849 91.1147C75.0633 91.1147 73.4391 88.2484 73.1524 85.4777H79.6492V83.2803H77.9295C78.025 82.707 78.1206 81.9427 78.3117 81.465C79.2671 77.8344 81.7512 73.9172 85.3817 72.4841C87.197 71.8153 89.6811 72.1975 89.9677 74.4905C90.1588 75.828 89.2989 77.1656 88.0569 77.6433C87.7703 77.8344 87.3881 77.93 87.0059 78.0255C87.0059 78.0255 87.6747 78.5032 87.8658 78.6943C88.248 78.9809 88.6301 79.172 89.0123 79.3631C92.3563 80.8917 96.0824 79.3631 97.9932 76.4013C101.242 71.6242 98.5664 65.223 93.4072 63.2166C89.1078 61.4968 84.2352 63.3121 81.2734 66.6561C78.1206 70.2866 76.4964 74.9682 75.732 79.6497C75.6365 80.6051 75.4454 82.1338 75.3499 83.1847H72.8658C72.8658 82.8026 72.8658 82.4204 72.8658 82.0382C72.9613 78.8854 73.6301 75.828 74.6811 72.8663C75.732 69.7134 77.1652 66.5605 78.3117 63.3121C79.4582 59.9682 80.1269 56.3376 80.1269 52.707C80.1269 42.293 70.7639 33.4077 70.6683 33.5032C70.5728 33.4077 61.1142 42.293 61.1142 52.707C61.1142 56.3376 61.783 59.8726 62.9295 63.3121C64.076 66.5605 65.4136 69.7134 66.4645 72.8663C67.4199 75.828 68.1843 78.8854 68.1843 82.0382C68.1843 82.4204 68.1843 82.8026 68.1843 83.1847H65.7002C65.6047 82.1338 65.5091 80.6051 65.318 79.6497C64.6492 74.9682 63.025 70.2866 59.8722 66.5605C56.9104 63.2166 52.1333 61.4013 47.7384 63.121C42.5792 65.1274 39.904 71.4331 43.1524 76.3058C45.3499 79.4586 48.9804 80.9873 52.3244 79.4586Z" fill="#E23E28"/>
</svg>
