<svg width="60" height="88" viewBox="0 0 60 88" fill="none" xmlns="http://www.w3.org/2000/svg">
<path d="M59.225 44.731H47.1421V45.3455H59.225V44.731Z" fill="#ECEAE1"/>
<path d="M58.2299 30.8713H55.9644V45.3455H58.2299V30.8713Z" fill="#ECEAE1"/>
<path d="M8.83402 75.557L8.14749 76.4446L8.11316 76.4787C8.11316 76.4787 8.07884 76.4787 8.04451 76.4446L7.97586 76.3422C7.94153 76.308 7.97586 76.2739 7.97586 76.2398L8.66239 75.3522L9.65785 75.1474C9.69218 75.1474 9.7265 75.1474 9.76083 75.1815L9.82948 75.2839C9.86381 75.3181 9.82948 75.3181 9.82948 75.3522H9.79516L8.83402 75.557ZM7.80423 75.8984C7.7699 75.8984 7.73557 75.8984 7.70125 75.8643L7.63259 75.7619C7.59827 75.7277 7.63259 75.6936 7.63259 75.6594L9.34891 74.6012C9.38324 74.6012 9.41757 74.6012 9.45189 74.6353L9.52055 74.7377C9.55487 74.7719 9.52055 74.806 9.52055 74.8402L7.80423 75.8984ZM9.00565 74.1233L9.03998 74.0891C9.03998 74.0891 9.0743 74.0891 9.10863 74.1233L9.17728 74.2257C9.21161 74.2598 9.17728 74.294 9.17728 74.3281L8.55941 75.1132L7.42663 75.3522C7.39231 75.3522 7.35798 75.3522 7.32365 75.3181L7.255 75.2157C7.22068 75.1815 7.255 75.1815 7.255 75.1474H7.28933L8.38777 74.9426L9.00565 74.1233Z" fill="#ECEAE1"/>
<path d="M9.96745 78.8001C9.93312 78.8342 9.8988 78.8342 9.86447 78.8001L9.79582 78.7318C9.76149 78.6977 9.76149 78.6635 9.79582 78.6294L10.6197 77.9808C10.7913 77.8442 11.0659 77.6394 11.0659 77.6394L9.3839 78.1173C9.34957 78.1173 9.31525 78.1173 9.28092 78.0832L9.21227 77.9808C9.17794 77.9466 9.17794 77.9125 9.21227 77.8784L10.7913 76.6153C10.8256 76.5811 10.8599 76.5811 10.8943 76.6153L10.9629 76.6836C10.9972 76.7177 10.9972 76.7518 10.9629 76.786L10.1391 77.4687C9.93312 77.6394 9.72716 77.7759 9.72716 77.7759L11.4092 77.298C11.4435 77.298 11.4778 77.298 11.5121 77.3322L11.5808 77.4346C11.6151 77.4687 11.6151 77.5028 11.5808 77.537L9.96745 78.8001Z" fill="#ECEAE1"/>
<path d="M11.9235 80.7459C11.8891 80.78 11.8548 80.78 11.8205 80.7459L11.7518 80.6776C11.7175 80.6435 11.7175 80.6093 11.7518 80.5752L13.0219 79.2439L12.6443 78.9025C12.61 78.8683 12.61 78.8342 12.6443 78.8001L12.713 78.7318C12.7473 78.6977 12.7816 78.6977 12.8159 78.7318L13.7771 79.6194C13.8114 79.6535 13.8114 79.6876 13.7771 79.7218L13.7084 79.7901C13.6741 79.8242 13.6398 79.8242 13.6054 79.7901L13.2279 79.4145L11.9235 80.7459Z" fill="#ECEAE1"/>
<path d="M13.7089 82.2479L13.7775 82.1797C13.8118 82.1455 13.8462 82.1455 13.8805 82.1797C13.9491 82.2138 14.0521 82.2138 14.1894 82.0773C14.567 81.6335 14.8416 81.2921 15.1849 80.8483C15.2192 80.8142 15.2535 80.8142 15.2879 80.8483L15.9401 81.3262C15.9744 81.3604 15.9744 81.3945 15.9401 81.4287L14.773 83.0331C14.7386 83.0672 14.7043 83.0672 14.67 83.0331L14.567 82.9648C14.5327 82.9307 14.5327 82.8966 14.5327 82.8624L15.5968 81.3945L15.2535 81.1214C14.9446 81.4969 14.5327 82.009 14.3267 82.2479C14.1551 82.4528 13.9148 82.4869 13.7089 82.3504C13.6745 82.3162 13.6745 82.2821 13.7089 82.2479Z" fill="#ECEAE1"/>
<path d="M18.0681 83.2038C18.1368 83.0672 18.1024 82.8624 17.9308 82.76C17.7249 82.6576 17.5532 82.7259 17.4846 82.8624L16.9697 83.7841C16.901 83.9207 16.9353 84.1255 17.107 84.2279C17.3129 84.3303 17.4846 84.262 17.5532 84.1255L18.0681 83.2038ZM17.7935 84.262C17.6562 84.501 17.3129 84.6376 17.004 84.4669C16.6607 84.2962 16.5921 83.9207 16.7294 83.6817L17.2443 82.76C17.3816 82.521 17.6905 82.3845 18.0338 82.5552C18.3771 82.7259 18.4457 83.0672 18.3084 83.3403L17.7935 84.262Z" fill="#ECEAE1"/>
<path d="M20.3678 83.9207L20.1275 84.5351L20.4021 84.6376C20.5394 84.6717 20.6767 84.6376 20.7111 84.501L20.7797 84.3303C20.814 84.1938 20.7797 84.0572 20.6424 84.0231L20.3678 83.9207ZM19.7499 85.4568L20.0245 85.5593C20.1618 85.6275 20.3335 85.5251 20.3678 85.4227L20.4364 85.2179C20.4708 85.1155 20.4708 84.9448 20.2648 84.8765L19.9902 84.7741L19.7499 85.4568ZM20.7111 83.8183C20.9857 83.9207 21.0886 84.1938 21.02 84.4327L20.9513 84.6034C20.8827 84.74 20.7797 84.8424 20.6424 84.8765C20.7111 85.0131 20.7454 85.1496 20.6767 85.3203L20.6081 85.5251C20.5051 85.7982 20.1962 85.9006 19.9215 85.7982L19.4753 85.6275C19.441 85.5934 19.4066 85.5593 19.441 85.5593L20.1618 83.7158C20.1618 83.6817 20.1962 83.6817 20.2648 83.6817L20.7111 83.8183Z" fill="#ECEAE1"/>
<path d="M23.595 86.8224C23.595 86.8565 23.5607 86.8906 23.5263 86.8565L23.4233 86.8224C23.389 86.8224 23.3547 86.7882 23.3547 86.7541L23.595 85.7641C23.6636 85.5593 23.7323 85.252 23.7323 85.252L22.6682 86.6175C22.6338 86.6517 22.5995 86.6517 22.5652 86.6517L22.4622 86.6175C22.4279 86.6175 22.3936 86.5834 22.3936 86.5493L22.8741 84.6376C22.8741 84.6034 22.9085 84.5693 22.9428 84.6034L23.0458 84.6376C23.0801 84.6376 23.1144 84.6717 23.1144 84.7058L22.8398 85.73C22.7711 86.0031 22.7025 86.2079 22.7025 86.2079L23.7323 84.8424C23.7666 84.8082 23.8009 84.8082 23.8353 84.8082L23.9382 84.8424C23.9726 84.8424 24.0069 84.8765 24.0069 84.9107L23.595 86.8224Z" fill="#ECEAE1"/>
<path d="M26.2723 84.6376C26.3066 84.6376 26.341 84.6717 26.341 84.7058C26.341 84.7741 26.341 84.8765 26.444 84.8765H26.5469C26.6499 84.8765 26.6842 84.8082 26.6842 84.74C26.6842 84.7058 26.7186 84.7058 26.7529 84.7058H26.8902C26.9245 84.7058 26.9245 84.74 26.9245 84.7741C26.8902 84.9448 26.7529 85.0813 26.5126 85.0472H26.444C26.2037 85.0131 26.1007 84.8424 26.135 84.6717C26.135 84.6376 26.1693 84.6376 26.1693 84.6376H26.2723ZM26.7872 87.3344C26.7872 87.3685 26.7529 87.4027 26.7186 87.4027H26.6156C26.5813 87.4027 26.5469 87.3685 26.5469 87.3344L26.6842 86.3103C26.7186 86.0713 26.7529 85.7641 26.7529 85.7641L25.8947 87.232C25.8947 87.2661 25.8604 87.3003 25.7917 87.2661H25.6888C25.6544 87.2661 25.6201 87.232 25.6201 87.1979L25.8604 85.2179C25.8604 85.1837 25.8947 85.1496 25.9291 85.1496H26.032C26.0664 85.1496 26.1007 85.1837 26.1007 85.2179L25.9634 86.2761C25.9291 86.5492 25.8947 86.7882 25.8947 86.7882L26.7529 85.3203C26.7529 85.2862 26.7872 85.252 26.8559 85.2862H26.9588C26.9932 85.2862 27.0275 85.3203 27.0275 85.3544L26.7872 87.3344Z" fill="#ECEAE1"/>
<path d="M32.4505 86.1737L33.2744 87.1296L33.3087 87.1637C33.3087 87.1978 33.3087 87.1979 33.2744 87.1979L33.1027 87.232C33.0684 87.232 33.0341 87.1979 32.9998 87.1979L32.1759 86.242L32.3132 87.2661C32.3132 87.3003 32.3132 87.3344 32.2446 87.3344H32.1416C32.1073 87.3344 32.073 87.3003 32.073 87.3003L31.7983 85.3203C31.7983 85.2862 31.7983 85.252 31.867 85.252H31.97C32.0043 85.252 32.0386 85.2862 32.0386 85.2862L32.1759 86.2079L32.6908 85.2179C32.6908 85.1837 32.7252 85.1496 32.7595 85.1496L32.9311 85.1155C32.9654 85.1155 32.9998 85.1155 32.9998 85.1496V85.1837L32.4505 86.1737Z" fill="#ECEAE1"/>
<path d="M35.7117 85.0472C35.6774 84.9107 35.5058 84.7741 35.2998 84.8424C35.0939 84.9107 34.9909 85.0813 35.0595 85.2179L35.3342 86.242C35.3685 86.4127 35.5401 86.5151 35.7461 86.4468C35.952 86.3786 36.055 86.2079 35.9864 86.0713L35.7117 85.0472ZM36.261 86.003C36.3296 86.2761 36.1923 86.5834 35.8147 86.6858C35.4371 86.7882 35.1625 86.5834 35.0939 86.3103L34.8193 85.2862C34.7506 85.0131 34.8879 84.7058 35.2655 84.6034C35.6431 84.501 35.9177 84.7058 35.9864 84.9789L36.261 86.003Z" fill="#ECEAE1"/>
<path d="M38.6295 84.74C38.6295 84.7741 38.6295 84.8083 38.5952 84.8083L38.4579 84.8424C38.4235 84.8765 38.3892 84.8424 38.3549 84.8083L37.84 84.2962C37.84 84.2962 37.9773 84.6034 38.1489 85.0131L38.4579 85.73C38.4579 85.7641 38.4579 85.7982 38.4235 85.7982L38.3206 85.8324C38.2862 85.8324 38.2519 85.8324 38.2176 85.7982L37.4624 83.9548C37.4624 83.9207 37.4624 83.8865 37.4967 83.8865L37.634 83.8183C37.6684 83.8183 37.7027 83.8183 37.737 83.8524L38.3892 84.5351L38.3549 83.5793C38.3549 83.5452 38.3549 83.511 38.3892 83.511L38.5265 83.4428C38.5608 83.4086 38.5952 83.4428 38.6295 83.4769L39.3847 85.3203C39.3847 85.3545 39.3847 85.3886 39.3504 85.3886L39.2474 85.4227C39.213 85.4227 39.1787 85.4227 39.1444 85.3886L38.8355 84.6717C38.6638 84.2279 38.5608 83.9548 38.5608 83.9548L38.6295 84.74Z" fill="#ECEAE1"/>
<path d="M42.2686 83.9548C42.2686 83.9889 42.2686 84.0231 42.2342 84.0572L42.1313 84.1255C42.0969 84.1596 42.0626 84.1255 42.0283 84.0914L41.1358 82.521L40.5522 82.8283L41.4447 84.3986C41.4447 84.4327 41.4447 84.4669 41.4104 84.501L41.3074 84.5693C41.2731 84.6034 41.2388 84.5693 41.2044 84.5351L40.209 82.7941C40.209 82.76 40.209 82.7259 40.2433 82.6917L41.1358 82.1797C41.1701 82.1455 41.2044 82.1797 41.2388 82.2138L42.2686 83.9548Z" fill="#ECEAE1"/>
<path d="M43.8474 82.9307L43.7787 82.8624C43.7444 82.8283 43.7787 82.7941 43.7787 82.76C43.8474 82.6917 43.8817 82.5893 43.7787 82.4528C43.4698 81.9748 43.1952 81.5993 42.8862 81.1555C42.8862 81.1214 42.8862 81.0873 42.9206 81.0531L43.5728 80.5752C43.6071 80.5411 43.6414 80.5752 43.6757 80.6093L44.8772 82.1797C44.9115 82.2138 44.8772 82.2479 44.8428 82.2821L44.7399 82.3504C44.7055 82.3845 44.6712 82.3845 44.6369 82.3504L43.5384 80.9166L43.1952 81.1897C43.4698 81.5993 43.8474 82.1455 44.019 82.4186C44.1563 82.6576 44.122 82.8624 43.916 82.999C43.916 82.999 43.8817 82.999 43.8474 82.9307Z" fill="#ECEAE1"/>
<path d="M46.6274 80.8142C46.5931 80.8483 46.5588 80.8483 46.5244 80.8142L45.1171 79.3804C45.0827 79.3463 45.0827 79.3121 45.1171 79.278L45.7693 78.6635C45.8036 78.6294 45.8379 78.6294 45.8722 78.6635L45.9409 78.7318C45.9752 78.7659 45.9752 78.8001 45.9409 78.8342L45.426 79.3463L45.8722 79.8242L46.3528 79.3804C46.3871 79.3463 46.4215 79.3463 46.4558 79.3804L46.5244 79.4487C46.5588 79.4828 46.5588 79.517 46.5244 79.5511L46.0439 79.9949L46.5931 80.5411L47.1423 80.029C47.1766 79.9949 47.211 79.9949 47.2453 80.029L47.314 80.0973C47.3483 80.1314 47.3483 80.1656 47.314 80.1997L46.6274 80.8142Z" fill="#ECEAE1"/>
<path d="M48.2412 77.5029L49.5113 77.6394C49.5456 77.6394 49.5456 77.6394 49.5456 77.6394C49.5456 77.6394 49.5456 77.6735 49.5456 77.7077L49.4427 77.8442C49.4083 77.8784 49.374 77.8784 49.3397 77.8784L48.1039 77.7418L48.9278 78.3904C48.9621 78.4246 48.9621 78.4587 48.9278 78.4928L48.8591 78.5952C48.8248 78.6294 48.7905 78.6294 48.7561 78.5952L47.1771 77.3322C47.1428 77.298 47.1428 77.2639 47.1771 77.2298L47.2458 77.1273C47.2801 77.0932 47.3144 77.0932 47.3487 77.1273L48.0696 77.7077L47.7607 76.6494C47.7607 76.6153 47.7263 76.5811 47.7607 76.547L47.8636 76.4105C47.898 76.3763 47.898 76.3763 47.9323 76.4105C47.9323 76.4105 47.9323 76.4446 47.9666 76.4446L48.2412 77.5029Z" fill="#ECEAE1"/>
<path d="M51.0562 75.5915C50.8846 75.8646 50.5413 75.967 50.2667 75.7963L49.3399 75.2501C49.0653 75.0794 48.9966 74.7381 49.1683 74.465C49.3742 74.1577 49.7518 74.1577 49.8891 74.226C49.9235 74.226 49.9235 74.2943 49.8891 74.3284L49.8205 74.4308C49.7862 74.465 49.7518 74.465 49.7175 74.465C49.6145 74.4308 49.4086 74.4308 49.3399 74.6015C49.2369 74.7722 49.2713 74.9429 49.4429 75.0453L50.3697 75.5915C50.507 75.6939 50.713 75.6256 50.816 75.4891C50.9189 75.3525 50.8846 75.1477 50.713 75.0453C50.6786 75.0453 50.6786 74.977 50.713 74.9429L50.7816 74.8405C50.8159 74.8064 50.8503 74.8063 50.8846 74.8063C51.1249 74.977 51.2279 75.3184 51.0562 75.5915Z" fill="#ECEAE1"/>
<path d="M37.2568 30.8713H34.9912V45.3455H37.2568V30.8713Z" fill="#ECEAE1"/>
<path d="M45.7011 30.8713H43.4355V45.3455H45.7011V30.8713Z" fill="#ECEAE1"/>
<path d="M44.0533 37.8011H36.5015V38.4156H44.0533V37.8011Z" fill="#ECEAE1"/>
<path d="M2.44963 30.8713H0.184082V45.3455H2.44963V30.8713Z" fill="#ECEAE1"/>
<path d="M7.70157 30.8713H0.184082V31.4857H7.70157V30.8713Z" fill="#ECEAE1"/>
<path d="M57.8185 30.8713H50.0264V31.4857H57.8185V30.8713Z" fill="#ECEAE1"/>
<path d="M12.1982 30.8713H9.93262V45.3455H12.1982V30.8713Z" fill="#ECEAE1"/>
<path d="M19.2348 35.5822C19.2348 32.783 16.6603 30.8713 13.9485 30.8713H12.1636V31.4857C12.4382 31.4857 12.6785 31.4857 12.8158 31.4857C15.9738 31.4857 17.1066 33.3974 17.1066 35.7188C17.1066 38.0401 15.9738 39.9177 12.8501 39.9177C12.7128 39.9177 12.4382 39.9177 12.1979 39.9177V40.5321H13.9829C16.6947 40.5321 19.2691 38.6204 19.2691 35.8212V35.5822H19.2348Z" fill="#ECEAE1"/>
<path d="M33.1719 45.3455H30.5974L24.4873 30.8713H27.0618L33.1719 45.3455Z" fill="#ECEAE1"/>
<path d="M25.2421 30.8713L19.4753 45.3455H18.7544L24.5212 30.8713H25.2421Z" fill="#ECEAE1"/>
<path d="M29.7731 42.2731H20.0244L20.3334 41.6587H29.7731V42.2731Z" fill="#ECEAE1"/>
<path d="M53.9735 50.5685H51.708V65.0427H53.9735V50.5685Z" fill="#ECEAE1"/>
<path d="M59.1912 50.5685H51.708V51.183H59.1912V50.5685Z" fill="#ECEAE1"/>
<path d="M59.1912 64.4624H51.708V65.0769H59.1912V64.4624Z" fill="#ECEAE1"/>
<path d="M57.4407 57.5325H51.7769V58.147H57.4407V57.5325Z" fill="#ECEAE1"/>
<path d="M58.4363 48.4861L53.9739 49.6468L53.8022 49.0323L58.2647 47.8375L58.4363 48.4861Z" fill="#ECEAE1"/>
<path d="M7.42724 50.5685H1.48877V51.183H7.42724V50.5685Z" fill="#ECEAE1"/>
<path d="M2.44963 50.5685H0.184082V65.0427H2.44963V50.5685Z" fill="#ECEAE1"/>
<path d="M9.51997 60.3318C9.51997 63.131 6.94549 65.0427 4.2337 65.0427H2.44873V64.4282C2.72334 64.4282 2.96363 64.4282 3.10093 64.4282C6.25896 64.4282 7.39173 62.5165 7.39173 60.1952C7.39173 57.8739 6.22464 55.9622 3.10093 55.9622C2.96363 55.9622 2.72334 55.9622 2.44873 55.9622V55.3477H4.2337C6.94549 55.3477 9.51997 57.2594 9.51997 60.0587V60.3318Z" fill="#ECEAE1"/>
<path d="M26.3744 59.6149C26.2715 59.6149 25.9625 59.6149 25.6879 59.6149V51.183H26.3744C29.5325 51.183 30.6652 53.0947 30.6652 55.416C30.6652 57.7373 29.4981 59.6149 26.3744 59.6149ZM27.4729 50.5685H25.6879H24.3492H23.4224V65.0427H25.6879V60.2294H27.4729C30.1847 60.2294 32.7591 58.3859 32.7591 55.3819C32.7591 52.4461 30.1847 50.5685 27.4729 50.5685Z" fill="#ECEAE1"/>
<path d="M20.7449 50.5685C20.1614 52.0705 18.2391 57.0887 17.175 59.7856L12.8842 50.5685H10.6187L16.1452 62.3459C15.4244 63.9845 14.9095 64.4624 13.9483 64.4624C12.7126 64.4624 12.1633 63.4041 12.1633 62.6872H11.4082C11.4082 63.8821 12.3693 65.2134 13.9483 65.2134C15.7333 65.2134 16.3855 63.8138 17.175 61.7997C17.5183 60.9462 20.9852 51.8999 21.5001 50.5685H20.7449Z" fill="#ECEAE1"/>
<path d="M48.3774 45.3455V44.731C51.7071 44.731 52.428 33.7729 52.428 31.0761H53.0458C53.0458 32.0661 52.9085 35.5822 52.2907 38.8253C51.5011 43.1266 50.1624 45.3455 48.3774 45.3455Z" fill="#ECEAE1"/>
<path d="M42.1996 50.5685H39.9341V65.0427H42.1996V50.5685Z" fill="#ECEAE1"/>
<path d="M32.0396 63.131C32.0396 64.2917 32.9664 65.2134 34.1678 65.2134C38.1497 65.2134 37.4288 60.2294 39.4197 60.2294C40.3122 60.2294 40.3122 60.2294 40.6898 60.2294C40.6898 60.0587 40.6898 59.9221 40.6898 59.7514C40.1749 59.7514 40.0033 59.7514 39.1451 59.7514C35.0259 59.7514 36.2274 64.4283 33.8932 64.4283C33.035 64.4283 32.5544 63.7114 32.5544 63.0969C32.2112 63.131 32.2455 63.131 32.0396 63.131Z" fill="#ECEAE1"/>
<path d="M40.964 60.2976C37.9776 60.2976 37.3254 57.6691 36.7762 55.3477C36.227 53.1288 35.7464 51.183 33.6182 51.183V50.5685C36.2613 50.5685 36.8448 52.924 37.3941 55.2112C37.9433 57.4984 38.4925 59.6832 40.9983 59.6832V60.2976H40.964Z" fill="#ECEAE1"/>
<path d="M50.1298 63.131C50.1298 64.2917 49.2029 65.2134 48.0015 65.2134C44.0196 65.2134 44.7405 60.2294 42.7496 60.2294C41.8571 60.2294 41.8571 60.2294 41.4795 60.2294C41.4795 60.0587 41.4795 59.9221 41.4795 59.7514C41.9944 59.7514 42.166 59.7514 43.0242 59.7514C47.1434 59.7514 45.9419 64.4283 48.2761 64.4283C49.1343 64.4283 49.6149 63.7114 49.6149 63.0969C49.9238 63.131 49.9238 63.131 50.1298 63.131Z" fill="#ECEAE1"/>
<path d="M41.2046 60.2976V59.7173C43.7104 59.7173 44.2253 57.5325 44.8089 55.2453C45.3581 52.9581 45.9416 50.6026 48.5848 50.6026V51.2171C46.4222 51.2171 45.976 53.1629 45.4267 55.3819C44.8432 57.7032 44.191 60.2976 41.2046 60.2976Z" fill="#ECEAE1"/>
<path d="M24.1783 15.0315C24.3156 14.9633 24.4186 14.895 24.5559 14.8267C24.6589 14.7584 24.7962 14.5878 24.7962 14.5878C24.7962 14.5878 24.5902 14.5536 24.4872 14.4853C24.1096 14.3147 23.835 13.905 23.9037 13.4954C24.0067 12.7785 24.7618 12.6761 25.3454 12.8809C26.4782 13.3247 27.2677 14.5195 27.5423 15.646C27.5766 15.7826 27.6109 16.0215 27.6453 16.1922H27.1304V16.8408H29.1556C29.087 17.6601 28.5721 18.5477 27.3706 18.5477C27.7482 19.128 28.2975 19.5377 28.9153 19.7766C29.0183 20.5618 29.3616 21.2787 29.9108 21.8249C30.46 21.2787 30.8033 20.5959 30.9063 19.7766C31.5585 19.5377 32.0734 19.128 32.451 18.5477C31.2495 18.5477 30.7346 17.6601 30.666 16.8408H32.6912V16.1922H32.1763C32.2107 16.0215 32.245 15.7826 32.2793 15.646C32.5883 14.5195 33.3434 13.3247 34.5105 12.8809C35.0941 12.6761 35.8493 12.7785 35.9522 13.4954C35.9866 13.905 35.7463 14.3147 35.3687 14.4853C35.2657 14.5195 35.1627 14.5878 35.0598 14.5878C35.0598 14.5878 35.2657 14.7243 35.3344 14.7926C35.4374 14.8609 35.5747 14.9633 35.712 14.9974C36.7761 15.4753 37.9089 14.9974 38.5267 14.0757C39.5222 12.6078 38.6984 10.662 37.085 10.0475C35.7463 9.53543 34.2016 10.0816 33.3091 11.1057C32.3137 12.2323 31.7988 13.666 31.5928 15.0998C31.5585 15.3729 31.5241 15.885 31.4898 16.1922H30.7346C30.7346 16.0898 30.7346 15.9532 30.7346 15.8508C30.769 14.895 30.9749 13.9391 31.2839 13.0174C31.6271 12.0275 32.039 11.0716 32.3823 10.0816C32.7599 9.05751 32.9659 7.93098 32.9659 6.83858C32.9659 3.66381 30.0138 0.898686 29.9795 0.932823C29.9108 0.96696 26.9587 3.69795 26.9587 6.90686C26.9587 7.99925 27.1647 9.12578 27.5423 10.1499C27.8855 11.174 28.3318 12.0957 28.6407 13.0857C28.9497 14.0074 29.1899 14.9291 29.1899 15.9191C29.1899 16.0215 29.1899 16.1581 29.1899 16.2605H28.4348C28.4004 15.9532 28.3661 15.4753 28.3318 15.1681C28.1258 13.7343 27.6109 12.2664 26.6155 11.174C25.6887 10.1499 24.1783 9.6037 22.8396 10.1158C21.2262 10.7302 20.4024 12.6761 21.3979 14.144C21.9814 15.0315 23.1142 15.5095 24.1783 15.0315Z" fill="#ECEAE1"/>
</svg>
