<svg width="102" height="40" viewBox="0 0 102 40" fill="none" xmlns="http://www.w3.org/2000/svg">
<circle cx="20" cy="20" r="20" fill="#E23E28"/>
<path fill-rule="evenodd" clip-rule="evenodd" d="M87.6626 4.66666H89.7091V17.7437H87.6626V11.4823H82.0815V17.7441H80.035V4.66706H82.0815V10.9273H87.6626V4.66666ZM48.5927 5.22287V17.7449H50.6392V5.22287H55.3835V4.6678H50.6392H48.5927V5.22287ZM61.0268 4.66666C63.4764 4.66666 65.802 6.39382 65.802 8.92287H65.833V9.13877C65.833 11.6678 63.5074 13.395 61.0578 13.395H59.4457V17.7441H57.3992V4.66706H59.4143V4.66666H61.0268ZM59.4457 5.22182V12.8398H60.0345C62.8562 12.8398 63.8795 11.1435 63.8795 9.04624C63.8795 6.94897 62.8562 5.22182 60.0035 5.22182H59.4457ZM76.0663 17.7437H78.3919L72.8725 4.66666H70.5469L70.5625 4.70383L65.3678 17.7441H66.019L67.1248 14.9682H74.8948L76.0663 17.7437ZM74.6605 14.4131H67.3459L70.8975 5.49753L74.6605 14.4131ZM100.655 4.66666H101.027V17.1892H101.926V17.7442H91.011V17.1892H92.127V17.1885C95.0003 17.1885 95.723 8.15376 95.7819 5.22173H93.6163V4.66666H98.9808H100.655ZM96.3393 5.22173C96.312 6.43492 96.1593 9.24185 95.6619 11.8528C95.166 14.5552 94.4301 16.3478 93.4856 17.1892H98.9808V5.22173H96.3393ZM101.213 20.581L97.1821 21.6297L97.0271 21.0745L101.058 19.995L101.213 20.581ZM95.1355 35.0151V23.0173V22.4623H97.182H101.895V23.0173H97.182V28.7538H100.314V29.3089H97.182V35.0151H101.895V35.5701H95.1355V35.5393V35.0151ZM55.1352 22.4621H49.7708V22.4622H48.5927V35.5393H50.6386V35.5394H52.251C54.7006 35.5394 57.0262 33.8122 57.0262 31.2831V31.0364C57.0262 28.5074 54.7006 26.7802 52.251 26.7802H50.6392V23.0171H55.1352V22.4621ZM50.6392 27.3354V34.9842H51.2277C54.0805 34.9842 55.1037 33.257 55.1037 31.1598C55.1037 29.0625 54.0495 27.3354 51.2277 27.3354H50.6392ZM71.631 30.6353H72.2512C75.0729 30.6353 76.1272 28.939 76.1272 26.8418C76.1272 24.7445 75.1039 23.0173 72.2512 23.0173H71.631V30.6353ZM71.631 22.4622H73.2434C75.6931 22.4622 78.0187 24.1585 78.0187 26.8109C78.0187 29.525 75.6931 31.1905 73.2434 31.1905H71.631V35.5392H69.5845V22.4622H70.4217H71.631ZM66.4008 24.4452L66.4007 24.4456L66.4002 24.4468C65.6497 26.3953 64.6086 29.0979 63.9412 30.7896L60.0652 22.4622H58.0187L63.011 33.1027C62.3598 34.5831 61.8947 35.0149 61.0265 35.0149C59.9102 35.0149 59.414 34.0588 59.414 33.4111H58.7319C58.7319 34.4906 59.6001 35.6935 61.0265 35.6935C62.6389 35.6935 63.228 34.4289 63.9412 32.6092C64.1507 32.0883 65.6484 28.188 66.7414 25.3419L66.7426 25.3386C67.2667 23.9738 67.6975 22.852 67.8482 22.4622H67.1661C67.005 22.8768 66.7311 23.5879 66.4008 24.4452ZM84.4999 22.4627H86.5464V30.6031C88.0224 30.1468 88.4391 28.5114 88.8777 26.7899L88.9036 26.6882C89.3997 24.6217 89.9269 22.4936 92.3145 22.4936V23.0488C90.392 23.0488 89.9711 24.7514 89.4853 26.7162L89.4617 26.8115C89.0816 28.3239 88.6692 29.9647 87.4571 30.7621C89.4438 30.8321 89.9854 32.166 90.4524 33.316C90.8135 34.2053 91.13 34.9846 92.0356 34.9846C92.8108 34.9846 93.2449 34.3369 93.2449 33.7818L93.2449 33.7818C93.5239 33.8126 93.524 33.8126 93.71 33.8126C93.71 34.8613 92.8728 35.694 91.7875 35.694C89.6805 35.694 89.0311 34.1488 88.4932 32.8688C88.1129 31.9636 87.7882 31.191 87.0433 31.191H86.5464V35.5398H84.4999V31.191H84.0357C83.2907 31.191 82.9661 31.9636 82.5857 32.8688C82.0478 34.1488 81.3985 35.694 79.2914 35.694C78.2062 35.694 77.3689 34.8613 77.3689 33.8126C77.5284 33.8126 77.5284 33.8126 77.7204 33.7932L77.7204 33.7932L77.8341 33.7818C77.8341 34.3369 78.2682 34.9846 79.0434 34.9846C79.9489 34.9846 80.2654 34.2053 80.6265 33.316C81.0941 32.1643 81.6366 30.8283 83.6303 30.7618C82.4133 29.9575 82.006 28.2965 81.6474 26.7806L81.6467 26.7776C81.1509 24.7741 80.7162 23.0178 78.7947 23.0178V22.4627C81.1823 22.4627 81.7094 24.5908 82.2056 26.6572C82.622 28.3916 83.0384 30.0609 84.4999 30.5525V22.4627Z" fill="#2A3341"/>
<path d="M12.9181 23.7464C13.0794 23.6646 13.2004 23.5828 13.3618 23.5011C13.4828 23.4193 13.6441 23.2148 13.6441 23.2148C13.6441 23.2148 13.4021 23.1739 13.2811 23.0921C12.8374 22.8877 12.5148 22.3969 12.5954 21.9062C12.7164 21.0475 13.6038 20.9248 14.2895 21.1701C15.6205 21.7018 16.5481 23.133 16.8708 24.4825C16.9111 24.6461 16.9515 24.9323 16.9918 25.1368H16.3868V25.9138H18.7665C18.6858 26.8952 18.0808 27.9584 16.6691 27.9584C17.1128 28.6536 17.7581 29.1443 18.4841 29.4306C18.6051 30.3711 19.0085 31.2299 19.6538 31.8841C20.2991 31.2299 20.7025 30.412 20.8235 29.4306C21.5898 29.1443 22.1948 28.6536 22.6385 27.9584C21.2268 27.9584 20.6218 26.8952 20.5412 25.9138H22.9208V25.1368H22.3158C22.3562 24.9323 22.3965 24.6461 22.4368 24.4825C22.7998 23.133 23.6872 21.7018 25.0585 21.1701C25.7442 20.9248 26.6315 21.0475 26.7525 21.9062C26.7928 22.3969 26.5105 22.8877 26.0668 23.0921C25.9458 23.133 25.8248 23.2148 25.7038 23.2148C25.7038 23.2148 25.9458 23.3784 26.0265 23.4602C26.1475 23.542 26.3088 23.6646 26.4702 23.7055C27.7205 24.278 29.0515 23.7055 29.7775 22.6014C30.9472 20.843 29.9792 18.5121 28.0835 17.776C26.5105 17.1626 24.6955 17.8169 23.6468 19.0437C22.4772 20.3932 21.8722 22.1107 21.6302 23.8282C21.5898 24.1553 21.5495 24.7687 21.5092 25.1368H20.6218C20.6218 25.0141 20.6218 24.8505 20.6218 24.7278C20.6622 23.5828 20.9042 22.4378 21.2672 21.3337C21.6705 20.1478 22.1545 19.0028 22.5578 17.8169C23.0015 16.5901 23.2435 15.2406 23.2435 13.9321C23.2435 10.129 19.7748 6.81666 19.7345 6.85755C19.6538 6.89845 16.1851 10.1699 16.1851 14.0139C16.1851 15.3224 16.4271 16.6719 16.8708 17.8987C17.2741 19.1255 17.7985 20.2296 18.1615 21.4155C18.5245 22.5196 18.8068 23.6237 18.8068 24.8096C18.8068 24.9323 18.8068 25.0959 18.8068 25.2186H17.9195C17.8791 24.8505 17.8388 24.278 17.7985 23.91C17.5565 22.1925 16.9515 20.4341 15.7818 19.1255C14.6928 17.8987 12.9181 17.2444 11.3451 17.8578C9.44943 18.5939 8.48142 20.9248 9.65109 22.6832C10.3368 23.7464 11.6678 24.3189 12.9181 23.7464Z" fill="#ECEAE1"/>
</svg>
