<svg width="1920" height="751" viewBox="0 0 1920 751" fill="none" xmlns="http://www.w3.org/2000/svg">
<path d="M-1355.48 193.12H-1064.91C-976.555 193.12 -878.862 204.706 -792.662 180.809C-701.074 155.464 -627.804 88.1185 -536.217 62.7734C-407.635 27.2903 -340.83 109.481 -280.131 213.034C-196.086 356.777 -130.358 479.881 55.3311 469.381C172.779 462.864 287.353 450.916 400.85 418.329C597.314 362.208 789.109 240.189 998.504 253.948C1094.76 260.465 1177.73 311.518 1271.47 322.38C1411.55 338.673 1534.38 223.896 1653.27 168.861C1786.16 107.671 1870.92 129.395 1981.18 220.999C2093.24 314.052 2188.78 383.57 2319.16 284C2422.24 205.068 2501.62 126.498 2638.82 138.809C2605.06 117.446 2586.74 106.946 2555.85 85.584C2427.99 87.7565 2368.01 178.637 2281.45 260.103C2155.02 378.863 2048.35 245.258 1944.55 161.981C1839.31 77.6184 1734.08 70.377 1616.99 137.36C1510.32 198.551 1404.36 323.828 1270.75 311.518C1164.08 301.742 1066.39 228.241 958.995 210.499C756.784 176.464 573.609 263.724 390.434 337.949C283.043 381.76 173.856 429.553 56.4087 435.346C-112.4 444.036 -165.916 274.224 -238.468 152.205C-298.448 50.8251 -374.592 -19.4171 -497.427 5.928C-600.508 27.2903 -687.426 93.9117 -789.429 119.257C-878.503 141.343 -976.555 130.843 -1067.78 130.843H-1362.3H-2570.9H-4141.18V192.758H-2568.38H-1355.48V193.12Z" fill="#0951BE"/>
<path d="M-1358.71 306.086H-1076.4C-990.922 306.086 -886.045 322.38 -803.437 296.31C-735.913 274.948 -695.686 212.309 -631.395 185.878C-518.258 138.809 -449.298 216.292 -388.958 302.828C-345.499 365.466 -303.476 429.915 -237.03 470.83C-156.576 520.434 -71.4539 516.451 19.0562 514.64C175.653 511.744 326.503 557.727 483.818 533.468C688.902 501.606 859.866 374.88 1059.92 333.242C1147.2 315.138 1223.7 335.776 1309.9 346.638C1453.93 364.742 1583.95 278.931 1716.84 238.017C1772.51 220.999 1833.21 206.154 1889.96 226.792C1942.04 245.62 1986.57 289.793 2032.55 319.845C2094.68 360.759 2165.08 398.777 2242.3 386.829C2314.49 375.604 2371.96 320.207 2431.94 282.914C2541.49 214.844 2637.74 199.637 2760.22 239.827C2746.57 216.654 2734 205.43 2705.27 183.706C2569.86 158.723 2478.63 211.223 2369.45 286.534C2314.13 324.914 2259.18 368.363 2187.71 361.846C2121.26 355.69 2063.44 311.155 2012.43 271.689C1967.54 236.568 1917.25 185.154 1860.15 170.671C1800.17 155.464 1734.08 176.464 1678.41 198.913C1558.09 247.068 1434.89 342.656 1299.13 333.966C1207.54 328.173 1125.29 286.896 1031.55 290.517C833.647 298.483 655.859 422.312 465.142 467.209C320.038 501.606 175.653 490.019 28.0356 493.64C-164.478 498.347 -239.185 394.794 -333.287 243.448C-391.831 148.947 -458.636 74.3596 -577.161 114.188C-657.255 141.343 -716.159 207.602 -797.69 232.223C-880.298 257.206 -977.633 244.172 -1062.76 244.172H-1368.05H-2566.23H-4141.18V306.086H-2572.69H-1358.71Z" fill="#0951BE"/>
<path d="M2176.57 402.76C2072.06 386.104 2000.22 299.207 1900.01 275.672C1763.89 243.81 1613.76 331.431 1482.66 354.604C1431.66 363.656 1382.1 358.949 1332.89 354.242C1289.43 350.259 1245.97 345.914 1201.08 351.346C1053.82 369.087 919.129 466.123 783.004 516.089C676.691 555.193 562.476 584.52 448.261 582.71C354.877 581.262 265.804 555.555 174.575 539.985C-17.2197 507.037 -214.403 567.865 -367.767 416.519C-437.445 347.725 -493.834 232.224 -599.07 232.224C-610.204 232.224 -621.698 233.31 -633.551 236.206C-701.433 251.413 -730.885 317.311 -791.584 344.104C-849.051 369.087 -928.427 365.104 -1000.26 360.759C-1027.56 359.311 -1053.78 357.501 -1077.48 357.501C-1194.21 357.501 -1310.94 357.501 -1428.03 357.501H-2690.5H-4141.18V419.053H-2700.92H-1423.36C-1309.14 419.053 -1194.93 418.691 -1080.71 417.967C-1055.93 417.967 -1029.71 419.053 -1002.77 420.139C-931.659 423.398 -855.516 426.295 -793.739 404.932C-738.068 385.38 -712.208 329.983 -657.974 309.345C-544.836 266.258 -463.664 381.035 -386.443 443.674C-215.839 581.986 -25.1216 512.468 171.343 553.02C273.346 574.02 369.604 616.383 471.966 636.659C599.83 661.642 729.848 651.866 853.401 608.779C940.679 578.365 1029.39 543.606 1108.77 495.813C1152.95 469.019 1192.1 434.622 1236.63 408.915C1303.08 370.535 1374.91 374.518 1447.82 378.501C1475.12 379.949 1502.42 381.398 1529.71 380.673C1666.56 377.053 1802.32 357.139 1939.52 354.604C2044.76 352.432 2118.03 413.984 2217.52 436.795C2248.77 444.036 2339.99 486.037 2444.15 436.795C2548.31 387.553 2724.3 305 2826.67 364.742C2810.14 327.718 2826.67 357.501 2767.4 279.655C2607.57 203.62 2471.09 352.07 2379.5 402.76C2287.91 453.45 2225.42 410.725 2176.57 402.76Z" fill="#0951BE"/>
<path d="M-1370.2 534.554C-1185.95 534.554 -999.901 534.192 -816.007 525.502C-758.541 522.606 -728.729 511.382 -680.96 483.864C-601.584 437.881 -532.625 456.346 -453.608 493.278C-316.047 557.365 -208.656 570.399 -56.0098 561.348C151.23 549.399 303.875 703.28 477.712 790.902C677.409 891.92 913.742 833.988 1080.4 691.694C1191.02 597.193 1285.48 430.277 1444.95 423.036C1609.09 415.432 1763.17 492.554 1925.16 501.243C2049.43 507.761 2135.63 448.743 2249.84 511.744C2310.54 545.054 2367.29 587.779 2440.2 584.882C2498.03 582.71 2556.93 554.83 2611.16 536.003C2713.17 500.157 2798.29 472.64 2906.76 497.261C2883.05 467.209 2869.77 452.002 2846.42 422.312C2747.29 382.846 2667.55 389.001 2568.78 425.932C2511.32 447.657 2455.65 483.864 2395.31 496.175C2317.73 512.106 2248.05 480.605 2179.09 449.105C2139.22 431.001 2101.15 412.174 2056.97 411.449C1992.68 410.363 1926.23 427.019 1860.86 427.381C1708.22 427.743 1557.37 397.329 1405.08 395.88C1281.89 394.794 1211.13 499.071 1122.42 570.037C960.433 700.022 715.84 764.833 515.425 710.16C326.862 658.383 169.188 537.451 -33.3823 547.951C-199.318 556.641 -314.969 533.83 -451.094 438.605C-520.772 389.725 -605.176 339.397 -687.426 392.26C-733.758 421.95 -754.59 453.088 -813.134 462.864C-901.848 477.709 -997.746 468.295 -1087.54 469.743C-1182 471.191 -1276.46 472.278 -1370.56 472.278C-1770.67 472.278 -2170.43 472.278 -2570.54 472.278H-4141.18V534.192H-2570.18C-2170.43 534.554 -1770.31 534.554 -1370.2 534.554Z" fill="#0951BE"/>
<path d="M2469.29 662.366C2402.13 651.866 2357.23 601.176 2304.44 563.882C2194.89 486.761 2102.94 573.658 1978.67 562.434C1808.07 546.865 1658.29 431.363 1482.3 447.295C1295.89 464.312 1180.96 685.539 1056.33 802.126C972.644 880.696 876.028 929.576 764.687 953.473C641.492 979.904 552.419 939.352 454.007 865.851C297.051 748.539 130.757 559.899 -81.511 572.21C-216.558 580.175 -317.125 576.555 -446.065 538.175C-529.751 513.192 -580.753 523.33 -657.615 560.623C-709.694 585.607 -756.745 580.537 -814.212 579.089C-999.542 574.382 -1184.87 587.779 -1370.2 587.779C-1770.31 588.141 -2170.07 587.779 -2570.18 587.779H-4141.18V649.693H-2559.76C-2162.17 649.693 -1764.93 650.055 -1367.33 649.693C-1179.84 649.331 -992 630.141 -804.514 641.004C-743.456 644.624 -670.545 666.349 -610.923 645.348C-545.914 622.176 -509.997 577.641 -434.931 582.71C-387.521 585.606 -341.548 597.917 -294.138 600.089C-225.537 602.986 -159.45 583.434 -91.5679 583.796C142.25 585.606 334.764 832.178 491.72 976.645C566.067 1045.08 640.415 1127.27 747.446 1116.77C872.795 1104.46 973.362 1041.09 1060.64 952.386C1147.2 864.403 1215.08 761.574 1289.07 663.09C1347.97 584.52 1411.19 503.778 1509.6 479.881C1696.37 434.622 1839.67 593.572 2011 629.779C2107.25 650.055 2163.28 605.158 2251.28 583.796C2296.53 572.934 2324.55 589.951 2357.59 620.003C2402.13 660.918 2433.38 716.677 2492.64 739.487C2544 759.039 2605.42 745.281 2656.06 729.349C2767.76 694.228 2862.94 635.21 2982.54 629.417C2977.51 603.71 2970.33 589.589 2952.37 560.986C2836.72 551.572 2745.13 595.745 2638.1 632.676C2586.74 649.693 2524.6 671.056 2469.29 662.366Z" fill="#0951BE"/>
<path d="M2496.59 784.023C2445.95 760.126 2422.6 709.436 2383.45 672.866C2357.95 648.969 2336.04 637.745 2301.56 641.728C2266.72 645.711 2236.55 669.608 2202.07 678.297C2160.05 689.16 2123.42 691.694 2080.31 684.09C1910.07 653.676 1786.16 486.399 1600.47 510.658C1494.15 524.779 1422.32 611.676 1358.39 690.608C1274.7 793.799 1204.31 906.765 1114.87 1005.25C1031.19 1097.94 922.72 1177.6 796.293 1194.25C665.556 1211.27 553.855 1079.11 469.451 997.645C307.467 841.592 87.2974 574.382 -164.479 599.003C-234.157 605.883 -313.174 617.831 -382.493 631.59C-439.601 642.814 -478.75 689.16 -534.421 705.453C-615.952 729.35 -710.772 696.401 -793.38 691.332C-985.535 679.746 -1178.05 700.022 -1370.2 700.384C-1770.31 700.746 -2170.07 700.384 -2570.18 700.384H-4141.18V762.298H-2580.95C-2178.33 762.298 -1775.7 762.66 -1373.08 762.298C-1179.13 761.936 -980.865 739.126 -787.634 758.315C-692.454 767.729 -594.042 811.178 -498.504 806.109C-425.234 802.126 -392.55 770.988 -347.294 720.298C-94.8 438.243 270.832 872.368 445.746 1044.35C531.587 1128.72 647.957 1252.91 777.257 1260.51C907.635 1268.11 1031.91 1169.99 1122.42 1088.89C1231.24 991.852 1319.24 872.368 1418.37 765.919C1493.44 685.177 1595.8 582.71 1712.89 572.572C1885.29 557.365 1985.5 717.763 2134.91 765.919C2216.8 792.35 2256.31 760.488 2334.61 750.712C2370.52 746.367 2387.04 749.626 2416.14 770.626C2445.95 792.35 2465.7 820.592 2501.98 834.351C2549.03 852.454 2603.62 843.04 2652.11 835.799C2745.49 822.04 2835.28 798.143 2929.74 791.264C2946.98 757.591 2964.58 723.556 2976.08 687.349C2861.5 698.936 2765.61 751.436 2656.06 781.488C2605.42 795.247 2546.15 807.557 2496.59 784.023Z" fill="#0951BE"/>
<path d="M2506.29 873.816C2480.07 869.109 2457.08 854.989 2431.22 849.92C2340.35 831.816 2268.52 895.179 2175.13 845.937C2052.3 781.126 1961.07 614.934 1802.32 634.124C1668.71 650.055 1551.98 751.798 1457.88 840.506C1343.3 948.403 1238.79 1070.78 1114.16 1167.46C1018.98 1241.32 917.332 1307.94 794.138 1313.37C651.548 1319.53 526.199 1188.46 432.098 1094.32C268.317 930.3 90.1704 651.866 -172.021 664.176C-261.454 668.159 -286.595 732.608 -322.153 801.04C-418.41 986.421 -634.27 837.971 -783.683 815.161C-970.45 786.919 -1170.15 812.988 -1358.71 813.35C-1763.49 813.712 -2167.91 813.35 -2572.69 813.35H-4141.18V875.265H-2574.85C-2171.5 875.265 -1767.8 875.265 -1364.46 875.265C-1178.77 875.265 -964.344 842.678 -782.965 884.679C-624.213 921.248 -417.692 1114.59 -298.448 911.834C-256.785 840.868 -245.292 744.556 -153.704 728.625C95.917 685.539 257.901 977.369 397.977 1136.32C483.458 1233.72 631.794 1391.94 776.898 1390.49C922.001 1389.05 1057.77 1298.17 1168.03 1211.63C1304.15 1105.18 1427.35 980.99 1568.14 880.696C1670.15 808.281 1785.08 731.16 1914.02 730.436C2069.54 729.711 2116.23 882.868 2227.57 959.628C2305.15 1013.21 2375.91 984.611 2449.9 946.231C2504.49 917.627 2579.2 902.058 2637.74 930.662C2702.03 961.8 2715.68 1021.9 2800.44 1020.82C2824.15 978.093 2848.57 936.093 2872.64 893.73C2796.13 893.73 2721.79 883.592 2646 879.61C2599.67 877.075 2552.26 882.144 2506.29 873.816Z" fill="#0951BE"/>
<path d="M2634.51 975.197C2569.14 914.007 2496.95 977.007 2457.44 1025.89C2292.22 1231.91 2163.64 869.834 2012.79 833.989C1865.89 798.868 1692.77 912.196 1577.12 986.421C1424.48 1084.54 1290.86 1209.82 1139.3 1309.39C1032.62 1379.27 876.027 1485 739.185 1451.32C599.469 1416.56 486.69 1307.58 396.18 1200.41C276.218 1058.47 147.277 742.022 -85.4629 790.54C-188.903 811.902 -212.608 924.507 -270.434 999.094C-433.496 1209.1 -607.691 995.111 -786.557 943.335C-875.63 917.627 -975.119 928.49 -1066.71 928.852C-1166.91 929.214 -1267.12 929.576 -1367.33 929.576C-1766.72 929.576 -2166.48 929.576 -2565.87 929.576H-4141.18V991.49H-2577.36H-1370.92H-1063.83C-977.993 991.49 -878.503 977.732 -795.895 1003.44C-692.814 1035.66 -615.952 1121.47 -513.949 1156.23C-414.1 1190.27 -302.399 1156.6 -223.383 1089.97C-140.415 1019.73 -96.2375 913.645 17.2593 887.575C214.801 841.592 287.353 1106.27 375.349 1235.53C464.422 1365.87 591.926 1484.63 749.241 1518.67C872.076 1545.46 987.728 1484.27 1092.96 1425.98C1252.08 1337.63 1395.38 1221.41 1551.62 1127.63C1687.39 1046.16 1863.38 961.438 2027.16 989.68C2134.55 1008.15 2173.7 1083.46 2255.23 1141.03C2325.62 1190.63 2421.52 1189.18 2461.03 1107.72C2479.71 1069.7 2482.58 1038.56 2524.24 1018.65C2554.77 1004.16 2611.16 1001.63 2635.23 1029.51C2676.89 1077.3 2611.52 1221.41 2725.38 1204.75C2725.38 1180.13 2731.84 1162.03 2750.16 1120.75C2648.16 1123.65 2685.15 1022.63 2634.51 975.197Z" fill="#0951BE"/>
</svg>
