<svg width="160" height="190" viewBox="0 0 160 190" fill="none" xmlns="http://www.w3.org/2000/svg">
<path fill-rule="evenodd" clip-rule="evenodd" d="M79.9843 189.515C38.7823 171.826 10.7847 142.171 4.98504 94.0355L0 35.4916C5.92569 33.0068 23.2898 32.2532 26.8442 5.95953C53.3204 -2.38139 106.192 -1.16636 133.688 6.12382C134.206 22.2889 141.638 32.8984 159.962 35.4916L155.039 94.0355C148.539 143.215 123.616 171.125 79.9843 189.515Z" fill="#1F1D20"/>
<path fill-rule="evenodd" clip-rule="evenodd" d="M94.0624 110.353C94.0624 110.437 94.1696 110.473 94.1782 110.574L94.0624 110.353ZM94.1787 110.576C94.1787 110.583 94.1787 110.585 94.1787 110.59V110.576ZM64.3723 117.741C63.0026 117.237 62.0244 116.831 60.5988 117.423C59.499 117.879 58.3011 119.053 57.0872 119.038C55.8306 119.027 54.5339 118.776 53.372 118.313C52.9002 118.123 51.7833 116.427 52.4404 116.026C52.7274 115.853 53.2014 115.686 53.5374 115.639C53.846 115.591 53.8722 115.989 54.2225 115.959C54.9424 115.908 55.004 114.305 55.0667 113.825C55.1825 112.931 55.9886 113.037 56.3451 112.222C56.4461 111.983 56.5271 111.056 56.7712 110.979C57.1368 110.867 57.5601 110.932 57.9372 110.861C59.13 110.626 58.7694 109.124 58.5122 108.294C58.3456 107.761 58.0792 107.236 57.9777 106.684C57.8391 105.946 58.6542 105.959 59.175 105.689C59.5623 105.493 59.9645 105.023 60.4351 105.16C60.8738 105.289 61.2651 105.57 61.6519 105.807C62.8372 106.521 64.3768 106.541 65.7333 106.708C66.9495 106.856 67.0602 106.585 66.5479 105.541C66.4099 105.265 66.2479 104.998 66.1053 104.726C65.8948 104.311 66.7036 103.845 66.5975 103.377C66.5416 103.137 66.4099 102.902 66.4361 102.645C66.4652 102.37 66.6563 102.147 66.6335 101.865C66.5884 101.281 65.9336 101.366 65.5149 101.313C64.1253 101.129 63.6364 99.5973 63.5794 98.4439C63.5463 97.7205 63.621 97.0007 63.621 96.283C62.8469 96.7069 61.9679 95.4896 61.6513 94.975C61.4186 94.6065 61.2024 94.2055 61.0187 93.8165C60.6656 93.0515 61.1556 92.6916 61.4305 91.9956C61.9376 90.6979 61.4385 89.7704 60.4733 88.8811C59.539 88.0208 58.2047 86.9604 56.8921 86.7807C55.5522 86.5936 54.9892 87.524 53.874 86.8623C53.279 86.5029 52.6002 86.4082 51.9362 86.2411C51.149 86.0426 50.4462 85.5064 49.7537 85.1156C48.3253 84.2999 47.3584 85.0985 45.9626 85.5092C45.2604 85.7169 44.5211 85.7762 43.7926 85.8355C42.9678 85.8943 42.7738 86.1201 42.1013 86.475C41.4995 86.7938 40.7248 86.7465 40.0968 87.0688C39.5845 87.3272 38.7511 85.8212 38.4157 86.2782C37.4887 87.5702 35.8373 87.2856 34.3759 87.3705C33.0781 87.4458 31.6577 87.3723 30.4473 87.8936C29.4256 88.3317 28.6105 89.7036 27.4285 89.7264C26.2688 89.7401 26.1833 87.9872 25.1542 87.6746C23.9523 87.3067 22.6774 87.0836 21.4292 86.9712C20.0739 86.848 18.7442 86.7237 17.6164 85.9336C16.8572 85.4025 15.7032 84.5406 14.7523 84.5115C14.3416 84.5052 14.0757 85.0529 13.7437 85.228C13.2937 85.4676 12.6542 85.0705 12.2817 84.8447C11.7335 84.5201 11.2692 84.1054 10.794 83.6827C10.3012 83.256 10.2367 82.6667 9.74499 82.2697C9.32343 81.9223 8.81061 81.6057 8.4866 81.1722C8.15632 80.7312 8.00572 80.1865 7.73705 79.713C6.96924 78.3508 7.81292 77.3257 8.64975 76.243C9.39417 75.2841 10.2076 74.3053 11.3456 73.7748C11.7603 73.5831 12.203 73.5317 12.6268 73.3777C13.3154 73.129 13.1037 72.4953 13.0957 71.8992C13.0872 71.2255 13.1864 70.5501 13.0164 69.8815C12.8721 69.3179 12.6012 68.7412 12.6154 68.144C12.6405 66.9255 14.3381 65.7236 15.1504 64.9444C16.2731 63.8623 17.439 62.8224 18.5919 61.7739C19.5342 60.9205 20.4886 59.5275 21.8827 59.4933C22.2832 59.4887 23.371 59.6354 23.6636 59.3131C23.9106 59.0404 23.9454 58.5327 23.9888 58.191C24.1639 56.851 23.9283 55.4786 24.0538 54.1255C24.1103 53.5534 24.2888 53.0137 24.0053 52.4775C23.7732 52.0326 23.4646 51.6327 23.2364 51.1775C22.5302 49.7725 22.3419 48.3487 22.2746 46.8045C22.225 45.6403 24.1759 45.8679 24.9323 45.6545C25.1759 45.5855 26.0076 45.3853 26.0509 45.1012C26.1331 44.6021 26.2078 44.3054 26.7309 44.0459C28.8751 42.982 31.4512 42.9632 33.8043 43.0043C36.0695 43.0499 38.4283 42.9592 40.6067 43.6357C41.7687 44.0042 43.0265 44.059 44.1588 44.4595C45.2826 44.8553 46.3545 45.225 47.5221 45.4634C48.4206 45.65 47.922 46.634 48.6311 47.027C49.5152 47.521 50.8096 47.3567 51.7907 47.3647C51.4553 48.2061 52.0691 48.3167 52.7799 48.1719C53.7616 47.9756 54.7541 47.7463 55.7621 47.7463C57.199 47.752 58.1865 48.93 59.5298 49.0446C60.2474 49.1079 60.6416 48.57 61.1219 48.169C61.3421 47.9853 61.876 47.594 62.1373 47.9294C62.5035 48.412 62.2634 49.1479 62.637 49.6516C63.3888 50.651 65.1167 49.4901 65.9182 49.2534C66.7333 49.0167 68.7909 49.2186 69.4109 49.8769C69.7635 50.2517 69.8131 50.7365 70.371 50.9139C70.9625 51.1062 71.6687 51.5563 72.2665 51.631C73.0315 51.728 72.0726 48.4793 72.0298 48.076C71.9203 47.0184 71.7212 46.4514 72.6271 45.6414C73.1211 45.1987 73.6846 44.8348 74.2049 44.419C74.8038 43.9478 75.2545 43.4635 76.0229 43.2627C77.3588 42.9216 78.7205 42.8839 80.0895 42.9723C81.203 43.0482 82.6262 43.4914 83.7101 43.1355C84.1995 42.9803 84.7717 42.5776 84.969 42.1007C85.1698 41.6136 84.835 40.9923 85.1869 40.5565C85.9656 39.6159 87.1943 40.39 88.1732 40.4476C89.0659 40.4989 89.6597 39.8863 90.4532 39.6073C91.3665 39.2873 92.3516 39.3329 93.2985 39.4875C94.2192 39.6279 95.165 39.3615 95.9003 40.0597C96.509 40.6472 97.0098 41.2736 97.1307 42.103C97.2306 42.7521 97.3247 43.237 97.854 43.6734C98.5437 44.2535 98.8517 44.9574 99.2887 45.7087C99.7194 46.4623 98.6042 46.7692 98.3577 47.3042C98.0605 47.9619 98.2003 48.7446 98.6852 49.2523C99.2003 49.7816 99.4593 50.1421 99.4866 50.8928C99.5117 51.4872 99.2419 52.0668 99.9898 52.2191C100.93 52.4119 101.841 52.676 102.804 52.6852C103.663 52.6931 104.925 51.9795 105.665 52.5471C106.278 53.0234 106.99 53.7616 107.252 54.49C107.351 54.7627 107.184 54.9447 107.084 55.1814C106.901 55.6132 107.072 55.9828 107.305 56.3719C107.753 57.1055 107.922 57.6748 108.068 58.519C108.262 59.6114 108.856 60.6889 109.251 61.726C110.342 60.9394 111.53 60.8007 112.867 60.6587C113.303 60.6097 113.193 60.8207 113.551 61.0443C114.062 61.3541 114.72 61.5857 115.312 61.6923C115.697 61.7557 116.336 61.7722 116.54 62.1698C116.799 62.6712 117.316 62.7893 117.666 62.2913C117.97 61.8526 118.2 61.382 118.754 61.2069C119.252 61.0495 120.09 60.6587 120.531 61.0306C121.232 61.6079 122.254 59.4522 123.244 60.353C124.054 61.0877 124.227 62.285 125.181 62.8332C125.846 63.2222 126.5 63.6427 127.149 64.0625C127.542 64.3226 128.304 65.1235 128.659 64.5086C129.306 63.3746 130.308 63.3706 131.486 63.8309C132.054 64.0625 132.645 64.2525 133.068 64.6985C133.457 65.1053 133.787 65.2536 134.357 65.3426C135.01 65.4447 135.424 64.9147 136.041 64.8183C136.451 64.7556 136.742 65.4983 137.147 65.5696C138.505 65.7835 139.684 66.5747 140.901 67.1486C141.419 67.3916 141.9 67.4555 142.453 67.5684C143.158 67.7133 143.468 68.1913 143.755 68.8131C144.047 69.4782 143.764 70.1388 143.526 70.7708C143.301 71.3704 143.228 72.0184 142.964 72.6076C142.794 72.9858 142.253 73.0201 141.911 73.141C141.516 73.2825 141.083 74.0292 141.265 74.4365C141.7 75.4028 143.312 74.7297 144.01 74.9983C144.268 75.0879 144.452 75.7736 144.306 75.9983C144.118 76.2619 143.436 76.21 143.162 76.2328C142.83 76.2584 142.468 76.2539 142.146 76.3343C141.824 76.4045 142.27 78.0376 142.406 78.259C143.208 79.5173 144.069 80.9303 144.249 82.4397C144.323 83.0888 144.29 83.7466 144.251 84.3969C144.216 84.9633 144.363 85.9325 144.002 86.4116C143.178 87.5057 142.186 87.1931 140.992 87.1914H140.986H140.992H140.998H141.002H141.006H141.009H141.014H141.017H141.02H141.023H141.029H141.032H141.039H141.041H141.044H141.051H141.055H141.062H141.068H141.075H141.077H141.078H141.083H141.091H141.098H141.102H141.108H141.11H141.111H141.118H141.123H141.128H141.132H141.135H141.14H141.142H141.147H141.151H141.155H141.163H141.165H141.172H141.177H141.184H141.187H141.19H141.197H141.2H141.208H141.21H141.212H141.219H141.224H141.228H141.232H141.239H141.232H141.228H141.224H141.219H141.212H141.21H141.208H141.2H141.197H141.19H141.187H141.184H141.177H141.172H141.165H141.163H141.155H141.151H141.147H141.142H141.14H141.135H141.132H141.128H141.123H141.118H141.111H141.11H141.108H141.102H141.098H141.091H141.083H141.078H141.077H141.075H141.068H141.062H141.055H141.051H141.044H141.041H141.039H141.032H141.029H141.023H141.02H141.017H141.014H141.009H141.006H141.002H140.998H140.992H140.986H139.142C138.595 87.1914 137.323 86.9564 136.859 87.2388C136.499 87.4607 136.372 88.0619 136.095 88.3745C135.701 88.8246 135.127 89.1423 134.61 89.4378C134.206 89.6785 133.716 89.8177 133.516 90.2775C133.273 90.8479 133.118 91.4737 132.916 92.0572C132.56 93.0823 132.557 94.6356 131.834 95.4793C130.736 96.7599 128.679 96.5489 127.285 97.3458C126.449 97.8232 125.756 98.9441 124.73 99.0445C123.978 99.1215 123.107 99.0331 122.425 99.4216C122.115 99.6013 122.146 99.8009 122.027 100.085C121.837 100.521 121.315 100.844 120.912 101.081C119.901 101.665 118.857 101.346 117.99 102.184C117.243 102.909 116.555 103.082 115.493 103.102C114.976 103.111 114.438 103.082 113.928 103.166C113.313 103.273 113.305 103.191 112.886 103.716C112.161 104.625 110.958 105.265 109.979 105.888C108.767 106.67 107.484 107.376 106.108 107.855C104.634 108.358 103.289 108.245 101.756 108.215C100.124 108.185 98.4907 108.461 96.8535 108.464C97.0714 108.891 97.1844 109.38 97.5072 109.751C97.8871 110.185 98.8409 110.179 99.3845 110.266C100.843 110.471 102.473 110.457 103.729 111.321C104.826 112.072 105.545 113.186 106.591 113.972C107.108 114.356 107.644 114.724 107.863 115.344C108.089 115.976 108.028 116.665 108.273 117.294C108.711 118.425 110.041 118.089 111.044 118.121C111.248 118.123 114.041 118.124 113.67 117.362C113.405 116.823 113.505 116.352 114.087 116.036C114.657 115.738 115.312 116.142 115.75 116.482C116.343 116.941 116.533 116.482 117.077 116.184C117.713 115.839 118.421 115.852 119.076 115.602C119.266 115.534 119.911 115.163 120.092 115.385C120.35 115.701 120.073 116.316 119.949 116.631C119.451 117.899 119.812 119.181 119.491 120.512C119.169 121.859 116.184 121.172 115.149 120.879C114.518 120.711 114.046 120.325 113.45 120.085C112.977 119.901 112.561 120.224 112.16 120.431C111.604 120.722 111.047 120.977 110.685 121.501C110.322 122.031 109.657 122.913 109.615 123.556C109.551 124.61 107.384 124.581 106.537 124.756C105.291 125.011 104.226 125.28 103.414 126.283C102.02 128.025 100.199 128.559 97.9704 128.177C97.388 128.078 97.1844 128.93 96.7269 128.109C96.339 127.414 95.8598 126.597 95.7309 125.811C95.4525 124.184 96.9562 122.165 95.497 120.781C94.8227 120.141 94.1502 119.75 93.213 119.548C92.2415 119.329 91.2421 118.994 90.2524 118.865C89.5394 118.769 88.5719 119.036 87.9826 118.522C87.2376 117.865 87.5428 116.587 88.2217 116.005C88.8794 115.45 89.8588 115.576 90.6061 115.201C91.4389 114.781 92.0744 114.171 92.9677 113.819C93.8787 113.451 94.7851 113.308 95.7257 113.08C96.5574 112.87 96.5574 111.9 96.4924 111.218C96.4451 110.736 96.5746 109.108 95.7822 109.378C95.6134 109.433 94.0566 110.504 94.0601 110.352C94.0561 110.436 94.1673 110.472 94.1759 110.572V110.575C94.1759 110.582 94.1759 110.584 94.1759 110.588V110.595V110.599V110.606C94.2289 110.148 90.7424 109.493 90.5245 109.486C89.5451 109.449 88.921 110.178 88.0106 110.385C87.1361 110.595 85.9371 110.411 85.1356 110.008C83.6502 109.26 82.6719 107.688 82.6667 106.069C82.6667 105.206 83.0181 105.391 83.4796 105.089L83.5059 105.065L83.5287 105.046C83.5355 105.042 83.5435 105.034 83.5521 105.028L83.5817 105.009C83.5851 105.003 83.5937 104.997 83.6045 104.986C83.6085 104.978 83.6217 104.974 83.6285 104.969C83.6371 104.953 83.6439 104.949 83.6507 104.946C84.244 104.382 83.6559 103.755 83.1168 103.52C82.264 103.135 81.5053 103.174 80.6126 103.428C79.4837 103.755 78.3782 103.967 77.2196 104.188C76.3509 104.35 75.4941 104.612 74.647 104.855C73.7143 105.115 73.3817 105.347 73.0583 106.223C72.2603 108.391 70.4611 110.279 68.8525 111.922C68.0761 112.718 67.1144 113.356 66.3853 114.185C65.5223 115.171 64.994 116.593 64.3723 117.741Z" fill="#1F1D20"/>
<path fill-rule="evenodd" clip-rule="evenodd" d="M95.1955 109.25C95.1955 109.337 95.3005 109.369 95.3096 109.475L95.1955 109.25ZM95.3096 109.479C95.3096 109.482 95.3096 109.487 95.3096 109.487V109.479ZM65.5037 116.638C64.1353 116.144 63.1581 115.73 61.7297 116.322C60.6322 116.786 59.4314 117.95 58.2176 117.939C56.9649 117.928 55.6632 117.679 54.5017 117.213C54.0334 117.022 52.9182 115.326 53.5708 114.924C53.8589 114.756 54.3306 114.592 54.6712 114.539C54.9758 114.492 55.0037 114.889 55.3557 114.864C56.0733 114.805 56.1378 113.206 56.1982 112.728C56.3134 111.829 57.1223 111.936 57.4777 111.123C57.5787 110.887 57.6591 109.956 57.9033 109.884C58.2695 109.769 58.6922 109.829 59.0669 109.758C60.2614 109.533 59.8992 108.023 59.6419 107.193C59.4788 106.66 59.2118 106.138 59.108 105.584C58.9683 104.85 59.7868 104.857 60.3059 104.589C60.6944 104.399 61.0971 103.921 61.5655 104.058C62.0041 104.189 62.3966 104.473 62.7839 104.711C63.9687 105.423 65.5072 105.443 66.8682 105.608C68.0804 105.757 68.1934 105.49 67.68 104.443C67.5419 104.164 67.3776 103.899 67.239 103.626C67.0285 103.216 67.8357 102.747 67.7279 102.28C67.6714 102.042 67.5408 101.805 67.5659 101.549C67.5967 101.273 67.7895 101.047 67.7684 100.755C67.721 100.18 67.0667 100.264 66.648 100.21C65.2545 100.027 64.7667 98.4975 64.716 97.3418C64.68 96.6247 64.7513 95.9037 64.7513 95.1832C63.9795 95.6076 63.1034 94.392 62.7822 93.8758C62.5523 93.5079 62.3355 93.1023 62.1547 92.7167C61.7988 91.9523 62.291 91.5935 62.5609 90.8958C63.0691 89.6015 62.5728 88.6728 61.6031 87.779C60.6721 86.9205 59.3356 85.8606 58.023 85.6826C56.6831 85.4927 56.1206 86.4253 55.0054 85.7648C54.4122 85.4088 53.7339 85.313 53.0671 85.1453C52.2816 84.9519 51.5788 84.4105 50.8897 84.0187C49.4562 83.2064 48.4933 83.9981 47.0941 84.4128C46.3913 84.6182 45.6508 84.6769 44.9253 84.7363C44.1004 84.803 43.9047 85.0203 43.2356 85.3786C42.6332 85.6855 41.8569 85.6467 41.2288 85.9673C40.7171 86.2314 39.8832 84.7192 39.5472 85.1806C38.6202 86.4698 36.9688 86.1857 35.5068 86.2685C34.2119 86.346 32.7892 86.2719 31.5805 86.7938C30.5599 87.2376 29.7448 88.6095 28.5629 88.6238C27.4026 88.6449 27.3159 86.8908 26.2862 86.5748C25.0866 86.2086 23.8105 85.9844 22.5613 85.8714C21.2042 85.7488 19.8768 85.6244 18.7485 84.8344C17.991 84.3004 16.8358 83.4442 15.8855 83.4111C15.4753 83.4066 15.2084 83.9656 14.8781 84.135C14.4263 84.3683 13.7874 83.9713 13.4149 83.7483C12.8639 83.4288 12.4047 82.9999 11.9272 82.5829C11.4344 82.1567 11.3688 81.5612 10.8782 81.1693C10.4566 80.8214 9.94495 80.5053 9.61809 80.0769C9.28837 79.6326 9.13778 79.0907 8.87082 78.6161C8.10073 77.2533 8.94668 76.2293 9.78522 75.1461C10.5268 74.1866 11.3408 73.2089 12.48 72.6744C12.8918 72.4844 13.3385 72.4376 13.764 72.2791C14.4468 72.0286 14.2341 71.3926 14.2272 70.8045C14.2204 70.1251 14.3179 69.4491 14.1525 68.788C14.0053 68.2181 13.7361 67.6414 13.7486 67.0442C13.7726 65.8251 15.4725 64.6289 16.2819 63.8474C17.4051 62.7642 18.5711 61.7266 19.7285 60.6741C20.6692 59.8213 21.6241 58.4277 23.0136 58.3975C23.4175 58.3867 24.5025 58.535 24.7974 58.2178C25.0473 57.9417 25.0786 57.4335 25.1248 57.0946C25.2982 55.7569 25.0604 54.3742 25.1859 53.0291C25.2423 52.4541 25.4232 51.9179 25.1419 51.3845C24.9064 50.9356 24.5966 50.5323 24.3713 50.0777C23.6651 48.6767 23.4728 47.2483 23.4078 45.7047C23.3605 44.541 25.3102 44.7692 26.0666 44.5604C26.3085 44.4954 27.1402 44.2838 27.187 44.0048C27.2691 43.5068 27.3393 43.2028 27.8624 42.9455C30.0112 41.8828 32.585 41.8691 34.9386 41.9045C37.1998 41.9535 39.5626 41.86 41.7451 42.5359C42.9036 42.8999 44.1632 42.9632 45.292 43.3665C46.4135 43.759 47.4859 44.1309 48.6536 44.3688C49.5549 44.5547 49.0569 45.5364 49.7626 45.9255C50.6502 46.4223 51.9439 46.2632 52.9233 46.2666C52.5896 47.1068 53.2006 47.2158 53.9148 47.076C54.8959 46.8775 55.889 46.6471 56.8964 46.6533C58.3345 46.6573 59.3185 47.8319 60.6647 47.95C61.3789 48.0093 61.7765 47.4708 62.258 47.0635C62.473 46.8838 63.0155 46.4953 63.2699 46.8353C63.635 47.3179 63.3937 48.0532 63.7679 48.5512C64.5209 49.5574 66.2516 48.3995 67.0508 48.1587C67.8642 47.9169 69.9218 48.1194 70.5436 48.7822C70.8972 49.1581 70.9446 49.6396 71.5013 49.8187C72.0963 50.0098 72.8025 50.4547 73.4043 50.5317C74.1664 50.6321 73.2064 47.3812 73.1647 46.9785C73.058 45.9226 72.8555 45.3522 73.7602 44.5422C74.2554 44.1024 74.8201 43.7321 75.3369 43.3169C75.9359 42.8497 76.3865 42.362 77.1543 42.1634C78.4914 41.8223 79.8559 41.7852 81.2301 41.8816C82.3373 41.9524 83.764 42.3853 84.8484 42.0414C85.3367 41.8845 85.9077 41.4783 86.0994 41.002C86.3081 40.5143 85.9653 39.8931 86.3241 39.4676C87.1022 38.5166 88.3275 39.2947 89.3064 39.3512C90.1985 39.4082 90.7952 38.7853 91.5858 38.5098C92.4997 38.1886 93.4831 38.2337 94.4294 38.3894C95.3547 38.5383 96.3016 38.2594 97.034 38.9667C97.6467 39.548 98.1407 40.1783 98.2662 41.0037C98.3683 41.6483 98.4596 42.1349 98.9884 42.5793C99.6792 43.1554 99.9901 43.8542 100.42 44.6129C100.853 45.3607 99.7356 45.6705 99.4915 46.2153C99.196 46.8633 99.3318 47.6482 99.8241 48.1587C100.333 48.6898 100.594 49.0458 100.623 49.7947C100.647 50.392 100.375 50.9681 101.127 51.1182C102.066 51.3132 102.972 51.5842 103.939 51.5865C104.799 51.5979 106.057 50.8814 106.8 51.445C107.413 51.9282 108.123 52.664 108.388 53.4016C108.486 53.6674 108.32 53.8488 108.22 54.081C108.034 54.5185 108.208 54.8933 108.435 55.2784C108.887 56.0136 109.059 56.5795 109.203 57.4243C109.394 58.5133 109.993 59.5897 110.383 60.6342C111.477 59.8384 112.663 59.7066 114.002 59.5612C114.438 59.5167 114.326 59.7283 114.686 59.9434C115.197 60.2497 115.856 60.4904 116.448 60.5942C116.83 60.661 117.467 60.6815 117.67 61.0728C117.937 61.5822 118.45 61.6946 118.8 61.1943C119.102 60.7614 119.332 60.2811 119.889 60.1094C120.383 59.9536 121.226 59.5612 121.668 59.932C122.363 60.5092 123.387 58.357 124.377 59.2571C125.185 59.9907 125.361 61.1841 126.312 61.7345C126.982 62.123 127.634 62.5446 128.28 62.9667C128.676 63.224 129.439 64.0328 129.793 63.4111C130.438 62.2805 131.44 62.273 132.618 62.7322C133.19 62.9656 133.775 63.1538 134.199 63.5953C134.588 64.0077 134.921 64.1543 135.49 64.2445C136.141 64.3489 136.561 63.8252 137.172 63.7202C137.582 63.6592 137.874 64.4059 138.282 64.4709C139.638 64.6883 140.819 65.4835 142.038 66.0482C142.55 66.2952 143.031 66.3614 143.589 66.4732C144.291 66.6129 144.607 67.0932 144.886 67.7213C145.184 68.3801 144.895 69.0378 144.661 69.6716C144.436 70.2671 144.361 70.93 144.099 71.5124C143.927 71.8866 143.386 71.9214 143.043 72.0429C142.649 72.1889 142.218 72.9339 142.396 73.3395C142.834 74.3104 144.448 73.6299 145.145 73.8934C145.399 73.9944 145.591 74.6778 145.442 74.9008C145.254 75.1678 144.57 75.117 144.293 75.1341C143.96 75.1655 143.6 75.1535 143.277 75.2368C142.955 75.3155 143.401 76.9481 143.541 77.1614C144.345 78.4238 145.205 79.8316 145.38 81.341C145.454 81.9907 145.425 82.6507 145.384 83.3022C145.35 83.8692 145.497 84.8355 145.135 85.3164C144.315 86.4088 143.322 86.0899 142.129 86.0899H142.124H142.12H142.124H142.129H142.133H142.136H142.14H142.146H142.148H142.149H142.156H142.16H142.163H142.168H142.17H142.172H142.18H142.185H142.189H142.193H142.201H142.203H142.205H142.207H142.211H142.213H142.217H142.223H142.225H142.228H142.231H142.237H142.239H142.245H142.251H142.255H142.261H142.267H142.271H142.276H142.278H142.283H142.288H142.291H142.295H142.3H142.304H142.307H142.311H142.314H142.316H142.326H142.333H142.338H142.34H142.346H142.348H142.356H142.358H142.36H142.367H142.373H142.367H142.36H142.358H142.356H142.348H142.346H142.34H142.338H142.333H142.326H142.316H142.314H142.311H142.307H142.304H142.3H142.295H142.291H142.288H142.283H142.278H142.276H142.271H142.267H142.261H142.255H142.251H142.245H142.239H142.237H142.231H142.228H142.225H142.223H142.217H142.213H142.211H142.207H142.205H142.203H142.201H142.193H142.189H142.185H142.18H142.172H142.17H142.168H142.163H142.16H142.156H142.149H142.148H142.146H142.14H142.136H142.133H142.129H142.124H142.12H140.273C139.728 86.0899 138.454 85.8566 137.991 86.143C137.637 86.3689 137.503 86.9655 137.23 87.2758C136.835 87.7236 136.26 88.0437 135.746 88.3397C135.335 88.577 134.849 88.7185 134.652 89.1777C134.404 89.7476 134.252 90.3739 134.051 90.958C133.693 91.9876 133.69 93.5358 132.966 94.3789C131.866 95.6664 129.808 95.4548 128.415 96.2539C127.583 96.7246 126.882 97.8483 125.864 97.9521C125.108 98.0269 124.239 97.9407 123.561 98.3258C123.247 98.5037 123.279 98.6988 123.159 98.9841C122.972 99.4267 122.45 99.7456 122.049 99.9823C121.038 100.566 119.992 100.251 119.128 101.091C118.375 101.821 117.689 101.983 116.629 102.006C116.108 102.01 115.572 101.983 115.058 102.071C114.449 102.173 114.438 102.093 114.017 102.621C113.292 103.53 112.093 104.164 111.114 104.797C109.896 105.562 108.619 106.278 107.24 106.756C105.764 107.26 104.423 107.153 102.892 107.127C101.258 107.087 99.6216 107.364 97.989 107.367C98.2063 107.792 98.3153 108.288 98.637 108.653C99.022 109.085 99.9775 109.084 100.517 109.162C101.979 109.38 103.605 109.368 104.862 110.224C105.961 110.974 106.68 112.088 107.726 112.874C108.242 113.263 108.778 113.627 108.999 114.252C109.221 114.88 109.159 115.571 109.407 116.2C109.842 117.326 111.176 116.992 112.176 117.022C112.385 117.03 115.174 117.03 114.801 116.263C114.538 115.73 114.631 115.253 115.222 114.94C115.791 114.633 116.446 115.044 116.882 115.386C117.477 115.848 117.664 115.386 118.211 115.089C118.842 114.746 119.554 114.756 120.206 114.504C120.396 114.433 121.043 114.065 121.225 114.288C121.486 114.609 121.205 115.215 121.078 115.536C120.584 116.801 120.942 118.085 120.626 119.417C120.3 120.77 117.318 120.071 116.282 119.787C115.651 119.606 115.178 119.228 114.583 118.995C114.106 118.806 113.695 119.123 113.291 119.342C112.738 119.624 112.181 119.876 111.819 120.408C111.458 120.935 110.79 121.814 110.747 122.461C110.68 123.515 108.514 123.489 107.672 123.655C106.424 123.913 105.357 124.183 104.547 125.19C103.149 126.93 101.328 127.464 99.1036 127.083C98.5172 126.981 98.3164 127.83 97.8652 127.011C97.475 126.317 96.9964 125.5 96.8618 124.716C96.5851 123.086 98.0928 121.066 96.6353 119.683C95.9576 119.043 95.2805 118.652 94.349 118.445C93.3764 118.233 92.3707 117.893 91.3884 117.762C90.6777 117.669 89.7028 117.94 89.1153 117.424C88.3737 116.769 88.6755 115.488 89.3548 114.912C90.0131 114.35 90.9891 114.478 91.7398 114.106C92.5761 113.683 93.2104 113.07 94.1037 112.717C95.009 112.357 95.9206 112.216 96.8606 111.981C97.6963 111.77 97.6923 110.802 97.6239 110.119C97.5777 109.636 97.7089 108.01 96.9183 108.276C96.7517 108.339 95.1904 109.405 95.1955 109.25C95.1904 109.337 95.3005 109.369 95.3096 109.475V109.479C95.3096 109.482 95.3096 109.487 95.3096 109.487V109.494V109.5V109.506C95.3689 109.05 91.8745 108.397 91.6577 108.386C90.6834 108.347 90.0531 109.074 89.1466 109.287C88.2676 109.494 87.0702 109.31 86.2728 108.907C84.7868 108.163 83.8079 106.589 83.8011 104.97C83.7982 104.105 84.1525 104.295 84.6111 103.982L84.6373 103.969L84.6659 103.952C84.6693 103.941 84.6773 103.941 84.6858 103.928L84.7132 103.91C84.7217 103.905 84.7309 103.896 84.7366 103.893C84.7468 103.881 84.7548 103.875 84.7611 103.869C84.7657 103.862 84.7799 103.852 84.7862 103.845C85.38 103.287 84.7919 102.662 84.25 102.421C83.3972 102.043 82.6357 102.071 81.7481 102.334C80.6152 102.654 79.5131 102.877 78.354 103.09C77.4886 103.253 76.6255 103.518 75.7813 103.757C74.8486 104.018 74.5149 104.248 74.1921 105.129C73.3952 107.292 71.5949 109.176 69.9857 110.826C69.2053 111.618 68.2453 112.266 67.518 113.094C66.652 114.077 66.1244 115.5 65.5037 116.638Z" fill="#1C99D6"/>
<path d="M21.9601 74.9538C21.9681 75.5345 22.0411 75.9892 22.1906 76.3075C22.3372 76.6298 22.5847 76.8471 22.9316 76.9737C23.2813 77.1032 23.7878 77.1677 24.4455 77.1677H28.6496C29.3393 77.1677 29.8641 77.1027 30.2092 76.9857C30.5555 76.8574 30.7962 76.6412 30.9302 76.3297C31.0614 76.0114 31.1299 75.5522 31.1299 74.9361V71.5534C31.1299 70.9037 31.0495 70.4097 30.8914 70.0726C30.7283 69.7395 30.4699 69.5056 30.1128 69.3795C29.7603 69.2506 29.2514 69.1816 28.5932 69.1816H24.5031C23.8306 69.1816 23.3178 69.2552 22.9618 69.3898C22.6047 69.5261 22.3526 69.7577 22.2048 70.1005C22.0599 70.4314 21.9755 70.9305 21.9601 71.5717V74.9538ZM34.3027 75.2761C34.3027 76.138 34.2245 76.8448 34.0688 77.4147C33.9108 77.972 33.6558 78.4301 33.2941 78.7843C32.9313 79.1317 32.4447 79.3964 31.8235 79.5612C31.2063 79.721 30.4322 79.8094 29.5064 79.8094H23.6823C22.7912 79.8094 22.0411 79.721 21.4211 79.5487C20.8038 79.377 20.3002 79.1066 19.9111 78.7449C19.5226 78.3787 19.2351 77.9127 19.0566 77.3457C18.8775 76.7815 18.7891 76.0964 18.7891 75.2761V71.25C18.7891 70.3259 18.8775 69.5706 19.0515 68.9699C19.226 68.3733 19.5044 67.8947 19.8843 67.5399C20.2619 67.1793 20.7514 66.9272 21.3657 66.7755C21.971 66.6249 22.7479 66.5439 23.6828 66.5439H29.507C30.6519 66.5439 31.5697 66.6876 32.2565 66.9591C32.9467 67.2324 33.4584 67.7047 33.7984 68.3921C34.1321 69.072 34.3027 70.031 34.3027 71.2505V75.2761ZM40.2597 66.5433H35.9621L42.0703 72.9869L35.2171 79.8088H39.8758L44.5768 74.5699L49.2795 79.8088H53.9399L47.0833 72.9869L53.1904 66.5433H48.8944L44.5774 71.3869L40.2597 66.5433ZM58.2519 74.9538C58.2581 75.5345 58.3351 75.9892 58.4806 76.3075C58.6283 76.6298 58.8742 76.8471 59.225 76.9737C59.5684 77.1032 60.0784 77.1677 60.7384 77.1677H64.9397C65.6327 77.1677 66.1518 77.1027 66.4998 76.9857C66.8472 76.8574 67.0856 76.6412 67.2208 76.3297C67.3503 76.0114 67.4205 75.5522 67.4205 74.9361V71.5534C67.4205 70.9037 67.3418 70.4097 67.1838 70.0726C67.0183 69.7395 66.7622 69.5056 66.404 69.3795C66.0514 69.2506 65.5415 69.1816 64.8815 69.1816H60.7897C60.1217 69.1816 59.6066 69.2552 59.2513 69.3898C58.8942 69.5261 58.6409 69.7577 58.4977 70.1005C58.3494 70.4314 58.2701 70.9305 58.2519 71.5717V74.9538ZM70.5893 75.2761C70.5893 76.138 70.5151 76.8448 70.3594 77.4147C70.2014 77.972 69.9464 78.4301 69.5836 78.7843C69.2231 79.1317 68.7359 79.3964 68.1119 79.5612C67.4981 79.721 66.7257 79.8094 65.7965 79.8094H59.9746C59.0824 79.8094 58.3306 79.721 57.7099 79.5487C57.091 79.377 56.5902 79.1066 56.2011 78.7449C55.8127 78.3787 55.5217 77.9127 55.3449 77.3457C55.1698 76.7815 55.0814 76.0964 55.0814 75.2761V71.25C55.0814 70.3259 55.1669 69.5706 55.3392 68.9699C55.5172 68.3733 55.7927 67.8947 56.1732 67.5399C56.5548 67.1793 57.0448 66.9272 57.6575 66.7755C58.265 66.6249 59.0385 66.5439 59.9751 66.5439H65.797C66.9436 66.5439 67.8597 66.6876 68.5482 66.9591C69.2379 67.2324 69.7507 67.7047 70.0896 68.3921C70.4216 69.072 70.5898 70.031 70.5898 71.2505V75.2761H70.5893ZM72.5749 79.8094V66.5439H81.6158C82.4697 66.5439 83.1908 66.6374 83.7715 66.8068C84.3476 66.9734 84.8251 67.2444 85.193 67.6106C85.5615 67.9705 85.8325 68.4497 86.0093 69.0361C86.1838 69.6174 86.2734 70.3384 86.2734 71.1964C86.2649 72.311 86.1063 73.2191 85.7931 73.9042C85.4765 74.5927 84.9774 75.0981 84.2986 75.4164C83.6226 75.7302 82.7384 75.891 81.6523 75.891H75.7466V79.8094H72.5749ZM75.7466 73.2556H81.0437C81.5673 73.2556 81.9775 73.1877 82.2821 73.0411C82.5815 72.8997 82.7995 72.6743 82.9164 72.3783C83.0407 72.0817 83.1018 71.6869 83.1018 71.1924C83.1018 70.4902 82.9575 69.9887 82.6608 69.667C82.3756 69.3459 81.8349 69.1816 81.0437 69.1816H75.7466V73.2556ZM91.0291 74.9538C91.0331 75.5345 91.1124 75.9892 91.2567 76.3075C91.4051 76.6298 91.6503 76.8471 91.9966 76.9737C92.3508 77.1032 92.8568 77.1677 93.5157 77.1677H97.7198C98.4072 77.1677 98.9303 77.1027 99.2777 76.9857C99.6222 76.8574 99.8629 76.6412 99.997 76.3297C100.132 76.0114 100.198 75.5522 100.198 74.9361V71.5534C100.198 70.9037 100.116 70.4097 99.9593 70.0726C99.7979 69.7395 99.5406 69.5056 99.1812 69.3795C98.827 69.2506 98.317 69.1816 97.6588 69.1816H93.5716C92.8985 69.1816 92.3845 69.2552 92.0308 69.3898C91.6709 69.5261 91.421 69.7577 91.2716 70.1005C91.1255 70.4314 91.0445 70.9305 91.0286 71.5717V74.9538H91.0291ZM103.371 75.2761C103.371 76.138 103.294 76.8448 103.139 77.4147C102.98 77.972 102.724 78.4301 102.361 78.7843C102 79.1317 101.513 79.3964 100.893 79.5612C100.274 79.721 99.5013 79.8094 98.5732 79.8094H92.7501C91.8631 79.8094 91.1096 79.721 90.4906 79.5487C89.8723 79.377 89.368 79.1066 88.979 78.7449C88.59 78.3787 88.3064 77.9127 88.129 77.3457C87.9488 76.7815 87.8592 76.0964 87.8592 75.2761V71.25C87.8592 70.3259 87.9431 69.5706 88.1188 68.9699C88.2973 68.3733 88.5728 67.8947 88.9545 67.5399C89.3287 67.1793 89.8255 66.9272 90.4342 66.7755C91.0434 66.6249 91.8163 66.5439 92.7507 66.5439H98.5737C99.7215 66.5439 100.639 66.6876 101.324 66.9591C102.016 67.2324 102.527 67.7047 102.87 68.3921C103.197 69.072 103.371 70.031 103.371 71.2505V75.2761ZM105.299 79.8094V66.5439H108.47V71.6276H116.645V66.5439H119.837V79.8094H116.645V74.2647H108.47V79.8094H105.299ZM124.646 79.8094H120.943L127.973 66.5439H132.674L139.644 79.8094H135.917L134.216 76.4655H126.369L124.646 79.8094ZM127.645 73.9601H132.937L130.413 69.0355H130.266L127.645 73.9601Z" fill="#1F1D20" stroke="#1F1D20" stroke-width="0.216" stroke-miterlimit="22.9256" stroke-linecap="round"/>
<path d="M22.4205 74.3377C22.4279 74.9298 22.5021 75.3805 22.6498 75.6976C22.7953 76.0154 23.0463 76.2424 23.3914 76.365C23.741 76.494 24.2476 76.5624 24.9042 76.5624H29.1128C29.7991 76.5624 30.3222 76.4934 30.6661 76.3765C31.0181 76.2487 31.2531 76.0308 31.3889 75.7216C31.5229 75.4027 31.5897 74.9447 31.5897 74.3235V70.9448C31.5897 70.2927 31.5081 69.7982 31.3518 69.4633C31.1881 69.1302 30.9291 68.8969 30.576 68.7703C30.2201 68.6362 29.7101 68.5774 29.049 68.5774H24.9618C24.2887 68.5774 23.7736 68.6396 23.4199 68.7782C23.0628 68.9106 22.8112 69.1445 22.6652 69.4856C22.518 69.821 22.4353 70.3156 22.4199 70.9624V74.3377H22.4205ZM34.7619 74.6703C34.7619 75.5231 34.682 76.2344 34.5274 76.8043C34.3734 77.361 34.1133 77.8168 33.7545 78.1745C33.3923 78.5224 32.9045 78.7877 32.285 78.9491C31.6673 79.1111 30.8937 79.1961 29.9645 79.1961H24.1438C23.251 79.1961 22.5021 79.106 21.8803 78.9394C21.2608 78.7677 20.7565 78.4973 20.3686 78.1351C19.9819 77.7717 19.6955 77.3034 19.5175 76.7387C19.3384 76.1722 19.25 75.4843 19.25 74.6703V70.6396C19.25 69.7189 19.3367 68.9625 19.5124 68.3607C19.6881 67.7634 19.9648 67.2888 20.3412 66.9272C20.7189 66.5689 21.2129 66.3202 21.8227 66.1662C22.433 66.0168 23.206 65.9426 24.1438 65.9426H29.9645C31.1122 65.9426 32.0312 66.0789 32.7169 66.3442C33.4071 66.6231 33.9188 67.0994 34.2582 67.7863C34.5902 68.4634 34.7619 69.4211 34.7619 70.6396V74.6703ZM40.7224 65.9426H36.423L42.5289 72.3777L35.6774 79.1967H40.3356L45.036 73.9607L49.7358 79.1967H54.3957L47.5419 72.3777L53.6547 65.9426H49.3514L45.036 70.7725L40.7224 65.9426ZM58.7128 74.3377C58.7157 74.9298 58.7961 75.3805 58.9387 75.6976C59.0864 76.0154 59.3334 76.2424 59.6808 76.365C60.0311 76.494 60.541 76.5624 61.1976 76.5624H65.4012C66.0874 76.5624 66.6139 76.4934 66.9602 76.3765C67.307 76.2487 67.5454 76.0308 67.6789 75.7216C67.8147 75.4027 67.8774 74.9447 67.8774 74.3235V70.9448C67.8774 70.2927 67.797 69.7982 67.6396 69.4633C67.477 69.1302 67.222 68.8969 66.8638 68.7703C66.5107 68.6362 66.0013 68.5774 65.3424 68.5774H61.2524C60.5781 68.5774 60.0664 68.6396 59.7088 68.7782C59.3517 68.9106 59.0996 69.1445 58.9535 69.4856C58.8086 69.821 58.7265 70.3156 58.7122 70.9624V74.3377H58.7128ZM71.0496 74.6703C71.0496 75.5231 70.972 76.2344 70.8186 76.8043C70.6646 77.361 70.4045 77.8168 70.0445 78.1745C69.6812 78.5224 69.1934 78.7877 68.5739 78.9491C67.9544 79.1111 67.1838 79.1961 66.2545 79.1961H60.4321C59.5428 79.1961 58.7904 79.106 58.1703 78.9394C57.5525 78.7677 57.05 78.4973 56.6587 78.1351C56.2702 77.7717 55.9855 77.3034 55.8076 76.7387C55.6267 76.1722 55.5378 75.4843 55.5378 74.6703V70.6396C55.5378 69.7189 55.6262 68.9625 55.8013 68.3607C55.9764 67.7634 56.2525 67.2888 56.6347 66.9272C57.0106 66.5689 57.5058 66.3202 58.1161 66.1662C58.7242 66.0168 59.4977 65.9426 60.4321 65.9426H66.2545C67.4005 65.9426 68.3195 66.0789 69.0063 66.3442C69.6983 66.6231 70.2105 67.0994 70.5476 67.7863C70.8808 68.4634 71.0502 69.4211 71.0502 70.6396V74.6703H71.0496ZM73.037 79.1967V65.9426H82.0745C82.9284 65.9426 83.6489 66.0242 84.2244 66.197C84.8114 66.363 85.2849 66.6368 85.6528 66.9979C86.0247 67.3624 86.2934 67.8387 86.4674 68.4251C86.6442 69.0076 86.7321 69.7286 86.7321 70.5825C86.7252 71.7006 86.5666 72.603 86.2449 73.2995C85.9363 73.9863 85.4366 74.4877 84.7578 74.8049C84.0858 75.1203 83.1994 75.2835 82.1081 75.2835H76.2069V79.1961H73.037V79.1967ZM76.2069 72.6458H81.504C82.0243 72.6458 82.4367 72.5756 82.743 72.4319C83.0425 72.291 83.2587 72.0651 83.3779 71.7679C83.5051 71.4753 83.5604 71.0765 83.5604 70.5797C83.5604 69.8803 83.4156 69.3789 83.1218 69.0555C82.8309 68.7303 82.2901 68.5769 81.5035 68.5769H76.2064V72.6458H76.2069ZM91.4901 74.3377C91.4964 74.9298 91.5694 75.3805 91.7177 75.6976C91.8666 76.0154 92.1153 76.2424 92.4627 76.365C92.8089 76.494 93.3178 76.5624 93.9778 76.5624H98.1779C98.8675 76.5624 99.3883 76.4934 99.7403 76.3765C100.087 76.2487 100.323 76.0308 100.457 75.7216C100.593 75.4027 100.658 74.9447 100.658 74.3235V70.9448C100.658 70.2927 100.575 69.7982 100.417 69.4633C100.255 69.1302 99.9999 68.8969 99.6433 68.7703C99.288 68.6362 98.7791 68.5774 98.1214 68.5774H94.0285C93.3571 68.5774 92.8483 68.6396 92.4866 68.7782C92.1335 68.9106 91.8803 69.1445 91.7337 69.4856C91.5871 69.821 91.5043 70.3156 91.4901 70.9624V74.3377ZM103.83 74.6703C103.83 75.5231 103.753 76.2344 103.598 76.8043C103.441 77.361 103.181 77.8168 102.822 78.1745C102.46 78.5224 101.972 78.7877 101.354 78.9491C100.734 79.1111 99.9571 79.1961 99.0347 79.1961H93.2088C92.3195 79.1961 91.5688 79.106 90.9459 78.9394C90.3304 78.7677 89.8261 78.4973 89.4417 78.1351C89.0526 77.7717 88.7645 77.3034 88.5843 76.7387C88.4057 76.1722 88.315 75.4843 88.315 74.6703V70.6396C88.315 69.7189 88.404 68.9625 88.5774 68.3607C88.7554 67.7634 89.0321 67.2888 89.4114 66.9272C89.7913 66.5689 90.2819 66.3202 90.8945 66.1662C91.5009 66.0168 92.2733 65.9426 93.2082 65.9426H99.0341C100.18 65.9426 101.095 66.0789 101.784 66.3442C102.474 66.6231 102.988 67.0994 103.325 67.7863C103.66 68.4634 103.829 69.4211 103.829 70.6396V74.6703H103.83ZM105.758 79.1967V65.9426H108.929V71.0183H117.106V65.9426H120.294V79.1967H117.106V73.656H108.929V79.1967H105.758ZM125.106 79.1967H121.406L128.433 65.9426H133.131L140.103 79.1967H136.375L134.676 75.8568H126.829L125.106 79.1967ZM128.104 73.3514H133.398L130.876 68.4251H130.723L128.104 73.3514Z" fill="white"/>
<path d="M22.1236 74.6424C22.1305 75.2265 22.2046 75.6748 22.3558 75.9971C22.5007 76.3172 22.7477 76.5391 23.0956 76.6646C23.4476 76.7918 23.9513 76.8568 24.6084 76.8568H28.8148C29.5039 76.8568 30.0259 76.7918 30.3716 76.6686C30.7212 76.5482 30.9602 76.3291 31.0954 76.0188C31.2272 75.7028 31.2939 75.2368 31.2939 74.6252V71.2448C31.2939 70.594 31.2135 70.1 31.0561 69.7657C30.8918 69.424 30.634 69.1987 30.2809 69.0709C29.9243 68.938 29.4144 68.8713 28.7532 68.8713H24.6672C23.9946 68.8713 23.4795 68.9414 23.1253 69.0789C22.7676 69.2112 22.5166 69.448 22.3706 69.784C22.2234 70.1171 22.1419 70.6082 22.1236 71.2568V74.6424ZM34.4639 74.9675C34.4639 75.8226 34.388 76.5334 34.2317 77.0987C34.076 77.6605 33.817 78.1215 33.4582 78.4746C33.0954 78.8202 32.6082 79.0832 31.9876 79.2475C31.3698 79.4101 30.5974 79.4911 29.6699 79.4911H23.8463C22.9553 79.4911 22.204 79.4101 21.5851 79.2355C20.9673 79.0735 20.4579 78.7986 20.0729 78.4358C19.6861 78.0661 19.3969 77.6024 19.2218 77.0348C19.0415 76.4723 18.9531 75.7844 18.9531 74.9675V70.9362C18.9531 70.0195 19.0398 69.2603 19.2155 68.6596C19.3912 68.0652 19.6679 67.5838 20.0467 67.2295C20.4237 66.8679 20.916 66.6232 21.5269 66.4709C22.1402 66.3157 22.9091 66.2393 23.8469 66.2393H29.6705C30.8159 66.2393 31.7349 66.3745 32.42 66.6448C33.1119 66.9158 33.6236 67.3978 33.9625 68.0778C34.2962 68.7663 34.4644 69.7189 34.4644 70.9362V74.9675H34.4639ZM40.4255 66.2393H36.129L42.2338 72.6795L35.3806 79.4911H40.0399L44.7431 74.2596L49.443 79.4911H54.1023L47.2462 72.6795L53.3544 66.2393H49.0568L44.7426 71.0749L40.4255 66.2393ZM58.4154 74.6424C58.4216 75.2265 58.4975 75.6748 58.6407 75.9971C58.7924 76.3172 59.0383 76.5391 59.3879 76.6646C59.7353 76.7918 60.2442 76.8568 60.9019 76.8568H65.106C65.7922 76.8568 66.317 76.7918 66.6639 76.6686C67.0095 76.5482 67.2474 76.3291 67.3855 76.0188C67.5161 75.7028 67.584 75.2368 67.584 74.6252V71.2448C67.584 70.594 67.5035 70.1 67.3432 69.7657C67.1835 69.424 66.9228 69.1987 66.5697 69.0709C66.2172 68.938 65.7067 68.8713 65.0461 68.8713H60.9561C60.2864 68.8713 59.7713 68.9414 59.4136 69.0789C59.0588 69.2112 58.8055 69.448 58.6584 69.784C58.5135 70.1171 58.4296 70.6082 58.4154 71.2568V74.6424ZM70.7539 74.9675C70.7539 75.8226 70.6775 76.5334 70.5212 77.0987C70.366 77.6605 70.1087 78.1215 69.7499 78.4746C69.3871 78.8202 68.8971 79.0832 68.2776 79.2475C67.6564 79.4101 66.8863 79.4911 65.9588 79.4911H60.1369C59.2442 79.4911 58.4918 79.4101 57.8734 79.2355C57.2539 79.0735 56.7508 78.7986 56.3606 78.4358C55.9756 78.0661 55.687 77.6024 55.5095 77.0348C55.3327 76.4723 55.2432 75.7844 55.2432 74.9675V70.9362C55.2432 70.0195 55.3281 69.2603 55.5056 68.6596C55.6801 68.0652 55.9539 67.5838 56.3361 67.2295C56.712 66.8679 57.2083 66.6232 57.8204 66.4709C58.4262 66.3157 59.1991 66.2393 60.1369 66.2393H65.9588C67.106 66.2393 68.0232 66.3745 68.7094 66.6448C69.3997 66.9158 69.9114 67.3978 70.2508 68.0778C70.5879 68.7663 70.7539 69.7189 70.7539 70.9362V74.9675ZM72.7413 79.4911V66.2393H81.7793C82.6332 66.2393 83.3508 66.33 83.9298 66.492C84.5134 66.6677 84.9891 66.9266 85.3593 67.2968C85.7279 67.6636 85.996 68.1342 86.1711 68.7184C86.3479 69.3076 86.4363 70.0298 86.4363 70.8775C86.4323 71.9995 86.2726 72.9077 85.9537 73.5945C85.6377 74.2778 85.138 74.7901 84.4592 75.1056C83.7872 75.4159 82.9013 75.579 81.8118 75.579H75.9095V79.4911H72.7413ZM75.9101 72.9425H81.206C81.7314 72.9425 82.1409 72.8729 82.445 72.7274C82.745 72.5865 82.9612 72.364 83.0799 72.0657C83.2059 71.7685 83.2641 71.3772 83.2641 70.878C83.2641 70.1833 83.1198 69.6716 82.826 69.3573C82.5334 69.0355 81.9955 68.8713 81.2054 68.8713H75.9095V72.9425H75.9101ZM91.1926 74.6424C91.1995 75.2265 91.2771 75.6748 91.4242 75.9971C91.5697 76.3172 91.8167 76.5391 92.1652 76.6646C92.5103 76.7918 93.0186 76.8568 93.6792 76.8568H97.8804C98.5701 76.8568 99.0949 76.7918 99.4423 76.6686C99.7885 76.5482 100.025 76.3291 100.162 76.0188C100.295 75.7028 100.362 75.2368 100.362 74.6252V71.2448C100.362 70.594 100.283 70.1 100.123 69.7657C99.9591 69.424 99.7024 69.1987 99.3453 69.0709C98.9876 68.938 98.4805 68.8713 97.8257 68.8713H93.7328C93.0654 68.8713 92.5497 68.9414 92.1909 69.0789C91.8378 69.2112 91.5834 69.448 91.4345 69.784C91.2919 70.1171 91.208 70.6082 91.1921 71.2568V74.6424H91.1926ZM103.531 74.9675C103.531 75.8226 103.454 76.5334 103.3 77.0987C103.148 77.6605 102.885 78.1215 102.524 78.4746C102.166 78.8202 101.677 79.0832 101.058 79.2475C100.441 79.4101 99.667 79.4911 98.7401 79.4911H92.9188C92.0238 79.4911 91.2725 79.4101 90.653 79.2355C90.0318 79.0735 89.5344 78.7986 89.1448 78.4358C88.7557 78.0661 88.4677 77.6024 88.288 77.0348C88.1128 76.4723 88.021 75.7844 88.021 74.9675V70.9362C88.021 70.0195 88.1077 69.2603 88.2834 68.6596C88.4625 68.0652 88.7352 67.5838 89.1145 67.2295C89.4922 66.8679 89.9856 66.6232 90.5977 66.4709C91.204 66.3157 91.9816 66.2393 92.9188 66.2393H98.7401C99.8832 66.2393 100.803 66.3745 101.49 66.6448C102.178 66.9158 102.693 67.3978 103.031 68.0778C103.364 68.7663 103.531 69.7189 103.531 70.9362V74.9675ZM105.462 79.4911V66.2393H108.634V71.3139H116.806V66.2393H120.001V79.4911H116.806V73.9544H108.634V79.4911H105.462ZM124.808 79.4911H121.107L128.135 66.2393H132.833L139.806 79.4911H136.083L134.378 76.1517H126.532L124.808 79.4911ZM127.807 73.6521H133.102L130.578 68.7189H130.43L127.807 73.6521Z" fill="#FEEB18"/>
<path d="M39.6445 9.1922H56.3806V12.2486H43.9108V15.5543H52.1628C53.594 15.5543 54.7474 15.7043 55.6042 15.9998C56.4724 16.2907 57.1113 16.8104 57.5254 17.5457C57.943 18.2867 58.1478 19.3072 58.1478 20.6163C58.1478 21.8354 57.935 22.78 57.5078 23.4799C57.0851 24.1724 56.4422 24.6642 55.5808 24.946C54.7246 25.234 53.5889 25.3766 52.1867 25.3766H39.6451V9.1922H39.6445ZM43.9108 18.6164V22.3219H51.29C52.047 22.3219 52.6106 22.266 52.9728 22.1537C53.3458 22.0373 53.5826 21.8576 53.7024 21.5924C53.8233 21.3317 53.8849 20.9495 53.8849 20.4378C53.8849 19.9763 53.829 19.6204 53.724 19.3665C53.6162 19.1207 53.3903 18.9313 53.0384 18.8081C52.6881 18.6757 52.1571 18.617 51.4417 18.617H43.9108V18.6164ZM61.413 25.3772V9.1922H79.6316V12.2486H65.677V15.7904H79.1935V18.6164H65.677V22.3219H79.6316V25.3772H61.413ZM96.8251 25.3532H88.8789C87.2201 25.3532 85.9212 25.1815 84.9811 24.8233C84.0416 24.4736 83.3742 23.8861 82.9789 23.0589C82.5784 22.2387 82.3794 21.0989 82.3794 19.634V15.0415C82.3999 13.4642 82.6201 12.2577 83.0399 11.4169C83.4598 10.5761 84.1551 9.98853 85.1266 9.64912C86.1015 9.31143 87.4922 9.14543 89.2902 9.14543H96.3054C97.8353 9.14543 99.0983 9.30572 100.097 9.61033C101.097 9.9178 101.872 10.4877 102.421 11.2971C102.972 12.1071 103.248 13.2452 103.248 14.6975H98.8256C98.8256 13.8538 98.5758 13.2469 98.0715 12.8955C97.5712 12.5395 96.743 12.3678 95.589 12.3678H90.1156C89.1037 12.3678 88.3627 12.4272 87.8938 12.5538C87.4237 12.6724 87.0935 12.928 86.9121 13.3148C86.7335 13.7015 86.6457 14.3267 86.6457 15.1829V19.1977C86.6457 20.0043 86.7603 20.6192 86.9896 21.0402C87.2206 21.4651 87.5749 21.7555 88.0598 21.9055C88.5395 22.0521 89.2172 22.1365 90.086 22.1365H95.5587C96.4132 22.1365 97.0664 22.0749 97.5222 21.9546C97.9831 21.8359 98.3168 21.6015 98.5296 21.2552C98.7458 20.9192 98.8484 20.4184 98.8484 19.7538H103.274C103.264 21.2404 103.085 22.3778 102.739 23.1725C102.389 23.9608 101.755 24.5215 100.85 24.8564C99.9317 25.1855 98.5906 25.3532 96.8251 25.3532ZM105.391 9.1922H124.639V12.4117H117.114V25.3772H112.852V12.4117H105.391V9.1922H105.391Z" fill="#1F1D20" stroke="#1F1D20" stroke-width="0.216" stroke-miterlimit="22.9256"/>
<path d="M40.4219 8.71932H57.1516V11.7723H44.6848V15.0837H52.9361C54.3708 15.0837 55.5242 15.2314 56.3838 15.5241C57.2498 15.8184 57.8869 16.3404 58.3016 17.0677C58.7186 17.8081 58.9234 18.8326 58.9234 20.1395C58.9234 21.3556 58.7084 22.31 58.284 23.0093C57.8601 23.703 57.2172 24.193 56.3559 24.4736C55.4945 24.7549 54.3651 24.9015 52.9629 24.9015H40.4224V8.71932H40.4219ZM44.6842 18.1418V21.8451H52.0651C52.8237 21.8451 53.3845 21.7857 53.7484 21.6739C54.1186 21.561 54.3571 21.3773 54.4751 21.1155C54.5978 20.8559 54.6554 20.4743 54.6554 19.9626C54.6554 19.5017 54.6081 19.1401 54.4985 18.8948C54.3919 18.6472 54.1654 18.4607 53.8146 18.3272C53.4626 18.2011 52.9327 18.1418 52.2139 18.1418H44.6842ZM62.1875 24.9015V8.71932H80.4078V11.7723H66.4537V15.3193H79.9662V18.1424H66.4537V21.8456H80.4078V24.9015H62.1875ZM97.5973 24.8764H89.6551C87.9946 24.8764 86.6945 24.703 85.7533 24.3487C84.8224 23.9996 84.1533 23.4086 83.7539 22.5883C83.3535 21.7641 83.1527 20.6249 83.1527 19.1583V14.5703C83.1744 12.9913 83.3934 11.7814 83.8184 10.9452C84.2348 10.0958 84.9319 9.51565 85.9011 9.17738C86.8828 8.83797 88.2667 8.67255 90.0653 8.67255H97.0799C98.6104 8.67255 99.8716 8.82942 100.871 9.13403C101.872 9.44834 102.65 10.0096 103.194 10.8219C103.747 11.6325 104.02 12.7688 104.02 14.2212H99.5995C99.5995 13.3775 99.348 12.7688 98.85 12.4157C98.348 12.0626 97.5152 11.8915 96.3623 11.8915H90.8878C89.8742 11.8915 89.1354 11.9526 88.6654 12.0781C88.1959 12.1944 87.8657 12.4528 87.6865 12.8367C87.508 13.2292 87.4184 13.855 87.4184 14.7118V18.7208C87.4184 19.5308 87.5337 20.1457 87.7681 20.5696C87.9951 20.9911 88.3534 21.2849 88.828 21.4298C89.3157 21.5827 89.9905 21.6642 90.8622 21.6642H96.3378C97.1883 21.6642 97.8454 21.6021 98.2995 21.4743C98.7604 21.3562 99.0896 21.1223 99.304 20.7812C99.5202 20.4446 99.6235 19.9478 99.6235 19.2815H104.048C104.043 20.7658 103.861 21.901 103.514 22.6899C103.162 23.4862 102.529 24.0492 101.621 24.3801C100.706 24.7092 99.3679 24.8764 97.5973 24.8764ZM106.169 8.71932H125.413V11.9406H117.891V24.9015H113.625V11.9406H106.169V8.71932H106.169Z" fill="white"/>
<path fill-rule="evenodd" clip-rule="evenodd" d="M131.582 132.212L131.713 123.869C104.456 141.394 59.365 144.133 24.7013 122.716L24.8764 131.139C55.2408 149.22 98.2334 151.396 131.582 132.212ZM22.5336 122.3L17.1042 119.026C16.6844 118.769 16.3398 118.155 16.3398 117.664V111.181C16.3398 110.686 16.6844 110.495 17.1042 110.754L22.5336 114.027C22.9552 114.288 23.3015 114.898 23.3015 115.392V121.868C23.3015 122.359 22.9552 122.557 22.5336 122.3ZM134.748 122.3L140.179 119.026C140.599 118.769 140.943 118.155 140.943 117.664V111.181C140.943 110.686 140.596 110.495 140.179 110.754L134.748 114.027C134.327 114.288 133.981 114.898 133.981 115.392V121.868C133.981 122.359 134.327 122.557 134.748 122.3Z" fill="#1F1D20"/>
<path fill-rule="evenodd" clip-rule="evenodd" d="M131.548 141.504L131.673 133.165C104.419 150.69 59.3249 153.427 24.6618 132.005L24.8357 140.438C55.2046 158.514 98.1956 160.693 131.548 141.504ZM22.4947 131.595L17.0641 128.316C16.6437 128.056 16.2969 127.445 16.2969 126.959V120.478C16.2969 119.984 16.6437 119.787 17.0641 120.046L22.4947 123.327C22.9156 123.573 23.2613 124.193 23.2613 124.683V131.16C23.2613 131.659 22.9156 131.85 22.4947 131.595ZM134.708 131.595L140.137 128.316C140.558 128.056 140.905 127.445 140.905 126.959V120.478C140.905 119.984 140.558 119.787 140.137 120.046L134.708 123.327C134.285 123.573 133.941 124.193 133.941 124.683V131.16C133.941 131.659 134.285 131.85 134.708 131.595Z" fill="#1F1D20"/>
<path fill-rule="evenodd" clip-rule="evenodd" d="M132.664 130.187L132.793 121.849C105.534 139.374 60.4414 142.112 25.7806 120.69L25.9534 129.12C56.3206 147.196 99.3127 149.375 132.664 130.187ZM23.6146 120.281L18.1829 117C17.7619 116.742 17.418 116.132 17.418 115.642V109.16C17.418 108.669 17.7619 108.474 18.1829 108.729L23.6146 112.014C24.0356 112.265 24.379 112.874 24.379 113.362V119.846C24.379 120.337 24.0356 120.538 23.6146 120.281ZM135.822 120.281L141.256 117C141.678 116.742 142.023 116.132 142.023 115.642V109.16C142.023 108.669 141.678 108.474 141.256 108.729L135.822 112.014C135.404 112.265 135.058 112.874 135.058 113.362V119.846C135.058 120.337 135.405 120.538 135.822 120.281Z" fill="white"/>
<path fill-rule="evenodd" clip-rule="evenodd" d="M132.62 139.484L132.748 131.138C105.497 148.66 60.403 151.408 25.7393 129.983L25.9133 138.407C56.2776 156.487 99.2674 158.668 132.62 139.484ZM23.5699 129.567L18.14 126.295C17.7213 126.039 17.375 125.427 17.375 124.935V118.452C17.375 117.958 17.7213 117.77 18.14 118.018L23.5699 121.298C23.9932 121.558 24.3372 122.168 24.3372 122.658V129.14C24.3366 129.634 23.9932 129.829 23.5699 129.567ZM135.782 129.567L141.212 126.295C141.636 126.039 141.98 125.427 141.98 124.935V118.452C141.98 117.958 141.636 117.77 141.212 118.018L135.782 121.298C135.361 121.558 135.018 122.168 135.018 122.658V129.14C135.018 129.634 135.361 129.829 135.782 129.567Z" fill="white"/>
<path fill-rule="evenodd" clip-rule="evenodd" d="M132.373 130.701L132.497 122.359C105.243 139.885 60.1513 142.622 25.487 121.206L25.6616 129.634C56.0248 147.709 99.018 149.887 132.373 130.701ZM23.3205 120.797L17.8917 117.512C17.4701 117.255 17.125 116.646 17.125 116.155V109.675C17.125 109.185 17.4701 108.985 17.8917 109.242L23.3205 112.523C23.7415 112.776 24.0872 113.388 24.0872 113.879V120.353C24.0872 120.856 23.7415 121.046 23.3205 120.797ZM135.534 120.797L140.962 117.512C141.386 117.255 141.728 116.646 141.728 116.155V109.675C141.728 109.185 141.383 108.985 140.962 109.242L135.534 112.523C135.111 112.776 134.767 113.388 134.767 113.879V120.353C134.767 120.856 135.111 121.046 135.534 120.797Z" fill="#1C99D6"/>
<path fill-rule="evenodd" clip-rule="evenodd" d="M132.332 139.994L132.456 131.653C105.203 149.178 60.1101 151.916 25.4475 130.493L25.6209 138.92C55.9864 157.003 98.9768 159.183 132.332 139.994ZM23.2804 130.084L17.8493 126.805C17.4289 126.549 17.082 125.94 17.082 125.448V118.969C17.082 118.473 17.4289 118.277 17.8493 118.534L23.2804 121.814C23.7008 122.066 24.0454 122.684 24.0454 123.174V129.656C24.0454 130.146 23.7008 130.341 23.2804 130.084ZM135.494 130.084L140.926 126.805C141.343 126.549 141.686 125.94 141.686 125.448V118.969C141.686 118.473 141.343 118.277 140.926 118.534L135.494 121.814C135.07 122.066 134.724 122.684 134.724 123.174V129.656C134.724 130.146 135.07 130.341 135.494 130.084Z" fill="#FEEB18"/>
</svg>
