<svg width="1326" height="199" viewBox="0 0 1326 199" fill="none" xmlns="http://www.w3.org/2000/svg">
<path fill-rule="evenodd" clip-rule="evenodd" d="M-90.3102 408.147H37.2295C46.8972 408.147 56.7112 407.983 66.589 407.818C97.217 407.305 128.458 406.782 157.854 411.113C179.081 414.308 199.137 419.891 219.182 425.471C240.202 431.323 261.212 437.171 283.55 440.26C341.942 448.237 379.589 427.783 409.246 395.466C414.61 389.622 419.894 382.731 425.447 375.491C446.615 347.89 471.676 315.213 519.883 316.104C555.162 316.726 587.245 328.578 618.223 340.023C627.993 343.632 637.653 347.201 647.269 350.364C724.253 375.727 805.08 391.988 890.977 379.511C919.404 375.421 946.142 368.568 972.572 360.694C977.259 359.291 982.117 357.688 987.099 356.045C1003.19 350.739 1020.56 345.009 1037.57 344.228C1075.7 342.571 1105.84 360.712 1133.92 377.619C1143.98 383.673 1153.77 389.568 1163.57 394.341C1215.97 419.806 1270.37 420.01 1321.54 393.829C1328.55 390.228 1336.1 385.665 1344.06 380.859C1377.44 360.69 1417.91 336.247 1454.76 360.694C1464.53 367.166 1472.99 374.159 1481.26 380.988C1503.42 399.301 1524.16 416.436 1564.79 419.192C1555.72 425.533 1552.65 428.806 1552.65 435.862C1512.87 430.924 1494.38 413.292 1474.83 394.655C1465.23 385.501 1455.38 376.106 1442.62 367.853C1411.75 347.92 1369.14 373.388 1335.69 393.378C1324.52 400.056 1314.37 406.122 1306.02 409.681C1250.85 433.101 1184.63 428.397 1137.3 398.022C1129.58 393.094 1122.29 387.353 1114.9 381.547C1092.88 364.219 1070.1 346.301 1033.27 347.603C1016.77 348.16 1000.46 353.544 985.134 358.604L985.131 358.605C980.756 360.05 976.461 361.467 972.264 362.739C943.068 371.534 913.565 380.227 882.525 385.75C801.545 400.375 708.887 396.693 635.59 368.159C625.045 364.063 614.545 358.635 603.827 353.095C580.028 340.793 555.154 327.935 526.336 327.865C484.927 327.788 460.504 358.946 440.113 384.96L440.112 384.961L440.111 384.962L440.11 384.963L440.11 384.964C433.488 393.41 427.292 401.315 421.078 407.431C388.655 439.339 346.091 461.839 285.394 455.498C261.743 453.018 239.501 447.157 217.272 441.3C197.33 436.045 177.399 430.792 156.471 427.987C127.446 424.078 96.6066 424.593 66.4786 425.096C56.4133 425.264 46.4274 425.431 36.6149 425.431H-91.6931H-602.005H-1276.74V407.943H-606.001H-90.3102V408.147ZM-84.9321 376.239H39.3806C48.5787 376.239 58.0134 376.045 67.5564 375.849C97.2311 375.239 127.952 374.608 155.857 379.716C175.448 383.295 193.081 389.84 210.714 396.386C228.347 402.931 245.979 409.476 265.572 413.056C320.583 423.078 349.164 399.863 375.133 370.614C376.238 369.365 377.336 368.122 378.429 366.886C412.867 327.91 441.653 295.332 518.653 298.206C568.901 300.047 617.919 303.422 666.476 312.627C693.528 317.728 720.372 324.758 747.328 331.817C804.127 346.69 861.417 361.693 922.17 359.057C943.912 358.085 964.07 353.607 984.158 349.144C1002.12 345.154 1020.02 341.176 1038.95 339.728C1081.59 336.454 1120.5 351.92 1157.71 366.716C1172.81 372.716 1187.62 378.606 1202.3 383.091C1259.15 400.374 1295.42 394.238 1342.59 368.364C1390.53 342.08 1431.41 322.444 1487.19 350.569C1492.4 353.205 1497.47 355.84 1502.46 358.431C1539.66 377.753 1572.19 394.645 1623.95 391.579C1619.77 393.325 1616.14 394.814 1612.78 396.194L1612.77 396.197L1612.69 396.232L1612.67 396.238C1604.46 399.61 1597.8 402.343 1588.45 406.613C1544.02 406.114 1518.75 389.089 1490.98 370.383L1490.98 370.381C1484.56 366.055 1478.01 361.64 1471.05 357.319C1425.11 328.828 1385.27 351.758 1347.1 373.726C1340.33 377.623 1333.61 381.49 1326.92 385.034C1281.89 408.863 1236.87 410.908 1186.78 391.988C1173.55 386.978 1160.34 380.446 1146.87 373.781C1113.86 357.455 1079.24 340.327 1038.65 342.796C1014.46 344.26 991.346 350.78 968.125 357.332C947.535 363.141 926.86 368.975 905.267 371.33C826.687 380.062 754.827 360.527 683.582 341.161L683.57 341.158L683.564 341.156C676.379 339.203 669.199 337.251 662.02 335.331C658.953 334.504 655.882 333.673 652.808 332.841C609.823 321.206 566.007 309.347 519.114 307.82C459.497 305.794 433.491 338.124 408.77 368.856C403.544 375.354 398.375 381.78 392.957 387.795C367.296 416.431 334.719 436.271 282.167 429.112C259.139 425.962 237.996 419.325 216.835 412.683C197.471 406.605 178.092 400.522 157.24 397.102C128.346 392.372 97.2433 392.933 66.8795 393.481C57.1965 393.656 47.5886 393.829 38.1514 393.829H-87.8517H-604.925H-1276.74V376.341H-603.849H-84.9321V376.239ZM34.4635 344.33H-86.3149H-605.693H-1276.74V361.819H-602.927H-90.3102H40.3027C49.4568 361.819 58.9409 361.586 68.5721 361.35C97.2572 360.646 127.247 359.911 153.706 365.194C171.7 368.781 187.118 375.499 202.534 382.215C217 388.518 231.465 394.82 248.054 398.534C298.763 409.783 327.344 388.716 352.391 362.023C392.65 319.274 424.612 290.025 506.975 291.355C522.673 291.609 538.285 291.598 553.838 291.586C600.857 291.553 647.333 291.52 693.982 298.82C726.97 303.947 759.054 312.719 791.168 321.498C838.486 334.434 885.87 347.388 936.307 348.728C958.692 349.299 979.545 345.919 1000.42 342.536C1016.94 339.858 1033.47 337.179 1050.79 336.456C1091.83 334.721 1130.19 347.695 1167.33 360.256C1182.75 365.47 1197.95 370.612 1213.05 374.602C1236.87 380.943 1265.14 386.875 1290.81 382.58C1309.95 379.374 1327.31 369.761 1343.17 360.977C1347.54 358.553 1351.8 356.192 1355.96 354.046C1377.78 342.899 1402.52 330.319 1430.95 328.581C1459.09 326.886 1481.25 337.149 1503.05 347.246C1504.93 348.119 1506.82 348.991 1508.7 349.853C1555.41 371.125 1594.44 385.954 1652.37 378.898C1664.67 372.762 1670.04 369.591 1675.88 363.046C1623.48 374.398 1582.3 370.103 1535.44 350.876C1528.59 348.065 1521.82 344.89 1514.98 341.684L1514.98 341.683C1496.2 332.878 1476.95 323.848 1454.3 321.524C1421.27 318.149 1391.15 328.888 1364.56 340.444C1358.1 343.233 1351.71 346.453 1345.24 349.707C1332.03 356.359 1318.52 363.157 1303.56 366.728C1279.28 372.557 1253.31 368.364 1229.49 363.557C1212.67 360.138 1195.96 355.609 1179.17 351.059C1139.2 340.228 1098.78 329.276 1055.4 332.876C1047.35 333.546 1039.5 334.346 1031.76 335.136C1004.02 337.967 977.64 340.658 948.447 336.66C908.121 331.119 870.558 320.243 832.929 309.347C790.693 297.118 748.374 284.864 701.972 280.105C662.331 276.069 623.65 278.916 584.86 281.771C557.792 283.763 530.67 285.759 503.133 285.423C501.556 285.402 499.983 285.38 498.413 285.358L498.384 285.358C461.429 284.845 426.582 284.361 393.572 297.798C366.906 308.638 349.434 325.328 332.025 341.958C330.875 343.056 329.725 344.155 328.573 345.251C302.758 369.693 273.255 391.579 224.851 378.284C211.986 374.792 201.373 369.063 190.764 363.336C178.691 356.818 166.623 350.303 151.247 347.092C125.484 341.724 94.6593 342.715 65.6763 343.646C54.899 343.992 44.3765 344.33 34.4635 344.33ZM1426.18 317.024C1402.58 319.507 1382.87 327.518 1363.22 335.508C1345.64 342.654 1328.1 349.782 1307.86 352.921C1269.21 358.894 1227.92 350.002 1188.13 341.432C1167.96 337.089 1148.17 332.828 1129.31 330.626C1107.49 328.069 1086.28 329.399 1065.23 330.728L1063.26 330.848C1045.32 331.937 1027.37 333.027 1008.84 331.547C968.421 328.332 930.219 315.901 892.649 303.675C871.652 296.842 850.852 290.073 829.973 285.014C784.489 273.969 735.624 265.685 686.76 266.196C658.64 266.484 631.434 270.166 604.177 273.855L604.175 273.856C592.706 275.408 581.228 276.961 569.669 278.264C544.575 281.11 519.266 281.479 494.344 281.842C437.77 282.667 383.188 283.462 337.639 313.138C329.761 318.273 322.28 324.33 314.705 330.462C293.618 347.534 271.805 365.193 238.681 365.193C233.917 365.193 229 364.887 223.929 364.069C207.693 361.667 196.596 354.791 185.428 347.872C176.62 342.414 167.769 336.929 156.318 333.592C131.732 326.535 97.7725 327.66 67.0399 328.888C64.6815 328.97 62.3419 329.057 60.0261 329.143L60.0232 329.143L60.0217 329.143C50.8719 329.482 42.095 329.808 34.0026 329.808H-115.972H-656.095H-1276.74V312.422H-660.551H-113.974C-65.1095 312.422 -16.245 312.524 32.6196 312.729C42.9321 312.729 53.8263 312.439 65.019 312.14L65.9644 312.115C96.3894 311.195 128.966 310.377 155.396 316.411C167.536 319.226 176.363 324.671 185.172 330.106C193.646 335.334 202.104 340.552 213.48 343.41C251.965 353.086 281.805 334.574 309.024 317.689C316.038 313.337 322.879 309.093 329.649 305.468C377.398 279.91 428.829 279.476 482.223 279.025C510.447 278.786 539.22 278.543 568.286 274.582C589.719 271.669 610.558 267.3 631.406 262.93C653.007 258.402 674.616 253.872 696.901 250.958C751.605 243.901 807.231 246.662 860.091 258.833C897.431 267.423 935.385 277.241 969.344 290.741C978.261 294.311 986.699 298.36 995.126 302.403C1004.56 306.93 1013.98 311.45 1024.05 315.286C1052.44 326.111 1083.12 325.004 1114.27 323.881L1114.4 323.876C1126.08 323.467 1137.76 323.058 1149.44 323.263C1177.74 323.757 1205.95 325.328 1234.16 326.899C1264.3 328.577 1294.45 330.256 1324.77 330.626C1352.13 330.999 1374.44 324.723 1397.29 318.296C1412.04 314.148 1427.01 309.938 1443.7 307.411C1445.65 307.112 1448.15 306.604 1451.13 305.998L1451.14 305.997C1468.59 302.449 1502.61 295.534 1540.66 307.411C1585.22 321.32 1660.52 344.637 1704.31 327.763C1703.44 329.058 1702.78 330.063 1702.25 330.873L1702.23 330.893C1701.28 332.342 1700.75 333.161 1700.11 333.894C1699.28 334.848 1698.28 335.655 1695.98 337.512L1695.97 337.515C1693.09 339.842 1688.16 343.818 1678.96 351.796C1625.27 368.658 1577.74 346.434 1540.83 329.176C1530.73 324.452 1521.42 320.101 1513 317.024C1482.83 305.999 1460.04 310.619 1441.61 314.354C1436.1 315.47 1430.99 316.507 1426.18 317.024ZM145.869 282.355C67.1936 279.9 -12.4034 279.798 -91.2322 279.798C-262.412 279.798 -433.592 279.798 -604.618 279.9H-1276.74V297.388H-604.771H-91.3857C-51.1262 297.388 -10.7131 297.695 29.7001 298.104C41.5355 298.23 53.619 298.065 65.7842 297.899C93.1046 297.525 120.837 297.146 147.098 300.047C164.742 301.993 174.38 306.932 185.465 312.614C190.116 314.997 195.021 317.511 200.88 319.99C236.068 334.921 272.179 320.706 301.99 306.899C360.228 280.002 409.707 273.559 480.699 276.014C536.725 277.931 584.725 264.333 633.457 250.528C660.106 242.979 686.974 235.367 715.495 230.197C801.238 214.754 905.882 233.06 975.184 269.775C984.482 274.686 993.319 280.161 1002.14 285.625L1002.14 285.628C1029.32 302.467 1056.32 319.199 1096.12 318.967C1127.69 318.769 1159.12 316.649 1190.56 314.529C1224 312.273 1257.46 310.017 1291.11 310.07C1304.55 310.119 1318.09 311.23 1331.59 312.338C1346.18 313.536 1360.72 314.729 1375.01 314.57C1392.61 314.379 1407.95 309.755 1423.74 304.991C1424.91 304.639 1426.08 304.286 1427.26 303.934C1456.76 295.036 1486.57 286.139 1519.76 290.638C1536.03 292.829 1551.5 297.699 1566.87 302.538C1575.9 305.379 1584.89 308.209 1593.98 310.479C1636.24 320.91 1670.35 322.649 1712.76 311.502C1717.85 307.232 1721.82 304.023 1725.83 300.781C1729.69 297.655 1733.6 294.499 1738.58 290.332C1692.17 297.286 1655.75 289.513 1612.11 279.389C1606.92 278.199 1601.64 276.882 1596.27 275.547L1596.27 275.546C1577.66 270.911 1558.18 266.059 1538.97 265.582C1513.25 264.908 1492.23 272.993 1471.09 281.125L1471.08 281.129C1466.59 282.859 1462.08 284.591 1457.53 286.241C1426.31 297.609 1399.99 294.911 1371.18 291.96C1354.9 290.292 1337.82 288.542 1318.62 289.207C1287.67 290.303 1257.39 295.255 1227.1 300.208C1189.58 306.345 1152.03 312.486 1113.17 311.297C1064.12 309.826 1029.44 285.041 996.236 261.306C983.258 252.029 970.505 242.913 957.205 235.413C885.906 195.22 784.796 178.857 699.36 207.391C678.203 214.431 657.779 222.987 637.342 231.547L637.341 231.548C585.94 253.079 534.458 274.645 471.018 272.23C405.712 269.673 359.766 273.355 300.914 291.457C267.108 301.888 237.605 307.104 203.646 294.116C183.209 286.343 170.455 283.173 145.869 282.355ZM1551.42 243.697C1529.97 245.91 1513.83 254.446 1497.64 263.013C1492.13 265.926 1486.62 268.842 1480.89 271.514C1452.12 284.885 1426.19 280.801 1398.15 276.386C1380.52 273.608 1362.05 270.699 1341.51 271.923C1309.93 273.826 1280.02 281.013 1250.15 288.191C1210.98 297.602 1171.87 306.998 1129.15 304.445C1072.22 301.014 1030.87 268.188 992.475 237.704C977.084 225.485 962.167 213.643 946.91 204.22C911.107 182.028 869.771 168.221 822.136 161.471C769.43 154.006 731.322 165.46 689.218 186.221C675.123 193.176 660.852 201.019 646.26 209.038L646.259 209.039C591.333 239.224 531.86 271.909 460.108 269.162C402.331 266.912 359.306 267.935 304.141 278.775C268.338 285.832 246.517 282.968 213.634 272.435C193.938 266.197 175.923 266.592 155.026 267.05C152.283 267.11 149.49 267.171 146.637 267.219C101.068 267.983 55.4995 267.058 9.93066 266.133L9.92847 266.133C-23.7917 265.449 -57.512 264.764 -91.2322 264.764C-205.329 264.696 -319.358 264.719 -433.41 264.742H-433.427H-433.444H-433.461C-490.504 264.753 -547.552 264.764 -604.618 264.764H-1276.74V247.276H-600.161C-543.454 247.276 -486.765 247.265 -430.08 247.253H-430.063H-430.046H-430.029C-316.695 247.231 -203.383 247.208 -90.0028 247.276C-59.1121 247.316 -28.1985 248.144 2.72034 248.972C52.0861 250.294 101.465 251.617 150.786 249.731C158.288 249.437 166.209 248.721 174.293 247.991C194.357 246.179 215.428 244.275 233.61 248.503C243.195 250.759 251.302 253.732 259.126 256.6C274.004 262.055 287.857 267.134 308.904 266.196C318.679 265.802 328.311 264.79 337.938 263.779C348.287 262.692 358.631 261.605 369.14 261.287C384.714 260.853 399.985 262.204 415.228 263.553C428.712 264.746 442.174 265.937 455.805 265.889C536.965 265.474 606.492 219.553 665.701 180.446C679.471 171.352 692.683 162.626 705.353 154.926C708.544 152.987 711.735 151.009 714.941 149.021C743.684 131.202 773.563 112.679 814.76 115.348C868.388 118.825 911.414 136.722 948.754 161.778C976.929 180.686 1000.48 202.02 1024.07 223.395C1031.49 230.115 1038.91 236.839 1046.48 243.492C1071.68 265.685 1098.73 288.491 1140.83 295.241C1190.61 303.204 1233.16 288.786 1275.9 274.308C1301.77 265.544 1327.71 256.757 1355.34 252.901C1383.93 248.926 1404.22 253.818 1426.54 259.201C1436.39 261.575 1446.63 264.043 1458.14 265.889C1477.51 268.957 1489.49 264.151 1503.63 255.662C1509.65 252.009 1515.11 247.937 1520.55 243.872C1532.33 235.079 1544.07 226.319 1561.41 221.913C1583.38 216.391 1609.66 220.277 1631.32 224.777C1646.92 228.015 1661.76 231.971 1676.47 235.89C1706.81 243.977 1736.53 251.901 1771 253.003C1768.85 260.264 1765.78 264.253 1758.09 272.332C1717.09 274.536 1683.15 266.343 1646.66 257.535C1639.13 255.715 1631.48 253.869 1623.64 252.083L1621.85 251.691C1600.23 246.957 1574.44 241.308 1551.42 243.697ZM1530.9 228.657C1540.07 221.135 1549.17 213.671 1563.1 209.334C1584.3 202.686 1609.66 206.163 1631.32 210.05C1648.43 213.148 1664.75 217.09 1680.98 221.007C1709.2 227.823 1737.11 234.562 1768.23 236.64C1763.43 226.654 1756.14 217.254 1748.93 207.962L1748.93 207.96L1748.41 207.288C1723.22 206.077 1698.81 202.999 1674.32 199.91C1659.51 198.043 1644.68 196.173 1629.63 194.709L1628.29 194.576L1626.79 194.428C1606.77 192.438 1584.62 190.236 1565.4 195.118C1555.26 197.657 1548.14 201.941 1540.87 206.317C1537 208.64 1533.1 210.99 1528.67 213.118C1516.23 219.049 1509.16 219.97 1493.79 218.743C1483.2 217.869 1474.27 216.372 1465.9 214.97C1447.79 211.936 1432.31 209.342 1408.36 214.447C1383.2 219.799 1361.31 230.06 1339.51 240.276C1305.91 256.023 1272.54 271.665 1227.8 269.059C1177.71 266.196 1133.92 237.253 1101.8 214.447C1086.64 203.695 1072.08 192.473 1057.51 181.238L1057.51 181.237C1031.33 161.053 1005.09 140.829 975.184 123.222C936.461 100.314 883.294 72.5984 827.514 74.7461C776.012 76.7456 729.305 107.289 693.469 130.723C690.814 132.46 688.218 134.157 685.684 135.801C678.149 140.692 669.788 146.334 660.732 152.444C579.841 207.021 443.546 298.98 346.398 227.333C327.036 213.015 313.053 204.22 281.706 203.095C257.596 202.251 233.059 206.174 208.63 210.08C191.643 212.797 174.709 215.504 158.008 216.595C104.076 220.131 49.2284 218.618 -5.42554 217.111C-34.5485 216.307 -63.6165 215.505 -92.4615 215.47C-207.279 215.402 -322.097 215.424 -436.914 215.447H-436.972C-494.391 215.458 -551.809 215.47 -609.228 215.47H-1276.74V232.958H-604.618C-547.552 232.958 -490.504 232.947 -433.461 232.935H-433.444H-433.427C-319.37 232.913 -205.335 232.89 -91.2322 232.958C-59.6188 232.997 -27.9827 233.869 3.65869 234.74C54.2993 236.134 104.953 237.529 155.549 235.515C166.907 235.055 178.805 233.781 190.88 232.489C216.379 229.76 242.668 226.946 266.34 231.526C277.43 233.669 286.988 237.652 296.502 241.618C307.421 246.168 318.283 250.695 331.339 252.389C360.996 256.276 394.801 259.651 424.612 261.594C517.304 267.578 599.983 212.525 665.403 168.963C676.008 161.902 686.159 155.143 695.826 148.994C700.239 146.182 704.827 143.156 709.583 140.019C743.739 117.488 786.561 89.2423 835.658 93.4615C889.747 98.166 936.154 120.665 971.957 146.847C994.597 163.307 1014.39 181.199 1034.19 199.104L1034.19 199.106L1034.19 199.109C1047.86 211.462 1061.52 223.821 1076.14 235.719C1103.49 258.014 1134.22 282.559 1179.71 286.548C1225.89 290.531 1263.14 276.231 1300.55 261.87C1327.49 251.529 1354.51 241.157 1385 237.56C1403.44 235.413 1419.11 236.128 1437.09 239.197C1443.55 240.272 1449.66 242.171 1455.74 244.061C1463.54 246.485 1471.28 248.894 1479.66 249.526C1494.41 250.651 1503.78 247.48 1514.69 240.731C1520.68 237.04 1525.8 232.839 1530.9 228.657ZM1567.24 183.971C1561.5 184.651 1556.12 186.029 1550.75 187.404C1545.63 188.714 1540.53 190.022 1535.13 190.72C1518.73 192.877 1503.79 190.941 1488.99 189.024C1468.69 186.395 1448.67 183.802 1425.57 191.845C1407.42 198.168 1390.88 207.905 1374.21 217.722C1342.61 236.33 1310.53 255.222 1266.07 251.673C1208.9 247.174 1158.96 218.436 1118.7 193.379C1101.62 182.755 1085.05 171.633 1068.46 160.495L1068.45 160.491C1037.46 139.681 1006.38 118.815 971.649 101.03C930.929 80.1664 887.442 61.3487 834.736 59.8146C775.869 58.1369 723.869 92.5526 684.123 118.859C682.681 119.813 681.255 120.757 679.845 121.688C665.601 131.106 651.103 141.859 636.1 152.986C577.302 196.598 510.755 245.955 421.385 243.185C386.223 242.151 374.291 226.694 360.781 209.195C359.59 207.652 358.387 206.093 357.154 204.527C326.696 165.8 268.248 178.652 214.012 190.578C194.917 194.777 176.344 198.861 159.698 200.538C105.311 205.968 48.3605 204.291 -7.90613 202.633C-34.3047 201.856 -60.5527 201.082 -86.3151 201.05C-201.755 200.982 -317.127 201.004 -432.522 201.027H-432.539C-490.247 201.038 -547.962 201.05 -605.693 201.05H-1276.74V183.562H-606.615H-88.7737C-64.9999 183.562 -40.1251 184.386 -14.8578 185.223C44.309 187.184 105.628 189.216 160.005 180.903C178.657 178.066 198.849 171.89 219.386 165.609C273.635 149.016 330.29 131.688 367.296 173.232C371.995 178.517 375.798 184.3 379.568 190.033C390.096 206.044 400.369 221.667 429.222 224.981C515.713 234.837 577.611 182.646 629.856 138.595C642.12 128.253 653.853 118.361 665.247 109.825C701.819 82.3141 765.281 37.622 827.361 38.0311C889.44 38.4402 947.524 64.11 994.699 88.5526C1019.46 101.334 1043.21 115.021 1066.97 128.71C1099.11 147.223 1131.25 165.741 1165.88 182.027C1209.52 202.482 1258.69 224.265 1313.86 224.47C1357.04 224.602 1380.61 206.423 1404.87 187.718C1417.98 177.606 1431.29 167.341 1448 159.733C1481.19 144.597 1511.46 152.676 1543.12 163.517C1566.48 171.596 1598.44 175.994 1623.48 167.914C1633.77 164.626 1641.02 160.194 1647.97 155.95C1659.61 148.841 1670.39 142.257 1693.09 142.449C1699.85 150.494 1706.75 158.449 1713.65 166.403C1717.1 170.38 1720.55 174.357 1723.98 178.346C1703.63 178.346 1683.63 179.453 1663.62 180.561C1651.45 181.235 1639.28 181.909 1627.02 182.334C1619.84 182.593 1612.61 182.571 1605.36 182.549C1592.59 182.509 1579.79 182.47 1567.24 183.971ZM1546.35 141.017C1563.25 154.824 1594.14 172.619 1622.1 155.335C1630.33 150.248 1633.15 142.98 1635.87 135.965C1640.32 124.502 1644.51 113.715 1671.58 114.222C1663.74 102.564 1660.98 97.4501 1660.98 90.4957C1630.48 87.5504 1630.04 102.404 1629.6 117.237C1629.34 126.096 1629.07 134.947 1622.41 139.994C1612.11 147.869 1587.99 147.153 1574.93 143.063C1561.2 138.731 1557.32 132.519 1552.61 124.987C1551.2 122.739 1549.72 120.373 1547.88 117.904C1530.98 94.8933 1489.95 94.4843 1459.83 108.495C1448.6 113.734 1439.24 119.492 1430.19 125.067C1411.13 136.796 1393.4 147.709 1362.26 151.244C1292.19 159.221 1216.89 135.29 1158.81 112.279C1128.92 100.435 1100.14 87.3226 1071.36 74.2135C1035.78 58.0064 1000.22 41.8041 962.583 28.0086C917.56 11.5432 868.081 -5.74051 815.529 1.82748C748.224 11.4409 693.674 44.9855 655.566 81.8028C646.867 90.2393 638.521 100.718 629.786 111.685C600.719 148.178 567.35 190.071 502.365 180.084C470.086 175.189 450.912 160.306 431.257 145.049C421.345 137.356 411.311 129.567 399.411 122.915C365.606 104.098 317.817 94.5865 275.099 104.2C253.79 108.994 235.045 117.226 216.307 125.455C196.671 134.079 177.041 142.7 154.474 147.358C128.114 152.774 97.7375 151.988 68.7623 151.239C58.8878 150.984 49.1761 150.733 39.8417 150.733H-91.5396H-607.691H-1276.74V168.221H-602.774H-90.0029C-47.1439 168.221 -4.28479 168.323 38.5742 168.426L38.6123 168.426C47.2611 168.448 56.0747 168.615 64.9686 168.784C96.3691 169.379 128.772 169.993 158.469 164.335C180.111 160.199 201.593 152.398 222.852 144.678C276.765 125.102 329.248 106.044 379.281 148.585C386.642 154.853 392.711 162.072 398.77 169.28C413.076 186.298 427.33 203.254 458.417 207.493C534.469 217.96 584.614 168.29 626.929 126.378C640.016 113.414 652.355 101.193 664.479 91.723C703.202 61.451 751.452 30.6677 811.226 20.8497C868.368 11.5666 933.561 39.7922 979.087 59.5032C980.205 59.9874 981.312 60.4664 982.406 60.9396C1013.92 74.6079 1043.62 89.9912 1073.32 105.376C1104.74 121.647 1136.15 137.919 1169.72 152.165L1172.18 153.209C1221.64 174.173 1294.3 204.977 1356.11 195.22C1379.71 191.518 1402.04 175.495 1424.32 159.502C1462.98 131.758 1501.51 104.104 1546.35 141.017Z" fill="white" fill-opacity="0.25"/>
</svg>
