<svg width="90" height="190" viewBox="0 0 90 190" fill="none" xmlns="http://www.w3.org/2000/svg">
<path d="M7.77344 158.134V171.29H13.6682V169.411H9.8238V158.134H7.77344Z" fill="black"/>
<path d="M17.5138 158.134H15.5488V171.29H17.5138V158.134Z" fill="black"/>
<path d="M30.2422 167.275L20.6738 157.28V171.29H22.6388V162.064L32.2925 172.059V158.134H30.2422V167.275Z" fill="black"/>
<path d="M42.6308 160.013V158.134H35.3691V171.29H42.6308V169.411H37.4195V165.054H42.5454V163.174H37.4195V160.013H42.6308Z" fill="black"/>
<path d="M55.4444 158.134H53.2232L49.5496 167.275L45.9615 158.134H43.7402L49.5496 172.316L55.4444 158.134Z" fill="black"/>
<path d="M59.0333 158.134H57.0684V171.29H59.0333V158.134Z" fill="black"/>
<path d="M63.2189 160.27C62.1083 161.551 61.5957 163.089 61.5957 164.712C61.5957 166.592 62.2792 168.215 63.5606 169.496C64.9275 170.778 66.4653 171.461 68.3448 171.461C69.6263 171.461 70.8223 171.12 71.9329 170.522V168.13C71.5912 168.386 71.3349 168.642 70.9932 168.813C70.7369 168.984 70.3952 169.155 70.1389 169.24C69.6263 169.496 69.0283 169.582 68.3448 169.582C66.9779 169.582 65.8673 169.069 64.9275 168.13C63.9878 167.19 63.5606 165.994 63.5606 164.627C63.5606 163.26 63.9878 162.064 64.9275 161.124C65.8673 160.184 66.9779 159.672 68.3448 159.672C69.5409 159.672 70.7369 160.184 71.9329 161.124V158.732C70.8223 158.049 69.7117 157.792 68.5157 157.792C66.2944 157.878 64.5858 158.647 63.2189 160.27Z" fill="black"/>
<path d="M82.4408 163.26H76.8023V158.134H74.752V171.29H76.8023V165.139H82.4408V171.29H84.4057V158.134H82.4408V163.26Z" fill="black"/>
<path d="M17.8549 181.201L16.5734 180.688C15.6336 180.261 15.121 179.748 15.121 179.15C15.121 178.723 15.2919 178.296 15.6336 177.954C15.9754 177.612 16.4879 177.527 17.0005 177.527C17.4277 177.527 17.8549 177.612 18.1112 177.783C18.3674 177.954 18.7092 178.296 18.9655 178.808L20.5887 177.869C19.7343 176.416 18.5383 175.647 17.0005 175.647C15.8899 175.647 14.9502 175.989 14.1813 176.673C13.4124 177.356 13.0707 178.125 13.0707 179.15C13.0707 180.603 14.0104 181.713 15.8045 182.482L17.086 182.995C17.4277 183.165 17.684 183.251 17.9403 183.422C18.1966 183.593 18.3674 183.763 18.5383 183.934C18.7092 184.105 18.7946 184.276 18.88 184.532C18.9655 184.703 18.9655 184.96 18.9655 185.216C18.9655 185.814 18.7946 186.412 18.3674 186.754C17.9403 187.181 17.4277 187.352 16.8297 187.352C16.0608 187.352 15.4628 187.095 15.0356 186.497C14.7793 186.241 14.6085 185.643 14.523 184.874L12.4727 185.301C12.6435 186.497 13.0707 187.437 13.8396 188.12C14.6085 188.804 15.5482 189.146 16.6588 189.146C17.8549 189.146 18.88 188.718 19.6489 187.95C20.4178 187.181 20.845 186.156 20.845 184.96C20.845 184.02 20.5887 183.336 20.0761 182.653C19.7344 182.226 18.88 181.628 17.8549 181.201Z" fill="black"/>
<path d="M23.3242 189.06H30.5859V187.181H25.2891V182.824H30.415V180.944H25.2891V177.783H30.5859V175.904H23.3242V189.06Z" fill="black"/>
<path d="M39.7267 182.14C40.2393 181.457 40.4956 180.688 40.4956 179.748C40.4956 178.552 40.0684 177.612 39.2141 176.844C38.4452 176.16 37.1637 175.904 35.4551 175.904H33.1484V189.06H35.1134V183.678H35.4551L39.2141 189.06H41.6062L37.5054 183.422C38.5306 183.251 39.2141 182.824 39.7267 182.14ZM35.1988 181.969V177.783H35.8822C37.6763 177.783 38.6161 178.467 38.6161 179.834C38.6161 181.286 37.6763 181.969 35.7968 181.969H35.1988Z" fill="black"/>
<path d="M47.5007 185.045L43.9126 175.904H41.6914L47.5007 190L53.3955 175.904H51.1743L47.5007 185.045Z" fill="black"/>
<path d="M56.9825 175.904H55.0176V189.06H56.9825V175.904Z" fill="black"/>
<path d="M61.1681 178.04C60.0575 179.321 59.5449 180.859 59.5449 182.482C59.5449 184.362 60.2284 185.985 61.5099 187.266C62.8768 188.548 64.4145 189.231 66.294 189.231C67.5755 189.231 68.7715 188.889 69.8822 188.291V185.899C69.5404 186.156 69.2841 186.412 68.9424 186.583C68.6861 186.754 68.3444 186.924 68.0881 187.01C67.5755 187.266 66.9775 187.352 66.294 187.352C64.9271 187.352 63.8165 186.839 62.8768 185.899C61.937 184.96 61.5099 183.763 61.5099 182.397C61.5099 181.03 61.937 179.834 62.8768 178.894C63.8165 177.954 64.9271 177.442 66.294 177.442C67.4901 177.442 68.6861 177.954 69.8822 178.894V176.502C68.7715 175.818 67.6609 175.562 66.4649 175.562C64.2437 175.647 62.535 176.416 61.1681 178.04Z" fill="black"/>
<path d="M72.3594 189.06H79.6211V187.181H74.3243V182.824H79.4502V180.944H74.3243V177.783H79.6211V175.904H72.3594V189.06Z" fill="black"/>
<path d="M0 42.7158V117.896L44.339 138.826L89.9595 117.896V42.7158H0ZM83.2959 113.71L44.339 131.565L6.57823 113.795V49.4649H83.2104V113.71H83.2959Z" fill="black"/>
<path d="M66.7206 27.5944L75.691 9.9955L65.6101 14.6942L62.0219 21.4433H48.182V12.7293L53.0516 7.09082L44.9356 0L36.8196 7.09082L41.7746 12.7293V21.4433H27.9347L24.2611 14.6942L14.2656 9.9955L23.1505 27.5944H66.7206Z" fill="black"/>
<path d="M55.1029 101.236H35.3682L28.2773 108.327H62.9626V102.603L55.1029 95.1708V101.236Z" fill="black"/>
<path d="M47.2441 80.3912L62.9636 95.3417V87.3111L55.6164 80.3912H47.2441Z" fill="black"/>
<path d="M47.158 87.482L39.9817 80.3911H34.0869V75.9487L26.9961 69.285V80.6474L34.3432 87.482H47.158Z" fill="black"/>
<path d="M54.5064 70.3103L61.5973 63.2194H28.877L36.4804 70.3103H54.5064Z" fill="black"/>
</svg>
