<svg width="169" height="201" viewBox="0 0 169 201" fill="none" xmlns="http://www.w3.org/2000/svg">
<path d="M30.1763 135.643C31.4659 134.986 32.4331 134.329 33.7227 133.673C34.6898 133.016 35.9794 131.374 35.9794 131.374C35.9794 131.374 34.0451 131.045 33.0779 130.388C29.5315 128.746 26.9523 124.805 27.5971 120.864C28.5643 113.967 35.657 112.982 41.1378 114.952C51.7768 119.222 59.1919 130.717 61.7711 141.555C62.0935 142.869 62.4159 145.168 62.7383 146.81H57.9023V153.05H76.9237C76.2789 160.932 71.443 169.471 60.1591 169.471C63.7055 175.054 68.8638 178.995 74.6669 181.294C75.6341 188.848 78.8581 195.745 84.0164 201C89.1747 195.745 92.3987 189.177 93.3659 181.294C99.4914 178.995 104.327 175.054 107.874 169.471C96.5898 169.471 91.7539 160.932 91.1091 153.05H110.13V146.81H105.295C105.617 145.168 105.939 142.869 106.262 141.555C109.163 130.717 116.256 119.222 127.217 114.952C132.698 112.982 139.791 113.967 140.758 120.864C141.08 124.805 138.824 128.746 135.277 130.388C134.31 130.717 133.343 131.374 132.376 131.374C132.376 131.374 134.31 132.687 134.955 133.344C135.922 134.001 137.212 134.986 138.501 135.315C148.496 139.913 159.135 135.315 164.938 126.447C174.287 112.325 166.55 93.6045 151.397 87.6929C138.824 82.7665 124.316 88.0213 115.934 97.8741C106.584 108.712 101.748 122.506 99.8138 136.3C99.4914 138.927 99.169 143.854 98.8466 146.81H91.7539C91.7539 145.824 91.7539 144.511 91.7539 143.525C92.0763 134.329 94.0107 125.133 96.9122 116.266C100.136 106.742 104.005 97.5457 107.229 88.0213C110.775 78.1685 112.71 67.3304 112.71 56.8208C112.71 26.2771 84.9836 -0.325417 84.6612 0.00300913C84.0164 0.331436 56.2904 26.6056 56.2904 57.4776C56.2904 67.9873 58.2247 78.8254 61.7711 88.6782C64.995 98.5309 69.1862 107.398 72.0878 116.923C74.9893 125.79 77.2461 134.658 77.2461 144.182C77.2461 145.168 77.2461 146.481 77.2461 147.466H70.1534C69.831 144.511 69.5086 139.913 69.1862 136.957C67.2518 123.163 62.4159 109.041 53.0664 98.5309C44.3617 88.6782 30.1763 83.4233 17.6029 88.3497C2.45027 94.2614 -5.28724 112.982 4.06224 127.104C9.54297 135.643 20.182 140.241 30.1763 135.643Z"/>
</svg>
