<svg width="31" height="34" viewBox="0 0 31 34" fill="none" xmlns="http://www.w3.org/2000/svg">
<path d="M7.3715 26.5528C7.53775 26.3909 7.704 26.148 7.87025 25.9861C7.95338 25.8243 8.11964 25.5005 8.11964 25.5005C8.11964 25.5005 7.78714 25.5814 7.62089 25.5814C6.87276 25.5814 6.20776 25.0148 5.95839 24.3672C5.62589 23.153 6.78963 22.5054 7.87025 22.4244C10.0315 22.4244 12.1096 23.8006 13.3565 25.5005C13.5228 25.7433 13.7721 26.0671 13.9384 26.3099L13.1071 26.6337L13.5228 27.6861L16.8478 26.3909C17.2634 27.767 17.014 29.5479 15.1021 30.3573C16.0996 31.0049 17.2634 31.4097 18.5103 31.3287C19.1753 32.5429 20.2559 33.5143 21.5027 34C22.0015 32.7858 22.1678 31.4097 21.7521 30.0335C22.6665 29.2241 23.2484 28.1717 23.4978 27.0385C21.5028 27.8479 20.0896 26.7147 19.4246 25.4195L22.7496 24.1243L22.334 23.072L21.5027 23.3958C21.4196 23.072 21.3365 22.6673 21.3365 22.4244C21.0871 20.4007 21.5028 17.9723 23.0821 16.5152C23.8303 15.7867 25.2434 15.4629 25.8253 16.5962C26.1578 17.2438 25.9915 18.0532 25.4928 18.5389C25.3265 18.7008 25.2434 18.7818 25.0771 18.9437C25.0771 18.9437 25.4927 19.0246 25.659 19.1056C25.9084 19.1865 26.1578 19.1865 26.4071 19.1865C28.4021 19.2675 29.9815 17.7295 30.3971 15.8676C31.0621 12.7916 28.4021 10.2013 25.3265 10.2013C22.7496 10.2013 20.6715 12.0631 19.8402 14.4106C18.9259 16.839 19.0921 19.5103 19.7571 22.0197C19.8403 22.5054 20.1728 23.3149 20.339 23.8815L19.0921 24.3672C19.009 24.2053 18.9259 23.9624 18.8428 23.8005C18.2609 22.2625 17.9284 20.5626 17.8453 18.8627C17.7621 17.0819 17.7621 15.2201 17.679 13.3583C17.5959 11.4155 17.1803 9.5537 16.4321 7.6919C14.2709 2.51123 7.62088 -0.079108 7.53776 0.00184001C7.45463 0.00184001 4.46213 6.31578 6.62338 11.4965C7.3715 13.2773 8.45214 14.9772 9.78214 16.4343C11.029 17.8104 12.359 19.1056 13.6059 20.4817C14.6865 21.7768 15.7671 23.153 16.4321 24.691C16.5153 24.8529 16.5984 25.0957 16.6815 25.2576L15.4346 25.7433C15.1853 25.2576 14.7696 24.5291 14.5203 24.0434C13.1903 21.8578 11.3615 19.8341 9.034 18.6199C6.78962 17.4866 3.96338 17.6485 2.13463 19.3484C-0.109741 21.3721 -0.109741 25.0957 2.55026 26.8766C3.79713 27.9289 5.95837 28.0098 7.3715 26.5528Z" fill="#ECEAE1"/>
</svg>
