<svg width="26" height="19" viewBox="0 0 26 19" fill="none" xmlns="http://www.w3.org/2000/svg">
<path d="M4.85349 4.31396H2.69649C2.39883 4.31396 2.15723 4.55556 2.15723 4.85323C2.15723 5.15089 2.39883 5.39249 2.69649 5.39249H4.85349C5.15115 5.39249 5.39275 5.15089 5.39275 4.85323C5.39275 4.55556 5.15115 4.31396 4.85349 4.31396Z" fill="white"/>
<path d="M22.0847 5.76885C21.9822 5.44637 19.9245 1.08606 19.1544 0.617976C18.3531 0.130481 13.5592 0 12.9423 0C12.3254 0 7.53154 0.130481 6.7302 0.617976C5.96016 1.08495 3.9024 5.44637 3.79992 5.76885C3.70933 6.05252 3.86787 6.35554 4.15153 6.44613C4.43842 6.53566 4.73932 6.37818 4.8288 6.09452C4.99811 5.5585 6.86821 1.90888 7.27912 1.54651C7.73537 1.32867 11.0949 1.07848 12.9423 1.07848C14.7898 1.07848 18.1493 1.32867 18.5677 1.52067C19.0153 1.90893 20.8865 5.55855 21.0558 6.09458C21.1292 6.32429 21.3416 6.47095 21.5703 6.47095C21.6242 6.47095 21.6792 6.46342 21.7342 6.44613C22.0168 6.35554 22.1753 6.05246 22.0847 5.76885Z" fill="white"/>
<path d="M4.85321 15.0985C4.60085 15.0985 4.39807 15.2754 4.33984 15.5095L1.07848 14.6941V14.5593C1.07848 14.2616 0.836876 14.02 0.539212 14.02C0.241549 14.02 0 14.2617 0 14.5593V16.7163C0 17.6083 0.725808 18.3341 1.61774 18.3341H3.77474C4.66667 18.3341 5.39248 17.6083 5.39248 16.7163V15.6378C5.39248 15.3401 5.15088 15.0985 4.85321 15.0985Z" fill="white"/>
<path d="M25.3445 14.02C25.0468 14.02 24.8052 14.2616 24.8052 14.5593V14.6941L21.5439 15.5095C21.4856 15.2754 21.2828 15.0985 21.0305 15.0985C20.7328 15.0985 20.4912 15.3401 20.4912 15.6378V16.7163C20.4912 17.6082 21.217 18.334 22.1089 18.334H24.266C25.1579 18.334 25.8837 17.6082 25.8837 16.7163V14.5593C25.8837 14.2616 25.6421 14.02 25.3445 14.02Z" fill="white"/>
<path d="M23.1875 4.31396H21.0305C20.7328 4.31396 20.4912 4.55556 20.4912 4.85323C20.4912 5.15089 20.7328 5.39249 21.0305 5.39249H23.1875C23.4851 5.39249 23.7267 5.15089 23.7267 4.85323C23.7267 4.55556 23.4851 4.31396 23.1875 4.31396Z" fill="white"/>
<path d="M25.8411 9.40137L24.37 9.6958C24.1888 9.72385 20.5672 10.2458 19.6494 10.2458C19.5178 10.3504 19.3992 11.0428 19.4132 11.691C22.7005 11.5357 25.2597 11.3297 25.3007 11.3265L25.8821 11.2478C25.881 10.5327 25.8702 9.92228 25.8411 9.40137Z" fill="white"/>
<path d="M24.9566 7.0307C24.715 6.96058 24.5888 6.78481 24.3493 6.42673L24.1649 6.15712C23.8424 5.70739 23.2191 5.68798 22.6162 5.67074C22.435 5.66533 22.1481 5.65674 22.0122 5.62545C21.9659 5.5575 21.9033 5.50032 21.8278 5.45937C20.8216 4.90606 17.0091 4.31396 12.9411 4.31396C8.873 4.31396 5.0605 4.90606 4.05427 5.45932C3.97879 5.50032 3.91621 5.55745 3.86879 5.62651C3.7329 5.6578 3.446 5.66639 3.26481 5.6718C2.66301 5.68904 2.03963 5.70739 1.71719 6.15712L1.53277 6.42784C1.29335 6.78592 1.16716 6.9617 0.925563 7.03182C0.502778 7.15583 0.270936 7.58938 0.142578 8.37777L1.20811 8.64414C1.22535 8.64414 4.74343 9.16723 5.93085 9.16723C6.33852 9.16723 6.69765 9.32253 6.96943 9.6159C7.54105 10.2339 7.568 11.3167 7.55399 11.7384C9.28927 11.8106 11.1626 11.8635 12.9411 11.8635C14.7216 11.8635 16.5961 11.8107 18.3335 11.7384C18.3217 11.2617 18.3487 10.0678 18.8825 9.50372C19.0918 9.28371 19.3559 9.16723 19.6493 9.16723C20.3471 9.16723 23.163 8.78221 24.1887 8.63338L25.732 8.32383C25.6025 7.56779 25.3707 7.15148 24.9566 7.0307ZM16.7158 10.7849H9.16632C8.86866 10.7849 8.62706 10.5433 8.62706 10.2457C8.62706 9.94799 8.86866 9.70639 9.16632 9.70639H16.7157C17.0134 9.70639 17.255 9.94799 17.255 10.2457C17.255 10.5433 17.0135 10.7849 16.7158 10.7849Z" fill="white"/>
<path d="M25.416 12.3982C25.3222 12.4057 18.6496 12.9417 12.9422 12.9417C7.23484 12.9417 0.562224 12.4057 0.496403 12.4014L0.0283203 12.3529C0.0865589 13.5231 0.266684 15.2777 0.825309 15.5754C1.40769 15.8849 8.14502 16.1772 12.9422 16.1772C17.7393 16.1772 24.4766 15.8849 25.058 15.5743C25.6188 15.2756 25.7989 13.509 25.8561 12.3389L25.416 12.3982Z" fill="white"/>
<path d="M6.17758 10.3473C6.1107 10.2751 6.03952 10.246 5.93169 10.246C4.65909 10.246 1.14748 9.72288 0.99865 9.70134L0.0377135 9.46191C0.0107681 9.97307 0.00106164 10.5716 0 11.2651L0.594266 11.3266C0.628794 11.3298 3.18694 11.5347 6.47419 11.6911C6.48495 11.3018 6.43319 10.6234 6.17758 10.3473Z" fill="white"/>
</svg>
