<svg width="46" height="45" viewBox="0 0 46 45" fill="none" xmlns="http://www.w3.org/2000/svg">
<path d="M15.4082 17.8605V23.2326M15.4082 17.8605V14.9302C15.5714 14.1163 16.2898 12.4884 17.8571 12.4884C19.8163 12.4884 20.3061 13.4651 20.3061 14.4419M15.4082 17.8605C11.8816 19.4233 11 22.093 11 23.2326C11 26.1628 16.8776 33 23.2449 33C32.2571 33 34.8367 26.4884 35 23.2326C35 21.9302 35 18.9349 35 17.3721C35 15.4186 34.5102 13.9535 32.551 13.9535C30.9837 13.9535 30.2653 14.9302 30.102 15.4186M20.3061 14.4419C20.3061 15.2233 20.3061 17.6977 20.3061 18.8372V14.4419ZM20.3061 14.4419C20.3061 13.6279 20.7959 12 22.7551 12C24.7143 12 25.2041 13.6279 25.2041 14.4419M25.2041 14.4419V17.3721M25.2041 14.4419C25.3673 13.9535 26.0857 12.9767 27.6531 12.9767C29.2204 12.9767 30.102 13.9535 30.102 15.4186M30.102 15.4186V17.3721" stroke="white" stroke-linecap="round"/>
</svg>
