<svg width="120" height="36" viewBox="0 0 120 36" fill="none" xmlns="http://www.w3.org/2000/svg">
<path d="M4.35773 3.9692L2.48119 6.3692L2.38737 6.46151C2.38737 6.46151 2.29354 6.46151 2.19971 6.3692L2.01206 6.09228C1.91823 5.99997 2.01206 5.90766 2.01206 5.81535L3.88859 3.41537L6.60957 2.86152C6.70339 2.86152 6.79722 2.86152 6.89104 2.95383L7.0787 3.23076C7.17252 3.32306 7.0787 3.32306 7.0787 3.41537H6.98487L4.35773 3.9692ZM1.54293 4.89228C1.4491 4.89228 1.35527 4.89229 1.26145 4.79998L1.07379 4.52305C0.979967 4.43075 1.07379 4.33844 1.07379 4.24613L5.76513 1.38461C5.85895 1.38461 5.95278 1.3846 6.04661 1.47691L6.23426 1.75383C6.32809 1.84614 6.23426 1.93845 6.23426 2.03076L1.54293 4.89228ZM4.82686 0.0922989L4.92068 0C4.92068 0 5.01451 -8.45237e-06 5.10834 0.0922989L5.29599 0.369224C5.38982 0.461531 5.29599 0.553841 5.29599 0.646149L3.60711 2.76922L0.510834 3.41537C0.417007 3.41537 0.32318 3.41536 0.229353 3.32306L0.0417007 3.04613C-0.0521259 2.95382 0.0417007 2.95383 0.0417007 2.86152H0.135528L3.13798 2.30768L4.82686 0.0922989Z" fill="#2A3341"/>
<path d="M7.45389 12.7384C7.36006 12.8307 7.26624 12.8307 7.17241 12.7384L6.98476 12.5538C6.89093 12.4615 6.89093 12.3692 6.98476 12.2769L9.2366 10.523C9.70573 10.1538 10.4563 9.59997 10.4563 9.59997L5.85884 10.8923C5.76501 10.8923 5.67119 10.8923 5.57736 10.8L5.38971 10.523C5.29588 10.4307 5.29588 10.3384 5.38971 10.2461L9.70573 6.83074C9.79955 6.73843 9.89338 6.73843 9.98721 6.83074L10.1749 7.01535C10.2687 7.10766 10.2687 7.19997 10.1749 7.29227L7.92302 9.13843C7.36006 9.59997 6.7971 9.9692 6.7971 9.9692L11.3946 8.67689C11.4884 8.67689 11.5823 8.6769 11.6761 8.76921L11.8637 9.04612C11.9576 9.13843 11.9576 9.23074 11.8637 9.32304L7.45389 12.7384Z" fill="#2A3341"/>
<path d="M12.8012 18C12.7074 18.0923 12.6136 18.0923 12.5197 18L12.3321 17.8153C12.2383 17.723 12.2383 17.6307 12.3321 17.5384L15.8037 13.9384L14.7716 13.0154C14.6778 12.923 14.6778 12.8307 14.7716 12.7384L14.9592 12.5538C15.0531 12.4615 15.1469 12.4615 15.2407 12.5538L17.8679 14.9538C17.9617 15.0461 17.9617 15.1384 17.8679 15.2307L17.6802 15.4154C17.5864 15.5077 17.4925 15.5077 17.3987 15.4154L16.3666 14.4L12.8012 18Z" fill="#2A3341"/>
<path d="M17.6837 22.0616L17.8713 21.877C17.9651 21.7847 18.059 21.7847 18.1528 21.877C18.3404 21.9693 18.6219 21.9693 18.9972 21.6C20.0293 20.4 20.7799 19.477 21.7182 18.277C21.812 18.1847 21.9058 18.1847 21.9997 18.277L23.7824 19.5693C23.8762 19.6616 23.8762 19.7539 23.7824 19.8462L20.5923 24.1847C20.4984 24.277 20.4046 24.277 20.3108 24.1847L20.0293 24C19.9355 23.9077 19.9355 23.8154 19.9355 23.7231L22.8441 19.7539L21.9059 19.0154C21.0614 20.0308 19.9355 21.4154 19.3725 22.0616C18.9034 22.6154 18.2466 22.7077 17.6837 22.3385C17.5898 22.2462 17.5898 22.1539 17.6837 22.0616Z" fill="#2A3341"/>
<path d="M29.5983 24.6461C29.7859 24.2769 29.6921 23.7231 29.223 23.4461C28.66 23.1692 28.1909 23.3538 28.0032 23.7231L26.5958 26.2154C26.4082 26.5846 26.502 27.1385 26.9711 27.4154C27.5341 27.6923 28.0032 27.5077 28.1909 27.1385L29.5983 24.6461ZM28.8477 27.5077C28.4724 28.1538 27.5341 28.5231 26.6897 28.0615C25.7514 27.6 25.5637 26.5846 25.939 25.9384L27.3464 23.4461C27.7217 22.8 28.5662 22.4307 29.5045 22.8923C30.4427 23.3538 30.6304 24.2769 30.2551 25.0154L28.8477 27.5077Z" fill="#2A3341"/>
<path d="M35.8847 26.5846L35.2279 28.2461L35.9785 28.5231C36.3538 28.6154 36.7291 28.5231 36.8229 28.1539L37.0106 27.6923C37.1044 27.3231 37.0106 26.9538 36.6353 26.8615L35.8847 26.5846ZM34.1958 30.7385L34.9464 31.0154C35.3217 31.2 35.7909 30.9231 35.8847 30.6462L36.0723 30.0923C36.1662 29.8154 36.1662 29.3538 35.6032 29.1692L34.8526 28.8923L34.1958 30.7385ZM36.8229 26.3077C37.5736 26.5846 37.855 27.3231 37.6674 27.9692L37.4797 28.4308C37.2921 28.8 37.0106 29.0769 36.6353 29.1692C36.8229 29.5385 36.9168 29.9077 36.7291 30.3692L36.5415 30.9231C36.26 31.6616 35.4155 31.9385 34.6649 31.6615L33.4452 31.2C33.3514 31.1077 33.2575 31.0154 33.3514 31.0154L35.3217 26.0308C35.3217 25.9385 35.4155 25.9384 35.6032 25.9384L36.8229 26.3077Z" fill="#2A3341"/>
<path d="M44.7048 34.4308C44.7048 34.5231 44.611 34.6154 44.5172 34.5231L44.2357 34.4308C44.1419 34.4308 44.048 34.3385 44.048 34.2462L44.7048 31.5692C44.8925 31.0154 45.0801 30.1846 45.0801 30.1846L42.1715 33.8769C42.0777 33.9692 41.9839 33.9692 41.89 33.9692L41.6086 33.8769C41.5147 33.8769 41.4209 33.7846 41.4209 33.6923L42.7345 28.5231C42.7345 28.4308 42.8283 28.3384 42.9221 28.4308L43.2036 28.5231C43.2974 28.5231 43.3913 28.6154 43.3913 28.7077L42.6406 31.4769C42.453 32.2154 42.2653 32.7692 42.2653 32.7692L45.0801 29.0769C45.174 28.9846 45.2678 28.9846 45.3616 28.9846L45.6431 29.0769C45.7369 29.0769 45.8308 29.1692 45.8308 29.2615L44.7048 34.4308Z" fill="#2A3341"/>
<path d="M52.0239 28.523C52.1177 28.523 52.2116 28.6153 52.2116 28.7077C52.2116 28.8923 52.2116 29.1692 52.493 29.1692H52.7745C53.056 29.1692 53.1498 28.9846 53.1498 28.8C53.1498 28.7077 53.2437 28.7077 53.3375 28.7077H53.7128C53.8066 28.7077 53.8066 28.8 53.8066 28.8923C53.7128 29.3538 53.3375 29.723 52.6807 29.6307H52.493C51.8363 29.5384 51.5548 29.0769 51.6486 28.6154C51.6486 28.523 51.7424 28.523 51.7424 28.523H52.0239ZM53.4313 35.8154C53.4313 35.9077 53.3375 36 53.2437 36H52.9622C52.8684 36 52.7745 35.9077 52.7745 35.8154L53.1498 33.0461C53.2437 32.4 53.3375 31.5692 53.3375 31.5692L50.9918 35.5384C50.9918 35.6307 50.898 35.723 50.7103 35.6307H50.4289C50.335 35.6307 50.2412 35.5384 50.2412 35.4461L50.898 30.0923C50.898 30 50.9918 29.9077 51.0857 29.9077H51.3671C51.461 29.9077 51.5548 30 51.5548 30.0923L51.1795 32.9538C51.0856 33.6923 50.9918 34.3384 50.9918 34.3384L53.3375 30.3692C53.3375 30.2769 53.4313 30.1846 53.619 30.2769H53.9004C53.9943 30.2769 54.0881 30.3692 54.0881 30.4615L53.4313 35.8154Z" fill="#2A3341"/>
<path d="M68.9106 32.6769L71.1625 35.2615L71.2563 35.3538C71.2563 35.4461 71.2563 35.4462 71.1625 35.4462L70.6933 35.5385C70.5995 35.5385 70.5057 35.4462 70.4119 35.4462L68.16 32.8615L68.5353 35.6308C68.5353 35.7231 68.5353 35.8154 68.3477 35.8154H68.0662C67.9724 35.8154 67.8785 35.7231 67.8785 35.7231L67.1279 30.3692C67.1279 30.2769 67.1279 30.1846 67.3156 30.1846H67.5971C67.6909 30.1846 67.7847 30.2769 67.7847 30.2769L68.16 32.7692L69.5674 30.0923C69.5674 30 69.6613 29.9077 69.7551 29.9077L70.2242 29.8154C70.318 29.8154 70.4119 29.8154 70.4119 29.9077V30L68.9106 32.6769Z" fill="#2A3341"/>
<path d="M77.8258 29.6307C77.732 29.2615 77.2629 28.8923 76.6999 29.0769C76.1369 29.2615 75.8555 29.7231 76.0431 30.0923L76.7937 32.8615C76.8876 33.3231 77.3567 33.6 77.9197 33.4154C78.4826 33.2308 78.7641 32.7692 78.5764 32.4L77.8258 29.6307ZM79.3271 32.2154C79.5147 32.9538 79.1394 33.7846 78.1073 34.0615C77.0752 34.3384 76.3246 33.7846 76.1369 33.0461L75.3863 30.2769C75.1987 29.5384 75.574 28.7077 76.6061 28.4307C77.6382 28.1538 78.3888 28.7077 78.5764 29.4461L79.3271 32.2154Z" fill="#2A3341"/>
<path d="M85.8005 28.8C85.8005 28.8923 85.8005 28.9846 85.7066 28.9846L85.3313 29.0769C85.2375 29.1692 85.1437 29.0769 85.0498 28.9846L83.6424 27.6C83.6424 27.6 84.0177 28.4308 84.4869 29.5385L85.3313 31.4769C85.3313 31.5692 85.3313 31.6616 85.2375 31.6616L84.956 31.7539C84.8622 31.7539 84.7684 31.7539 84.6745 31.6616L82.6104 26.6769C82.6104 26.5846 82.6104 26.4923 82.7042 26.4923L83.0795 26.3077C83.1733 26.3077 83.2671 26.3077 83.361 26.4L85.1437 28.2462L85.0498 25.6615C85.0498 25.5692 85.0498 25.4769 85.1437 25.4769L85.519 25.2923C85.6128 25.2 85.7066 25.2923 85.8005 25.3846L87.8646 30.3692C87.8646 30.4616 87.8646 30.5539 87.7708 30.5539L87.4893 30.6462C87.3955 30.6462 87.3017 30.6462 87.2079 30.5539L86.3634 28.6154C85.8943 27.4154 85.6128 26.6769 85.6128 26.6769L85.8005 28.8Z" fill="#2A3341"/>
<path d="M95.7438 26.6769C95.7438 26.7692 95.7438 26.8615 95.65 26.9538L95.3685 27.1384C95.2747 27.2307 95.1809 27.1384 95.0871 27.0461L92.6476 22.8L91.0525 23.6307L93.492 27.8769C93.492 27.9692 93.492 28.0615 93.3982 28.1538L93.1167 28.3384C93.0229 28.4307 92.9291 28.3384 92.8352 28.2461L90.1143 23.5384C90.1143 23.4461 90.1143 23.3538 90.2081 23.2615L92.6476 21.8769C92.7414 21.7846 92.8352 21.8769 92.929 21.9692L95.7438 26.6769Z" fill="#2A3341"/>
<path d="M100.062 23.9077L99.8741 23.7231C99.7802 23.6308 99.8741 23.5385 99.8741 23.4462C100.062 23.2615 100.156 22.9846 99.8741 22.6154C99.0296 21.3231 98.279 20.3077 97.4346 19.1077C97.4346 19.0154 97.4346 18.9231 97.5284 18.8308L99.3111 17.5385C99.4049 17.4461 99.4987 17.5384 99.5926 17.6308L102.877 21.8769C102.97 21.9692 102.877 22.0615 102.783 22.1539L102.501 22.3385C102.407 22.4308 102.314 22.4308 102.22 22.3385L99.2173 18.4615L98.279 19.2C99.0296 20.3077 100.062 21.7846 100.531 22.5231C100.906 23.1692 100.812 23.7231 100.249 24.0923C100.249 24.0923 100.156 24.0923 100.062 23.9077Z" fill="#2A3341"/>
<path d="M107.661 18.1846C107.567 18.2769 107.473 18.2769 107.379 18.1846L103.532 14.3077C103.438 14.2154 103.438 14.123 103.532 14.0307L105.315 12.3692C105.409 12.2769 105.503 12.2769 105.596 12.3692L105.784 12.5538C105.878 12.6461 105.878 12.7384 105.784 12.8307L104.377 14.2153L105.596 15.5077L106.91 14.3077C107.004 14.2154 107.098 14.2154 107.192 14.3077L107.379 14.4923C107.473 14.5846 107.473 14.6769 107.379 14.7692L106.066 15.9692L107.567 17.4461L109.068 16.0615C109.162 15.9692 109.256 15.9692 109.35 16.0615L109.537 16.2461C109.631 16.3384 109.631 16.4307 109.537 16.523L107.661 18.1846Z" fill="#2A3341"/>
<path d="M112.07 9.23073L115.541 9.59995C115.635 9.59995 115.635 9.59995 115.635 9.59995C115.635 9.59995 115.635 9.69226 115.635 9.78456L115.354 10.1538C115.26 10.2461 115.166 10.2461 115.072 10.2461L111.695 9.87688L113.946 11.6307C114.04 11.723 114.04 11.8153 113.946 11.9076L113.759 12.1846C113.665 12.2769 113.571 12.2769 113.477 12.1846L109.161 8.76919C109.067 8.67688 109.067 8.58457 109.161 8.49226L109.349 8.21534C109.443 8.12303 109.536 8.12303 109.63 8.21534L111.601 9.78456L110.756 6.92304C110.756 6.83073 110.662 6.73842 110.756 6.64611L111.038 6.27687C111.132 6.18456 111.132 6.18456 111.225 6.27687C111.225 6.27687 111.225 6.36919 111.319 6.36919L112.07 9.23073Z" fill="#2A3341"/>
<path d="M119.767 4.06243C119.298 4.80089 118.359 5.07782 117.609 4.61628L115.075 3.13935C114.325 2.67781 114.137 1.75474 114.606 1.01628C115.169 0.185509 116.201 0.185512 116.577 0.370127C116.671 0.370127 116.671 0.554745 116.577 0.647052L116.389 0.923978C116.295 1.01629 116.201 1.01628 116.108 1.01628C115.826 0.923969 115.263 0.923978 115.075 1.38552C114.794 1.84705 114.888 2.30858 115.357 2.5855L117.89 4.06243C118.266 4.33935 118.829 4.15473 119.11 3.7855C119.392 3.41627 119.298 2.86242 118.829 2.5855C118.735 2.5855 118.735 2.4009 118.829 2.30859L119.016 2.03166C119.11 1.93936 119.204 1.93935 119.298 1.93935C119.954 2.40089 120.236 3.32397 119.767 4.06243Z" fill="#2A3341"/>
</svg>
