<svg width="344" height="418" viewBox="0 0 344 418" fill="none" xmlns="http://www.w3.org/2000/svg">
<path d="M61.3684 274.544C63.991 273.214 65.9579 271.885 68.5805 270.555C70.5474 269.226 73.1699 265.902 73.1699 265.902C73.1699 265.902 69.2361 265.237 67.2692 263.908C60.0571 260.584 54.8119 252.607 56.1232 244.63C58.0901 230.671 72.5143 228.677 83.6603 232.665C105.297 241.307 120.376 264.573 125.621 286.509C126.277 289.168 126.933 293.821 127.588 297.145H117.754V309.775H156.437C155.125 325.729 145.291 343.012 122.343 343.012C129.555 354.313 140.046 362.289 151.847 366.943C153.814 382.232 160.371 396.191 170.861 406.827C181.351 396.191 187.908 382.896 189.875 366.943C202.332 362.289 212.166 354.313 219.379 343.012C196.431 343.012 186.596 325.729 185.285 309.775H223.968V297.145H214.133C214.789 293.821 215.445 289.168 216.1 286.509C222.001 264.573 236.425 241.307 258.717 232.665C269.863 228.677 284.287 230.671 286.254 244.63C286.91 252.607 282.32 260.584 275.108 263.908C273.141 264.573 271.174 265.902 269.207 265.902C269.207 265.902 273.141 268.561 274.453 269.891C276.42 271.22 279.042 273.214 281.665 273.879C301.99 283.185 323.626 273.879 335.427 255.931C354.441 227.347 338.706 189.457 307.89 177.492C282.32 167.521 252.816 178.156 235.77 198.099C216.756 220.035 206.921 247.954 202.987 275.873C202.332 281.191 201.676 291.162 201.02 297.145H186.596C186.596 295.151 186.596 292.492 186.596 290.498C187.252 271.885 191.186 253.272 197.087 235.324C203.643 216.047 211.511 197.434 218.067 178.156C225.279 158.214 229.213 136.278 229.213 115.006C229.213 53.1853 172.828 -0.65865 172.172 0.00609053C170.861 0.670831 114.476 53.85 114.476 116.336C114.476 137.607 118.409 159.544 125.621 179.486C132.178 199.428 140.701 217.376 146.602 236.654C152.503 254.602 157.092 272.55 157.092 291.827C157.092 293.821 157.092 296.48 157.092 298.474H142.668C142.013 292.492 141.357 283.185 140.701 277.203C136.767 249.284 126.933 220.7 107.919 199.428C90.2167 179.486 61.3684 168.85 35.7983 178.821C4.98301 190.787 -10.7524 228.677 8.26122 257.261C19.4072 274.544 41.0434 283.85 61.3684 274.544Z" fill="white"/>
</svg>
