<svg width="13" height="27" viewBox="0 0 13 27" fill="none" xmlns="http://www.w3.org/2000/svg">
<path d="M12.4258 14.3523L9.7219 11.3696C9.55352 11.1839 9.39869 10.8013 9.39091 10.5505L9.29144 7.45561V7.36595C9.29144 6.88906 8.90335 6.50098 8.42647 6.50098H5.77966H4.72786C4.30172 6.50098 3.82628 6.80285 3.64492 7.18834L0.0818251 14.7568C-0.0167813 14.9667 -0.0265845 15.2011 0.0541459 15.4177C0.134876 15.6339 0.296337 15.8046 0.508254 15.898L1.03329 16.1295C1.14516 16.1788 1.26453 16.2039 1.38822 16.2039C1.72757 16.2039 2.04358 16.011 2.19379 15.7126L3.86289 12.392V15.7296C3.85597 15.7489 3.84588 15.7665 3.83954 15.7861L1.01887 24.6198C0.901527 24.9877 0.937279 25.3749 1.11979 25.7099C1.3023 26.0449 1.60792 26.2848 1.98101 26.3855L2.16957 26.4365C2.29297 26.4699 2.42099 26.4869 2.54958 26.4869C3.1986 26.4869 3.78822 26.0599 3.9837 25.4481L6.61926 17.194L7.554 19.4836C7.78207 20.0421 8.02829 21.0201 8.09173 21.6198L8.53891 25.8353C8.61071 26.5103 9.14439 27.0002 9.80811 27.0002C9.91681 27.0002 10.0272 26.9869 10.1359 26.9607L10.3259 26.9145C11.0825 26.7314 11.6171 25.9541 11.5176 25.1823L10.8553 20.0421C10.7711 19.389 10.4894 18.3663 10.2273 17.7623L9.33296 15.7025C9.32142 15.6757 9.30499 15.6515 9.29173 15.6255V14.2298L10.9035 15.9124C11.0638 16.0799 11.2783 16.1722 11.5072 16.1722C11.7387 16.1722 11.955 16.0782 12.1159 15.9075L12.414 15.5909C12.7329 15.2522 12.7383 14.6968 12.4258 14.3523Z" fill="white"/>
<path d="M6.81809 5.7679C8.40848 5.7679 9.70218 4.4742 9.70218 2.88381C9.70218 1.29371 8.40848 0 6.81809 0C5.22799 0 3.93457 1.29371 3.93457 2.88381C3.93428 4.4742 5.22799 5.7679 6.81809 5.7679Z" fill="white"/>
</svg>
