<svg width="30" height="34" viewBox="0 0 30 34" fill="none" xmlns="http://www.w3.org/2000/svg">
<path d="M6.8715 26.5528C7.03775 26.3909 7.204 26.148 7.37025 25.9861C7.45338 25.8243 7.61964 25.5005 7.61964 25.5005C7.61964 25.5005 7.28714 25.5814 7.12089 25.5814C6.37276 25.5814 5.70776 25.0148 5.45839 24.3672C5.12589 23.153 6.28963 22.5054 7.37025 22.4244C9.5315 22.4244 11.6096 23.8006 12.8565 25.5005C13.0228 25.7433 13.2721 26.0671 13.4384 26.3099L12.6071 26.6337L13.0228 27.6861L16.3478 26.3909C16.7634 27.767 16.514 29.5479 14.6021 30.3573C15.5996 31.0049 16.7634 31.4097 18.0103 31.3287C18.6753 32.5429 19.7559 33.5143 21.0027 34C21.5015 32.7858 21.6678 31.4097 21.2521 30.0335C22.1665 29.2241 22.7484 28.1717 22.9978 27.0385C21.0028 27.8479 19.5896 26.7147 18.9246 25.4195L22.2496 24.1243L21.834 23.072L21.0027 23.3958C20.9196 23.072 20.8365 22.6673 20.8365 22.4244C20.5871 20.4007 21.0028 17.9723 22.5821 16.5152C23.3303 15.7867 24.7434 15.4629 25.3253 16.5962C25.6578 17.2438 25.4915 18.0532 24.9928 18.5389C24.8265 18.7008 24.7434 18.7818 24.5771 18.9437C24.5771 18.9437 24.9927 19.0246 25.159 19.1056C25.4084 19.1865 25.6578 19.1865 25.9071 19.1865C27.9021 19.2675 29.4815 17.7295 29.8971 15.8676C30.5621 12.7916 27.9021 10.2013 24.8265 10.2013C22.2496 10.2013 20.1715 12.0631 19.3402 14.4106C18.4259 16.839 18.5921 19.5103 19.2571 22.0197C19.3403 22.5054 19.6728 23.3149 19.839 23.8815L18.5921 24.3672C18.509 24.2053 18.4259 23.9624 18.3428 23.8005C17.7609 22.2625 17.4284 20.5626 17.3453 18.8627C17.2621 17.0819 17.2621 15.2201 17.179 13.3583C17.0959 11.4155 16.6803 9.5537 15.9321 7.6919C13.7709 2.51123 7.12088 -0.079108 7.03776 0.00184001C6.95463 0.00184001 3.96213 6.31578 6.12338 11.4965C6.8715 13.2773 7.95214 14.9772 9.28214 16.4343C10.529 17.8104 11.859 19.1056 13.1059 20.4817C14.1865 21.7768 15.2671 23.153 15.9321 24.691C16.0153 24.8529 16.0984 25.0957 16.1815 25.2576L14.9346 25.7433C14.6853 25.2576 14.2696 24.5291 14.0203 24.0434C12.6903 21.8578 10.8615 19.8341 8.534 18.6199C6.28962 17.4866 3.46338 17.6485 1.63463 19.3484C-0.609741 21.3721 -0.609741 25.0957 2.05026 26.8766C3.29713 27.9289 5.45837 28.0098 6.8715 26.5528Z" fill="#ECEAE1"/>
</svg>
