<svg width="16" height="22" viewBox="0 0 16 22" fill="none" xmlns="http://www.w3.org/2000/svg">
<path d="M0.597168 19V3C0.597168 1.89543 1.4926 1 2.59717 1H4.09717C4.37331 1 4.59717 1.22386 4.59717 1.5C4.59717 1.77614 4.82103 2 5.09717 2H10.0972C10.3733 2 10.5972 1.77614 10.5972 1.5C10.5972 1.22386 10.821 1 11.0972 1H12.5972C13.7017 1 14.5972 1.89543 14.5972 3V19C14.5972 20.1046 13.7017 21 12.5972 21H2.59717C1.4926 21 0.597168 20.1046 0.597168 19Z"/>
<path d="M5.59717 18H9.59717" stroke="#2A3341" stroke-linecap="round" stroke-linejoin="round"/>
</svg>
