<svg width="30" height="30" viewBox="0 0 30 30" fill="none" xmlns="http://www.w3.org/2000/svg">
<g clip-path="url(#clip0)">
<path d="M26.7403 2.60782H18.9139C18.5539 2.60782 18.2617 2.90002 18.2617 3.26003C18.2617 3.62005 18.5539 3.91225 18.9139 3.91225H26.7403C27.1003 3.91225 27.3925 3.62005 27.3925 3.26003C27.3925 2.90002 27.1003 2.60782 26.7403 2.60782Z" fill="white"/>
<path d="M27.2035 2.79957L24.5947 0.190767C24.3404 -0.063589 23.9269 -0.063589 23.6725 0.190767C23.4182 0.445123 23.4182 0.858635 23.6725 1.11299L25.8196 3.26004L23.6712 5.40837C23.4169 5.66272 23.4169 6.07623 23.6712 6.33059C23.7991 6.45709 23.966 6.52105 24.133 6.52105C24.3 6.52105 24.4669 6.45716 24.5947 6.33059L27.2035 3.72179C27.4579 3.46737 27.4579 3.05392 27.2035 2.79957Z" fill="white"/>
<path d="M9.78324 2.60782H1.9569C1.59689 2.60782 1.30469 2.90002 1.30469 3.26003C1.30469 3.62005 1.59689 3.91225 1.9569 3.91225H9.78324C10.1433 3.91225 10.4355 3.62005 10.4355 3.26003C10.4355 2.90002 10.1433 2.60782 9.78324 2.60782Z" fill="white"/>
<path d="M2.87937 3.25998L5.02642 1.11293C5.28077 0.858574 5.28077 0.445062 5.02642 0.190706C4.77206 -0.06365 4.35855 -0.06365 4.10419 0.190706L1.49545 2.79957C1.2411 3.05392 1.2411 3.46743 1.49545 3.72179L4.10425 6.33059C4.2321 6.4571 4.39903 6.52105 4.56601 6.52105C4.73299 6.52105 4.89991 6.45716 5.02648 6.32931C5.28083 6.07495 5.28083 5.66144 5.02648 5.40708L2.87937 3.25998Z" fill="white"/>
<path d="M26.0874 13.0429C25.5513 13.0429 25.0517 13.206 24.6369 13.4838C24.2795 12.469 23.3103 11.7385 22.1742 11.7385C21.6381 11.7385 21.1385 11.9016 20.7237 12.1794C20.3663 11.1646 19.3971 10.4342 18.261 10.4342C17.7863 10.4342 17.3402 10.562 16.9567 10.7851V6.521C16.9567 5.08224 15.7866 3.9122 14.3479 3.9122C12.9091 3.9122 11.7391 5.08224 11.7391 6.521V17.6083L9.47207 15.9087C8.12857 14.9004 6.21631 15.0348 5.02543 16.2244C4.26236 16.9874 4.26236 18.2279 5.02543 18.991L14.314 28.2808C15.4227 29.3896 16.898 30 18.4659 30H21.5221C25.477 30 28.6962 26.7821 28.6962 22.8259V15.6517C28.6962 14.2129 27.5261 13.0429 26.0874 13.0429ZM27.3918 22.8258C27.3918 26.062 24.7582 28.6956 21.5221 28.6956H18.4659C17.245 28.6956 16.0984 28.2208 15.2362 27.3586L5.94765 18.0688C5.69329 17.8144 5.69329 17.4009 5.94765 17.1465C6.35199 16.7435 6.89201 16.5361 7.43465 16.5361C7.87556 16.5361 8.31903 16.673 8.69078 16.9522L12 19.4344C12.1983 19.5831 12.4644 19.6053 12.6836 19.4957C12.904 19.3849 13.0436 19.1592 13.0436 18.9127V6.521C13.0436 5.80226 13.6279 5.21663 14.3479 5.21663C15.068 5.21663 15.6523 5.80232 15.6523 6.521V16.3039C15.6523 16.6639 15.9445 16.9561 16.3045 16.9561C16.6645 16.9561 16.9567 16.6639 16.9567 16.3039V13.043C16.9567 12.3242 17.5411 11.7386 18.2611 11.7386C18.9811 11.7386 19.5655 12.3243 19.5655 13.043V16.3039C19.5655 16.6639 19.8577 16.9561 20.2177 16.9561C20.5777 16.9561 20.8699 16.6639 20.8699 16.3039V14.3473C20.8699 13.6286 21.4543 13.043 22.1743 13.043C22.8943 13.043 23.4786 13.6287 23.4786 14.3473V16.3039C23.4786 16.6639 23.7708 16.9561 24.1309 16.9561C24.4909 16.9561 24.7831 16.6639 24.7831 16.3039V15.6517C24.7831 14.933 25.3674 14.3473 26.0874 14.3473C26.8075 14.3473 27.3918 14.933 27.3918 15.6517V22.8258Z" fill="white"/>
</g>
<defs>
<clipPath id="clip0">
<rect width="30" height="30" fill="white"/>
</clipPath>
</defs>
</svg>
