<svg width="1326" height="246" viewBox="0 0 1326 246" fill="none" xmlns="http://www.w3.org/2000/svg">
<path fill-rule="evenodd" clip-rule="evenodd" d="M-426.137 89.8328H-268.666C-256.73 89.8328 -244.612 90.1374 -232.417 90.444C-194.6 91.3947 -156.027 92.3645 -119.733 84.3308C-93.5239 78.4038 -68.762 68.0466 -44.0122 57.6946C-18.0586 46.839 7.88159 35.9891 35.4622 30.2593C107.557 15.4608 154.04 53.4057 190.657 113.359C197.274 124.19 203.792 136.96 210.642 150.377L210.644 150.382L210.646 150.387L210.648 150.391L210.651 150.397L210.654 150.402L210.657 150.408L210.66 150.413C236.796 201.618 267.739 262.238 327.258 260.585C370.817 259.431 410.429 237.443 448.677 216.212C460.74 209.516 472.667 202.895 484.54 197.027C579.592 149.975 679.387 119.809 785.443 142.956C820.542 150.545 853.554 163.256 886.187 177.865C891.974 180.467 897.973 183.44 904.124 186.488C923.987 196.332 945.435 206.962 966.44 208.411C1013.52 211.484 1050.73 177.832 1085.4 146.466C1097.82 135.236 1109.91 124.299 1122.01 115.446C1186.71 68.2042 1253.87 67.8248 1317.05 116.394C1325.7 123.075 1335.03 131.54 1344.85 140.456C1386.08 177.872 1436.04 223.217 1481.54 177.865C1493.6 165.858 1504.05 152.886 1514.25 140.217C1541.62 106.243 1567.22 74.4557 1617.38 69.3426C1606.19 57.5797 1602.4 51.5085 1602.4 38.4175C1553.28 47.5783 1530.45 80.289 1506.32 114.863C1494.47 131.844 1482.3 149.274 1466.55 164.584C1428.44 201.561 1375.82 154.317 1334.52 117.231C1320.73 104.844 1308.2 93.59 1297.89 86.9869C1229.78 43.5401 1148.01 52.2674 1089.57 108.616C1080.05 117.759 1071.04 128.408 1061.92 139.18C1034.72 171.325 1006.6 204.565 961.128 202.15C940.761 201.117 920.623 191.128 901.698 181.741C896.294 179.061 890.99 176.43 885.807 174.07C849.76 157.754 813.332 141.628 775.008 131.382C675.023 104.252 560.619 111.082 470.121 164.015C457.102 171.614 444.138 181.683 430.905 191.96L430.903 191.962C401.518 214.784 370.808 238.636 335.227 238.767C284.099 238.91 253.944 181.108 228.767 132.848C220.591 117.175 212.94 102.509 205.266 91.1609C165.234 31.9669 112.68 -9.77252 37.7388 1.99039C8.53723 6.59064 -18.9248 17.4638 -46.37 28.3303C-70.9922 38.0791 -95.6008 47.8226 -121.44 53.0263C-157.278 60.2791 -195.354 59.3238 -232.553 58.3905C-244.98 58.0787 -257.31 57.7694 -269.425 57.7694H-427.845H-1057.92H-1891V90.2123H-1062.85H-426.137V89.8328ZM-419.497 149.027H-266.01C-254.653 149.027 -243.004 149.386 -231.222 149.75C-194.583 150.881 -156.653 152.051 -122.199 142.576C-98.0092 135.936 -76.2383 123.794 -54.4674 111.651C-32.6965 99.5089 -10.9257 87.3665 13.2643 80.7262C81.1857 62.1332 116.474 105.201 148.538 159.462C149.023 160.284 149.506 161.105 149.989 161.925L150.899 163.471L152.002 165.346L152.111 165.533L152.522 166.232L152.608 166.378C195.128 238.683 230.669 299.12 325.74 293.787C387.78 290.372 448.302 284.111 508.255 267.036C541.656 257.571 574.8 244.53 608.082 231.435C678.21 203.843 748.946 176.011 823.957 180.901C850.802 182.704 875.69 191.011 900.492 199.291C922.667 206.693 944.773 214.072 968.147 216.759C1020.79 222.833 1068.83 194.141 1114.78 166.693C1133.41 155.562 1151.71 144.636 1169.82 136.315C1240.02 104.252 1284.8 115.635 1343.04 163.636C1402.24 212.395 1452.7 248.822 1521.57 196.648C1528.01 191.757 1534.27 186.87 1540.43 182.063C1586.37 146.218 1626.52 114.88 1690.43 120.568C1685.26 117.323 1680.77 114.556 1676.61 111.99L1676.58 111.969L1676.55 111.949L1676.52 111.93L1676.51 111.924L1676.5 111.923L1676.5 111.918C1666.36 105.667 1658.14 100.597 1646.6 92.6788C1591.75 93.6033 1560.54 125.189 1526.26 159.89C1518.33 167.916 1510.24 176.108 1501.65 184.126C1444.93 236.979 1395.74 194.442 1348.61 153.688C1340.25 146.459 1331.95 139.285 1323.69 132.711C1268.1 88.5049 1212.51 84.7104 1150.66 119.809C1134.33 129.104 1118.03 141.221 1101.39 153.585C1060.64 183.873 1017.89 215.648 967.768 211.067C937.901 208.352 909.367 196.255 880.696 184.101C855.275 173.325 829.747 162.503 803.087 158.134C706.066 141.935 617.34 178.173 529.375 214.101L529.367 214.104C520.49 217.73 511.622 221.352 502.753 224.917C499.053 226.414 495.349 227.92 491.64 229.429L491.59 229.449L491.473 229.497L491.379 229.535C438.306 251.119 384.208 273.12 326.31 275.953C252.701 279.711 220.592 219.735 190.07 162.722C183.617 150.668 177.234 138.747 170.546 127.588C138.862 74.4653 98.6403 37.6587 33.7545 50.9394C5.32202 56.7844 -20.7826 69.0957 -46.9094 81.4174C-70.818 92.6929 -94.745 103.977 -120.491 110.323C-156.166 119.098 -194.568 118.057 -232.058 117.04C-244.013 116.716 -255.876 116.394 -267.528 116.394H-423.102H-1061.52H-1891V148.837H-1060.2H-419.497V149.027ZM-272.081 208.221H-421.205H-1062.47H-1891V175.778H-1059.06H-426.137H-264.872C-253.569 175.778 -241.859 176.21 -229.968 176.648C-194.551 177.953 -157.523 179.318 -124.855 169.517C-102.637 162.862 -83.6007 150.4 -64.5673 137.94C-46.7056 126.247 -28.8467 114.556 -8.36426 107.667C54.2449 86.7972 89.5336 125.88 120.459 175.399C170.167 254.703 209.629 308.965 311.322 306.498C330.704 306.027 349.98 306.047 369.183 306.068C427.237 306.13 484.619 306.192 542.216 292.648C582.946 283.137 622.56 266.865 662.21 250.578C720.634 226.58 779.137 202.549 841.412 200.063C869.05 199.004 894.797 205.274 920.566 211.549C940.966 216.517 961.38 221.488 982.756 222.83C1033.44 226.047 1080.8 201.979 1126.65 178.678C1145.69 169.005 1164.46 159.464 1183.11 152.062C1212.51 140.299 1247.42 129.295 1279.11 137.264C1302.75 143.211 1324.17 161.045 1343.75 177.339L1343.75 177.34L1343.76 177.342L1343.76 177.344L1343.76 177.346C1349.16 181.841 1354.42 186.218 1359.55 190.197C1386.49 210.877 1417.04 234.213 1452.13 237.438C1486.89 240.582 1514.24 221.544 1541.16 202.812C1543.49 201.193 1545.81 199.576 1548.14 197.976C1605.81 158.513 1654 131.003 1725.53 144.094C1740.71 155.477 1747.35 161.359 1754.56 173.501C1689.86 152.442 1639.01 160.41 1581.15 196.078C1572.69 201.294 1564.33 207.185 1555.89 213.132C1532.71 229.466 1508.93 246.218 1480.97 250.529C1440.18 256.79 1403 236.869 1370.17 215.43C1362.2 210.257 1354.3 204.286 1346.32 198.249L1346.32 198.248L1346.31 198.246C1330 185.907 1313.32 173.295 1294.85 166.671C1264.88 155.857 1232.81 163.636 1203.41 172.553C1182.64 178.895 1162 187.297 1141.27 195.739C1091.92 215.831 1042.02 236.15 988.448 229.47C978.514 228.228 968.825 226.743 959.267 225.277C925.011 220.026 892.445 215.033 856.4 222.45C806.61 232.73 760.231 252.907 713.772 273.119C661.624 295.807 609.373 318.538 552.082 327.368C503.137 334.855 455.378 329.573 407.485 324.277C374.064 320.581 340.578 316.878 306.578 317.502L304.908 317.536L302.153 317.592L300.714 317.622C255.086 318.575 212.062 319.473 171.305 294.545C138.381 274.435 116.808 243.473 95.313 212.622C93.8932 210.584 92.4736 208.547 91.0513 206.513C59.1776 161.169 22.7506 120.568 -37.0126 145.232C-52.8969 151.71 -66.0004 162.339 -79.099 172.963C-94.0052 185.054 -108.905 197.14 -127.891 203.098C-159.699 213.056 -197.758 211.218 -233.543 209.491C-246.85 208.848 -259.842 208.221 -272.081 208.221ZM1446.25 258.877C1417.11 254.271 1392.78 239.409 1368.51 224.588C1346.81 211.331 1325.16 198.107 1300.17 192.284C1252.44 181.204 1201.47 197.699 1152.33 213.598C1127.43 221.655 1103 229.56 1079.71 233.644C1052.76 238.387 1026.58 235.921 1000.59 233.454L998.162 233.233C976.014 231.213 953.841 229.191 930.961 231.936C881.062 237.9 833.895 260.962 787.507 283.642C761.582 296.318 735.901 308.875 710.122 318.261C653.964 338.751 593.631 354.119 533.299 353.17C498.58 352.636 464.989 345.805 431.335 338.961C417.174 336.081 403.001 333.199 388.729 330.783C357.746 325.503 326.498 324.819 295.726 324.145C225.875 322.615 158.483 321.139 102.245 266.087C92.5181 256.56 83.2814 245.325 73.9292 233.949C47.8928 202.277 20.9611 169.517 -19.9375 169.517C-25.819 169.517 -31.8903 170.086 -38.1511 171.604C-58.1975 176.059 -71.8992 188.815 -85.6873 201.652C-96.5625 211.776 -107.491 221.951 -121.63 228.142C-151.986 241.233 -193.915 239.146 -231.86 236.869C-234.773 236.716 -237.663 236.555 -240.524 236.395C-251.821 235.766 -262.659 235.162 -272.651 235.162H-457.822H-1124.7H-1891V267.415H-1130.21H-455.355C-395.023 267.415 -334.69 267.225 -274.358 266.846C-261.627 266.846 -248.178 267.384 -234.36 267.937H-234.359L-233.188 267.984C-195.622 269.692 -155.401 271.209 -122.768 260.016C-107.779 254.794 -96.8806 244.691 -86.0035 234.609C-75.5411 224.911 -65.0981 215.23 -51.0524 209.928C-3.53528 191.977 33.3074 226.319 66.9138 257.645L66.9146 257.645C75.5753 265.718 84.0211 273.591 92.3794 280.316C151.334 327.728 214.836 328.535 280.76 329.371C315.608 329.814 351.133 330.265 387.021 337.613C413.484 343.017 439.214 351.122 464.954 359.229L464.956 359.229C491.626 367.63 518.306 376.033 545.821 381.439C613.363 394.53 682.043 389.408 747.308 366.831C793.411 350.894 840.273 332.68 882.202 307.636C893.211 301.013 903.63 293.503 914.034 286.002L914.037 286C925.686 277.602 937.318 269.217 949.744 262.103C984.794 242.02 1022.68 244.073 1061.14 246.157L1061.3 246.166C1075.72 246.925 1090.14 247.684 1104.56 247.304C1139.51 246.387 1174.33 243.473 1209.17 240.558C1246.37 237.445 1283.6 234.33 1321.03 233.644C1354.82 232.952 1382.37 244.595 1410.58 256.518C1428.79 264.212 1447.27 272.023 1467.88 276.711C1470.29 277.266 1473.38 278.209 1477.07 279.335C1498.61 285.916 1540.62 298.745 1587.6 276.711C1642.62 250.909 1735.58 207.652 1789.65 238.956C1788.57 236.539 1787.75 234.665 1787.09 233.158L1787.09 233.151L1787.09 233.148L1787.08 233.137L1787.08 233.131L1787.08 233.12C1785.84 230.281 1785.17 228.749 1784.32 227.326C1783.32 225.662 1782.07 224.149 1779.36 220.87L1779.36 220.867L1779.35 220.859L1779.35 220.855L1779.34 220.848C1775.78 216.528 1769.69 209.153 1758.35 194.371C1692.06 163.09 1633.38 204.318 1587.81 236.335L1587.81 236.336C1575.33 245.098 1563.84 253.17 1553.45 258.877C1516.19 279.33 1488.05 270.76 1465.3 263.83C1458.5 261.761 1452.19 259.837 1446.25 258.877ZM-134.531 323.194C-231.67 327.747 -329.947 327.937 -427.276 327.937C-638.629 327.937 -849.982 327.937 -1061.15 327.747H-1891V295.304H-1061.34H-427.466C-377.758 295.304 -327.86 294.735 -277.963 293.976C-263.35 293.743 -248.43 294.049 -233.41 294.358C-199.678 295.05 -165.438 295.754 -133.013 290.372C-111.228 286.763 -99.3287 277.599 -85.642 267.059C-79.8999 262.638 -73.8431 257.973 -66.6097 253.375C-23.1628 225.676 21.4225 252.047 58.229 277.66C130.135 327.558 191.226 339.51 278.878 334.957C348.054 331.4 407.318 356.626 467.487 382.236C500.39 396.242 533.564 410.362 568.777 419.953C674.644 448.602 803.846 414.641 889.412 346.53C900.893 337.419 911.805 327.261 922.694 317.123L922.696 317.122C956.252 285.883 989.594 254.843 1038.72 255.273C1077.71 255.64 1116.52 259.573 1155.34 263.507C1196.62 267.691 1237.93 271.876 1279.49 271.779C1296.08 271.687 1312.8 269.625 1329.46 267.571C1347.48 265.349 1365.43 263.135 1383.07 263.431C1404.8 263.784 1423.74 272.362 1443.24 281.201C1444.69 281.854 1446.13 282.509 1447.58 283.162C1484.01 299.668 1520.81 316.174 1561.8 307.826C1581.88 303.762 1600.98 294.727 1619.96 285.751C1631.1 280.481 1642.2 275.231 1653.43 271.02C1705.61 251.668 1747.73 248.443 1800.09 269.122C1806.37 277.041 1811.27 282.994 1816.22 289.007L1816.22 289.011L1816.22 289.012L1816.23 289.028L1816.24 289.04L1816.25 289.047C1821.01 294.834 1825.83 300.681 1831.96 308.395C1774.67 295.494 1729.7 309.913 1675.82 328.696C1669.41 330.903 1662.88 333.347 1656.26 335.825C1633.28 344.423 1609.22 353.425 1585.51 354.309C1553.76 355.56 1527.81 340.561 1501.7 325.475L1501.69 325.467C1496.14 322.258 1490.58 319.045 1484.96 315.984C1446.42 294.895 1413.91 299.899 1378.35 305.374C1358.24 308.47 1337.16 311.716 1313.45 310.482C1275.23 308.449 1237.85 299.263 1200.45 290.074C1154.12 278.688 1107.77 267.297 1059.78 269.502C999.218 272.23 956.404 318.211 915.405 362.243C899.381 379.452 883.635 396.363 867.214 410.277C779.182 484.839 654.343 515.195 548.856 462.262C522.733 449.2 497.516 433.329 472.283 417.447C408.818 377.504 345.254 337.497 266.926 341.977C186.293 346.72 129.565 339.89 56.9008 306.308C15.1614 286.957 -21.2655 277.281 -63.1947 301.376C-88.428 315.795 -104.175 321.676 -134.531 323.194ZM1600.88 394.91C1574.4 390.803 1554.47 374.968 1534.48 359.075C1527.68 353.672 1520.87 348.262 1513.8 343.305C1478.28 318.499 1446.26 326.076 1411.65 334.267C1389.87 339.42 1367.07 344.817 1341.72 342.546C1302.72 339.016 1265.79 325.683 1228.91 312.368C1180.54 294.908 1132.26 277.477 1079.52 282.213C1009.22 288.579 958.171 349.475 910.761 406.027C891.758 428.694 873.34 450.663 854.503 468.143C810.297 509.314 759.261 534.926 700.446 547.448C635.371 561.298 588.319 540.049 536.335 501.535C518.935 488.634 501.317 474.087 483.303 459.213L483.3 459.21L483.297 459.208L483.293 459.204C415.477 403.206 342.046 342.572 253.456 347.668C182.119 351.842 128.996 349.945 60.8853 329.834C16.6796 316.743 -10.2614 322.056 -50.8624 341.597C-75.1804 353.169 -97.4229 352.436 -123.225 351.586L-123.233 351.586C-126.617 351.475 -130.063 351.361 -133.582 351.273C-189.846 349.856 -246.109 351.571 -302.372 353.287C-344.006 354.557 -385.641 355.826 -427.276 355.826C-568.15 355.953 -708.94 355.911 -849.758 355.869H-849.779H-849.799H-849.82C-920.25 355.848 -990.687 355.826 -1061.15 355.826H-1891V388.269H-1055.64C-985.628 388.269 -915.634 388.29 -845.646 388.311H-845.625H-845.604H-845.583C-705.65 388.354 -565.746 388.396 -425.758 388.269C-387.618 388.196 -349.449 386.66 -311.274 385.123C-250.323 382.67 -189.356 380.216 -128.46 383.716C-119.197 384.261 -109.417 385.588 -99.4359 386.943C-74.6632 390.305 -48.6473 393.836 -26.1982 385.993C-14.3633 381.808 -4.35376 376.294 5.30615 370.972C23.6753 360.852 40.78 351.43 66.7667 353.17C78.8353 353.902 90.7277 355.779 102.614 357.655C115.392 359.672 128.164 361.687 141.139 362.277C160.367 363.082 179.222 360.576 198.043 358.074C214.691 355.86 231.313 353.65 248.143 353.739C348.349 354.509 434.194 439.7 507.298 512.247C524.3 529.119 540.612 545.307 556.256 559.59C560.196 563.188 564.136 566.858 568.094 570.544C603.583 603.601 640.474 637.964 691.34 633.014C757.553 626.563 810.676 593.361 856.779 546.879C891.567 511.803 920.644 472.224 949.775 432.57C958.933 420.105 968.096 407.632 977.444 395.289C1008.56 354.119 1041.95 311.81 1093.94 299.289C1155.39 284.516 1207.94 311.263 1260.7 338.122C1292.64 354.381 1324.66 370.68 1358.79 377.834C1394.08 385.208 1419.13 376.133 1446.7 366.146C1458.85 361.744 1471.49 357.164 1485.72 353.739C1509.62 348.048 1524.42 356.965 1541.87 372.712C1549.31 379.489 1556.05 387.043 1562.77 394.584C1577.31 410.897 1591.8 427.147 1613.21 435.321C1640.34 445.566 1672.78 438.357 1699.54 430.009C1718.79 424.002 1737.12 416.662 1755.27 409.392C1792.73 394.389 1829.44 379.69 1871.99 377.645C1869.34 364.174 1865.54 356.775 1856.06 341.787C1805.43 337.699 1763.53 352.897 1718.48 369.238C1709.17 372.614 1699.73 376.039 1690.05 379.352L1687.84 380.079C1661.15 388.862 1629.31 399.34 1600.88 394.91ZM1575.54 422.81C1586.87 436.764 1598.11 450.61 1615.3 458.657C1641.48 470.989 1672.78 464.539 1699.54 457.329C1720.65 451.582 1740.81 444.268 1760.84 437.001C1795.69 424.357 1830.15 411.856 1868.58 408.001C1862.65 426.527 1853.65 443.967 1844.75 461.206L1844.75 461.211L1844.1 462.452C1813 464.698 1782.86 470.41 1752.62 476.139C1734.34 479.602 1716.03 483.072 1697.45 485.788C1696.31 485.957 1695.16 486.128 1694.01 486.3L1693.94 486.31C1669.23 490 1641.87 494.085 1618.14 485.029C1605.63 480.319 1596.83 472.372 1587.85 464.253C1583.08 459.943 1578.26 455.585 1572.8 451.637C1557.43 440.633 1548.7 438.926 1529.73 441.203C1516.65 442.822 1505.62 445.599 1495.29 448.202C1472.93 453.83 1453.82 458.641 1424.25 449.171C1393.19 439.242 1366.16 420.207 1339.24 401.255C1297.76 372.042 1256.55 343.025 1201.32 347.858C1139.47 353.17 1085.4 406.862 1045.74 449.171C1027.02 469.117 1009.05 489.936 991.055 510.778C958.731 548.222 926.342 585.741 889.412 618.405C841.601 660.903 775.957 712.319 707.087 708.335C643.498 704.625 585.829 647.963 541.583 604.49C538.304 601.268 535.099 598.119 531.971 595.069C522.668 585.995 512.344 575.529 501.162 564.194C401.288 462.947 233.007 292.351 113.059 425.266C89.1542 451.827 71.8892 468.143 33.1853 470.23C3.41724 471.797 -26.8789 464.518 -57.0411 457.272C-78.0139 452.233 -98.922 447.21 -119.543 445.187C-186.132 438.627 -253.851 441.433 -321.332 444.23C-357.289 445.72 -393.179 447.208 -428.794 447.274C-570.555 447.4 -712.317 447.358 -854.079 447.316H-854.156C-925.05 447.295 -995.943 447.274 -1066.84 447.274H-1891V414.831H-1061.15C-990.687 414.831 -920.25 414.852 -849.82 414.873H-849.799H-849.779C-708.954 414.915 -568.157 414.957 -427.276 414.831C-388.243 414.758 -349.183 413.142 -310.115 411.526C-247.59 408.939 -185.048 406.351 -122.578 410.088C-108.555 410.941 -93.8649 413.304 -78.9558 415.701C-47.4733 420.764 -15.0137 425.985 14.2129 417.487C27.9059 413.512 39.7067 406.122 51.454 398.766C64.9354 390.324 78.3464 381.926 94.4663 378.783C131.083 371.574 172.823 365.313 209.629 361.708C324.074 350.606 426.157 452.738 506.931 533.55L506.941 533.56L506.986 533.605C520.06 546.685 532.574 559.205 544.493 570.595C549.923 575.794 555.568 581.388 561.419 587.186L561.468 587.235L561.478 587.245C603.65 629.042 656.522 681.442 717.142 673.615C783.925 664.888 841.222 623.148 885.427 574.579C913.383 544.042 937.817 510.847 962.268 477.628L962.269 477.626L962.273 477.621C979.14 454.706 996.016 431.78 1014.06 409.708C1047.83 368.348 1085.78 322.814 1141.94 315.415C1198.96 308.025 1244.95 334.555 1291.14 361.195C1324.4 380.379 1357.76 399.621 1395.41 406.293C1418.17 410.277 1437.53 408.949 1459.72 403.258C1467.7 401.263 1475.24 397.739 1482.75 394.234C1492.37 389.736 1501.94 385.268 1512.28 384.095C1530.49 382.008 1542.06 387.89 1555.53 400.412C1562.92 407.258 1569.24 415.048 1575.54 422.805L1575.54 422.807L1575.54 422.81ZM1620.42 505.709C1613.33 504.446 1606.68 501.89 1600.06 499.339C1593.74 496.909 1587.43 494.483 1580.77 493.187C1560.53 489.186 1542.07 492.778 1523.8 496.334C1498.74 501.211 1474.02 506.021 1445.49 491.1C1423.09 479.371 1402.67 461.307 1382.08 443.095C1343.07 408.575 1303.46 373.529 1248.56 380.111C1177.98 388.459 1116.32 441.772 1066.61 488.254C1045.51 507.967 1025.06 528.602 1004.57 549.267L1004.57 549.269C966.301 587.873 927.928 626.581 885.048 659.575C834.771 698.279 781.079 733.188 716.004 736.034C643.32 739.147 579.117 675.301 530.043 626.5L529.938 626.395C528.193 624.66 526.468 622.944 524.761 621.251C507.175 603.78 489.274 583.831 470.75 563.188C398.153 482.284 315.989 390.719 205.645 395.858C162.231 397.776 147.498 426.451 130.819 458.914C129.348 461.777 127.862 464.669 126.34 467.574C88.7341 539.419 16.5686 515.576 -50.3958 493.452C-73.9723 485.662 -96.9041 478.086 -117.456 474.973C-184.607 464.901 -254.923 468.013 -324.394 471.087C-356.988 472.53 -389.396 473.964 -421.205 474.025C-563.737 474.151 -706.185 474.109 -848.661 474.067H-848.682C-919.934 474.046 -991.193 474.025 -1062.47 474.025H-1891V506.468H-1063.61H-424.24C-394.887 506.468 -364.175 504.939 -332.978 503.385C-259.925 499.748 -184.215 495.979 -117.076 511.401C-94.0481 516.663 -69.1169 528.12 -43.7603 539.773C23.2203 570.554 93.1707 602.699 138.862 525.63C144.664 515.826 149.359 505.099 154.013 494.464L154.013 494.463C167.012 464.76 179.697 435.776 215.321 429.629C322.11 411.345 398.535 508.167 463.041 589.887L463.043 589.89C478.185 609.073 492.67 627.425 506.738 643.259C551.892 694.295 630.248 777.204 706.897 776.446C783.546 775.687 855.261 728.066 913.507 682.722C944.073 659.011 973.405 633.62 1002.74 608.225C1042.42 573.88 1082.1 539.527 1124.86 509.314C1178.74 471.369 1239.45 430.957 1307.56 430.578C1360.89 430.332 1389.99 464.057 1419.93 498.756C1436.12 517.516 1452.56 536.559 1473.19 550.673C1514.17 578.753 1551.55 563.765 1590.63 543.654C1619.47 528.665 1658.93 520.507 1689.86 535.496C1702.56 541.596 1711.51 549.817 1720.09 557.691C1734.46 570.879 1747.77 583.093 1775.8 582.737C1784.14 567.828 1792.65 553.087 1801.16 538.346L1801.18 538.311C1805.44 530.929 1809.7 523.547 1813.94 516.144C1788.81 516.144 1764.12 514.09 1739.42 512.034L1739.41 512.034C1724.39 510.784 1709.36 509.534 1694.22 508.744C1685.36 508.264 1676.43 508.305 1667.48 508.346C1651.71 508.419 1635.91 508.493 1620.42 505.709ZM1594.62 585.393C1615.49 559.78 1653.62 526.768 1688.15 558.832C1698.31 568.268 1701.79 581.751 1705.15 594.766C1710.65 616.03 1715.82 636.042 1749.24 635.101C1739.57 656.729 1736.15 666.216 1736.15 679.117C1698.5 684.581 1697.95 657.025 1697.41 629.508C1697.08 613.075 1696.76 596.654 1688.53 587.29C1675.82 572.682 1646.03 574.01 1629.91 581.599C1612.96 589.635 1608.16 601.159 1602.35 615.131C1600.61 619.302 1598.78 623.691 1596.51 628.271C1575.65 670.959 1524.99 671.718 1487.8 645.725C1473.93 636.007 1462.38 625.324 1451.2 614.983C1427.67 593.224 1405.78 572.979 1367.33 566.421C1280.81 551.622 1187.85 596.018 1116.13 638.706C1079.23 660.679 1043.69 685.004 1008.16 709.323C964.233 739.389 920.319 769.446 873.854 795.039C818.265 825.584 757.174 857.648 692.288 843.608C609.189 825.774 541.837 763.544 494.785 695.244C484.044 679.593 473.739 660.153 462.954 639.809C427.066 572.109 385.866 494.391 305.63 512.918C265.775 521.999 242.102 549.609 217.833 577.913C205.595 592.186 193.206 606.635 178.514 618.974C136.775 653.884 77.7706 671.528 25.0272 653.694C-1.28259 644.8 -24.426 629.529 -47.5615 614.262C-71.8068 598.264 -96.0433 582.271 -123.906 573.63C-156.452 563.583 -193.958 565.04 -229.733 566.43C-241.925 566.904 -253.916 567.369 -265.441 567.369H-427.655H-1064.94H-1891V534.926H-1058.87H-425.758C-372.825 534.926 -319.892 534.737 -266.959 534.547C-256.28 534.505 -245.398 534.195 -234.417 533.882C-195.647 532.778 -155.64 531.639 -118.974 542.136C-92.2529 549.809 -65.7295 564.28 -39.4806 578.601C27.085 614.919 91.8853 650.273 153.66 571.353C162.749 559.725 170.241 546.333 177.722 532.961C195.386 501.391 212.985 469.935 251.368 462.072C345.268 442.655 407.182 534.798 459.427 612.551C475.586 636.6 490.82 659.271 505.789 676.84C553.6 732.999 613.173 790.106 686.976 808.319C757.528 825.541 838.02 773.179 894.23 736.612C895.611 735.714 896.978 734.825 898.329 733.947C937.239 708.591 973.909 680.053 1010.58 651.513C1049.37 621.328 1088.16 591.141 1129.6 564.713L1132.65 562.775C1193.7 523.885 1283.42 466.739 1359.74 484.839C1388.88 491.707 1416.44 521.432 1443.95 551.101C1491.68 602.57 1539.26 653.872 1594.62 585.393Z" fill="white"/>
</svg>
