<svg width="320" height="60" viewBox="0 0 320 60" fill="none" xmlns="http://www.w3.org/2000/svg">
<g clip-path="url(#clip0)">
<path fill-rule="evenodd" clip-rule="evenodd" d="M-326.603 12.8632H-273.073C-269.016 12.8632 -264.896 12.9679 -260.751 13.0732C-247.896 13.3999 -234.783 13.733 -222.445 10.9729C-213.536 8.93665 -205.119 5.37831 -196.705 1.82175C-187.883 -1.90783 -179.065 -5.63547 -169.689 -7.60401C-145.181 -12.6882 -129.38 0.348232 -116.933 20.9458C-114.682 24.6703 -112.464 29.0617 -110.134 33.6757L-110.133 33.6766C-101.248 51.2685 -90.7299 72.0953 -70.4971 71.5273C-55.6899 71.1309 -42.2245 63.5767 -29.2225 56.2824C-25.1219 53.9819 -21.0674 51.7073 -17.0315 49.6912C15.28 33.526 49.204 23.162 85.2562 31.1143C97.1876 33.7216 108.41 38.0888 119.503 43.1078C121.47 44.0017 123.509 45.0232 125.6 46.0705C132.352 49.4526 139.643 53.1045 146.784 53.6022C162.788 54.6581 175.435 43.0964 187.223 32.3202C191.444 28.462 195.554 24.7045 199.669 21.6629C221.661 5.43246 244.492 5.30209 265.969 21.9888C268.909 24.2835 272.079 27.191 275.417 30.2531L275.42 30.2554C289.433 43.1103 306.416 58.6892 321.885 43.1078C325.982 38.9853 329.532 34.5314 332.999 30.1815L333.004 30.175L333.005 30.1735C342.307 18.5013 351.01 7.58024 368.063 5.82355C364.258 1.78224 362.968 -0.303591 362.968 -4.80117C346.273 -1.65384 338.512 9.5844 330.308 21.4627C326.279 27.2967 322.143 33.2851 316.79 38.5451C303.833 51.2491 285.948 35.0174 271.909 22.2762C267.219 18.0204 262.959 14.1541 259.455 11.8855C236.302 -3.04125 208.505 -0.0428619 188.64 19.3163C185.403 22.4574 182.34 26.1159 179.242 29.8167L179.242 29.8172C169.996 40.861 160.436 52.2811 144.978 51.4512C138.054 51.0962 131.209 47.6646 124.775 44.4394C122.938 43.5187 121.135 42.6148 119.374 41.8042C107.12 36.1985 94.7368 30.658 81.709 27.1382C47.7206 17.8171 8.83069 20.1637 -21.933 38.3495C-26.3588 40.9605 -30.7659 44.4198 -35.2645 47.951C-45.2534 55.7918 -55.6931 63.9864 -67.7883 64.0314C-85.1685 64.0806 -95.4193 44.222 -103.978 27.6417C-106.757 22.2572 -109.358 17.2184 -111.967 13.3195C-125.575 -7.01737 -143.44 -21.3575 -168.915 -17.3162C-178.842 -15.7357 -188.177 -12.0001 -197.507 -8.26676C-205.877 -4.91742 -214.242 -1.56993 -223.026 0.217869C-235.208 2.70969 -248.152 2.38148 -260.797 2.06083C-265.021 1.95371 -269.213 1.84743 -273.331 1.84743H-327.184H-541.369H-824.562V12.9936H-543.046H-326.603V12.8632ZM-324.346 33.2003H-272.17C-268.31 33.2003 -264.35 33.3238 -260.345 33.4487C-247.89 33.8372 -234.996 34.2393 -223.284 30.9841C-215.061 28.7027 -207.66 24.531 -200.259 20.3594C-192.859 16.1877 -185.458 12.0161 -177.235 9.73468C-154.146 3.34681 -142.15 18.1432 -131.251 36.7853C-130.787 37.581 -130.326 38.3732 -129.867 39.1613C-115.413 64.0029 -103.331 84.7666 -71.0132 82.9344C-49.9236 81.7611 -29.35 79.6101 -8.96991 73.7437C2.38403 70.4921 13.6511 66.0117 24.9647 61.5128C48.8039 52.033 72.8494 42.4712 98.3483 44.1509C107.474 44.7704 115.934 47.6246 124.365 50.469C131.903 53.0121 139.418 55.5473 147.364 56.4704C165.259 58.5573 181.588 48.7 197.209 39.2699C203.543 35.4457 209.762 31.6917 215.921 28.8331C239.784 17.8173 255.005 21.7282 274.804 38.2194C294.926 54.9712 312.082 67.4862 335.493 49.5611C337.682 47.8809 339.811 46.2016 341.905 44.5502C357.519 32.2351 371.169 21.4688 392.893 23.423C391.126 22.3018 389.594 21.3468 388.173 20.4611L388.16 20.4529C384.714 18.3044 381.919 16.5623 377.995 13.8412C359.348 14.1588 348.741 25.0103 337.087 36.9325L337.084 36.9352C334.39 39.6916 331.64 42.5052 328.721 45.259C309.44 63.4176 292.717 48.803 276.696 34.8017C273.854 32.3179 271.034 29.8534 268.226 27.5946C249.329 12.4072 230.432 11.1035 209.407 23.1622C203.855 26.3554 198.313 30.5179 192.658 34.7656L192.658 34.7663C178.805 45.1722 164.272 56.0887 147.235 54.5149C137.082 53.5821 127.382 49.4262 117.636 45.2505C108.995 41.5481 100.317 37.8301 91.254 36.3291C58.2729 30.7637 28.1119 43.2139 -1.79053 55.5573C-4.80884 56.8033 -7.82452 58.0481 -10.8402 59.2732C-12.1275 59.7997 -13.4163 60.3294 -14.7068 60.8599C-32.7482 68.2753 -51.138 75.834 -70.8198 76.8073C-95.8419 78.0986 -106.757 57.4929 -117.133 37.9053C-119.326 33.7641 -121.496 29.6684 -123.769 25.8347C-134.54 7.58366 -148.213 -5.06171 -170.27 -0.498945C-179.935 1.50918 -188.809 5.73887 -197.69 9.97215C-205.818 13.846 -213.951 17.7229 -222.703 19.9031C-234.831 22.9178 -247.885 22.5601 -260.629 22.2108C-264.693 22.0995 -268.725 21.989 -272.686 21.989H-325.571H-542.594H-824.562V33.1351H-542.143H-324.346V33.2003ZM-274.234 53.5367H-324.926H-542.917H-824.562V42.3905H-541.756H-326.603H-271.783C-267.941 42.3905 -263.961 42.5388 -259.918 42.6893C-247.879 43.1378 -235.292 43.6066 -224.187 40.2395C-216.634 37.9529 -210.163 33.6714 -203.693 29.3906C-197.621 25.3734 -191.55 21.3568 -184.587 18.9901C-163.304 11.82 -151.308 25.2476 -140.796 42.2602C-123.898 69.5064 -110.484 88.1485 -75.9147 87.3011C-69.326 87.1391 -62.7733 87.1462 -56.2455 87.1533C-36.5109 87.1748 -17.0046 87.196 2.57465 82.5428C16.4202 79.2751 29.8863 73.6847 43.3649 68.0892C63.2251 59.8443 83.1126 51.5881 104.282 50.7339C113.677 50.37 122.43 52.5242 131.189 54.6802C138.124 56.387 145.063 58.0949 152.33 58.5557C169.557 59.6612 185.658 51.3923 201.245 43.3867C207.716 40.0635 214.098 36.7858 220.436 34.2427C230.432 30.2014 242.299 26.4208 253.07 29.1585C261.106 31.2018 268.39 37.3287 275.046 42.9269L275.051 42.9308C276.886 44.4745 278.673 45.9779 280.415 47.3444C289.574 54.4492 299.957 62.4667 311.888 63.5748C323.702 64.6547 333.001 58.1139 342.151 51.6784L342.179 51.6588L342.19 51.6515C342.968 51.1042 343.745 50.5577 344.522 50.0168C364.129 36.4589 380.51 27.0075 404.824 31.5051C409.984 35.416 412.241 37.4367 414.692 41.6083C392.7 34.3731 375.415 37.1107 355.745 49.365C352.87 51.1567 350.028 53.1805 347.159 55.2234L347.158 55.224C339.277 60.8358 331.195 66.591 321.692 68.0724C307.825 70.2234 295.185 63.3792 284.027 56.0136C281.316 54.2367 278.632 52.1854 275.919 50.1117L275.918 50.111L275.916 50.1097C270.37 45.8705 264.702 41.5376 258.423 39.2618C248.233 35.5464 237.333 38.2188 227.337 41.2824C220.277 43.4615 213.262 46.3481 206.214 49.2485C189.439 56.1514 172.476 63.132 154.265 60.8371C150.888 60.4105 147.594 59.9002 144.345 59.3967C132.7 57.5925 121.63 55.8773 109.377 58.4254C92.4515 61.9571 76.6859 68.8892 60.8926 75.8334C43.1655 83.6279 25.4037 91.4377 5.92828 94.4712C-10.7096 97.0434 -26.9448 95.2289 -43.2252 93.4094C-54.5863 92.1396 -65.9695 90.8674 -77.527 91.0817C-78.1931 91.0951 -78.8576 91.1091 -79.5204 91.1231C-95.0311 91.4502 -109.657 91.7586 -123.511 83.1946C-134.704 76.2854 -142.037 65.6481 -149.344 55.0488L-149.349 55.0416L-149.35 55.0403C-149.83 54.343 -150.311 53.6459 -150.792 52.9501C-161.627 37.3715 -174.01 23.4225 -194.326 31.8962C-199.726 34.1217 -204.18 37.7733 -208.633 41.4235C-213.7 45.5775 -218.765 49.7298 -225.219 51.7768C-236.031 55.1978 -248.969 54.5665 -261.134 53.9729C-265.657 53.7522 -270.074 53.5367 -274.234 53.5367ZM309.889 70.9408C299.983 69.3581 291.711 64.2522 283.463 59.1603C276.084 54.6057 268.724 50.0623 260.229 48.0618C244.007 44.255 226.677 49.9222 209.974 55.3844C201.508 58.1527 193.204 60.8684 185.286 62.2715C176.128 63.9011 167.228 63.0537 158.392 62.2064L157.567 62.1304C150.038 61.4364 142.501 60.7416 134.723 61.6849C117.76 63.7338 101.727 71.657 85.9577 79.4492C77.145 83.8041 68.415 88.118 59.6519 91.3429C40.5616 98.3826 20.0525 103.662 -0.456604 103.336C-12.2588 103.153 -23.6776 100.806 -35.1178 98.4546C-39.9318 97.4652 -44.7495 96.475 -49.6012 95.6449C-60.1333 93.8309 -70.7559 93.5958 -81.2162 93.3643C-104.961 92.8388 -127.87 92.3317 -146.987 73.4177C-150.294 70.1448 -153.434 66.2846 -156.613 62.3762C-165.464 51.4952 -174.619 40.2399 -188.521 40.2399C-190.521 40.2399 -192.585 40.4355 -194.713 40.9569C-201.527 42.4874 -206.185 46.87 -210.872 51.2801C-214.569 54.7587 -218.284 58.2543 -223.09 60.3813C-233.409 64.8788 -247.663 64.1618 -260.561 63.3796C-261.549 63.3271 -262.529 63.2719 -263.499 63.2173L-263.507 63.2169C-267.347 63.0005 -271.031 62.793 -274.428 62.793H-337.374H-564.071H-824.562V73.874H-565.941H-336.535C-316.026 73.874 -295.517 73.8088 -275.008 73.6785C-270.68 73.6785 -266.108 73.8634 -261.411 74.0535L-261.013 74.0695C-248.243 74.6562 -234.57 75.1777 -223.477 71.3319C-218.382 69.5378 -214.677 66.0671 -210.98 62.603C-207.423 59.2711 -203.873 55.9454 -199.099 54.1238C-182.946 47.9565 -170.422 59.7551 -158.998 70.5172C-156.053 73.2909 -153.182 75.9957 -150.341 78.3064C-130.3 94.5955 -108.714 94.8725 -86.3035 95.16C-74.4574 95.312 -62.3812 95.4669 -50.1816 97.9915C-41.1861 99.8482 -32.4394 102.633 -23.6895 105.418C-14.6233 108.304 -5.55359 111.191 3.79999 113.049C26.7599 117.546 50.1068 115.786 72.2927 108.03C87.9648 102.554 103.895 96.2967 118.148 87.6926C121.891 85.4171 125.432 82.8368 128.969 80.2599C132.929 77.3746 136.884 74.4935 141.108 72.0489C153.023 65.1492 165.902 65.8546 178.976 66.5706L179.03 66.5736C183.932 66.8343 188.834 67.095 193.735 66.9647C205.616 66.6495 217.453 65.6486 229.294 64.6471C241.943 63.5774 254.599 62.5072 267.323 62.2715C278.808 62.0339 288.173 66.0339 297.763 70.1302C303.952 72.7737 310.234 75.4573 317.241 77.0679C318.061 77.2584 319.111 77.5824 320.364 77.9692C327.688 80.2302 341.966 84.6377 357.937 77.0679C376.641 68.2031 408.243 53.3416 426.623 64.0966C426.253 63.265 425.975 62.6206 425.752 62.1025C425.328 61.1189 425.099 60.5902 424.808 60.0991C424.469 59.5286 424.045 59.009 423.128 57.8862L423.126 57.8834C421.915 56.4005 419.845 53.8665 415.982 48.7788C393.449 38.0318 373.5 52.1961 358.008 63.196C353.768 66.2065 349.862 68.9799 346.328 70.9408C333.665 77.9676 324.098 75.0232 316.364 72.6425C314.053 71.9314 311.906 71.2706 309.889 70.9408ZM-227.476 93.0376C-260.497 94.6019 -293.905 94.6671 -326.99 94.6671H-327.016C-398.854 94.6671 -470.692 94.6671 -542.465 94.6019H-824.562V83.4558H-542.53H-327.055C-310.157 83.4558 -293.195 83.2602 -276.233 82.9995C-271.266 82.9192 -266.194 83.0245 -261.088 83.1304C-249.622 83.3685 -237.982 83.6101 -226.96 81.761C-219.554 80.5213 -215.509 77.373 -210.857 73.7518C-208.905 72.2326 -206.846 70.6302 -204.387 69.0505C-189.618 59.5339 -174.462 68.5942 -161.95 77.3938C-137.507 94.5368 -116.74 98.6432 -86.9432 97.0789C-63.428 95.8569 -43.282 104.523 -22.8286 113.322C-11.6435 118.134 -0.366455 122.985 11.6038 126.281C47.5916 136.123 91.512 124.455 120.599 101.055C124.502 97.9248 128.211 94.4345 131.913 90.9515C143.32 80.2189 154.654 69.5547 171.356 69.7023C184.608 69.8287 197.8 71.1797 210.997 72.5314C225.032 73.9687 239.072 75.4068 253.199 75.3732C258.839 75.3419 264.523 74.6334 270.187 73.9275C276.312 73.1641 282.415 72.4035 288.413 72.5051C295.799 72.6265 302.235 75.5738 308.867 78.6104L309.445 78.8752L309.764 79.021C309.956 79.1088 310.148 79.1965 310.341 79.2841C322.724 84.955 335.235 90.6258 349.166 87.7578C355.993 86.3615 362.486 83.2575 368.937 80.1738C372.726 78.3631 376.499 76.5593 380.317 75.1124C398.053 68.4638 412.37 67.3557 430.171 74.4606C432.304 77.1802 433.969 79.2248 435.651 81.2899L435.654 81.2931C437.277 83.2856 438.916 85.2974 441.006 87.9534C421.529 83.521 406.243 88.4748 387.927 94.9279C385.749 95.6861 383.528 96.5258 381.277 97.377C373.466 100.331 365.289 103.424 357.228 103.727C346.433 104.157 337.612 99.0042 328.739 93.821C326.85 92.7177 324.959 91.6131 323.046 90.5606C309.944 83.3152 298.895 85.0343 286.806 86.9154C279.971 87.9789 272.803 89.0941 264.743 88.6703C251.753 87.9717 239.045 84.8157 226.333 81.6586C210.582 77.7469 194.825 73.8335 178.515 74.591C157.926 75.5283 143.372 91.3257 129.435 106.453C123.988 112.366 118.635 118.176 113.053 122.956C83.1279 148.573 40.6907 159.002 4.83197 140.816C-4.04828 136.329 -12.6205 130.876 -21.1982 125.42C-42.7721 111.696 -64.3798 97.9515 -91.0063 99.4906C-118.416 101.12 -137.7 98.7736 -162.401 87.2363C-176.59 80.5877 -188.973 77.2635 -203.226 85.5416C-211.804 90.4955 -217.157 92.5161 -227.476 93.0376ZM362.452 117.676C353.451 116.266 346.678 110.825 339.879 105.365L339.878 105.364C337.567 103.508 335.254 101.65 332.849 99.9467C320.775 91.4246 309.891 94.0276 298.125 96.8418C290.723 98.6123 282.971 100.466 274.353 99.686C261.098 98.4733 248.544 93.8927 236.005 89.318C219.564 83.3195 203.151 77.3309 185.222 78.958C161.327 81.145 143.973 102.067 127.856 121.496C121.396 129.283 115.135 136.831 108.732 142.837C93.7048 156.981 76.356 165.781 56.3628 170.083C34.2413 174.841 18.2468 167.541 0.575378 154.309C-5.33923 149.877 -11.3277 144.879 -17.4509 139.769L-17.4524 139.768L-17.4539 139.767L-17.4553 139.765C-40.5084 120.527 -65.4703 99.6949 -95.5854 101.446C-119.835 102.88 -137.894 102.228 -161.047 95.3188C-176.074 90.8212 -185.232 92.6463 -199.034 99.3601C-207.301 103.336 -214.862 103.084 -223.633 102.792C-224.784 102.754 -225.956 102.715 -227.153 102.684C-246.279 102.197 -265.405 102.787 -284.531 103.376C-298.684 103.813 -312.837 104.249 -326.99 104.249C-374.886 104.292 -422.752 104.278 -470.628 104.263C-494.57 104.256 -518.514 104.249 -542.465 104.249H-824.562V115.395H-540.595C-516.842 115.395 -493.096 115.402 -469.352 115.409L-469.209 115.409H-469.202H-469.195H-469.188C-421.62 115.424 -374.061 115.438 -326.474 115.395C-313.509 115.37 -300.534 114.842 -287.557 114.314H-287.557C-266.837 113.471 -246.113 112.628 -225.412 113.831C-222.263 114.018 -218.939 114.474 -215.546 114.939C-207.125 116.094 -198.281 117.308 -190.65 114.613C-186.627 113.175 -183.224 111.281 -179.94 109.452C-173.696 105.976 -167.881 102.738 -159.048 103.336C-154.945 103.588 -150.902 104.232 -146.862 104.877C-142.518 105.57 -138.177 106.262 -133.766 106.465C-127.229 106.742 -120.82 105.88 -114.422 105.021C-108.763 104.26 -103.113 103.501 -97.3912 103.532C-63.3276 103.796 -34.1459 133.065 -9.29523 157.989L-9.29486 157.99L-9.2934 157.991L-9.2901 157.994C-3.51251 163.789 2.03094 169.349 7.34723 174.255C8.68665 175.491 10.0261 176.751 11.3714 178.018C23.4354 189.375 35.976 201.181 53.267 199.48C75.7755 197.264 93.8339 185.857 109.506 169.887C121.33 157.838 131.214 144.241 141.116 130.619L141.116 130.618L141.117 130.617L141.119 130.615C144.232 126.332 147.347 122.047 150.524 117.807C161.101 103.662 172.452 89.1265 190.124 84.8244C211.014 79.7491 228.877 88.9385 246.814 98.1661C257.672 103.752 268.557 109.352 280.157 111.81C292.153 114.343 300.67 111.225 310.041 107.794C314.172 106.282 318.469 104.708 323.304 103.532C331.43 101.576 336.461 104.64 342.394 110.05C344.922 112.378 347.212 114.974 349.497 117.564C354.442 123.169 359.366 128.752 366.644 131.56C375.867 135.08 386.895 132.603 395.989 129.735C402.535 127.672 408.765 125.15 414.935 122.652L414.936 122.652C427.67 117.498 440.147 112.447 454.614 111.745C453.711 107.117 452.421 104.575 449.197 99.4253C431.985 98.0207 417.742 103.242 402.428 108.856L402.427 108.857C399.263 110.017 396.054 111.193 392.764 112.331L392.014 112.581C382.94 115.598 372.116 119.198 362.452 117.676ZM353.84 127.262C357.689 132.056 361.509 136.813 367.353 139.578C376.254 143.814 386.895 141.598 395.989 139.121C403.168 137.147 410.02 134.634 416.828 132.138L416.829 132.137C428.676 127.793 440.388 123.498 453.453 122.174C451.438 128.538 448.377 134.53 445.352 140.452L445.133 140.881C434.561 141.653 424.314 143.615 414.034 145.584L414.032 145.584C407.82 146.774 401.595 147.966 395.279 148.899C394.891 148.957 394.501 149.016 394.109 149.075L394.088 149.078C385.686 150.346 376.386 151.749 368.321 148.638C364.066 147.02 361.077 144.289 358.023 141.5L358.022 141.499C356.401 140.019 354.763 138.522 352.907 137.166C347.683 133.385 344.716 132.799 338.266 133.581C333.821 134.137 330.071 135.091 326.557 135.985C318.959 137.919 312.463 139.572 302.408 136.318C291.851 132.907 282.662 126.367 273.513 119.856C259.411 109.82 245.403 99.8506 226.627 101.511C205.602 103.336 187.221 121.783 173.742 136.318C167.377 143.171 161.267 150.324 155.151 157.485C144.163 170.349 133.153 183.239 120.599 194.461C104.346 209.062 82.0314 226.726 58.62 225.357C37.004 224.083 17.4005 204.616 2.35956 189.68C1.24493 188.573 0.155334 187.492 -0.908142 186.444C-4.0705 183.326 -7.58002 179.731 -11.381 175.836C-45.3317 141.051 -102.537 82.4408 -143.311 128.105C-151.437 137.231 -157.306 142.837 -170.463 143.554C-180.582 144.092 -190.881 141.591 -201.134 139.102C-208.264 137.37 -215.371 135.645 -222.381 134.95C-245.017 132.696 -268.037 133.66 -290.976 134.621C-303.199 135.133 -315.4 135.644 -327.506 135.667C-375.705 135.71 -423.904 135.696 -472.102 135.681L-472.254 135.681C-496.303 135.674 -520.351 135.667 -544.4 135.667H-824.562V124.52H-542.465C-518.514 124.52 -494.57 124.528 -470.628 124.535H-470.621H-470.614C-422.743 124.549 -374.881 124.564 -326.99 124.52C-313.722 124.495 -300.444 123.94 -287.163 123.385C-265.909 122.496 -244.649 121.607 -223.413 122.891C-218.646 123.184 -213.652 123.996 -208.584 124.82C-197.882 126.559 -186.848 128.352 -176.913 125.433C-172.258 124.067 -168.246 121.528 -164.253 119.001C-159.67 116.101 -155.111 113.216 -149.632 112.136C-137.184 109.659 -122.995 107.508 -110.484 106.269C-71.5796 102.455 -36.8781 137.544 -9.42023 165.308C-4.96936 169.808 -0.708801 174.116 3.34845 178.035C5.19922 179.826 7.12305 181.753 9.11731 183.75L9.12244 183.756C23.4584 198.115 41.4314 216.118 62.0381 213.429C84.7401 210.431 104.217 196.091 119.244 179.404C128.747 168.913 137.053 157.509 145.364 146.097L145.365 146.096L145.366 146.095L145.367 146.094L145.367 146.093C151.101 138.22 156.837 130.344 162.971 122.76C174.451 108.551 187.35 92.907 206.44 90.3649C225.824 87.826 241.459 96.9405 257.16 106.093C268.466 112.684 279.806 119.295 292.605 121.587C300.344 122.956 306.922 122.5 314.468 120.544C317.18 119.859 319.744 118.648 322.295 117.444C325.567 115.899 328.818 114.364 332.333 113.961C338.525 113.244 342.459 115.265 347.038 119.567C349.549 121.919 351.699 124.596 353.839 127.261L353.84 127.262ZM369.095 155.743C366.684 155.309 364.425 154.431 362.172 153.554C360.024 152.719 357.881 151.886 355.615 151.441C348.734 150.066 342.461 151.3 336.249 152.522C327.731 154.197 319.328 155.85 309.631 150.724C302.013 146.694 295.073 140.488 288.076 134.231C274.813 122.371 261.348 110.33 242.686 112.592C218.694 115.46 197.734 133.776 180.836 149.746C173.663 156.518 166.709 163.608 159.746 170.708C146.736 183.971 133.692 197.27 119.115 208.606C102.024 221.903 83.7726 233.896 61.6511 234.874C36.9435 235.943 15.1186 214.008 -1.56335 197.242C-1.93274 196.871 -2.29962 196.502 -2.66388 196.136C-2.89661 195.903 -3.1283 195.67 -3.35895 195.439C-9.33734 189.436 -15.4224 182.583 -21.7191 175.491C-46.3975 147.695 -74.3281 116.236 -111.838 118.002C-126.596 118.661 -131.604 128.513 -137.274 139.666L-137.278 139.673C-137.777 140.654 -138.281 141.645 -138.797 142.641C-151.58 167.324 -176.112 159.133 -198.875 151.532C-206.89 148.855 -214.685 146.252 -221.672 145.183C-244.499 141.723 -268.401 142.792 -292.017 143.848C-303.097 144.344 -314.114 144.836 -324.927 144.857C-373.378 144.901 -421.802 144.886 -470.234 144.872H-470.241C-494.462 144.864 -518.686 144.857 -542.917 144.857H-824.562V156.003H-543.304H-325.958C-315.98 156.003 -305.54 155.478 -294.935 154.944C-270.102 153.695 -244.365 152.4 -221.543 157.698C-213.714 159.506 -205.239 163.442 -196.62 167.446C-173.851 178.021 -150.072 189.065 -134.54 162.587C-132.568 159.219 -130.972 155.533 -129.39 151.88L-129.389 151.879C-124.971 141.674 -120.659 131.716 -108.549 129.605C-72.2475 123.323 -46.2677 156.587 -24.3401 184.663C-19.1924 191.254 -14.268 197.559 -9.48584 203C5.86371 220.534 32.4998 249.019 58.5554 248.758C84.611 248.497 108.99 232.136 128.789 216.558C139.18 208.412 149.151 199.688 159.124 190.963C172.611 179.164 186.101 167.361 200.636 156.981C218.952 143.945 239.59 130.061 262.744 129.93C280.87 129.846 290.763 141.433 300.942 153.354C306.445 159.799 312.031 166.342 319.047 171.191C332.978 180.838 345.683 175.688 358.969 168.779C368.772 163.63 382.187 160.827 392.699 165.976C397.015 168.072 400.06 170.897 402.977 173.602C407.861 178.133 412.385 182.329 421.915 182.207C424.752 177.081 427.646 172.013 430.54 166.945C431.989 164.409 433.437 161.872 434.879 159.328C426.337 159.328 417.944 158.622 409.546 157.916C404.439 157.486 399.329 157.057 394.183 156.786C391.171 156.62 388.133 156.635 385.092 156.649C379.733 156.674 374.361 156.699 369.095 155.743ZM360.323 183.119C367.418 174.32 380.381 162.978 392.119 173.994C395.572 177.236 396.756 181.868 397.899 186.339C399.766 193.645 401.524 200.52 412.886 200.197C409.597 207.628 408.436 210.887 408.436 215.319C395.636 217.197 395.451 207.729 395.266 198.276C395.156 192.63 395.046 186.988 392.248 183.771C387.927 178.752 377.802 179.208 372.319 181.816C366.558 184.576 364.927 188.536 362.951 193.336C362.36 194.769 361.74 196.277 360.969 197.85C353.874 212.516 336.654 212.777 324.013 203.847C319.297 200.508 315.37 196.838 311.569 193.285C303.572 185.81 296.131 178.854 283.06 176.601C253.65 171.517 222.048 186.769 197.669 201.436C185.124 208.985 173.043 217.342 160.966 225.697C146.033 236.027 131.105 246.353 115.31 255.146C96.4136 265.64 75.6465 276.656 53.5895 271.832C25.3411 265.705 2.44568 244.325 -13.5489 220.86C-17.2001 215.483 -20.7032 208.804 -24.3693 201.814C-36.569 178.556 -50.5743 151.854 -77.8495 158.22C-91.3975 161.339 -99.4449 170.825 -107.694 180.549C-111.855 185.453 -116.066 190.417 -121.061 194.657C-135.249 206.65 -155.307 212.712 -173.236 206.585C-182.18 203.529 -190.047 198.283 -197.912 193.038C-206.154 187.541 -214.393 182.047 -223.864 179.078C-234.928 175.626 -247.677 176.127 -259.838 176.604C-263.983 176.767 -268.059 176.927 -271.977 176.927H-327.119H-543.755H-824.562V165.781H-541.691H-326.474C-308.481 165.781 -290.487 165.716 -272.493 165.65C-268.863 165.636 -265.164 165.53 -261.431 165.422C-248.252 165.043 -234.652 164.651 -222.187 168.258C-213.104 170.894 -204.088 175.865 -195.165 180.786C-172.537 193.263 -150.509 205.41 -129.509 178.296C-126.42 174.301 -123.873 169.7 -121.33 165.106C-115.325 154.259 -109.343 143.452 -96.2949 140.751C-64.3752 134.08 -43.3284 165.737 -25.5684 192.45C-20.0754 200.712 -14.8968 208.501 -9.80817 214.537C6.44434 233.831 26.6955 253.451 51.7837 259.708C75.7668 265.625 103.129 247.635 122.237 235.073C122.706 234.764 123.171 234.459 123.63 234.157C136.857 225.445 149.323 215.641 161.789 205.836C174.974 195.465 188.16 185.094 202.248 176.014L203.282 175.349C224.038 161.987 254.536 142.354 280.48 148.573C290.385 150.932 299.755 161.145 309.108 171.338C325.333 189.021 341.505 206.646 360.323 183.119Z" fill="white"/>
</g>
<defs>
<clipPath id="clip0">
<rect width="320" height="60" fill="white"/>
</clipPath>
</defs>
</svg>
